<svg width="342" height="322" viewBox="0 0 342 322" fill="none" xmlns="http://www.w3.org/2000/svg">
<circle cx="170.59" cy="293.596" r="27.5571" fill="white"/>
<path d="M158.003 295.182C158.003 294.292 158.178 293.482 158.528 292.752C158.878 292.022 159.348 291.432 159.938 290.982C160.538 290.522 161.203 290.172 161.933 289.932C162.673 289.692 163.443 289.572 164.243 289.572C164.503 289.572 164.758 289.582 165.008 289.602C165.258 289.622 165.608 289.682 166.058 289.782C166.518 289.882 166.938 290.022 167.318 290.202C167.708 290.372 168.118 290.632 168.548 290.982C168.988 291.332 169.358 291.747 169.658 292.227C170.228 293.137 170.513 294.117 170.513 295.167C170.513 296.477 170.108 297.622 169.298 298.602C168.898 299.082 168.438 299.482 167.918 299.802C167.408 300.122 166.898 300.347 166.388 300.477C165.878 300.597 165.463 300.677 165.143 300.717C164.823 300.757 164.513 300.777 164.213 300.777C163.963 300.777 163.708 300.767 163.448 300.747C163.188 300.727 162.818 300.662 162.338 300.552C161.868 300.442 161.433 300.292 161.033 300.102C160.633 299.912 160.213 299.627 159.773 299.247C159.343 298.867 158.983 298.422 158.693 297.912C158.233 297.092 158.003 296.182 158.003 295.182ZM169.358 294.957C169.358 293.707 168.898 292.652 167.978 291.792C167.058 290.922 165.808 290.487 164.228 290.487C162.918 290.487 161.823 290.812 160.943 291.462C160.493 291.792 160.073 292.272 159.683 292.902C159.303 293.522 159.113 294.297 159.113 295.227C159.113 295.867 159.228 296.472 159.458 297.042C159.658 297.552 159.938 297.997 160.298 298.377C160.668 298.747 161.028 299.027 161.378 299.217C161.738 299.397 162.133 299.542 162.563 299.652C162.993 299.762 163.328 299.827 163.568 299.847C163.818 299.867 164.053 299.877 164.273 299.877C165.163 299.877 165.943 299.737 166.613 299.457C167.293 299.167 167.823 298.787 168.203 298.317C168.593 297.837 168.883 297.317 169.073 296.757C169.263 296.187 169.358 295.587 169.358 294.957ZM173.198 293.082V296.112H176.933C177.393 296.112 177.748 296.002 177.998 295.782C178.258 295.552 178.418 295.297 178.478 295.017C178.548 294.727 178.633 294.387 178.733 293.997C178.843 293.607 178.983 293.302 179.153 293.082H180.218C179.988 293.382 179.808 293.727 179.678 294.117C179.548 294.497 179.458 294.822 179.408 295.092C179.358 295.362 179.243 295.632 179.063 295.902C178.893 296.162 178.638 296.357 178.298 296.487C178.718 296.557 179.038 296.737 179.258 297.027C179.488 297.317 179.628 297.637 179.678 297.987C179.738 298.337 179.833 298.757 179.963 299.247C180.103 299.737 180.288 300.152 180.518 300.492H179.468C179.298 300.272 179.158 299.937 179.048 299.487C178.948 299.037 178.863 298.637 178.793 298.287C178.733 297.937 178.538 297.622 178.208 297.342C177.878 297.062 177.408 296.922 176.798 296.922H173.198V300.492H172.208V293.082H173.198ZM183.13 289.902H184.195V294.462L184 297.492H183.31L183.13 294.147V289.902ZM184.24 300.492H183.085V299.007H184.24V300.492Z" fill="black"/>
<ellipse rx="130.781" ry="86.1271" transform="matrix(-0.949457 -0.313897 -0.313897 0.949457 151.206 143.425)" fill="white"/>
<ellipse cx="64.671" cy="50.7562" rx="40.0748" ry="40.2097" transform="rotate(-18.2943 64.671 50.7562)" fill="#FFEC51"/>
<path d="M70.15 56H59.35C59.35 55.1333 59.3667 54.4333 59.4 53.9C59.4667 53.3667 59.6333 52.8333 59.9 52.3C60.1667 51.7667 60.4 51.3667 60.6 51.1C60.8333 50.8333 61.3 50.4833 62 50.05C62.7333 49.5833 63.35 49.2167 63.85 48.95C64.3833 48.6833 65.3 48.2333 66.6 47.6C66.6667 47.5667 66.8667 47.4833 67.2 47.35C67.5333 47.1833 67.75 47.0667 67.85 47C67.9833 46.9 68.2 46.7667 68.5 46.6C68.8 46.4333 69.0167 46.2667 69.15 46.1C69.2833 45.9333 69.4333 45.7333 69.6 45.5C69.8 45.2667 69.9333 45 70 44.7C70.0667 44.4 70.1 44.0833 70.1 43.75C70.1 42.5833 69.6333 41.65 68.7 40.95C67.7667 40.25 66.45 39.9 64.75 39.9C63.8833 39.9 63.1333 39.9667 62.5 40.1C61.8667 40.2333 61.1833 40.4833 60.45 40.85C59.75 41.2167 59.2 41.85 58.8 42.75C58.4333 43.6167 58.25 44.7 58.25 46V46.45L48.15 45.85C48.2167 44.6167 48.35 43.45 48.55 42.35C48.75 41.3167 49.2167 40.15 49.95 38.85C50.7167 37.5167 51.8333 36.3833 53.3 35.45C55.9667 33.75 60.2 32.9 66 32.9C67.5 32.9 68.8 32.95 69.9 33.05C71.0333 33.1167 72.3167 33.3 73.75 33.6C75.1833 33.8667 76.4833 34.3333 77.65 35C78.8167 35.6333 79.8 36.4667 80.6 37.5C81.8667 39.0333 82.5 40.95 82.5 43.25C82.5 43.9167 82.4333 44.5167 82.3 45.05C82.1667 45.5833 81.8667 46.25 81.4 47.05C80.9333 47.85 80.1167 48.6833 78.95 49.55C77.8167 50.3833 76.3667 51.2333 74.6 52.1C72.8667 52.9667 71.6833 53.6667 71.05 54.2C70.45 54.7 70.15 55.3 70.15 56ZM70.2 69H59.45V59.8H70.2V69Z" fill="black"/>
<path d="M66.902 117.234H72.985C73.711 117.234 74.2757 117.509 74.679 118.059C74.921 118.389 75.042 118.763 75.042 119.181C75.042 119.658 74.91 120.043 74.646 120.336C74.382 120.629 74.063 120.813 73.689 120.886C74.2317 120.93 74.657 121.143 74.965 121.524C75.2803 121.905 75.438 122.36 75.438 122.888C75.438 123.636 75.1777 124.197 74.657 124.571C74.261 124.857 73.6927 125 72.952 125H66.902V117.234ZM67.661 117.861V120.611H72.402C72.754 120.611 73.051 120.578 73.293 120.512C73.5423 120.446 73.7587 120.303 73.942 120.083C74.14 119.848 74.239 119.562 74.239 119.225C74.239 118.939 74.1693 118.682 74.03 118.455C73.8687 118.206 73.667 118.044 73.425 117.971C73.183 117.898 72.8787 117.861 72.512 117.861H67.661ZM67.661 121.271V124.351H72.963C73.711 124.351 74.2133 124.116 74.47 123.647C74.602 123.405 74.668 123.152 74.668 122.888C74.668 122.514 74.569 122.195 74.371 121.931C74.2243 121.733 74.0227 121.583 73.766 121.48C73.5167 121.377 73.293 121.319 73.095 121.304C72.9043 121.282 72.6513 121.271 72.336 121.271H67.661ZM82.4889 122.877L83.2149 123.152C82.9216 123.629 82.6466 123.988 82.3899 124.23C81.7519 124.824 80.8866 125.121 79.7939 125.121C79.3466 125.121 78.9396 125.066 78.5729 124.956C78.3749 124.897 78.1806 124.817 77.9899 124.714C77.7992 124.604 77.5829 124.45 77.3409 124.252C77.0989 124.047 76.9009 123.772 76.7469 123.427C76.6002 123.082 76.5269 122.69 76.5269 122.25C76.5269 121.509 76.7652 120.886 77.2419 120.38C77.5572 120.043 77.9569 119.786 78.4409 119.61C78.9249 119.434 79.4162 119.346 79.9149 119.346C81.3522 119.346 82.4156 119.925 83.1049 121.084L82.3789 121.381C82.3129 121.242 82.1846 121.066 81.9939 120.853C81.8032 120.64 81.6089 120.475 81.4109 120.358C80.9929 120.101 80.4869 119.973 79.8929 119.973C79.3356 119.973 78.8662 120.083 78.4849 120.303C78.1109 120.516 77.8359 120.776 77.6599 121.084C77.4472 121.429 77.3409 121.814 77.3409 122.239C77.3409 122.965 77.5939 123.522 78.0999 123.911C78.6132 124.292 79.2036 124.483 79.8709 124.483C80.2376 124.483 80.6079 124.417 80.9819 124.285C81.3632 124.153 81.6749 123.97 81.9169 123.735C82.1076 123.544 82.2982 123.258 82.4889 122.877ZM89.7488 123.108L90.3208 123.515C90.0055 123.97 89.6425 124.329 89.2318 124.593C88.6378 124.96 87.9632 125.143 87.2078 125.143C86.3645 125.143 85.6532 124.956 85.0738 124.582C84.3185 124.083 83.9408 123.295 83.9408 122.217C83.9408 121.381 84.2415 120.703 84.8428 120.182C85.0555 119.991 85.3672 119.812 85.7778 119.643C86.1958 119.474 86.6578 119.39 87.1638 119.39C88.2198 119.39 89.0192 119.702 89.5618 120.325C90.0458 120.882 90.2988 121.561 90.3208 122.36H84.6998C84.6998 123.02 84.9455 123.541 85.4368 123.922C85.9282 124.296 86.5442 124.483 87.2848 124.483C88.3775 124.483 89.1988 124.025 89.7488 123.108ZM84.7218 121.766H89.4408C89.3308 121.238 89.0742 120.805 88.6708 120.468C88.3335 120.189 87.8018 120.05 87.0758 120.05C86.3645 120.05 85.7998 120.226 85.3818 120.578C85.0152 120.886 84.7952 121.282 84.7218 121.766ZM94.682 122.283C94.682 121.924 94.737 121.594 94.847 121.293C94.9643 120.992 95.1147 120.743 95.298 120.545C95.4813 120.34 95.65 120.182 95.804 120.072C95.958 119.955 96.1157 119.856 96.277 119.775C96.7903 119.518 97.421 119.39 98.169 119.39C99.1297 119.39 99.907 119.636 100.501 120.127C100.89 120.45 101.154 120.816 101.293 121.227C101.44 121.638 101.513 122.004 101.513 122.327C101.513 122.877 101.363 123.368 101.062 123.801C100.813 124.16 100.442 124.476 99.951 124.747C99.4597 125.018 98.8363 125.154 98.081 125.154C97.773 125.154 97.487 125.128 97.223 125.077C96.299 124.908 95.6097 124.494 95.155 123.834C94.8397 123.372 94.682 122.855 94.682 122.283ZM100.699 122.283C100.699 121.572 100.45 121.011 99.951 120.6C99.4523 120.189 98.84 119.984 98.114 119.984C97.476 119.984 96.9223 120.138 96.453 120.446C95.8223 120.864 95.507 121.48 95.507 122.294C95.507 122.822 95.6537 123.277 95.947 123.658C96.1817 123.959 96.4897 124.182 96.871 124.329C97.2523 124.468 97.652 124.538 98.07 124.538C99.0013 124.538 99.709 124.263 100.193 123.713C100.53 123.324 100.699 122.848 100.699 122.283ZM108.069 116.915H108.762C108.762 117.839 107.999 118.301 106.474 118.301C105.447 118.301 104.666 118.506 104.131 118.917C103.603 119.328 103.28 119.984 103.163 120.886C103.398 120.461 103.772 120.134 104.285 119.907C104.806 119.68 105.363 119.566 105.957 119.566C106.976 119.566 107.768 119.775 108.333 120.193C108.978 120.662 109.301 121.352 109.301 122.261C109.301 122.972 109.059 123.592 108.575 124.12C107.937 124.809 107.035 125.154 105.869 125.154C104.784 125.154 103.944 124.89 103.35 124.362C102.763 123.827 102.47 123.035 102.47 121.986C102.47 121.304 102.525 120.717 102.635 120.226C102.752 119.727 102.914 119.32 103.119 119.005C103.324 118.682 103.603 118.422 103.955 118.224C104.314 118.019 104.699 117.872 105.11 117.784C105.521 117.689 106.019 117.619 106.606 117.575C106.811 117.56 106.987 117.542 107.134 117.52C107.281 117.498 107.431 117.465 107.585 117.421C107.746 117.377 107.867 117.315 107.948 117.234C108.029 117.146 108.069 117.04 108.069 116.915ZM108.498 122.283C108.498 121.601 108.271 121.077 107.816 120.71C107.361 120.343 106.775 120.16 106.056 120.16C105.675 120.16 105.312 120.204 104.967 120.292C104.622 120.373 104.362 120.479 104.186 120.611C103.592 121.051 103.295 121.612 103.295 122.294C103.295 122.822 103.442 123.277 103.735 123.658C103.97 123.959 104.278 124.186 104.659 124.34C105.048 124.487 105.447 124.56 105.858 124.56C106.811 124.56 107.523 124.292 107.992 123.757C108.329 123.376 108.498 122.884 108.498 122.283ZM111.721 125V120.16H109.917V119.566H112.447V121.722H114.757C115.116 121.722 115.406 121.729 115.626 121.744C115.846 121.759 116.088 121.795 116.352 121.854C116.616 121.913 116.821 122.001 116.968 122.118C117.115 122.228 117.236 122.389 117.331 122.602C117.434 122.807 117.485 123.064 117.485 123.372C117.485 123.878 117.331 124.278 117.023 124.571C116.715 124.857 116.308 125 115.802 125H111.721ZM112.447 124.406H115.131C115.718 124.406 116.136 124.344 116.385 124.219C116.634 124.094 116.759 123.805 116.759 123.35C116.759 123.123 116.719 122.939 116.638 122.8C116.565 122.653 116.444 122.547 116.275 122.481C116.106 122.415 115.93 122.371 115.747 122.349C115.571 122.327 115.336 122.316 115.043 122.316H112.447V124.406ZM124.07 123.108L124.642 123.515C124.327 123.97 123.964 124.329 123.553 124.593C122.959 124.96 122.284 125.143 121.529 125.143C120.686 125.143 119.974 124.956 119.395 124.582C118.64 124.083 118.262 123.295 118.262 122.217C118.262 121.381 118.563 120.703 119.164 120.182C119.377 119.991 119.688 119.812 120.099 119.643C120.517 119.474 120.979 119.39 121.485 119.39C122.541 119.39 123.34 119.702 123.883 120.325C124.367 120.882 124.62 121.561 124.642 122.36H119.021C119.021 123.02 119.267 123.541 119.758 123.922C120.249 124.296 120.865 124.483 121.606 124.483C122.699 124.483 123.52 124.025 124.07 123.108ZM119.043 121.766H123.762C123.652 121.238 123.395 120.805 122.992 120.468C122.655 120.189 122.123 120.05 121.397 120.05C120.686 120.05 120.121 120.226 119.703 120.578C119.336 120.886 119.116 121.282 119.043 121.766ZM126.6 119.566V121.788H129.339C129.676 121.788 129.937 121.707 130.12 121.546C130.311 121.377 130.428 121.19 130.472 120.985C130.523 120.772 130.586 120.523 130.659 120.237C130.74 119.951 130.842 119.727 130.967 119.566H131.748C131.579 119.786 131.447 120.039 131.352 120.325C131.257 120.604 131.191 120.842 131.154 121.04C131.117 121.238 131.033 121.436 130.901 121.634C130.776 121.825 130.589 121.968 130.34 122.063C130.648 122.114 130.883 122.246 131.044 122.459C131.213 122.672 131.315 122.906 131.352 123.163C131.396 123.42 131.466 123.728 131.561 124.087C131.664 124.446 131.799 124.751 131.968 125H131.198C131.073 124.839 130.971 124.593 130.89 124.263C130.817 123.933 130.754 123.64 130.703 123.383C130.659 123.126 130.516 122.895 130.274 122.69C130.032 122.485 129.687 122.382 129.24 122.382H126.6V125H125.874V119.566H126.6ZM138.372 120.16H135.787V125H135.061V120.16H132.476V119.566H138.372V120.16ZM139.291 125V119.566H140.017V121.722H141.997C142.356 121.722 142.639 121.729 142.844 121.744C143.057 121.751 143.295 121.784 143.559 121.843C143.83 121.902 144.036 121.99 144.175 122.107C144.314 122.217 144.432 122.378 144.527 122.591C144.63 122.804 144.681 123.064 144.681 123.372C144.681 123.922 144.534 124.333 144.241 124.604C143.955 124.868 143.555 125 143.042 125H139.291ZM140.017 124.406H142.371C142.936 124.406 143.335 124.344 143.57 124.219C143.812 124.094 143.933 123.805 143.933 123.35C143.933 122.917 143.801 122.639 143.537 122.514C143.273 122.382 142.855 122.316 142.283 122.316H140.017V124.406ZM146.287 125H145.561V119.566H146.287V125ZM157.438 125H156.712V122.382H152.048V125H151.322V119.566H152.048V121.788H156.712V119.566H157.438V125ZM165.558 125C165.309 125.029 165.067 125.044 164.832 125.044C164.708 125.044 164.598 125.026 164.502 124.989C164.407 124.952 164.33 124.912 164.271 124.868C164.22 124.817 164.172 124.754 164.128 124.681C164.092 124.6 164.066 124.538 164.051 124.494C164.037 124.443 164.026 124.384 164.018 124.318L163.996 124.208C163.769 124.377 163.571 124.509 163.402 124.604C162.742 124.963 161.98 125.143 161.114 125.143C160.132 125.143 159.442 124.905 159.046 124.428C158.804 124.135 158.683 123.783 158.683 123.372C158.683 122.793 158.911 122.345 159.365 122.03C159.717 121.788 160.242 121.634 160.938 121.568C161.635 121.495 162.654 121.451 163.996 121.436C163.996 121.062 163.934 120.787 163.809 120.611C163.553 120.252 162.867 120.072 161.752 120.072C161.21 120.072 160.781 120.12 160.465 120.215C160.157 120.31 159.945 120.431 159.827 120.578C159.71 120.717 159.607 120.923 159.519 121.194L158.749 121.15C158.925 120.505 159.255 120.054 159.739 119.797C160.216 119.54 160.865 119.412 161.686 119.412C163.006 119.412 163.879 119.647 164.304 120.116C164.546 120.395 164.667 120.794 164.667 121.315V123.702C164.667 123.995 164.719 124.193 164.821 124.296C164.931 124.391 165.115 124.439 165.371 124.439H165.558V125ZM163.996 122.052H163.655C162.101 122.052 161.012 122.147 160.388 122.338C159.772 122.529 159.464 122.881 159.464 123.394C159.464 123.783 159.64 124.065 159.992 124.241C160.344 124.41 160.748 124.494 161.202 124.494C161.635 124.494 162.119 124.41 162.654 124.241C163.197 124.065 163.578 123.79 163.798 123.416C163.93 123.181 163.996 122.822 163.996 122.338V122.052ZM175.42 122.877L176.146 123.152C175.852 123.629 175.577 123.988 175.321 124.23C174.683 124.824 173.817 125.121 172.725 125.121C172.277 125.121 171.87 125.066 171.504 124.956C171.306 124.897 171.111 124.817 170.921 124.714C170.73 124.604 170.514 124.45 170.272 124.252C170.03 124.047 169.832 123.772 169.678 123.427C169.531 123.082 169.458 122.69 169.458 122.25C169.458 121.509 169.696 120.886 170.173 120.38C170.488 120.043 170.888 119.786 171.372 119.61C171.856 119.434 172.347 119.346 172.846 119.346C174.283 119.346 175.346 119.925 176.036 121.084L175.31 121.381C175.244 121.242 175.115 121.066 174.925 120.853C174.734 120.64 174.54 120.475 174.342 120.358C173.924 120.101 173.418 119.973 172.824 119.973C172.266 119.973 171.797 120.083 171.416 120.303C171.042 120.516 170.767 120.776 170.591 121.084C170.378 121.429 170.272 121.814 170.272 122.239C170.272 122.965 170.525 123.522 171.031 123.911C171.544 124.292 172.134 124.483 172.802 124.483C173.168 124.483 173.539 124.417 173.913 124.285C174.294 124.153 174.606 123.97 174.848 123.735C175.038 123.544 175.229 123.258 175.42 122.877ZM182.382 120.16H179.797V125H179.071V120.16H176.486V119.566H182.382V120.16ZM184.028 119.566V120.413C184.211 120.193 184.438 120.01 184.71 119.863C184.981 119.709 185.252 119.606 185.524 119.555C185.802 119.496 186.022 119.46 186.184 119.445C186.352 119.423 186.51 119.412 186.657 119.412C187.251 119.412 187.793 119.537 188.285 119.786C188.776 120.028 189.154 120.395 189.418 120.886C189.645 121.297 189.759 121.759 189.759 122.272C189.759 123.093 189.491 123.761 188.956 124.274C188.369 124.846 187.548 125.132 186.492 125.132C186.11 125.132 185.74 125.084 185.381 124.989C185.021 124.886 184.743 124.762 184.545 124.615C184.325 124.454 184.152 124.303 184.028 124.164V127.057H183.324V119.566H184.028ZM188.956 122.261C188.956 121.924 188.882 121.597 188.736 121.282C188.362 120.475 187.61 120.072 186.481 120.072C185.63 120.072 185.01 120.285 184.622 120.71C184.233 121.128 184.039 121.671 184.039 122.338C184.039 122.976 184.215 123.467 184.567 123.812C185.029 124.252 185.656 124.472 186.448 124.472C187.43 124.472 188.123 124.201 188.527 123.658C188.813 123.277 188.956 122.811 188.956 122.261ZM197.624 125C197.375 125.029 197.133 125.044 196.898 125.044C196.773 125.044 196.663 125.026 196.568 124.989C196.473 124.952 196.396 124.912 196.337 124.868C196.286 124.817 196.238 124.754 196.194 124.681C196.157 124.6 196.132 124.538 196.117 124.494C196.102 124.443 196.091 124.384 196.084 124.318L196.062 124.208C195.835 124.377 195.637 124.509 195.468 124.604C194.808 124.963 194.045 125.143 193.18 125.143C192.197 125.143 191.508 124.905 191.112 124.428C190.87 124.135 190.749 123.783 190.749 123.372C190.749 122.793 190.976 122.345 191.431 122.03C191.783 121.788 192.307 121.634 193.004 121.568C193.701 121.495 194.72 121.451 196.062 121.436C196.062 121.062 196 120.787 195.875 120.611C195.618 120.252 194.933 120.072 193.818 120.072C193.275 120.072 192.846 120.12 192.531 120.215C192.223 120.31 192.01 120.431 191.893 120.578C191.776 120.717 191.673 120.923 191.585 121.194L190.815 121.15C190.991 120.505 191.321 120.054 191.805 119.797C192.282 119.54 192.931 119.412 193.752 119.412C195.072 119.412 195.945 119.647 196.37 120.116C196.612 120.395 196.733 120.794 196.733 121.315V123.702C196.733 123.995 196.784 124.193 196.887 124.296C196.997 124.391 197.18 124.439 197.437 124.439H197.624V125ZM196.062 122.052H195.721C194.166 122.052 193.077 122.147 192.454 122.338C191.838 122.529 191.53 122.881 191.53 123.394C191.53 123.783 191.706 124.065 192.058 124.241C192.41 124.41 192.813 124.494 193.268 124.494C193.701 124.494 194.185 124.41 194.72 124.241C195.263 124.065 195.644 123.79 195.864 123.416C195.996 123.181 196.062 122.822 196.062 122.338V122.052ZM204.543 125H203.817V122.382H199.153V125H198.427V119.566H199.153V121.788H203.817V119.566H204.543V125ZM212.377 125H211.651V120.875L206.855 124.34V125H206.129V119.566H206.855V123.57L211.651 120.105V119.566H212.377V125ZM220.076 119.566V124.406H221.088V126.32H220.406V125H213.96V119.566H214.686V124.406H219.35V119.566H220.076ZM227.85 123.108L228.422 123.515C228.107 123.97 227.744 124.329 227.333 124.593C226.739 124.96 226.065 125.143 225.309 125.143C224.466 125.143 223.755 124.956 223.175 124.582C222.42 124.083 222.042 123.295 222.042 122.217C222.042 121.381 222.343 120.703 222.944 120.182C223.157 119.991 223.469 119.812 223.879 119.643C224.297 119.474 224.759 119.39 225.265 119.39C226.321 119.39 227.121 119.702 227.663 120.325C228.147 120.882 228.4 121.561 228.422 122.36H222.801C222.801 123.02 223.047 123.541 223.538 123.922C224.03 124.296 224.646 124.483 225.386 124.483C226.479 124.483 227.3 124.025 227.85 123.108ZM222.823 121.766H227.542C227.432 121.238 227.176 120.805 226.772 120.468C226.435 120.189 225.903 120.05 225.177 120.05C224.466 120.05 223.901 120.226 223.483 120.578C223.117 120.886 222.897 121.282 222.823 121.766ZM72.402 136.877L73.128 137.152C72.8347 137.629 72.5597 137.988 72.303 138.23C71.665 138.824 70.7997 139.121 69.707 139.121C69.2597 139.121 68.8527 139.066 68.486 138.956C68.288 138.897 68.0937 138.817 67.903 138.714C67.7123 138.604 67.496 138.45 67.254 138.252C67.012 138.047 66.814 137.772 66.66 137.427C66.5133 137.082 66.44 136.69 66.44 136.25C66.44 135.509 66.6783 134.886 67.155 134.38C67.4703 134.043 67.87 133.786 68.354 133.61C68.838 133.434 69.3293 133.346 69.828 133.346C71.2653 133.346 72.3287 133.925 73.018 135.084L72.292 135.381C72.226 135.242 72.0977 135.066 71.907 134.853C71.7163 134.64 71.522 134.475 71.324 134.358C70.906 134.101 70.4 133.973 69.806 133.973C69.2487 133.973 68.7793 134.083 68.398 134.303C68.024 134.516 67.749 134.776 67.573 135.084C67.3603 135.429 67.254 135.814 67.254 136.239C67.254 136.965 67.507 137.522 68.013 137.911C68.5263 138.292 69.1167 138.483 69.784 138.483C70.1507 138.483 70.521 138.417 70.895 138.285C71.2763 138.153 71.588 137.97 71.83 137.735C72.0207 137.544 72.2113 137.258 72.402 136.877ZM74.1289 133.566H78.3529C78.9029 133.566 79.3136 133.694 79.5849 133.951C79.8636 134.208 80.0029 134.545 80.0029 134.963C80.0029 135.542 79.6802 135.935 79.0349 136.14C79.8122 136.272 80.2009 136.719 80.2009 137.482C80.2009 137.973 80.0212 138.351 79.6619 138.615C79.3099 138.872 78.8369 139 78.2429 139H74.1289V133.566ZM74.8549 134.16V135.876H78.0009C78.8369 135.876 79.2549 135.586 79.2549 135.007C79.2549 134.442 78.8516 134.16 78.0449 134.16H74.8549ZM74.8549 136.47V138.406H77.9789C78.1916 138.406 78.3749 138.395 78.5289 138.373C78.6829 138.351 78.8332 138.311 78.9799 138.252C79.1339 138.193 79.2512 138.098 79.3319 137.966C79.4126 137.834 79.4529 137.669 79.4529 137.471C79.4529 137.112 79.3209 136.855 79.0569 136.701C78.7929 136.547 78.3566 136.47 77.7479 136.47H74.8549ZM81.0716 136.283C81.0716 135.924 81.1266 135.594 81.2366 135.293C81.354 134.992 81.5043 134.743 81.6876 134.545C81.871 134.34 82.0396 134.182 82.1936 134.072C82.3476 133.955 82.5053 133.856 82.6666 133.775C83.18 133.518 83.8106 133.39 84.5586 133.39C85.5193 133.39 86.2966 133.636 86.8906 134.127C87.2793 134.45 87.5433 134.816 87.6826 135.227C87.8293 135.638 87.9026 136.004 87.9026 136.327C87.9026 136.877 87.7523 137.368 87.4516 137.801C87.2023 138.16 86.832 138.476 86.3406 138.747C85.8493 139.018 85.226 139.154 84.4706 139.154C84.1626 139.154 83.8766 139.128 83.6126 139.077C82.6886 138.908 81.9993 138.494 81.5446 137.834C81.2293 137.372 81.0716 136.855 81.0716 136.283ZM87.0886 136.283C87.0886 135.572 86.8393 135.011 86.3406 134.6C85.842 134.189 85.2296 133.984 84.5036 133.984C83.8656 133.984 83.312 134.138 82.8426 134.446C82.212 134.864 81.8966 135.48 81.8966 136.294C81.8966 136.822 82.0433 137.277 82.3366 137.658C82.5713 137.959 82.8793 138.182 83.2606 138.329C83.642 138.468 84.0416 138.538 84.4596 138.538C85.391 138.538 86.0986 138.263 86.5826 137.713C86.92 137.324 87.0886 136.848 87.0886 136.283ZM94.4587 130.915H95.1517C95.1517 131.839 94.3891 132.301 92.8637 132.301C91.8371 132.301 91.0561 132.506 90.5207 132.917C89.9927 133.328 89.6701 133.984 89.5527 134.886C89.7874 134.461 90.1614 134.134 90.6747 133.907C91.1954 133.68 91.7527 133.566 92.3467 133.566C93.3661 133.566 94.1581 133.775 94.7227 134.193C95.3681 134.662 95.6907 135.352 95.6907 136.261C95.6907 136.972 95.4487 137.592 94.9647 138.12C94.3267 138.809 93.4247 139.154 92.2587 139.154C91.1734 139.154 90.3337 138.89 89.7397 138.362C89.1531 137.827 88.8597 137.035 88.8597 135.986C88.8597 135.304 88.9147 134.717 89.0247 134.226C89.1421 133.727 89.3034 133.32 89.5087 133.005C89.7141 132.682 89.9927 132.422 90.3447 132.224C90.7041 132.019 91.0891 131.872 91.4997 131.784C91.9104 131.689 92.4091 131.619 92.9957 131.575C93.2011 131.56 93.3771 131.542 93.5237 131.52C93.6704 131.498 93.8207 131.465 93.9747 131.421C94.1361 131.377 94.2571 131.315 94.3377 131.234C94.4184 131.146 94.4587 131.04 94.4587 130.915ZM94.8877 136.283C94.8877 135.601 94.6604 135.077 94.2057 134.71C93.7511 134.343 93.1644 134.16 92.4457 134.16C92.0644 134.16 91.7014 134.204 91.3567 134.292C91.0121 134.373 90.7517 134.479 90.5757 134.611C89.9817 135.051 89.6847 135.612 89.6847 136.294C89.6847 136.822 89.8314 137.277 90.1247 137.658C90.3594 137.959 90.6674 138.186 91.0487 138.34C91.4374 138.487 91.8371 138.56 92.2477 138.56C93.2011 138.56 93.9124 138.292 94.3817 137.757C94.7191 137.376 94.8877 136.884 94.8877 136.283ZM96.6478 136.283C96.6478 135.924 96.7028 135.594 96.8128 135.293C96.9301 134.992 97.0805 134.743 97.2638 134.545C97.4471 134.34 97.6158 134.182 97.7698 134.072C97.9238 133.955 98.0815 133.856 98.2428 133.775C98.7561 133.518 99.3868 133.39 100.135 133.39C101.095 133.39 101.873 133.636 102.467 134.127C102.855 134.45 103.119 134.816 103.259 135.227C103.405 135.638 103.479 136.004 103.479 136.327C103.479 136.877 103.328 137.368 103.028 137.801C102.778 138.16 102.408 138.476 101.917 138.747C101.425 139.018 100.802 139.154 100.047 139.154C99.7388 139.154 99.4528 139.128 99.1888 139.077C98.2648 138.908 97.5755 138.494 97.1208 137.834C96.8055 137.372 96.6478 136.855 96.6478 136.283ZM102.665 136.283C102.665 135.572 102.415 135.011 101.917 134.6C101.418 134.189 100.806 133.984 100.08 133.984C99.4418 133.984 98.8881 134.138 98.4188 134.446C97.7881 134.864 97.4728 135.48 97.4728 136.294C97.4728 136.822 97.6195 137.277 97.9128 137.658C98.1475 137.959 98.4555 138.182 98.8368 138.329C99.2181 138.468 99.6178 138.538 100.036 138.538C100.967 138.538 101.675 138.263 102.159 137.713C102.496 137.324 102.665 136.848 102.665 136.283ZM110.453 138.406H111.443V140.32H110.761V139H104.755V140.32H104.073V138.406C104.63 138.252 105.015 137.856 105.228 137.218C105.448 136.573 105.562 135.7 105.569 134.6V133.566H110.453V138.406ZM109.727 134.16H106.251V134.6C106.251 135.583 106.167 136.408 105.998 137.075C105.829 137.742 105.587 138.186 105.272 138.406H109.727V134.16ZM118.788 139H118.062V136.382H113.398V139H112.672V133.566H113.398V135.788H118.062V133.566H118.788V139ZM120.055 136.283C120.055 135.924 120.11 135.594 120.22 135.293C120.337 134.992 120.488 134.743 120.671 134.545C120.854 134.34 121.023 134.182 121.177 134.072C121.331 133.955 121.489 133.856 121.65 133.775C122.163 133.518 122.794 133.39 123.542 133.39C124.503 133.39 125.28 133.636 125.874 134.127C126.263 134.45 126.527 134.816 126.666 135.227C126.813 135.638 126.886 136.004 126.886 136.327C126.886 136.877 126.736 137.368 126.435 137.801C126.186 138.16 125.815 138.476 125.324 138.747C124.833 139.018 124.209 139.154 123.454 139.154C123.146 139.154 122.86 139.128 122.596 139.077C121.672 138.908 120.983 138.494 120.528 137.834C120.213 137.372 120.055 136.855 120.055 136.283ZM126.072 136.283C126.072 135.572 125.823 135.011 125.324 134.6C124.825 134.189 124.213 133.984 123.487 133.984C122.849 133.984 122.295 134.138 121.826 134.446C121.195 134.864 120.88 135.48 120.88 136.294C120.88 136.822 121.027 137.277 121.32 137.658C121.555 137.959 121.863 138.182 122.244 138.329C122.625 138.468 123.025 138.538 123.443 138.538C124.374 138.538 125.082 138.263 125.566 137.713C125.903 137.324 126.072 136.848 126.072 136.283ZM137.726 139H137V134.16H132.336V139H131.61V133.566H137.726V139ZM144.846 137.108L145.418 137.515C145.102 137.97 144.739 138.329 144.329 138.593C143.735 138.96 143.06 139.143 142.305 139.143C141.461 139.143 140.75 138.956 140.171 138.582C139.415 138.083 139.038 137.295 139.038 136.217C139.038 135.381 139.338 134.703 139.94 134.182C140.152 133.991 140.464 133.812 140.875 133.643C141.293 133.474 141.755 133.39 142.261 133.39C143.317 133.39 144.116 133.702 144.659 134.325C145.143 134.882 145.396 135.561 145.418 136.36H139.797C139.797 137.02 140.042 137.541 140.534 137.922C141.025 138.296 141.641 138.483 142.382 138.483C143.474 138.483 144.296 138.025 144.846 137.108ZM139.819 135.766H144.538C144.428 135.238 144.171 134.805 143.768 134.468C143.43 134.189 142.899 134.05 142.173 134.05C141.461 134.05 140.897 134.226 140.479 134.578C140.112 134.886 139.892 135.282 139.819 135.766ZM147.375 133.566V134.413C147.559 134.193 147.786 134.01 148.057 133.863C148.329 133.709 148.6 133.606 148.871 133.555C149.15 133.496 149.37 133.46 149.531 133.445C149.7 133.423 149.858 133.412 150.004 133.412C150.598 133.412 151.141 133.537 151.632 133.786C152.124 134.028 152.501 134.395 152.765 134.886C152.993 135.297 153.106 135.759 153.106 136.272C153.106 137.093 152.839 137.761 152.303 138.274C151.717 138.846 150.895 139.132 149.839 139.132C149.458 139.132 149.088 139.084 148.728 138.989C148.369 138.886 148.09 138.762 147.892 138.615C147.672 138.454 147.5 138.303 147.375 138.164V141.057H146.671V133.566H147.375ZM152.303 136.261C152.303 135.924 152.23 135.597 152.083 135.282C151.709 134.475 150.958 134.072 149.828 134.072C148.978 134.072 148.358 134.285 147.969 134.71C147.581 135.128 147.386 135.671 147.386 136.338C147.386 136.976 147.562 137.467 147.914 137.812C148.376 138.252 149.003 138.472 149.795 138.472C150.778 138.472 151.471 138.201 151.874 137.658C152.16 137.277 152.303 136.811 152.303 136.261ZM159.971 137.108L160.543 137.515C160.227 137.97 159.864 138.329 159.454 138.593C158.86 138.96 158.185 139.143 157.43 139.143C156.586 139.143 155.875 138.956 155.296 138.582C154.54 138.083 154.163 137.295 154.163 136.217C154.163 135.381 154.463 134.703 155.065 134.182C155.277 133.991 155.589 133.812 156 133.643C156.418 133.474 156.88 133.39 157.386 133.39C158.442 133.39 159.241 133.702 159.784 134.325C160.268 134.882 160.521 135.561 160.543 136.36H154.922C154.922 137.02 155.167 137.541 155.659 137.922C156.15 138.296 156.766 138.483 157.507 138.483C158.599 138.483 159.421 138.025 159.971 137.108ZM154.944 135.766H159.663C159.553 135.238 159.296 134.805 158.893 134.468C158.555 134.189 158.024 134.05 157.298 134.05C156.586 134.05 156.022 134.226 155.604 134.578C155.237 134.886 155.017 135.282 154.944 135.766ZM167.472 138.406H168.462V140.32H167.78V139H161.774V140.32H161.092V138.406C161.65 138.252 162.035 137.856 162.247 137.218C162.467 136.573 162.581 135.7 162.588 134.6V133.566H167.472V138.406ZM166.746 134.16H163.27V134.6C163.27 135.583 163.186 136.408 163.017 137.075C162.849 137.742 162.607 138.186 162.291 138.406H166.746V134.16ZM169.691 133.566H173.915C174.465 133.566 174.876 133.694 175.147 133.951C175.426 134.208 175.565 134.545 175.565 134.963C175.565 135.542 175.243 135.935 174.597 136.14C175.375 136.272 175.763 136.719 175.763 137.482C175.763 137.973 175.584 138.351 175.224 138.615C174.872 138.872 174.399 139 173.805 139H169.691V133.566ZM170.417 134.16V135.876H173.563C174.399 135.876 174.817 135.586 174.817 135.007C174.817 134.442 174.414 134.16 173.607 134.16H170.417ZM170.417 136.47V138.406H173.541C173.754 138.406 173.937 138.395 174.091 138.373C174.245 138.351 174.396 138.311 174.542 138.252C174.696 138.193 174.814 138.098 174.894 137.966C174.975 137.834 175.015 137.669 175.015 137.471C175.015 137.112 174.883 136.855 174.619 136.701C174.355 136.547 173.919 136.47 173.31 136.47H170.417ZM183.201 139H182.475V134.875L177.679 138.34V139H176.953V133.566H177.679V137.57L182.475 134.105V133.566H183.201V139ZM189.8 133.566V134.16H185.51V139H184.784V133.566H189.8ZM197.259 139C197.009 139.029 196.767 139.044 196.533 139.044C196.408 139.044 196.298 139.026 196.203 138.989C196.107 138.952 196.03 138.912 195.972 138.868C195.92 138.817 195.873 138.754 195.829 138.681C195.792 138.6 195.766 138.538 195.752 138.494C195.737 138.443 195.726 138.384 195.719 138.318L195.697 138.208C195.469 138.377 195.271 138.509 195.103 138.604C194.443 138.963 193.68 139.143 192.815 139.143C191.832 139.143 191.143 138.905 190.747 138.428C190.505 138.135 190.384 137.783 190.384 137.372C190.384 136.793 190.611 136.345 191.066 136.03C191.418 135.788 191.942 135.634 192.639 135.568C193.335 135.495 194.355 135.451 195.697 135.436C195.697 135.062 195.634 134.787 195.51 134.611C195.253 134.252 194.567 134.072 193.453 134.072C192.91 134.072 192.481 134.12 192.166 134.215C191.858 134.31 191.645 134.431 191.528 134.578C191.41 134.717 191.308 134.923 191.22 135.194L190.45 135.15C190.626 134.505 190.956 134.054 191.44 133.797C191.916 133.54 192.565 133.412 193.387 133.412C194.707 133.412 195.579 133.647 196.005 134.116C196.247 134.395 196.368 134.794 196.368 135.315V137.702C196.368 137.995 196.419 138.193 196.522 138.296C196.632 138.391 196.815 138.439 197.072 138.439H197.259V139ZM195.697 136.052H195.356C193.801 136.052 192.712 136.147 192.089 136.338C191.473 136.529 191.165 136.881 191.165 137.394C191.165 137.783 191.341 138.065 191.693 138.241C192.045 138.41 192.448 138.494 192.903 138.494C193.335 138.494 193.819 138.41 194.355 138.241C194.897 138.065 195.279 137.79 195.499 137.416C195.631 137.181 195.697 136.822 195.697 136.338V136.052ZM198.788 135.788H200.559C200.683 135.047 201.057 134.464 201.681 134.039C202.311 133.606 203.085 133.39 204.002 133.39C205.043 133.39 205.85 133.643 206.422 134.149C206.796 134.472 207.041 134.805 207.159 135.15C207.283 135.495 207.346 135.887 207.346 136.327C207.346 136.877 207.195 137.368 206.895 137.801C206.645 138.16 206.275 138.476 205.784 138.747C205.292 139.018 204.669 139.154 203.914 139.154C202.924 139.154 202.117 138.908 201.494 138.417C200.87 137.918 200.544 137.24 200.515 136.382H198.788V139H198.062V133.566H198.788V135.788ZM206.543 136.283C206.543 135.902 206.469 135.564 206.323 135.271C206.176 134.978 205.974 134.747 205.718 134.578C205.468 134.402 205.193 134.27 204.893 134.182C204.599 134.094 204.284 134.05 203.947 134.05C203.272 134.05 202.718 134.182 202.286 134.446C202.044 134.593 201.82 134.82 201.615 135.128C201.417 135.436 201.318 135.825 201.318 136.294C201.318 136.448 201.354 136.653 201.428 136.91C201.501 137.167 201.626 137.409 201.802 137.636C202.249 138.208 202.949 138.494 203.903 138.494C204.856 138.494 205.564 138.234 206.026 137.713C206.37 137.332 206.543 136.855 206.543 136.283ZM213.857 134.16H211.272V139H210.546V134.16H207.961V133.566H213.857V134.16ZM220.386 136.877L221.112 137.152C220.819 137.629 220.544 137.988 220.287 138.23C219.649 138.824 218.784 139.121 217.691 139.121C217.244 139.121 216.837 139.066 216.47 138.956C216.272 138.897 216.078 138.817 215.887 138.714C215.697 138.604 215.48 138.45 215.238 138.252C214.996 138.047 214.798 137.772 214.644 137.427C214.498 137.082 214.424 136.69 214.424 136.25C214.424 135.509 214.663 134.886 215.139 134.38C215.455 134.043 215.854 133.786 216.338 133.61C216.822 133.434 217.314 133.346 217.812 133.346C219.25 133.346 220.313 133.925 221.002 135.084L220.276 135.381C220.21 135.242 220.082 135.066 219.891 134.853C219.701 134.64 219.506 134.475 219.308 134.358C218.89 134.101 218.384 133.973 217.79 133.973C217.233 133.973 216.764 134.083 216.382 134.303C216.008 134.516 215.733 134.776 215.557 135.084C215.345 135.429 215.238 135.814 215.238 136.239C215.238 136.965 215.491 137.522 215.997 137.911C216.511 138.292 217.101 138.483 217.768 138.483C218.135 138.483 218.505 138.417 218.879 138.285C219.261 138.153 219.572 137.97 219.814 137.735C220.005 137.544 220.196 137.258 220.386 136.877ZM226.623 136.8H224.302C223.928 136.8 223.631 136.884 223.411 137.053C223.191 137.222 223.048 137.416 222.982 137.636C222.924 137.849 222.843 138.094 222.74 138.373C222.645 138.652 222.528 138.861 222.388 139H221.563C221.732 138.861 221.871 138.659 221.981 138.395C222.099 138.131 222.187 137.885 222.245 137.658C222.304 137.423 222.407 137.203 222.553 136.998C222.707 136.793 222.905 136.664 223.147 136.613C222.773 136.54 222.509 136.4 222.355 136.195C222.201 135.99 222.124 135.7 222.124 135.326C222.124 134.776 222.286 134.347 222.608 134.039C222.938 133.724 223.422 133.566 224.06 133.566H227.349V139H226.623V136.8ZM226.623 134.16H224.027C223.727 134.16 223.455 134.255 223.213 134.446C222.971 134.629 222.85 134.919 222.85 135.315C222.85 135.66 222.957 135.894 223.169 136.019C223.389 136.144 223.683 136.206 224.049 136.206H226.623V134.16ZM229.21 137.911H230.035V139.286C230.035 139.557 229.965 139.781 229.826 139.957C229.694 140.14 229.496 140.247 229.232 140.276V139.88C229.496 139.843 229.628 139.583 229.628 139.099V139H229.21V137.911ZM73.326 153C73.0767 153.029 72.8347 153.044 72.6 153.044C72.4753 153.044 72.3653 153.026 72.27 152.989C72.1747 152.952 72.0977 152.912 72.039 152.868C71.9877 152.817 71.94 152.754 71.896 152.681C71.8593 152.6 71.8337 152.538 71.819 152.494C71.8043 152.443 71.7933 152.384 71.786 152.318L71.764 152.208C71.5367 152.377 71.3387 152.509 71.17 152.604C70.51 152.963 69.7473 153.143 68.882 153.143C67.8993 153.143 67.21 152.905 66.814 152.428C66.572 152.135 66.451 151.783 66.451 151.372C66.451 150.793 66.6783 150.345 67.133 150.03C67.485 149.788 68.0093 149.634 68.706 149.568C69.4027 149.495 70.422 149.451 71.764 149.436C71.764 149.062 71.7017 148.787 71.577 148.611C71.3203 148.252 70.6347 148.072 69.52 148.072C68.9773 148.072 68.5483 148.12 68.233 148.215C67.925 148.31 67.7123 148.431 67.595 148.578C67.4777 148.717 67.375 148.923 67.287 149.194L66.517 149.15C66.693 148.505 67.023 148.054 67.507 147.797C67.9837 147.54 68.6327 147.412 69.454 147.412C70.774 147.412 71.6467 147.647 72.072 148.116C72.314 148.395 72.435 148.794 72.435 149.315V151.702C72.435 151.995 72.4863 152.193 72.589 152.296C72.699 152.391 72.8823 152.439 73.139 152.439H73.326V153ZM71.764 150.052H71.423C69.8683 150.052 68.7793 150.147 68.156 150.338C67.54 150.529 67.232 150.881 67.232 151.394C67.232 151.783 67.408 152.065 67.76 152.241C68.112 152.41 68.5153 152.494 68.97 152.494C69.4027 152.494 69.8867 152.41 70.422 152.241C70.9647 152.065 71.346 151.79 71.566 151.416C71.698 151.181 71.764 150.822 71.764 150.338V150.052ZM82.8132 148.16H80.2282V153H79.5022V148.16H76.9172V147.566H82.8132V148.16ZM90.2664 153C90.0171 153.029 89.7751 153.044 89.5404 153.044C89.4158 153.044 89.3058 153.026 89.2104 152.989C89.1151 152.952 89.0381 152.912 88.9794 152.868C88.9281 152.817 88.8804 152.754 88.8364 152.681C88.7998 152.6 88.7741 152.538 88.7594 152.494C88.7448 152.443 88.7338 152.384 88.7264 152.318L88.7044 152.208C88.4771 152.377 88.2791 152.509 88.1104 152.604C87.4504 152.963 86.6878 153.143 85.8224 153.143C84.8398 153.143 84.1504 152.905 83.7544 152.428C83.5124 152.135 83.3914 151.783 83.3914 151.372C83.3914 150.793 83.6188 150.345 84.0734 150.03C84.4254 149.788 84.9498 149.634 85.6464 149.568C86.3431 149.495 87.3624 149.451 88.7044 149.436C88.7044 149.062 88.6421 148.787 88.5174 148.611C88.2608 148.252 87.5751 148.072 86.4604 148.072C85.9178 148.072 85.4888 148.12 85.1734 148.215C84.8654 148.31 84.6528 148.431 84.5354 148.578C84.4181 148.717 84.3154 148.923 84.2274 149.194L83.4574 149.15C83.6334 148.505 83.9634 148.054 84.4474 147.797C84.9241 147.54 85.5731 147.412 86.3944 147.412C87.7144 147.412 88.5871 147.647 89.0124 148.116C89.2544 148.395 89.3754 148.794 89.3754 149.315V151.702C89.3754 151.995 89.4268 152.193 89.5294 152.296C89.6394 152.391 89.8228 152.439 90.0794 152.439H90.2664V153ZM88.7044 150.052H88.3634C86.8088 150.052 85.7198 150.147 85.0964 150.338C84.4804 150.529 84.1724 150.881 84.1724 151.394C84.1724 151.783 84.3484 152.065 84.7004 152.241C85.0524 152.41 85.4558 152.494 85.9104 152.494C86.3431 152.494 86.8271 152.41 87.3624 152.241C87.9051 152.065 88.2864 151.79 88.5064 151.416C88.6384 151.181 88.7044 150.822 88.7044 150.338V150.052ZM91.7953 147.566V149.788H94.5343C94.8717 149.788 95.132 149.707 95.3153 149.546C95.506 149.377 95.6233 149.19 95.6673 148.985C95.7187 148.772 95.781 148.523 95.8543 148.237C95.935 147.951 96.0377 147.727 96.1623 147.566H96.9433C96.7747 147.786 96.6427 148.039 96.5473 148.325C96.452 148.604 96.386 148.842 96.3493 149.04C96.3127 149.238 96.2283 149.436 96.0963 149.634C95.9717 149.825 95.7847 149.968 95.5353 150.063C95.8433 150.114 96.078 150.246 96.2393 150.459C96.408 150.672 96.5107 150.906 96.5473 151.163C96.5913 151.42 96.661 151.728 96.7563 152.087C96.859 152.446 96.9947 152.751 97.1633 153H96.3933C96.2687 152.839 96.166 152.593 96.0853 152.263C96.012 151.933 95.9497 151.64 95.8983 151.383C95.8543 151.126 95.7113 150.895 95.4693 150.69C95.2273 150.485 94.8827 150.382 94.4353 150.382H91.7953V153H91.0693V147.566H91.7953ZM101.818 147.566H102.5V149.788H103.776C104.121 149.788 104.385 149.707 104.568 149.546C104.751 149.377 104.861 149.19 104.898 148.985C104.935 148.772 104.986 148.523 105.052 148.237C105.118 147.951 105.21 147.727 105.327 147.566H106.108C105.954 147.786 105.833 148.039 105.745 148.325C105.664 148.604 105.613 148.842 105.591 149.04C105.569 149.238 105.492 149.436 105.36 149.634C105.228 149.825 105.034 149.968 104.777 150.063C105.056 150.1 105.276 150.188 105.437 150.327C105.598 150.466 105.708 150.642 105.767 150.855C105.833 151.068 105.881 151.288 105.91 151.515C105.947 151.742 106.002 151.995 106.075 152.274C106.156 152.553 106.266 152.795 106.405 153H105.635C105.525 152.861 105.441 152.67 105.382 152.428C105.331 152.186 105.287 151.955 105.25 151.735C105.213 151.508 105.151 151.291 105.063 151.086C104.975 150.873 104.817 150.705 104.59 150.58C104.363 150.448 104.058 150.382 103.677 150.382H102.5V153H101.818V150.382H100.641C100.26 150.382 99.9554 150.448 99.7281 150.58C99.5007 150.705 99.3431 150.873 99.2551 151.086C99.1671 151.291 99.1047 151.508 99.0681 151.735C99.0314 151.955 98.9837 152.186 98.9251 152.428C98.8737 152.67 98.7931 152.861 98.6831 153H97.9131C98.0817 152.758 98.2101 152.465 98.2981 152.12C98.3861 151.775 98.4447 151.486 98.4741 151.251C98.5107 151.009 98.6134 150.774 98.7821 150.547C98.9507 150.32 99.2037 150.158 99.5411 150.063C99.2844 149.968 99.0901 149.825 98.9581 149.634C98.8261 149.436 98.7491 149.238 98.7271 149.04C98.7051 148.842 98.6501 148.604 98.5621 148.325C98.4814 148.039 98.3641 147.786 98.2101 147.566H98.9911C99.1084 147.727 99.2001 147.951 99.2661 148.237C99.3321 148.523 99.3834 148.772 99.4201 148.985C99.4567 149.19 99.5667 149.377 99.7501 149.546C99.9334 149.707 100.197 149.788 100.542 149.788H101.818V147.566ZM113.102 151.108L113.674 151.515C113.359 151.97 112.996 152.329 112.585 152.593C111.991 152.96 111.317 153.143 110.561 153.143C109.718 153.143 109.007 152.956 108.427 152.582C107.672 152.083 107.294 151.295 107.294 150.217C107.294 149.381 107.595 148.703 108.196 148.182C108.409 147.991 108.721 147.812 109.131 147.643C109.549 147.474 110.011 147.39 110.517 147.39C111.573 147.39 112.373 147.702 112.915 148.325C113.399 148.882 113.652 149.561 113.674 150.36H108.053C108.053 151.02 108.299 151.541 108.79 151.922C109.282 152.296 109.898 152.483 110.638 152.483C111.731 152.483 112.552 152.025 113.102 151.108ZM108.075 149.766H112.794C112.684 149.238 112.428 148.805 112.024 148.468C111.687 148.189 111.155 148.05 110.429 148.05C109.718 148.05 109.153 148.226 108.735 148.578C108.369 148.886 108.149 149.282 108.075 149.766ZM124.603 153H123.877V148.875L119.081 152.34V153H118.355V147.566H119.081V151.57L123.877 148.105V147.566H124.603V153ZM127.825 150.382V149.788H129.475C129.761 149.788 130.021 149.759 130.256 149.7C130.681 149.546 130.894 149.315 130.894 149.007C130.894 148.831 130.846 148.684 130.751 148.567C130.663 148.442 130.556 148.351 130.432 148.292C130.314 148.226 130.153 148.178 129.948 148.149C129.75 148.112 129.585 148.09 129.453 148.083C129.321 148.076 129.156 148.072 128.958 148.072C127.748 148.072 127 148.387 126.714 149.018L125.911 148.798C126.351 147.874 127.366 147.412 128.958 147.412C129.94 147.412 130.633 147.537 131.037 147.786C131.44 148.028 131.642 148.409 131.642 148.93C131.642 149.487 131.319 149.861 130.674 150.052C131.033 150.133 131.319 150.283 131.532 150.503C131.752 150.723 131.862 151.016 131.862 151.383C131.862 151.508 131.851 151.629 131.829 151.746C131.807 151.856 131.741 152.003 131.631 152.186C131.521 152.362 131.37 152.516 131.18 152.648C130.989 152.78 130.703 152.894 130.322 152.989C129.948 153.084 129.508 153.132 129.002 153.132C127.146 153.132 126.054 152.641 125.724 151.658L126.516 151.482C126.633 151.79 126.893 152.032 127.297 152.208C127.737 152.384 128.298 152.472 128.98 152.472C129.632 152.472 130.149 152.38 130.531 152.197C130.919 152.014 131.114 151.742 131.114 151.383C131.114 150.716 130.549 150.382 129.42 150.382H127.825ZM139.408 153H138.748V148.215L136.537 153H135.987L133.765 148.237V153H133.105V147.566H134.183L136.273 152.285L138.33 147.566H139.408V153ZM146.564 151.108L147.136 151.515C146.821 151.97 146.458 152.329 146.047 152.593C145.453 152.96 144.779 153.143 144.023 153.143C143.18 153.143 142.469 152.956 141.889 152.582C141.134 152.083 140.756 151.295 140.756 150.217C140.756 149.381 141.057 148.703 141.658 148.182C141.871 147.991 142.183 147.812 142.593 147.643C143.011 147.474 143.473 147.39 143.979 147.39C145.035 147.39 145.835 147.702 146.377 148.325C146.861 148.882 147.114 149.561 147.136 150.36H141.515C141.515 151.02 141.761 151.541 142.252 151.922C142.744 152.296 143.36 152.483 144.1 152.483C145.193 152.483 146.014 152.025 146.564 151.108ZM141.537 149.766H146.256C146.146 149.238 145.89 148.805 145.486 148.468C145.149 148.189 144.617 148.05 143.891 148.05C143.18 148.05 142.615 148.226 142.197 148.578C141.831 148.886 141.611 149.282 141.537 149.766ZM154.484 153H153.758V150.382H149.094V153H148.368V147.566H149.094V149.788H153.758V147.566H154.484V153ZM160.58 150.8H158.259C157.885 150.8 157.588 150.884 157.368 151.053C157.148 151.222 157.005 151.416 156.939 151.636C156.881 151.849 156.8 152.094 156.697 152.373C156.602 152.652 156.485 152.861 156.345 153H155.52C155.689 152.861 155.828 152.659 155.938 152.395C156.056 152.131 156.144 151.885 156.202 151.658C156.261 151.423 156.364 151.203 156.51 150.998C156.664 150.793 156.862 150.664 157.104 150.613C156.73 150.54 156.466 150.4 156.312 150.195C156.158 149.99 156.081 149.7 156.081 149.326C156.081 148.776 156.243 148.347 156.565 148.039C156.895 147.724 157.379 147.566 158.017 147.566H161.306V153H160.58V150.8ZM160.58 148.16H157.984C157.684 148.16 157.412 148.255 157.17 148.446C156.928 148.629 156.807 148.919 156.807 149.315C156.807 149.66 156.914 149.894 157.126 150.019C157.346 150.144 157.64 150.206 158.006 150.206H160.58V148.16ZM163.618 149.788H165.389C165.513 149.047 165.887 148.464 166.511 148.039C167.141 147.606 167.915 147.39 168.832 147.39C169.873 147.39 170.68 147.643 171.252 148.149C171.626 148.472 171.871 148.805 171.989 149.15C172.113 149.495 172.176 149.887 172.176 150.327C172.176 150.877 172.025 151.368 171.725 151.801C171.475 152.16 171.105 152.476 170.614 152.747C170.122 153.018 169.499 153.154 168.744 153.154C167.754 153.154 166.947 152.908 166.324 152.417C165.7 151.918 165.374 151.24 165.345 150.382H163.618V153H162.892V147.566H163.618V149.788ZM171.373 150.283C171.373 149.902 171.299 149.564 171.153 149.271C171.006 148.978 170.804 148.747 170.548 148.578C170.298 148.402 170.023 148.27 169.723 148.182C169.429 148.094 169.114 148.05 168.777 148.05C168.102 148.05 167.548 148.182 167.116 148.446C166.874 148.593 166.65 148.82 166.445 149.128C166.247 149.436 166.148 149.825 166.148 150.294C166.148 150.448 166.184 150.653 166.258 150.91C166.331 151.167 166.456 151.409 166.632 151.636C167.079 152.208 167.779 152.494 168.733 152.494C169.686 152.494 170.394 152.234 170.856 151.713C171.2 151.332 171.373 150.855 171.373 150.283ZM178.687 148.16H176.102V153H175.376V148.16H172.791V147.566H178.687V148.16ZM185.216 150.877L185.942 151.152C185.649 151.629 185.374 151.988 185.117 152.23C184.479 152.824 183.614 153.121 182.521 153.121C182.074 153.121 181.667 153.066 181.3 152.956C181.102 152.897 180.908 152.817 180.717 152.714C180.527 152.604 180.31 152.45 180.068 152.252C179.826 152.047 179.628 151.772 179.474 151.427C179.328 151.082 179.254 150.69 179.254 150.25C179.254 149.509 179.493 148.886 179.969 148.38C180.285 148.043 180.684 147.786 181.168 147.61C181.652 147.434 182.144 147.346 182.642 147.346C184.08 147.346 185.143 147.925 185.832 149.084L185.106 149.381C185.04 149.242 184.912 149.066 184.721 148.853C184.531 148.64 184.336 148.475 184.138 148.358C183.72 148.101 183.214 147.973 182.62 147.973C182.063 147.973 181.594 148.083 181.212 148.303C180.838 148.516 180.563 148.776 180.387 149.084C180.175 149.429 180.068 149.814 180.068 150.239C180.068 150.965 180.321 151.522 180.827 151.911C181.341 152.292 181.931 152.483 182.598 152.483C182.965 152.483 183.335 152.417 183.709 152.285C184.091 152.153 184.402 151.97 184.644 151.735C184.835 151.544 185.026 151.258 185.216 150.877ZM191.453 150.8H189.132C188.758 150.8 188.461 150.884 188.241 151.053C188.021 151.222 187.878 151.416 187.812 151.636C187.754 151.849 187.673 152.094 187.57 152.373C187.475 152.652 187.358 152.861 187.218 153H186.393C186.562 152.861 186.701 152.659 186.811 152.395C186.929 152.131 187.017 151.885 187.075 151.658C187.134 151.423 187.237 151.203 187.383 150.998C187.537 150.793 187.735 150.664 187.977 150.613C187.603 150.54 187.339 150.4 187.185 150.195C187.031 149.99 186.954 149.7 186.954 149.326C186.954 148.776 187.116 148.347 187.438 148.039C187.768 147.724 188.252 147.566 188.89 147.566H192.179V153H191.453V150.8ZM191.453 148.16H188.857C188.557 148.16 188.285 148.255 188.043 148.446C187.801 148.629 187.68 148.919 187.68 149.315C187.68 149.66 187.787 149.894 187.999 150.019C188.219 150.144 188.513 150.206 188.879 150.206H191.453V148.16ZM72.908 167H72.182V162.16H67.518V167H66.792V161.566H72.908V167ZM74.1751 164.283C74.1751 163.924 74.2301 163.594 74.3401 163.293C74.4575 162.992 74.6078 162.743 74.7911 162.545C74.9745 162.34 75.1431 162.182 75.2971 162.072C75.4511 161.955 75.6088 161.856 75.7701 161.775C76.2835 161.518 76.9141 161.39 77.6621 161.39C78.6228 161.39 79.4001 161.636 79.9941 162.127C80.3828 162.45 80.6468 162.816 80.7861 163.227C80.9328 163.638 81.0061 164.004 81.0061 164.327C81.0061 164.877 80.8558 165.368 80.5551 165.801C80.3058 166.16 79.9355 166.476 79.4441 166.747C78.9528 167.018 78.3295 167.154 77.5741 167.154C77.2661 167.154 76.9801 167.128 76.7161 167.077C75.7921 166.908 75.1028 166.494 74.6481 165.834C74.3328 165.372 74.1751 164.855 74.1751 164.283ZM80.1921 164.283C80.1921 163.572 79.9428 163.011 79.4441 162.6C78.9455 162.189 78.3331 161.984 77.6071 161.984C76.9691 161.984 76.4155 162.138 75.9461 162.446C75.3155 162.864 75.0001 163.48 75.0001 164.294C75.0001 164.822 75.1468 165.277 75.4401 165.658C75.6748 165.959 75.9828 166.182 76.3641 166.329C76.7455 166.468 77.1451 166.538 77.5631 166.538C78.4945 166.538 79.2021 166.263 79.6861 165.713C80.0235 165.324 80.1921 164.848 80.1921 164.283ZM86.4565 161.566V163.788H89.1955C89.5328 163.788 89.7931 163.707 89.9765 163.546C90.1671 163.377 90.2845 163.19 90.3285 162.985C90.3798 162.772 90.4421 162.523 90.5155 162.237C90.5961 161.951 90.6988 161.727 90.8235 161.566H91.6045C91.4358 161.786 91.3038 162.039 91.2085 162.325C91.1131 162.604 91.0471 162.842 91.0105 163.04C90.9738 163.238 90.8895 163.436 90.7575 163.634C90.6328 163.825 90.4458 163.968 90.1965 164.063C90.5045 164.114 90.7391 164.246 90.9005 164.459C91.0691 164.672 91.1718 164.906 91.2085 165.163C91.2525 165.42 91.3221 165.728 91.4175 166.087C91.5201 166.446 91.6558 166.751 91.8245 167H91.0545C90.9298 166.839 90.8271 166.593 90.7465 166.263C90.6731 165.933 90.6108 165.64 90.5595 165.383C90.5155 165.126 90.3725 164.895 90.1305 164.69C89.8885 164.485 89.5438 164.382 89.0965 164.382H86.4565V167H85.7305V161.566H86.4565ZM98.8882 167H98.1622V162.16H94.4112V163.018C94.4112 164.499 94.2902 165.533 94.0482 166.12C93.8062 166.707 93.3369 167 92.6402 167H92.3102V166.406H92.6402C92.9335 166.399 93.1572 166.296 93.3112 166.098C93.4725 165.893 93.5862 165.552 93.6522 165.075C93.7182 164.598 93.7512 163.913 93.7512 163.018V161.566H98.8882V167ZM106.717 167H105.991V162.875L101.195 166.34V167H100.469V161.566H101.195V165.57L105.991 162.105V161.566H106.717V167ZM109.026 161.566V163.788H111.765C112.102 163.788 112.362 163.707 112.546 163.546C112.736 163.377 112.854 163.19 112.898 162.985C112.949 162.772 113.011 162.523 113.085 162.237C113.165 161.951 113.268 161.727 113.393 161.566H114.174C114.005 161.786 113.873 162.039 113.778 162.325C113.682 162.604 113.616 162.842 113.58 163.04C113.543 163.238 113.459 163.436 113.327 163.634C113.202 163.825 113.015 163.968 112.766 164.063C113.074 164.114 113.308 164.246 113.47 164.459C113.638 164.672 113.741 164.906 113.778 165.163C113.822 165.42 113.891 165.728 113.987 166.087C114.089 166.446 114.225 166.751 114.394 167H113.624C113.499 166.839 113.396 166.593 113.316 166.263C113.242 165.933 113.18 165.64 113.129 165.383C113.085 165.126 112.942 164.895 112.7 164.69C112.458 164.485 112.113 164.382 111.666 164.382H109.026V167H108.3V161.566H109.026ZM120.149 161.566H120.93L118.367 167.418C118.249 167.697 118.158 167.898 118.092 168.023C118.033 168.148 117.956 168.28 117.861 168.419C117.765 168.558 117.659 168.672 117.542 168.76C117.226 169.009 116.717 169.134 116.013 169.134C115.653 169.134 115.279 169.09 114.891 169.002V168.32C115.272 168.452 115.639 168.518 115.991 168.518C116.277 168.518 116.519 168.485 116.717 168.419C116.915 168.36 117.076 168.261 117.201 168.122C117.325 167.99 117.417 167.869 117.476 167.759C117.534 167.649 117.604 167.495 117.685 167.297L114.77 161.566H115.639L118.07 166.494L120.149 161.566ZM131.435 167H130.709V162.875L125.913 166.34V167H125.187V161.566H125.913V165.57L130.709 162.105V161.566H131.435V167ZM142.076 164.877L142.802 165.152C142.508 165.629 142.233 165.988 141.977 166.23C141.339 166.824 140.473 167.121 139.381 167.121C138.933 167.121 138.526 167.066 138.16 166.956C137.962 166.897 137.767 166.817 137.577 166.714C137.386 166.604 137.17 166.45 136.928 166.252C136.686 166.047 136.488 165.772 136.334 165.427C136.187 165.082 136.114 164.69 136.114 164.25C136.114 163.509 136.352 162.886 136.829 162.38C137.144 162.043 137.544 161.786 138.028 161.61C138.512 161.434 139.003 161.346 139.502 161.346C140.939 161.346 142.002 161.925 142.692 163.084L141.966 163.381C141.9 163.242 141.771 163.066 141.581 162.853C141.39 162.64 141.196 162.475 140.998 162.358C140.58 162.101 140.074 161.973 139.48 161.973C138.922 161.973 138.453 162.083 138.072 162.303C137.698 162.516 137.423 162.776 137.247 163.084C137.034 163.429 136.928 163.814 136.928 164.239C136.928 164.965 137.181 165.522 137.687 165.911C138.2 166.292 138.79 166.483 139.458 166.483C139.824 166.483 140.195 166.417 140.569 166.285C140.95 166.153 141.262 165.97 141.504 165.735C141.694 165.544 141.885 165.258 142.076 164.877ZM144.529 161.566V163.788H147.268C147.605 163.788 147.865 163.707 148.049 163.546C148.239 163.377 148.357 163.19 148.401 162.985C148.452 162.772 148.514 162.523 148.588 162.237C148.668 161.951 148.771 161.727 148.896 161.566H149.677C149.508 161.786 149.376 162.039 149.281 162.325C149.185 162.604 149.119 162.842 149.083 163.04C149.046 163.238 148.962 163.436 148.83 163.634C148.705 163.825 148.518 163.968 148.269 164.063C148.577 164.114 148.811 164.246 148.973 164.459C149.141 164.672 149.244 164.906 149.281 165.163C149.325 165.42 149.394 165.728 149.49 166.087C149.592 166.446 149.728 166.751 149.897 167H149.127C149.002 166.839 148.899 166.593 148.819 166.263C148.745 165.933 148.683 165.64 148.632 165.383C148.588 165.126 148.445 164.895 148.203 164.69C147.961 164.485 147.616 164.382 147.169 164.382H144.529V167H143.803V161.566H144.529ZM151.79 161.566V162.413C151.974 162.193 152.201 162.01 152.472 161.863C152.744 161.709 153.015 161.606 153.286 161.555C153.565 161.496 153.785 161.46 153.946 161.445C154.115 161.423 154.273 161.412 154.419 161.412C155.013 161.412 155.556 161.537 156.047 161.786C156.539 162.028 156.916 162.395 157.18 162.886C157.408 163.297 157.521 163.759 157.521 164.272C157.521 165.093 157.254 165.761 156.718 166.274C156.132 166.846 155.31 167.132 154.254 167.132C153.873 167.132 153.503 167.084 153.143 166.989C152.784 166.886 152.505 166.762 152.307 166.615C152.087 166.454 151.915 166.303 151.79 166.164V169.057H151.086V161.566H151.79ZM156.718 164.261C156.718 163.924 156.645 163.597 156.498 163.282C156.124 162.475 155.373 162.072 154.243 162.072C153.393 162.072 152.773 162.285 152.384 162.71C151.996 163.128 151.801 163.671 151.801 164.338C151.801 164.976 151.977 165.467 152.329 165.812C152.791 166.252 153.418 166.472 154.21 166.472C155.193 166.472 155.886 166.201 156.289 165.658C156.575 165.277 156.718 164.811 156.718 164.261ZM158.534 164.283C158.534 163.924 158.589 163.594 158.699 163.293C158.816 162.992 158.966 162.743 159.15 162.545C159.333 162.34 159.502 162.182 159.656 162.072C159.81 161.955 159.967 161.856 160.129 161.775C160.642 161.518 161.273 161.39 162.021 161.39C162.981 161.39 163.759 161.636 164.353 162.127C164.741 162.45 165.005 162.816 165.145 163.227C165.291 163.638 165.365 164.004 165.365 164.327C165.365 164.877 165.214 165.368 164.914 165.801C164.664 166.16 164.294 166.476 163.803 166.747C163.311 167.018 162.688 167.154 161.933 167.154C161.625 167.154 161.339 167.128 161.075 167.077C160.151 166.908 159.461 166.494 159.007 165.834C158.691 165.372 158.534 164.855 158.534 164.283ZM164.551 164.283C164.551 163.572 164.301 163.011 163.803 162.6C163.304 162.189 162.692 161.984 161.966 161.984C161.328 161.984 160.774 162.138 160.305 162.446C159.674 162.864 159.359 163.48 159.359 164.294C159.359 164.822 159.505 165.277 159.799 165.658C160.033 165.959 160.341 166.182 160.723 166.329C161.104 166.468 161.504 166.538 161.922 166.538C162.853 166.538 163.561 166.263 164.045 165.713C164.382 165.324 164.551 164.848 164.551 164.283ZM172.537 167H171.811V162.16H168.06V163.018C168.06 164.499 167.939 165.533 167.697 166.12C167.455 166.707 166.985 167 166.289 167H165.959V166.406H166.289C166.582 166.399 166.806 166.296 166.96 166.098C167.121 165.893 167.235 165.552 167.301 165.075C167.367 164.598 167.4 163.913 167.4 163.018V161.566H172.537V167ZM178.704 161.566H179.485L176.922 167.418C176.805 167.697 176.713 167.898 176.647 168.023C176.589 168.148 176.512 168.28 176.416 168.419C176.321 168.558 176.215 168.672 176.097 168.76C175.782 169.009 175.272 169.134 174.568 169.134C174.209 169.134 173.835 169.09 173.446 169.002V168.32C173.828 168.452 174.194 168.518 174.546 168.518C174.832 168.518 175.074 168.485 175.272 168.419C175.47 168.36 175.632 168.261 175.756 168.122C175.881 167.99 175.973 167.869 176.031 167.759C176.09 167.649 176.16 167.495 176.24 167.297L173.325 161.566H174.194L176.625 166.494L178.704 161.566ZM180.728 167H179.881V165.911H180.728V167Z" fill="black"/>
<ellipse rx="69.7315" ry="42.1744" transform="matrix(-0.962936 0.269731 0.269731 0.962936 263.229 181.42)" fill="#FFCCD6"/>
<path d="M224.96 188.63L226.901 188.02C226.918 188.245 226.908 188.483 226.871 188.732C226.842 188.98 226.753 189.273 226.606 189.612C226.466 189.948 226.27 190.267 226.019 190.569C225.773 190.862 225.416 191.155 224.947 191.448C224.487 191.747 223.949 191.993 223.334 192.186C221.977 192.613 220.788 192.611 219.768 192.178C218.746 191.739 218.035 190.886 217.637 189.62C217.274 188.466 217.366 187.403 217.914 186.431C218.466 185.45 219.48 184.727 220.956 184.263C222.061 183.915 223.056 183.852 223.941 184.073C224.823 184.288 225.487 184.674 225.932 185.234L223.986 186.123C223.211 185.491 222.344 185.325 221.385 185.627C220.917 185.774 220.529 185.984 220.223 186.258C219.917 186.531 219.708 186.831 219.596 187.158C219.49 187.484 219.434 187.805 219.426 188.123C219.425 188.438 219.471 188.743 219.564 189.037C219.793 189.764 220.234 190.298 220.886 190.638C221.546 190.977 222.272 191.021 223.062 190.773C224.188 190.418 224.821 189.704 224.96 188.63ZM234.57 185.365C234.731 185.875 234.765 186.364 234.674 186.831C234.58 187.291 234.387 187.69 234.093 188.028C233.807 188.365 233.475 188.654 233.098 188.895C232.72 189.137 232.311 189.327 231.87 189.466C231.555 189.565 231.232 189.636 230.899 189.679C230.576 189.727 230.226 189.737 229.848 189.71C229.476 189.674 229.13 189.59 228.812 189.459C228.494 189.329 228.201 189.117 227.932 188.825C227.662 188.526 227.458 188.16 227.321 187.726C227.057 186.887 227.169 186.094 227.657 185.349C228.15 184.594 228.967 184.037 230.107 183.678C230.744 183.478 231.36 183.396 231.955 183.431C232.551 183.467 233.089 183.651 233.57 183.984C234.05 184.31 234.383 184.77 234.57 185.365ZM232.796 185.957C232.642 185.468 232.353 185.136 231.929 184.962C231.503 184.78 231.017 184.776 230.472 184.947C229.891 185.13 229.48 185.425 229.239 185.831C228.998 186.237 228.957 186.693 229.115 187.196C229.263 187.665 229.547 187.994 229.968 188.185C230.394 188.366 230.897 188.365 231.478 188.182C231.8 188.081 232.065 187.948 232.275 187.782C232.482 187.609 232.626 187.445 232.707 187.288C232.794 187.123 232.845 186.945 232.862 186.755C232.884 186.556 232.886 186.402 232.867 186.293C232.853 186.174 232.829 186.062 232.796 185.957ZM239.227 178.526L241.095 177.938C241.164 178.377 241.118 178.757 240.957 179.077C240.804 179.394 240.579 179.646 240.284 179.831C239.986 180.009 239.649 180.172 239.273 180.322C238.904 180.468 238.539 180.614 238.177 180.759C237.815 180.903 237.491 181.071 237.205 181.261C236.917 181.444 236.704 181.695 236.566 182.015C236.435 182.333 236.416 182.712 236.508 183.152C236.878 182.298 237.664 181.681 238.867 181.303C239.735 181.03 240.544 181.025 241.296 181.288C242.052 181.542 242.558 182.075 242.813 182.886C242.939 183.285 242.98 183.672 242.936 184.047C242.898 184.413 242.79 184.743 242.613 185.036C242.444 185.328 242.221 185.598 241.946 185.846C241.677 186.092 241.385 186.299 241.069 186.468C240.76 186.634 240.431 186.773 240.081 186.883L240.186 186.85C239.157 187.173 238.256 187.241 237.483 187.054C236.464 186.798 235.764 186.065 235.384 184.855C235.164 184.155 235.046 183.524 235.03 182.96C235.014 182.396 235.084 181.936 235.241 181.579C235.398 181.222 235.602 180.908 235.855 180.636C236.113 180.355 236.398 180.138 236.712 179.986C237.025 179.834 237.335 179.694 237.641 179.567C237.951 179.431 238.229 179.324 238.474 179.247C238.724 179.161 238.918 179.057 239.057 178.937C239.203 178.814 239.26 178.677 239.227 178.526ZM241.008 183.489C240.869 183.048 240.59 182.759 240.17 182.622C239.751 182.485 239.278 182.499 238.754 182.665C238.222 182.832 237.814 183.099 237.529 183.465C237.25 183.822 237.177 184.214 237.311 184.641C237.454 185.095 237.728 185.416 238.133 185.604C238.545 185.79 239.066 185.784 239.696 185.585C240.171 185.436 240.55 185.186 240.832 184.836C241.121 184.484 241.18 184.035 241.008 183.489ZM249.183 181.828L251.034 181.442C251.003 181.613 250.954 181.786 250.886 181.961C250.818 182.136 250.707 182.344 250.552 182.585C250.402 182.817 250.222 183.039 250.012 183.251C249.806 183.454 249.528 183.657 249.177 183.859C248.835 184.067 248.454 184.237 248.034 184.369C247.376 184.576 246.774 184.665 246.227 184.637C245.685 184.6 245.241 184.471 244.894 184.25C244.548 184.028 244.269 183.777 244.058 183.498C243.845 183.211 243.686 182.9 243.58 182.564C243.303 181.683 243.408 180.893 243.895 180.194C244.389 179.492 245.175 178.972 246.252 178.633C247.379 178.279 248.328 178.291 249.101 178.671C249.881 179.048 250.403 179.657 250.667 180.496L250.73 180.695L245.462 182.353C245.922 183.177 246.679 183.423 247.736 183.09C248.071 182.985 248.378 182.823 248.655 182.605C248.93 182.38 249.106 182.121 249.183 181.828ZM245.214 181.381L248.52 180.341C248.363 180.014 248.106 179.822 247.75 179.765C247.392 179.701 247.01 179.733 246.604 179.86C246.191 179.99 245.857 180.187 245.602 180.452C245.345 180.71 245.216 181.02 245.214 181.381ZM252.73 176.826L252.921 177.434C253.306 176.775 253.911 176.316 254.736 176.056C255.604 175.783 256.388 175.821 257.09 176.169C257.796 176.508 258.282 177.101 258.548 177.947C258.782 178.689 258.737 179.414 258.414 180.123C258.098 180.829 257.479 181.328 256.555 181.619C255.709 181.885 254.925 181.847 254.202 181.506L255.034 184.15L253.303 184.695L250.998 177.371L252.73 176.826ZM253.571 179.502C253.732 180.012 254.016 180.353 254.424 180.525C254.829 180.689 255.259 180.7 255.714 180.557C256.218 180.399 256.555 180.139 256.726 179.778C256.901 179.407 256.911 178.974 256.755 178.477C256.607 178.008 256.356 177.672 255.999 177.469C255.641 177.259 255.207 177.234 254.696 177.395C254.157 177.564 253.8 177.846 253.624 178.24C253.448 178.633 253.431 179.054 253.571 179.502ZM267.159 178.121L265.428 178.666L264.471 175.623L262.016 178.817L262.28 179.656L260.549 180.201L258.878 174.891L260.61 174.347L261.534 177.285L263.989 174.091L263.758 173.356L265.489 172.811L267.159 178.121ZM276.737 173.032L278.579 172.729C278.465 173.418 278.144 174.023 277.616 174.543C277.087 175.063 276.466 175.435 275.753 175.659C275.144 175.851 274.577 175.929 274.051 175.895C273.53 175.851 273.097 175.722 272.753 175.508C272.414 175.284 272.131 175.034 271.906 174.759C271.686 174.475 271.527 174.175 271.428 173.86C271.276 173.378 271.242 172.916 271.326 172.474C271.41 172.033 271.585 171.647 271.85 171.318C272.115 170.988 272.433 170.703 272.804 170.464C273.179 170.215 273.587 170.021 274.028 169.883C274.301 169.797 274.593 169.736 274.904 169.699C275.222 169.661 275.559 169.655 275.913 169.682C276.265 169.701 276.608 169.79 276.942 169.946C277.274 170.095 277.555 170.307 277.787 170.58L276.042 171.336C275.581 171.043 275.046 170.992 274.437 171.184C273.968 171.331 273.604 171.604 273.345 172C273.085 172.397 273.029 172.83 273.177 173.299C273.218 173.432 273.285 173.568 273.375 173.709C273.472 173.848 273.607 173.994 273.778 174.147C273.954 174.292 274.183 174.385 274.466 174.427C274.755 174.466 275.071 174.432 275.414 174.325C275.505 174.296 275.6 174.258 275.701 174.211C275.801 174.164 275.933 174.092 276.094 173.995C276.254 173.891 276.392 173.756 276.508 173.588C276.632 173.419 276.708 173.233 276.737 173.032ZM278.338 168.769L282.661 167.409C283.388 167.18 283.931 167.171 284.289 167.381C284.563 167.541 284.754 167.796 284.864 168.145C285.043 168.712 284.866 169.179 284.336 169.545C285.158 169.494 285.68 169.822 285.902 170.529C286.023 170.913 286.04 171.235 285.952 171.493C285.881 171.731 285.757 171.935 285.58 172.106C285.403 172.277 285.243 172.393 285.101 172.453C284.958 172.513 284.768 172.581 284.53 172.656L280.008 174.078L278.338 168.769ZM280.713 170.27L282.822 169.607C283.248 169.473 283.405 169.224 283.29 168.86C283.187 168.531 282.922 168.434 282.495 168.568L280.386 169.232L280.713 170.27ZM281.422 172.526L283.605 171.84C284.13 171.675 284.324 171.375 284.187 170.941C284.062 170.543 283.765 170.417 283.296 170.565L281.03 171.278L281.422 172.526ZM293.603 166.791C293.763 167.302 293.798 167.791 293.707 168.258C293.613 168.718 293.42 169.117 293.126 169.455C292.84 169.791 292.508 170.08 292.13 170.322C291.753 170.564 291.344 170.754 290.903 170.893C290.588 170.992 290.265 171.063 289.932 171.106C289.609 171.154 289.259 171.164 288.881 171.137C288.508 171.1 288.163 171.017 287.845 170.886C287.527 170.755 287.234 170.544 286.965 170.252C286.694 169.953 286.491 169.586 286.354 169.153C286.09 168.313 286.202 167.521 286.69 166.775C287.183 166.021 288 165.464 289.14 165.105C289.776 164.905 290.392 164.822 290.988 164.858C291.583 164.894 292.122 165.078 292.603 165.411C293.082 165.737 293.416 166.197 293.603 166.791ZM291.829 167.384C291.675 166.894 291.386 166.563 290.962 166.388C290.536 166.207 290.05 166.202 289.505 166.374C288.924 166.557 288.513 166.851 288.272 167.258C288.031 167.664 287.989 168.119 288.148 168.623C288.295 169.092 288.58 169.421 289.001 169.611C289.427 169.793 289.93 169.792 290.511 169.609C290.833 169.508 291.098 169.374 291.307 169.209C291.514 169.036 291.659 168.871 291.74 168.715C291.826 168.55 291.878 168.372 291.895 168.182C291.917 167.983 291.919 167.829 291.9 167.719C291.885 167.601 291.862 167.489 291.829 167.384ZM296.314 165.2L297.352 164.874C297.328 164.136 297.565 163.484 298.064 162.92C298.568 162.346 299.302 161.908 300.267 161.604C300.904 161.404 301.52 161.321 302.115 161.357C302.711 161.393 303.249 161.577 303.731 161.91C304.21 162.236 304.543 162.696 304.73 163.29C304.891 163.801 304.926 164.29 304.834 164.757C304.741 165.217 304.547 165.616 304.254 165.954C303.967 166.29 303.636 166.579 303.258 166.821C302.88 167.063 302.471 167.253 302.031 167.392C301.66 167.508 301.277 167.586 300.882 167.626C300.494 167.664 300.091 167.652 299.672 167.592C299.253 167.531 298.863 167.377 298.5 167.13C298.143 166.874 297.862 166.531 297.659 166.103L296.693 166.407L297.386 168.611L295.655 169.155L293.985 163.846L295.716 163.301L296.314 165.2ZM302.956 163.883C302.802 163.393 302.513 163.061 302.09 162.887C301.664 162.706 301.178 162.701 300.632 162.873C300.051 163.056 299.641 163.35 299.399 163.757C299.158 164.163 299.117 164.618 299.275 165.122C299.425 165.598 299.711 165.931 300.132 166.121C300.56 166.309 301.064 166.312 301.645 166.129C302.247 165.94 302.653 165.643 302.864 165.238C303.082 164.831 303.113 164.38 302.956 163.883ZM223.465 200.71L224.043 202.546L225.774 202.001C226.047 201.916 226.231 201.792 226.326 201.632C226.429 201.469 226.469 201.302 226.446 201.133C226.421 200.956 226.41 200.737 226.412 200.475C226.419 200.203 226.468 199.957 226.56 199.736L228.397 199.158C228.264 199.446 228.187 199.751 228.165 200.073C228.144 200.395 228.146 200.659 228.173 200.866C228.2 201.073 228.175 201.277 228.1 201.477C228.022 201.671 227.868 201.827 227.636 201.946C227.95 201.893 228.227 201.968 228.467 202.169C228.712 202.361 228.902 202.597 229.036 202.878C229.178 203.156 229.351 203.451 229.557 203.763C229.763 204.075 229.975 204.297 230.193 204.428L228.357 205.006C228.187 204.905 228.023 204.726 227.865 204.469C227.714 204.209 227.589 203.971 227.491 203.756C227.39 203.534 227.232 203.361 227.016 203.237C226.798 203.105 226.538 203.087 226.238 203.182L224.422 203.753L225.135 206.019L223.404 206.564L221.734 201.255L223.465 200.71ZM237.214 199.209C237.375 199.72 237.409 200.209 237.318 200.676C237.224 201.136 237.031 201.535 236.738 201.873C236.451 202.209 236.119 202.498 235.742 202.74C235.364 202.982 234.955 203.172 234.514 203.311C234.2 203.41 233.876 203.481 233.544 203.524C233.22 203.572 232.87 203.582 232.492 203.555C232.12 203.518 231.774 203.435 231.457 203.304C231.139 203.173 230.845 202.962 230.577 202.67C230.306 202.371 230.102 202.004 229.966 201.571C229.701 200.731 229.813 199.939 230.301 199.193C230.794 198.438 231.611 197.882 232.751 197.523C233.388 197.323 234.004 197.24 234.599 197.276C235.195 197.312 235.733 197.496 236.215 197.829C236.694 198.154 237.027 198.615 237.214 199.209ZM235.44 199.802C235.286 199.312 234.997 198.98 234.573 198.806C234.147 198.625 233.661 198.62 233.116 198.792C232.535 198.975 232.124 199.269 231.883 199.676C231.642 200.082 231.601 200.537 231.759 201.041C231.907 201.51 232.191 201.839 232.612 202.029C233.038 202.211 233.542 202.21 234.122 202.027C234.444 201.926 234.709 201.792 234.919 201.627C235.126 201.454 235.27 201.289 235.351 201.133C235.438 200.967 235.489 200.79 235.507 200.6C235.529 200.401 235.53 200.247 235.511 200.137C235.497 200.019 235.473 199.907 235.44 199.802ZM246.549 199.282L244.975 199.777L243.832 196.147L243.411 200.269L242.404 200.586L239.698 197.448L240.84 201.078L239.266 201.573L237.596 196.264L239.757 195.584L242.354 198.595L242.727 194.65L244.878 193.973L246.549 199.282ZM254.626 196.741L252.895 197.285L251.604 193.183L248.519 194.153L249.81 198.256L248.079 198.801L246.408 193.491L252.956 191.431L254.626 196.741ZM262.196 191.349C262.357 191.86 262.391 192.349 262.3 192.816C262.206 193.276 262.013 193.675 261.72 194.013C261.433 194.349 261.101 194.638 260.724 194.88C260.346 195.122 259.937 195.312 259.497 195.451C259.182 195.55 258.858 195.621 258.526 195.664C258.203 195.712 257.852 195.722 257.475 195.695C257.102 195.658 256.756 195.575 256.439 195.444C256.121 195.313 255.827 195.102 255.559 194.81C255.288 194.511 255.084 194.144 254.948 193.711C254.684 192.871 254.796 192.079 255.284 191.333C255.777 190.578 256.593 190.022 257.733 189.663C258.37 189.463 258.986 189.38 259.581 189.416C260.177 189.452 260.715 189.636 261.197 189.969C261.676 190.294 262.009 190.755 262.196 191.349ZM260.422 191.942C260.268 191.452 259.979 191.12 259.555 190.946C259.129 190.765 258.644 190.76 258.098 190.932C257.517 191.115 257.107 191.409 256.865 191.816C256.624 192.222 256.583 192.677 256.741 193.181C256.889 193.649 257.173 193.979 257.594 194.169C258.02 194.351 258.524 194.35 259.104 194.167C259.426 194.066 259.692 193.932 259.901 193.767C260.108 193.594 260.252 193.429 260.334 193.273C260.42 193.107 260.472 192.93 260.489 192.74C260.511 192.541 260.512 192.387 260.493 192.277C260.479 192.159 260.455 192.047 260.422 191.942ZM265.118 189.842L266.272 189.479C266.86 189.294 267.098 189.027 266.988 188.677C266.858 188.264 266.409 188.179 265.639 188.421C264.779 188.692 264.375 189.057 264.427 189.517L262.597 189.966C262.631 189.317 262.868 188.774 263.306 188.336C263.745 187.898 264.423 187.535 265.339 187.247C266.367 186.923 267.148 186.828 267.682 186.96C268.213 187.084 268.558 187.399 268.717 187.902C268.895 188.469 268.719 188.936 268.188 189.303C268.983 189.237 269.494 189.568 269.723 190.296C269.778 190.471 269.81 190.633 269.819 190.784C269.833 190.926 269.8 191.102 269.72 191.311C269.647 191.519 269.516 191.714 269.327 191.896C269.137 192.072 268.843 192.264 268.448 192.473C268.052 192.682 267.564 192.878 266.984 193.06C265.976 193.377 265.165 193.463 264.551 193.318C263.936 193.173 263.454 192.814 263.105 192.24L264.919 191.519C265.249 192.03 265.855 192.147 266.736 191.87C267.659 191.579 268.052 191.214 267.913 190.773C267.836 190.528 267.696 190.388 267.492 190.352C267.296 190.314 266.981 190.363 266.547 190.499L265.435 190.849L265.118 189.842ZM277.991 189.39L276.26 189.934L275.302 186.891L272.848 190.085L273.112 190.925L271.38 191.469L269.71 186.16L271.441 185.615L272.366 188.553L274.82 185.359L274.589 184.625L276.321 184.08L277.991 189.39ZM279.588 183.052L280.878 187.155L283.942 186.191L282.652 182.088L284.383 181.543L285.674 185.646L286.513 185.382L287.322 187.953L285.696 188.465L285.266 187.101L279.527 188.906L277.856 183.597L279.588 183.052ZM294.745 184.118L293.013 184.663L292.056 181.62L289.602 184.814L289.866 185.653L288.134 186.198L286.464 180.889L288.195 180.344L289.12 183.282L291.574 180.088L291.343 179.354L293.074 178.809L294.745 184.118ZM296.939 179.68L297.978 179.353C297.953 178.615 298.19 177.964 298.689 177.4C299.193 176.826 299.928 176.388 300.893 176.084C301.529 175.884 302.146 175.801 302.741 175.837C303.336 175.872 303.875 176.057 304.356 176.389C304.836 176.715 305.169 177.176 305.356 177.77C305.516 178.281 305.551 178.77 305.46 179.237C305.366 179.697 305.173 180.096 304.879 180.434C304.593 180.77 304.261 181.059 303.884 181.301C303.506 181.543 303.097 181.733 302.656 181.871C302.285 181.988 301.903 182.066 301.508 182.106C301.12 182.143 300.716 182.132 300.298 182.072C299.879 182.011 299.488 181.857 299.126 181.61C298.768 181.353 298.488 181.011 298.284 180.583L297.319 180.887L298.012 183.09L296.281 183.635L294.61 178.326L296.341 177.781L296.939 179.68ZM303.582 178.363C303.428 177.873 303.139 177.541 302.715 177.367C302.289 177.186 301.803 177.181 301.258 177.353C300.677 177.536 300.266 177.83 300.025 178.237C299.784 178.643 299.743 179.098 299.901 179.602C300.051 180.077 300.336 180.41 300.757 180.601C301.186 180.789 301.69 180.792 302.271 180.609C302.872 180.42 303.278 180.123 303.489 179.718C303.707 179.311 303.738 178.86 303.582 178.363ZM305.425 172.617L307.135 172.079L308.026 174.912L308.506 177.39L307.321 177.763L306.316 175.45L305.425 172.617ZM309.466 179.487L307.755 180.025L307.343 178.713L309.053 178.175L309.466 179.487Z" fill="black"/>
<circle cx="115.026" cy="73.803" r="5.2718" fill="#F3A2BC"/>
<circle cx="179.483" cy="215.424" r="9.82471" fill="#21B8EB"/>
<circle cx="155.759" cy="200.806" r="4.79254" fill="#FFEC51"/>
</svg>
