<svg width="227" height="209" viewBox="0 0 227 209" fill="none" xmlns="http://www.w3.org/2000/svg">
<g clip-path="url(#clip0)">
<path d="M34.3675 174.174L21.1778 171.561L32.3399 164.106C38.3586 160.087 42.786 154.185 45.0267 147.275C33.5981 136.085 26.2315 122.883 23.6518 108.906C21.0735 94.939 23.2409 80.5555 29.92 67.3101C37.9338 51.4168 51.9707 38.265 69.4447 30.2764C88.4329 21.5954 110.379 19.3663 132.91 23.8306C161.293 29.4543 183.613 42.3282 197.455 61.0596C209.924 77.9346 214.609 98.2923 210.645 118.383C208.719 128.144 204.853 137.246 199.153 145.438C193.256 153.914 185.67 161 176.608 166.496C156.66 178.595 131.14 182.024 102.807 176.41C92.2895 174.326 81.5903 170.751 72.2987 166.24C61.1511 173.892 47.5217 176.78 34.3675 174.174ZM130.76 34.7291C85.5811 25.7776 52.5572 47.1582 39.8701 72.3184C27.8809 96.0951 33.5429 121.928 55.0163 141.423L57.4157 143.601L56.7064 146.755C55.3025 152.997 52.6097 158.744 48.8471 163.676C55.8199 162.765 62.5413 159.941 68.2668 155.387L71.1138 153.123L74.3377 154.824C83.385 159.596 94.2595 163.392 104.958 165.511C161.185 176.652 193.493 147.769 199.718 116.218C203.071 99.225 199.085 81.9742 188.495 67.6428C176.333 51.1847 156.368 39.8032 130.76 34.7291Z" fill="white"/>
<path d="M103.792 168.493C151.28 177.902 195.798 155.007 203.226 117.356C210.654 79.7051 178.179 41.5552 130.692 32.1461C83.2036 22.737 38.6853 45.6317 31.2572 83.2829C23.8291 120.934 56.3039 159.084 103.792 168.493Z" fill="white"/>
<path d="M42.8269 167.631L55.8428 135.167L87.157 156.444L42.8269 167.631Z" fill="white"/>
<path d="M55.8699 90.0152L63.2286 90.5994C63.6444 90.6324 63.9785 90.6639 64.2309 90.6943C64.4938 90.7254 64.7951 90.7848 65.1347 90.8728C65.4849 90.9616 65.7719 91.071 65.996 91.2006C66.2206 91.3301 66.4358 91.5101 66.6417 91.74C66.859 91.9605 67.0313 92.2286 67.1593 92.5439C67.3711 93.0897 67.4503 93.6959 67.3973 94.363C67.297 95.6262 66.7667 96.525 65.8063 97.059C65.4652 97.2455 65.0517 97.3804 64.5654 97.4639C64.0804 97.5371 63.6696 97.5709 63.3335 97.5644C63.0084 97.5489 62.5823 97.52 62.0551 97.4782L59.1512 97.2476L58.8515 101.022L55.0201 100.718L55.8699 90.0152ZM59.5087 92.745L59.3426 94.8371L61.8512 95.0363C62.2872 95.0709 62.5777 95.0738 62.7227 95.0445C63.2299 94.9524 63.5042 94.6439 63.5459 94.1182C63.5604 93.9363 63.5292 93.7507 63.4524 93.5616C63.2866 93.2128 62.9045 93.0146 62.3062 92.9671L59.5087 92.745ZM78.4494 102.579L74.7244 102.283C74.677 101.984 74.6518 101.723 74.649 101.499C73.1467 102.051 71.7872 102.278 70.5709 102.182C69.3648 102.086 68.4924 101.768 67.954 101.227C67.4155 100.685 67.1744 100.061 67.2306 99.3536C67.3172 98.2621 67.908 97.5664 69.0027 97.267C70.1086 96.9581 72.0551 96.9144 74.8424 97.1357L74.9336 97.1429L74.9408 97.052C74.9962 96.3546 74.4461 95.96 73.2906 95.8683C72.0644 95.7709 71.3914 95.9616 71.2715 96.4402L67.8202 96.1662C68.0628 95.1683 68.5907 94.4932 69.4039 94.1409C70.2282 93.7792 71.5374 93.6696 73.3315 93.812C74.7204 93.9223 75.7914 94.1141 76.5447 94.3875C77.3093 94.6515 77.8273 94.9977 78.0993 95.4263C78.3815 95.8556 78.4944 96.4237 78.4382 97.1313L78.1011 101.376C78.0747 101.71 78.0858 101.955 78.1346 102.111C78.1944 102.258 78.2995 102.414 78.4494 102.579ZM74.8649 98.5868L72.7735 98.5275C72.153 98.5087 71.6905 98.5533 71.3859 98.6614C71.0824 98.7594 70.9185 98.9599 70.8944 99.2631C70.8784 99.4652 70.965 99.6604 71.1539 99.8482C71.3441 100.026 71.6516 100.132 72.0773 100.166C72.4221 100.193 72.8234 100.149 73.2813 100.032C73.7495 99.917 74.1271 99.7231 74.4137 99.451C74.6016 99.2726 74.7518 98.9847 74.8649 98.5868ZM87.7133 100.171L91.2602 100.59C90.4704 102.704 88.3875 103.627 85.0122 103.359C83.1877 103.214 81.7837 102.721 80.7998 101.88C79.8162 101.039 79.3766 99.9568 79.4817 98.633C79.5066 98.3195 79.5676 98.004 79.664 97.6863C79.7607 97.3687 79.9581 97.0029 80.256 96.5891C80.5543 96.1754 80.9238 95.8233 81.3649 95.533C81.8163 95.2435 82.4412 95.0185 83.2392 94.858C84.0483 94.6884 84.9751 94.6449 86.0188 94.7278C87.6711 94.859 88.9764 95.3135 89.9344 96.0914C90.5953 96.632 91.0357 97.318 91.2551 98.149L87.6873 98.1861C87.5946 97.8126 87.3586 97.5089 86.9793 97.2755C86.6103 97.0429 86.2128 96.9095 85.7871 96.8757C85.1181 96.8226 84.5502 96.9759 84.0829 97.3354C83.616 97.695 83.3565 98.198 83.3051 98.845C83.253 99.5018 83.418 100.059 83.7997 100.517C84.1925 100.965 84.7591 101.218 85.4988 101.277C85.6307 101.288 85.7684 101.288 85.9117 101.279C86.0654 101.271 86.2666 101.241 86.5155 101.19C86.7652 101.129 86.9988 101.015 87.2158 100.849C87.434 100.673 87.5996 100.447 87.7133 100.171ZM100.052 101.151L103.599 101.57C102.808 103.684 100.726 104.607 97.3506 104.339C95.5261 104.194 94.1221 103.701 93.1382 102.86C92.1542 102.019 91.715 100.936 91.8201 99.6126C91.845 99.2992 91.9056 98.9836 92.0024 98.666C92.0991 98.3483 92.2965 97.9826 92.5944 97.5688C92.8923 97.155 93.2622 96.803 93.7033 96.5127C94.1547 96.2232 94.7796 95.9982 95.5776 95.8377C96.3867 95.6681 97.3131 95.6246 98.3572 95.7075C100.009 95.8387 101.314 96.2932 102.273 97.071C102.934 97.6117 103.374 98.2976 103.593 99.1286L100.026 99.1657C99.933 98.7922 99.697 98.4886 99.3177 98.2552C98.9487 98.0226 98.5512 97.8892 98.1255 97.8554C97.4565 97.8023 96.8886 97.9555 96.4213 98.3151C95.954 98.6746 95.6949 99.1777 95.6435 99.8246C95.5914 100.481 95.7564 101.039 96.1381 101.496C96.5309 101.944 97.0971 102.198 97.8372 102.257C97.9691 102.267 98.1067 102.268 98.2501 102.259C98.4038 102.251 98.605 102.221 98.8539 102.17C99.1036 102.108 99.3371 101.994 99.5542 101.829C99.772 101.652 99.938 101.427 100.052 101.151ZM113.982 105.4L110.394 105.115L110.863 99.2024L108.856 99.043L108.714 100.832C108.599 102.287 108.201 103.313 107.521 103.91C106.851 104.508 105.919 104.76 104.723 104.665L103.537 104.57L103.729 102.145L103.927 102.16C104.494 102.206 104.889 101.988 105.111 101.507C105.334 101.016 105.509 99.9623 105.637 98.345L105.771 96.6623L114.62 97.3648L113.982 105.4ZM126.407 106.386L122.682 106.091C122.635 105.792 122.61 105.531 122.607 105.307C121.104 105.858 119.745 106.086 118.529 105.99C117.323 105.894 116.45 105.576 115.912 105.034C115.373 104.493 115.132 103.869 115.188 103.161C115.275 102.07 115.866 101.374 116.961 101.075C118.066 100.766 120.013 100.722 122.8 100.943L122.891 100.951L122.899 100.86C122.954 100.162 122.404 99.7678 121.248 99.6761C120.022 99.5787 119.349 99.7694 119.229 100.248L115.778 99.974C116.021 98.9761 116.549 98.301 117.362 97.9487C118.186 97.587 119.495 97.4773 121.289 97.6198C122.678 97.7301 123.749 97.9219 124.502 98.1953C125.267 98.4593 125.785 98.8055 126.057 99.2341C126.339 99.6634 126.452 100.231 126.396 100.939L126.059 105.184C126.032 105.517 126.044 105.762 126.092 105.919C126.152 106.066 126.257 106.222 126.407 106.386ZM122.823 102.395L120.731 102.335C120.111 102.317 119.648 102.361 119.344 102.469C119.04 102.567 118.876 102.768 118.852 103.071C118.836 103.273 118.923 103.468 119.112 103.656C119.302 103.834 119.609 103.94 120.035 103.973C120.38 104.001 120.781 103.956 121.239 103.84C121.707 103.725 122.085 103.531 122.372 103.259C122.559 103.08 122.71 102.793 122.823 102.395ZM135.772 96.344L139.3 96.6241C139.265 97.0588 139.153 97.4413 138.964 97.7721C138.775 98.0928 138.54 98.3488 138.26 98.5401C137.99 98.7322 137.656 98.8888 137.259 99.0098C136.862 99.1308 136.463 99.2109 136.062 99.2504C135.671 99.2907 135.236 99.3118 134.756 99.3145C134.175 99.3191 133.662 99.3497 133.219 99.406C132.777 99.4522 132.362 99.5363 131.975 99.6582C131.598 99.7808 131.299 99.9553 131.077 100.182C130.865 100.409 130.741 100.684 130.705 101.007C131.665 100.351 133.077 100.097 134.943 100.245C135.571 100.295 136.119 100.389 136.588 100.528C137.056 100.667 137.478 100.873 137.854 101.147C138.23 101.421 138.502 101.789 138.67 102.249C138.848 102.701 138.912 103.24 138.862 103.866C138.665 106.353 136.64 107.443 132.789 107.137C129.008 106.837 127.247 105.054 127.507 101.79C127.566 101.042 127.746 100.375 128.048 99.7888C128.359 99.2033 128.739 98.73 129.186 98.3688C129.633 97.9974 130.157 97.6934 130.758 97.4562C131.368 97.2198 131.977 97.0599 132.586 96.9759C133.195 96.882 133.841 96.8364 134.524 96.8399C134.963 96.8442 135.276 96.813 135.465 96.7468C135.655 96.6703 135.757 96.5362 135.772 96.344ZM135.139 103.739C135.21 102.849 134.612 102.354 133.345 102.254C132.98 102.225 132.642 102.239 132.332 102.295C132.032 102.343 131.757 102.468 131.506 102.672C131.266 102.867 131.133 103.131 131.107 103.464C131.071 103.919 131.241 104.283 131.617 104.557C132.004 104.822 132.471 104.976 133.018 105.019C133.626 105.068 134.122 104.99 134.505 104.787C134.889 104.583 135.1 104.234 135.139 103.739ZM139.691 107.441L140.33 99.391L143.919 99.6758L143.712 102.283L146.418 102.498C147.776 102.606 148.728 102.885 149.274 103.335C149.83 103.776 150.071 104.471 149.995 105.422C149.846 107.301 148.54 108.144 146.077 107.948L139.691 107.441ZM143.448 105.603L145.637 105.777C145.85 105.794 146.028 105.737 146.171 105.606C146.314 105.475 146.393 105.314 146.408 105.122C146.427 104.889 146.371 104.696 146.24 104.544C146.121 104.382 145.939 104.291 145.696 104.272L143.567 104.103L143.448 105.603ZM159.071 105.837L162.618 106.256C161.828 108.37 159.745 109.293 156.37 109.025C154.546 108.88 153.141 108.387 152.158 107.546C151.174 106.705 150.734 105.623 150.84 104.299C150.864 103.985 150.925 103.67 151.022 103.352C151.118 103.034 151.316 102.669 151.614 102.255C151.912 101.841 152.281 101.489 152.723 101.199C153.174 100.909 153.799 100.684 154.597 100.524C155.406 100.354 156.333 100.311 157.377 100.394C159.029 100.525 160.334 100.979 161.292 101.757C161.953 102.298 162.393 102.984 162.613 103.815L159.045 103.852C158.952 103.478 158.716 103.175 158.337 102.941C157.968 102.709 157.571 102.575 157.145 102.541C156.476 102.488 155.908 102.642 155.441 103.001C154.973 103.361 154.714 103.864 154.663 104.511C154.611 105.168 154.775 105.725 155.158 106.182C155.55 106.63 156.117 106.884 156.857 106.943C156.988 106.953 157.126 106.954 157.27 106.945C157.423 106.937 157.624 106.907 157.873 106.856C158.123 106.794 158.356 106.68 158.574 106.515C158.791 106.339 158.957 106.113 159.071 105.837ZM169.774 107.373L168.329 107.259C168.015 107.234 167.759 107.315 167.56 107.503C167.373 107.681 167.244 107.894 167.173 108.143C167.103 108.382 167.005 108.649 166.88 108.944C166.755 109.229 166.606 109.436 166.433 109.564L162.738 109.271C163.027 109.1 163.281 108.79 163.501 108.34C163.731 107.88 163.976 107.432 164.235 106.995C164.494 106.557 164.813 106.262 165.192 106.11C164.243 105.729 163.809 105.028 163.89 104.008C163.955 103.199 164.301 102.571 164.928 102.122C165.556 101.663 166.382 101.475 167.405 101.556L173.806 102.064L173.168 110.099L169.58 109.814L169.774 107.373ZM170.057 103.811L168.582 103.694C168.278 103.669 168.018 103.73 167.802 103.876C167.597 104.022 167.483 104.232 167.462 104.505C167.417 105.071 167.744 105.382 168.443 105.437L169.918 105.554L170.057 103.811ZM179.324 99.8172L179.16 101.879C179.121 102.374 178.993 103.285 178.775 104.61L178.47 106.523L175.612 106.296L175.628 104.36C175.641 102.652 175.653 101.738 175.662 101.617L175.827 99.5396L179.324 99.8172ZM178.155 110.495L175.297 110.268L175.519 107.463L178.378 107.69L178.155 110.495Z" fill="black"/>
</g>
<defs>
<clipPath id="clip0">
<rect width="212" height="192" fill="white" transform="translate(15.4492 0.777344) rotate(4.53967)"/>
</clipPath>
</defs>
</svg>
