<svg width="441" height="401" viewBox="0 0 441 401" fill="none" xmlns="http://www.w3.org/2000/svg">
<path d="M334.273 391.798L361.911 395.797L345.195 373.426C336.182 361.364 331.585 346.706 331.966 331.583C362.074 317.516 385.616 296.684 400.319 271.015C415.01 245.365 420.695 215.612 416.757 184.971C412.033 148.204 393.619 112.652 364.911 84.8628C333.713 54.6654 292.269 35.0932 245.058 28.2629C185.584 19.6586 132.982 29.4934 92.9406 56.7032C56.8683 81.2169 33.6391 117.961 27.5329 160.168C24.5662 180.674 25.8551 201.23 31.3629 221.267C37.0628 242 47.0283 261.169 60.9829 278.239C91.6994 315.815 139.316 340.218 198.684 348.807C220.723 351.995 244.146 352.38 265.46 349.952C282.01 372.701 306.711 387.811 334.273 391.798ZM241.745 51.1589C336.412 64.8547 386.332 129.715 393.812 187.92C400.88 242.923 371.956 289.746 316.44 313.171L310.237 315.788L309.449 322.474C307.89 335.708 309.196 348.861 313.161 361.153C300.133 354.536 288.918 344.335 280.848 331.427L276.835 325.008L269.346 326.117C248.332 329.227 224.413 329.154 201.996 325.911C84.1791 308.866 40.8394 229.764 50.4288 163.481C55.5936 127.781 75.3093 96.6555 105.944 75.8377C141.126 51.9298 188.085 43.3958 241.745 51.1589Z" fill="#F3A2BC"/>
<ellipse rx="182.045" ry="144.712" transform="matrix(-0.989696 -0.143183 -0.143183 0.989696 223.11 189.156)" fill="#F3A2BC"/>
<path d="M322.222 373.087L319.14 300.31L243.121 320.422L322.222 373.087Z" fill="#F3A2BC"/>
<path d="M125.598 203L115.438 203L115.438 181.96L103.958 181.96L103.958 203L93.7984 203L93.7984 174.76L125.598 174.76L125.598 203ZM129.92 181.8L139.36 181.8L139.36 183.92C141.36 182.16 143.893 181.28 146.96 181.28C150.613 181.28 153.467 182.373 155.52 184.56C157.6 186.747 158.64 189.427 158.64 192.6C158.64 194.013 158.4 195.373 157.92 196.68C157.467 197.96 156.787 199.147 155.88 200.24C155 201.307 153.787 202.16 152.24 202.8C150.693 203.44 148.947 203.76 147 203.76C145.747 203.76 144.56 203.6 143.44 203.28C142.347 202.96 141.573 202.667 141.12 202.4C140.667 202.133 140.08 201.747 139.36 201.24L139.36 210.4L129.92 210.4L129.92 181.8ZM144.36 187.68C142.653 187.68 141.387 188.147 140.56 189.08C139.76 190.013 139.36 191.04 139.36 192.16C139.36 193.573 139.773 194.8 140.6 195.84C141.453 196.853 142.667 197.36 144.24 197.36C145.787 197.36 146.947 196.92 147.72 196.04C148.493 195.16 148.88 193.973 148.88 192.48C148.88 191.227 148.507 190.12 147.76 189.16C147.04 188.173 145.907 187.68 144.36 187.68ZM188.921 203L179.481 203L179.481 192.44L170.961 200.04L170.961 203L161.561 203L161.561 181.8L170.961 181.8L170.961 192.04L179.481 184.4L179.481 181.8L188.921 181.8L188.921 203ZM215.052 181.8L215.052 188.2L202.212 188.2L202.212 203L192.772 203L192.772 181.8L215.052 181.8ZM216.227 192.44C216.227 190.493 216.667 188.773 217.547 187.28C218.427 185.787 219.613 184.613 221.107 183.76C222.627 182.907 224.267 182.28 226.027 181.88C227.813 181.453 229.707 181.24 231.707 181.24C234.587 181.24 237.093 181.573 239.227 182.24C241.36 182.88 243.013 183.747 244.187 184.84C245.36 185.933 246.213 187.107 246.747 188.36C247.307 189.613 247.587 190.947 247.587 192.36C247.587 195.96 246.12 198.733 243.187 200.68C240.253 202.6 236.493 203.56 231.907 203.56C229.933 203.56 228.053 203.36 226.267 202.96C224.507 202.56 222.853 201.96 221.307 201.16C219.76 200.333 218.52 199.173 217.587 197.68C216.68 196.187 216.227 194.44 216.227 192.44ZM237.867 192.28C237.867 190.573 237.32 189.24 236.227 188.28C235.16 187.293 233.693 186.8 231.827 186.8C229.88 186.8 228.413 187.333 227.427 188.4C226.467 189.467 225.987 190.707 225.987 192.12C225.987 194.12 226.573 195.573 227.747 196.48C228.947 197.387 230.4 197.84 232.107 197.84C232.667 197.84 233.24 197.76 233.827 197.6C234.413 197.44 235.027 197.173 235.667 196.8C236.333 196.427 236.867 195.853 237.267 195.08C237.667 194.28 237.867 193.347 237.867 192.28ZM278.147 203L268.707 203L268.707 194.84L259.907 194.84L259.907 203L250.467 203L250.467 181.8L259.907 181.8L259.907 188.44L268.707 188.44L268.707 181.8L278.147 181.8L278.147 203ZM298.71 196.56L294.91 196.56C294.084 196.56 293.43 196.827 292.95 197.36C292.497 197.867 292.204 198.453 292.07 199.12C291.937 199.76 291.737 200.48 291.47 201.28C291.204 202.053 290.857 202.627 290.43 203L280.71 203C281.43 202.493 282.03 201.627 282.51 200.4C283.017 199.147 283.564 197.92 284.15 196.72C284.737 195.52 285.51 194.68 286.47 194.2C283.91 193.4 282.63 191.653 282.63 188.96C282.63 186.827 283.404 185.107 284.95 183.8C286.497 182.467 288.617 181.8 291.31 181.8L308.15 181.8L308.15 203L298.71 203L298.71 196.56ZM298.71 187.16L294.83 187.16C294.03 187.16 293.364 187.373 292.83 187.8C292.324 188.227 292.07 188.8 292.07 189.52C292.07 191.013 292.99 191.76 294.83 191.76L298.71 191.76L298.71 187.16ZM339.35 203L329.91 203L329.91 192.44L321.39 200.04L321.39 203L311.99 203L311.99 181.8L321.39 181.8L321.39 192.04L329.91 184.4L329.91 181.8L339.35 181.8L339.35 203ZM328.79 173.8L334.39 175.28C334.017 176.8 333.044 178.053 331.47 179.04C329.924 180 327.95 180.48 325.55 180.48C323.23 180.48 321.27 180 319.67 179.04C318.07 178.08 317.11 176.827 316.79 175.28L322.39 173.8C322.604 174.28 322.804 174.653 322.99 174.92C323.177 175.187 323.497 175.453 323.95 175.72C324.404 175.96 324.95 176.08 325.59 176.08C326.63 176.08 327.364 175.893 327.79 175.52C328.244 175.147 328.577 174.573 328.79 173.8ZM353.321 174.76L353.321 180.2C353.321 181.507 353.175 183.92 352.881 187.44L352.481 192.52L344.961 192.52L344.601 187.44C344.281 182.96 344.121 180.56 344.121 180.24L344.121 174.76L353.321 174.76ZM352.481 203L344.961 203L344.961 195.6L352.481 195.6L352.481 203Z" fill="white"/>
</svg>
