<svg width="559" height="542" viewBox="0 0 559 542" fill="none" xmlns="http://www.w3.org/2000/svg">
<path d="M428.014 416.629L453.873 413.56L433.418 397.445C422.389 388.756 414.71 376.664 411.404 362.95C435.128 343.014 451.304 318.569 458.351 291.901C465.394 265.252 463.333 237.082 452.391 210.434C439.263 178.459 414.098 150.882 381.534 132.78C346.147 113.111 304.095 105.485 259.923 110.727C204.279 117.33 159.274 138.883 129.776 173.054C103.202 203.84 91.1478 242.541 95.8342 282.03C98.111 301.216 104.233 319.419 114.029 336.137C124.167 353.435 137.769 368.295 154.458 380.303C191.192 406.735 239.97 417.222 295.515 410.63C316.135 408.183 337.325 402.877 355.935 395.546C376.332 412.041 402.227 419.689 428.014 416.629ZM262.465 132.148C351.036 121.637 411.652 168.008 432.436 218.628C452.077 266.464 437.326 315.617 392.977 350.114L388.021 353.968L388.925 360.18C390.715 372.476 395.065 384.008 401.603 394.123C388.272 391.307 375.709 384.825 365.325 375.147L360.161 370.334L353.684 373.14C335.507 381.013 313.946 386.719 292.972 389.208C182.742 402.29 124.616 341.503 117.256 279.488C113.292 246.087 123.538 213.294 146.106 187.15C172.024 157.126 212.261 138.106 262.465 132.148Z" fill="#FFEC51"/>
<ellipse rx="169.751" ry="134.939" transform="matrix(-0.993032 0.117848 0.117848 0.993032 277.94 260.375)" fill="#FFEC51"/>
<path d="M412.645 402.683L392.305 337.877L328.689 374.338L412.645 402.683Z" fill="#FFEC51"/>
<path d="M224.637 257H216.957V248.87H207.687V257H200.067V235.82H207.717V243.53H216.957V235.82H224.637V257ZM250.331 250.04H234.551C234.691 250.74 234.951 251.34 235.331 251.84C235.711 252.32 236.151 252.67 236.651 252.89C237.151 253.09 237.581 253.23 237.941 253.31C238.321 253.39 238.661 253.43 238.961 253.43C239.761 253.43 240.481 253.28 241.121 252.98C241.781 252.66 242.251 252.33 242.531 251.99L249.911 252.35C249.151 253.91 247.821 255.15 245.921 256.07C244.021 256.99 241.591 257.45 238.631 257.45C237.231 257.45 235.891 257.3 234.611 257C233.331 256.72 232.121 256.27 230.981 255.65C229.841 255.03 228.931 254.15 228.251 253.01C227.571 251.85 227.231 250.5 227.231 248.96C227.231 246.26 228.301 244.17 230.441 242.69C231.441 241.97 232.571 241.45 233.831 241.13C235.091 240.81 236.691 240.65 238.631 240.65C242.951 240.65 246.101 241.68 248.081 243.74C249.581 245.34 250.331 247.44 250.331 250.04ZM234.791 247.28H242.891C242.271 245.58 240.921 244.73 238.841 244.73C236.701 244.73 235.351 245.58 234.791 247.28ZM284.247 257H277.167V250.88H270.567V257H263.487V241.1H270.567V246.08H277.167V241.1H284.247V257ZM308.76 257H301.41C301.27 256.42 301.18 255.91 301.14 255.47C298.28 256.79 295.65 257.45 293.25 257.45C290.87 257.45 289.11 256.96 287.97 255.98C286.83 255 286.26 253.81 286.26 252.41C286.26 250.25 287.31 248.79 289.41 248.03C291.53 247.25 295.34 246.86 300.84 246.86H301.02V246.68C301.02 245.3 299.88 244.61 297.6 244.61C295.18 244.61 293.89 245.09 293.73 246.05H286.92C287.24 244.05 288.17 242.64 289.71 241.82C291.27 240.98 293.82 240.56 297.36 240.56C300.1 240.56 302.23 240.77 303.75 241.19C305.29 241.59 306.36 242.19 306.96 242.99C307.58 243.79 307.89 244.89 307.89 246.29V254.69C307.89 255.35 307.95 255.83 308.07 256.13C308.21 256.41 308.44 256.7 308.76 257ZM301.11 249.71L297 249.92C295.78 249.98 294.88 250.14 294.3 250.4C293.72 250.64 293.43 251.06 293.43 251.66C293.43 252.06 293.63 252.43 294.03 252.77C294.43 253.09 295.05 253.25 295.89 253.25C296.57 253.25 297.35 253.1 298.23 252.8C299.13 252.5 299.84 252.06 300.36 251.48C300.7 251.1 300.95 250.51 301.11 249.71ZM331.56 252.77H334.56V261.05H328.14V257H315.99V261.05H309.57V252.8C310.11 252.68 310.51 252.57 310.77 252.47C311.93 252.01 312.72 251.21 313.14 250.07C313.58 248.93 313.8 247.24 313.8 245V241.1H331.56V252.77ZM324.51 245.3H320.22V245.99C320.22 249.79 319.33 252.06 317.55 252.8H324.51V245.3ZM335.424 249.08C335.424 247.62 335.754 246.33 336.414 245.21C337.074 244.09 337.964 243.21 339.084 242.57C340.224 241.93 341.454 241.46 342.774 241.16C344.114 240.84 345.534 240.68 347.034 240.68C349.194 240.68 351.074 240.93 352.674 241.43C354.274 241.91 355.514 242.56 356.394 243.38C357.274 244.2 357.914 245.08 358.314 246.02C358.734 246.96 358.944 247.96 358.944 249.02C358.944 251.72 357.844 253.8 355.644 255.26C353.444 256.7 350.624 257.42 347.184 257.42C345.704 257.42 344.294 257.27 342.954 256.97C341.634 256.67 340.394 256.22 339.234 255.62C338.074 255 337.144 254.13 336.444 253.01C335.764 251.89 335.424 250.58 335.424 249.08ZM351.654 248.96C351.654 247.68 351.244 246.68 350.424 245.96C349.624 245.22 348.524 244.85 347.124 244.85C345.664 244.85 344.564 245.25 343.824 246.05C343.104 246.85 342.744 247.78 342.744 248.84C342.744 250.34 343.184 251.43 344.064 252.11C344.964 252.79 346.054 253.13 347.334 253.13C347.754 253.13 348.184 253.07 348.624 252.95C349.064 252.83 349.524 252.63 350.004 252.35C350.504 252.07 350.904 251.64 351.204 251.06C351.504 250.46 351.654 249.76 351.654 248.96ZM177.634 288.82L184.654 289.09C183.434 293.37 179.494 295.51 172.834 295.51C169.234 295.51 166.404 294.76 164.344 293.26C162.284 291.76 161.254 289.7 161.254 287.08C161.254 286.46 161.324 285.83 161.464 285.19C161.604 284.55 161.934 283.8 162.454 282.94C162.974 282.08 163.644 281.33 164.464 280.69C165.304 280.05 166.494 279.51 168.034 279.07C169.594 278.61 171.404 278.38 173.464 278.38C176.724 278.38 179.354 279.07 181.354 280.45C182.734 281.41 183.704 282.69 184.264 284.29L177.274 284.92C177.034 284.2 176.524 283.64 175.744 283.24C174.984 282.84 174.184 282.64 173.344 282.64C172.024 282.64 170.934 283.03 170.074 283.81C169.214 284.59 168.784 285.62 168.784 286.9C168.784 288.2 169.194 289.27 170.014 290.11C170.854 290.93 172.004 291.34 173.464 291.34C173.724 291.34 173.994 291.32 174.274 291.28C174.574 291.24 174.964 291.15 175.444 291.01C175.924 290.85 176.364 290.59 176.764 290.23C177.164 289.85 177.454 289.38 177.634 288.82ZM204.139 283.9H198.109V295H191.029V283.9H184.999V279.1H204.139V283.9ZM228.154 288.04H212.374C212.514 288.74 212.774 289.34 213.154 289.84C213.534 290.32 213.974 290.67 214.474 290.89C214.974 291.09 215.404 291.23 215.764 291.31C216.144 291.39 216.484 291.43 216.784 291.43C217.584 291.43 218.304 291.28 218.944 290.98C219.604 290.66 220.074 290.33 220.354 289.99L227.734 290.35C226.974 291.91 225.644 293.15 223.744 294.07C221.844 294.99 219.414 295.45 216.454 295.45C215.054 295.45 213.714 295.3 212.434 295C211.154 294.72 209.944 294.27 208.804 293.65C207.664 293.03 206.754 292.15 206.074 291.01C205.394 289.85 205.054 288.5 205.054 286.96C205.054 284.26 206.124 282.17 208.264 280.69C209.264 279.97 210.394 279.45 211.654 279.13C212.914 278.81 214.514 278.65 216.454 278.65C220.774 278.65 223.924 279.68 225.904 281.74C227.404 283.34 228.154 285.44 228.154 288.04ZM212.614 285.28H220.714C220.094 283.58 218.744 282.73 216.664 282.73C214.524 282.73 213.174 283.58 212.614 285.28ZM245.719 288.82L252.739 289.09C251.519 293.37 247.579 295.51 240.919 295.51C237.319 295.51 234.489 294.76 232.429 293.26C230.369 291.76 229.339 289.7 229.339 287.08C229.339 286.46 229.409 285.83 229.549 285.19C229.689 284.55 230.019 283.8 230.539 282.94C231.059 282.08 231.729 281.33 232.549 280.69C233.389 280.05 234.579 279.51 236.119 279.07C237.679 278.61 239.489 278.38 241.549 278.38C244.809 278.38 247.439 279.07 249.439 280.45C250.819 281.41 251.789 282.69 252.349 284.29L245.359 284.92C245.119 284.2 244.609 283.64 243.829 283.24C243.069 282.84 242.269 282.64 241.429 282.64C240.109 282.64 239.019 283.03 238.159 283.81C237.299 284.59 236.869 285.62 236.869 286.9C236.869 288.2 237.279 289.27 238.099 290.11C238.939 290.93 240.089 291.34 241.549 291.34C241.809 291.34 242.079 291.32 242.359 291.28C242.659 291.24 243.049 291.15 243.529 291.01C244.009 290.85 244.449 290.59 244.849 290.23C245.249 289.85 245.539 289.38 245.719 288.82ZM275.165 295H268.085V288.88H261.485V295H254.405V279.1H261.485V284.08H268.085V279.1H275.165V295ZM290.588 290.17H287.738C287.118 290.17 286.628 290.37 286.268 290.77C285.928 291.15 285.708 291.59 285.608 292.09C285.508 292.57 285.358 293.11 285.158 293.71C284.958 294.29 284.698 294.72 284.378 295H277.088C277.628 294.62 278.078 293.97 278.438 293.05C278.818 292.11 279.228 291.19 279.668 290.29C280.108 289.39 280.688 288.76 281.408 288.4C279.488 287.8 278.528 286.49 278.528 284.47C278.528 282.87 279.108 281.58 280.268 280.6C281.428 279.6 283.018 279.1 285.038 279.1H297.668V295H290.588V290.17ZM290.588 283.12H287.678C287.078 283.12 286.578 283.28 286.178 283.6C285.798 283.92 285.608 284.35 285.608 284.89C285.608 286.01 286.298 286.57 287.678 286.57H290.588V283.12ZM318.368 283.9H312.338V295H305.258V283.9H299.228V279.1H318.368V283.9ZM319.942 295V279.07H327.022V284.23H332.362C335.042 284.23 336.952 284.63 338.092 285.43C339.252 286.21 339.832 287.54 339.832 289.42C339.832 293.14 337.402 295 332.542 295H319.942ZM327.022 290.8H331.342C331.762 290.8 332.102 290.66 332.362 290.38C332.622 290.1 332.752 289.77 332.752 289.39C332.752 288.93 332.612 288.56 332.332 288.28C332.072 287.98 331.702 287.83 331.222 287.83H327.022V290.8ZM357.692 288.82L364.712 289.09C363.492 293.37 359.552 295.51 352.892 295.51C349.292 295.51 346.462 294.76 344.402 293.26C342.342 291.76 341.312 289.7 341.312 287.08C341.312 286.46 341.382 285.83 341.522 285.19C341.662 284.55 341.992 283.8 342.512 282.94C343.032 282.08 343.702 281.33 344.522 280.69C345.362 280.05 346.552 279.51 348.092 279.07C349.652 278.61 351.462 278.38 353.522 278.38C356.782 278.38 359.412 279.07 361.412 280.45C362.792 281.41 363.762 282.69 364.322 284.29L357.332 284.92C357.092 284.2 356.582 283.64 355.802 283.24C355.042 282.84 354.242 282.64 353.402 282.64C352.082 282.64 350.992 283.03 350.132 283.81C349.272 284.59 348.842 285.62 348.842 286.9C348.842 288.2 349.252 289.27 350.072 290.11C350.912 290.93 352.062 291.34 353.522 291.34C353.782 291.34 354.052 291.32 354.332 291.28C354.632 291.24 355.022 291.15 355.502 291.01C355.982 290.85 356.422 290.59 356.822 290.23C357.222 289.85 357.512 289.38 357.692 288.82ZM378.918 290.17H376.068C375.448 290.17 374.958 290.37 374.598 290.77C374.258 291.15 374.038 291.59 373.938 292.09C373.838 292.57 373.688 293.11 373.488 293.71C373.288 294.29 373.028 294.72 372.708 295H365.418C365.958 294.62 366.408 293.97 366.768 293.05C367.148 292.11 367.558 291.19 367.998 290.29C368.438 289.39 369.018 288.76 369.738 288.4C367.818 287.8 366.858 286.49 366.858 284.47C366.858 282.87 367.438 281.58 368.598 280.6C369.758 279.6 371.348 279.1 373.368 279.1H385.998V295H378.918V290.17ZM378.918 283.12H376.008C375.408 283.12 374.908 283.28 374.508 283.6C374.128 283.92 373.938 284.35 373.938 284.89C373.938 286.01 374.628 286.57 376.008 286.57H378.918V283.12ZM396.468 273.82V277.9C396.468 278.88 396.358 280.69 396.138 283.33L395.838 287.14H390.198L389.928 283.33C389.688 279.97 389.568 278.17 389.568 277.93V273.82H396.468ZM395.838 295H390.198V289.45H395.838V295Z" fill="black"/>
</svg>
