<svg width="440" height="400" viewBox="0 0 440 400" fill="none" xmlns="http://www.w3.org/2000/svg">
<path d="M333.275 391.656L360.913 395.654L344.197 373.283C335.184 361.221 330.586 346.564 330.968 331.44C361.076 317.373 384.618 296.541 399.321 270.872C414.012 245.222 419.697 215.469 415.759 184.828C411.035 148.062 392.621 112.51 363.913 84.7202C332.715 54.5228 291.271 34.9506 244.059 28.1204C184.586 19.5161 131.984 29.3508 91.9425 56.5606C55.8702 81.0744 32.6411 117.819 26.5348 160.026C23.5682 180.531 24.8571 201.088 30.3649 221.124C36.0648 241.857 46.0303 261.026 59.9849 278.096C90.7014 315.673 138.318 340.075 197.686 348.664C219.725 351.853 243.148 352.238 264.461 349.809C281.012 372.558 305.713 387.668 333.275 391.656ZM240.747 51.0163C335.414 64.7121 385.334 129.572 392.814 187.777C399.882 242.781 370.958 289.603 315.442 313.028L309.239 315.646L308.451 322.332C306.892 335.565 308.198 348.718 312.163 361.011C299.134 354.394 287.92 344.193 279.85 331.285L275.837 324.866L268.348 325.974C247.334 329.085 223.415 329.011 200.998 325.768C83.1811 308.723 39.8414 229.621 49.4308 163.338C54.5956 127.639 74.3112 96.5129 104.946 75.6951C140.128 51.7872 187.087 43.2532 240.747 51.0163Z" fill="#FFCCD6"/>
<ellipse rx="182.045" ry="144.712" transform="matrix(-0.989696 -0.143183 -0.143183 0.989696 222.11 189.156)" fill="#FFCCD6"/>
<path d="M321.224 372.945L318.142 300.167L242.123 320.279L321.224 372.945Z" fill="#FFCCD6"/>
<path d="M111.797 182.08L101.797 182.08L101.797 204L91.6373 204L91.6373 182.08L81.5973 182.08L81.5973 175.76L111.797 175.76L111.797 182.08ZM151.497 204L142.057 204L142.057 182.8L151.497 182.8L151.497 204ZM114.057 204L114.057 182.76L123.497 182.76L123.497 189.64L129.417 189.64C132.99 189.64 135.537 190.173 137.057 191.24C138.603 192.28 139.377 194.053 139.377 196.56C139.377 201.52 136.137 204 129.657 204L114.057 204ZM123.497 198.4L128.057 198.4C128.617 198.4 129.07 198.213 129.417 197.84C129.763 197.467 129.937 197.027 129.937 196.52C129.937 195.907 129.75 195.413 129.377 195.04C129.03 194.64 128.537 194.44 127.897 194.44L123.497 194.44L123.497 198.4ZM179.746 182.8L179.746 190L183.146 190C184.052 190 184.759 189.773 185.266 189.32C185.772 188.867 186.092 188.32 186.226 187.68C186.386 187.04 186.666 186.24 187.066 185.28C187.492 184.32 188.026 183.493 188.666 182.8L198.626 182.8C197.772 183.547 197.079 184.413 196.546 185.4C196.012 186.36 195.639 187.213 195.426 187.96C195.212 188.68 194.826 189.413 194.266 190.16C193.732 190.907 193.026 191.507 192.146 191.96C193.346 192.333 194.292 193.093 194.986 194.24C195.706 195.36 196.172 196.507 196.386 197.68C196.599 198.853 196.906 200.067 197.306 201.32C197.732 202.573 198.252 203.467 198.866 204L188.866 204C188.332 203.493 187.919 202.72 187.626 201.68C187.332 200.64 187.119 199.707 186.986 198.88C186.852 198.027 186.506 197.267 185.946 196.6C185.412 195.933 184.639 195.6 183.626 195.6L179.746 195.6L179.746 204L170.346 204L170.346 182.8L179.746 182.8ZM200.932 182.8L210.372 182.8L210.372 184.92C212.372 183.16 214.905 182.28 217.972 182.28C221.625 182.28 224.478 183.373 226.532 185.56C228.612 187.747 229.652 190.427 229.652 193.6C229.652 195.013 229.412 196.373 228.932 197.68C228.478 198.96 227.798 200.147 226.892 201.24C226.012 202.307 224.798 203.16 223.252 203.8C221.705 204.44 219.958 204.76 218.012 204.76C216.758 204.76 215.572 204.6 214.452 204.28C213.358 203.96 212.585 203.667 212.132 203.4C211.678 203.133 211.092 202.747 210.372 202.24L210.372 211.4L200.932 211.4L200.932 182.8ZM215.372 188.68C213.665 188.68 212.398 189.147 211.572 190.08C210.772 191.013 210.372 192.04 210.372 193.16C210.372 194.573 210.785 195.8 211.612 196.84C212.465 197.853 213.678 198.36 215.252 198.36C216.798 198.36 217.958 197.92 218.732 197.04C219.505 196.16 219.892 194.973 219.892 193.48C219.892 192.227 219.518 191.12 218.772 190.16C218.052 189.173 216.918 188.68 215.372 188.68ZM259.172 182.8L249.132 204.8C248.572 206 247.972 207.013 247.332 207.84C246.719 208.693 246.119 209.347 245.532 209.8C244.972 210.253 244.319 210.6 243.572 210.84C242.852 211.08 242.212 211.227 241.652 211.28C241.119 211.333 240.452 211.36 239.652 211.36L233.652 211.36L233.652 205.36L238.012 205.36C239.292 205.36 239.932 204.947 239.932 204.12C239.932 203.773 239.799 203.333 239.532 202.8L230.492 182.8L240.812 182.8L244.812 195.32L248.812 182.8L259.172 182.8ZM284.692 189.2L276.652 189.2L276.652 204L267.212 204L267.212 189.2L259.172 189.2L259.172 182.8L284.692 182.8L284.692 189.2ZM285.871 193.44C285.871 191.493 286.311 189.773 287.191 188.28C288.071 186.787 289.258 185.613 290.751 184.76C292.271 183.907 293.911 183.28 295.671 182.88C297.458 182.453 299.351 182.24 301.351 182.24C304.231 182.24 306.738 182.573 308.871 183.24C311.004 183.88 312.658 184.747 313.831 185.84C315.004 186.933 315.858 188.107 316.391 189.36C316.951 190.613 317.231 191.947 317.231 193.36C317.231 196.96 315.764 199.733 312.831 201.68C309.898 203.6 306.138 204.56 301.551 204.56C299.578 204.56 297.698 204.36 295.911 203.96C294.151 203.56 292.498 202.96 290.951 202.16C289.404 201.333 288.164 200.173 287.231 198.68C286.324 197.187 285.871 195.44 285.871 193.44ZM307.511 193.28C307.511 191.573 306.964 190.24 305.871 189.28C304.804 188.293 303.338 187.8 301.471 187.8C299.524 187.8 298.058 188.333 297.071 189.4C296.111 190.467 295.631 191.707 295.631 193.12C295.631 195.12 296.218 196.573 297.391 197.48C298.591 198.387 300.044 198.84 301.751 198.84C302.311 198.84 302.884 198.76 303.471 198.6C304.058 198.44 304.671 198.173 305.311 197.8C305.978 197.427 306.511 196.853 306.911 196.08C307.311 195.28 307.511 194.347 307.511 193.28ZM347.471 204L338.031 204L338.031 193.44L329.511 201.04L329.511 204L320.111 204L320.111 182.8L329.511 182.8L329.511 193.04L338.031 185.4L338.031 182.8L347.471 182.8L347.471 204ZM336.911 174.8L342.511 176.28C342.138 177.8 341.165 179.053 339.591 180.04C338.045 181 336.071 181.48 333.671 181.48C331.351 181.48 329.391 181 327.791 180.04C326.191 179.08 325.231 177.827 324.911 176.28L330.511 174.8C330.725 175.28 330.925 175.653 331.111 175.92C331.298 176.187 331.618 176.453 332.071 176.72C332.525 176.96 333.071 177.08 333.711 177.08C334.751 177.08 335.485 176.893 335.911 176.52C336.365 176.147 336.698 175.573 336.911 174.8ZM361.442 175.76L361.442 181.2C361.442 182.507 361.296 184.92 361.002 188.44L360.602 193.52L353.082 193.52L352.722 188.44C352.402 183.96 352.242 181.56 352.242 181.24L352.242 175.76L361.442 175.76ZM360.602 204L353.082 204L353.082 196.6L360.602 196.6L360.602 204Z" fill="black"/>
</svg>
