<svg width="528" height="500" viewBox="0 0 528 500" fill="none" xmlns="http://www.w3.org/2000/svg">
<path d="M104.829 405.359L77.1323 402.072L99.0412 384.812C110.854 375.505 119.078 362.553 122.619 347.864C97.2099 326.511 79.8835 300.328 72.3352 271.764C64.7921 243.221 66.9993 213.048 78.7187 184.506C92.7804 150.258 119.734 120.72 154.614 101.332C192.516 80.2645 237.558 72.0959 284.869 77.7106C344.469 84.7836 392.673 107.869 424.268 144.469C452.731 177.443 465.643 218.895 460.623 261.192C458.184 281.741 451.627 301.239 441.134 319.145C430.276 337.673 415.707 353.59 397.832 366.45C358.486 394.761 306.241 405.994 246.747 398.934C224.662 396.313 201.966 390.629 182.032 382.777C160.185 400.445 132.449 408.637 104.829 405.359ZM282.146 100.655C187.279 89.3968 122.354 139.064 100.092 193.282C79.0556 244.519 94.8553 297.166 142.357 334.115L147.665 338.244L146.697 344.897C144.78 358.068 140.12 370.419 133.118 381.253C147.397 378.237 160.853 371.295 171.975 360.928L177.505 355.773L184.443 358.778C203.912 367.211 227.006 373.323 249.471 375.989C367.537 390.001 429.796 324.893 437.679 258.469C441.924 222.694 430.95 187.57 406.777 159.567C379.017 127.409 335.92 107.037 282.146 100.655Z" fill="#21B8EB"/>
<ellipse cx="264.518" cy="238.952" rx="181.818" ry="144.532" transform="rotate(6.76792 264.518 238.952)" fill="#21B8EB"/>
<path d="M121.29 390.425L143.076 321.011L211.215 360.065L121.29 390.425Z" fill="#21B8EB"/>
<path d="M203.259 199.76L233.859 199.76L233.859 206.96L213.419 206.96L213.419 210.04L224.179 210.04C228.259 210.04 231.259 210.693 233.179 212C235.126 213.28 236.099 215.587 236.099 218.92C236.099 224.973 232.406 228 225.019 228L203.259 228L203.259 199.76ZM213.419 216.44L213.419 221.6L222.139 221.6C223.526 221.6 224.499 221.413 225.059 221.04C225.619 220.64 225.913 219.933 225.939 218.92C225.939 218.067 225.646 217.44 225.059 217.04C224.473 216.64 223.513 216.44 222.179 216.44L213.419 216.44ZM266.215 206.8L256.175 228.8C255.615 230 255.015 231.013 254.375 231.84C253.762 232.693 253.162 233.347 252.575 233.8C252.015 234.253 251.362 234.6 250.615 234.84C249.895 235.08 249.255 235.227 248.695 235.28C248.162 235.333 247.495 235.36 246.695 235.36L240.695 235.36L240.695 229.36L245.055 229.36C246.335 229.36 246.975 228.947 246.975 228.12C246.975 227.773 246.842 227.333 246.575 226.8L237.535 206.8L247.855 206.8L251.855 219.32L255.855 206.8L266.215 206.8ZM295.535 222.36L299.535 222.36L299.535 233.4L290.975 233.4L290.975 228L274.775 228L274.775 233.4L266.215 233.4L266.215 222.4C266.935 222.24 267.468 222.093 267.815 221.96C269.361 221.347 270.415 220.28 270.975 218.76C271.561 217.24 271.855 214.987 271.855 212L271.855 206.8L295.535 206.8L295.535 222.36ZM286.135 212.4L280.415 212.4L280.415 213.32C280.415 218.387 279.228 221.413 276.855 222.4L286.135 222.4L286.135 212.4ZM301.608 228L301.608 206.76L311.048 206.76L311.048 213.64L318.168 213.64C321.741 213.64 324.288 214.173 325.808 215.24C327.354 216.28 328.128 218.053 328.128 220.56C328.128 225.52 324.888 228 318.408 228L301.608 228ZM311.048 222.4L316.808 222.4C317.368 222.4 317.821 222.213 318.168 221.84C318.514 221.467 318.688 221.027 318.688 220.52C318.688 219.907 318.501 219.413 318.128 219.04C317.781 218.64 317.288 218.44 316.648 218.44L311.048 218.44L311.048 222.4ZM199.929 270.76L209.289 271.12C207.662 276.827 202.409 279.68 193.529 279.68C188.729 279.68 184.956 278.68 182.209 276.68C179.462 274.68 178.089 271.933 178.089 268.44C178.089 267.613 178.182 266.773 178.369 265.92C178.556 265.067 178.996 264.067 179.689 262.92C180.382 261.773 181.276 260.773 182.369 259.92C183.489 259.067 185.076 258.347 187.129 257.76C189.209 257.147 191.622 256.84 194.369 256.84C198.716 256.84 202.222 257.76 204.889 259.6C206.729 260.88 208.022 262.587 208.769 264.72L199.449 265.56C199.129 264.6 198.449 263.853 197.409 263.32C196.396 262.787 195.329 262.52 194.209 262.52C192.449 262.52 190.996 263.04 189.849 264.08C188.702 265.12 188.129 266.493 188.129 268.2C188.129 269.933 188.676 271.36 189.769 272.48C190.889 273.573 192.422 274.12 194.369 274.12C194.716 274.12 195.076 274.093 195.449 274.04C195.849 273.987 196.369 273.867 197.009 273.68C197.649 273.467 198.236 273.12 198.769 272.64C199.302 272.133 199.689 271.507 199.929 270.76ZM210.59 268.44C210.59 266.493 211.03 264.773 211.91 263.28C212.79 261.787 213.977 260.613 215.47 259.76C216.99 258.907 218.63 258.28 220.39 257.88C222.177 257.453 224.07 257.24 226.07 257.24C228.95 257.24 231.457 257.573 233.59 258.24C235.723 258.88 237.377 259.747 238.55 260.84C239.723 261.933 240.577 263.107 241.11 264.36C241.67 265.613 241.95 266.947 241.95 268.36C241.95 271.96 240.483 274.733 237.55 276.68C234.617 278.6 230.857 279.56 226.27 279.56C224.297 279.56 222.417 279.36 220.63 278.96C218.87 278.56 217.217 277.96 215.67 277.16C214.123 276.333 212.883 275.173 211.95 273.68C211.043 272.187 210.59 270.44 210.59 268.44ZM232.23 268.28C232.23 266.573 231.683 265.24 230.59 264.28C229.523 263.293 228.057 262.8 226.19 262.8C224.243 262.8 222.777 263.333 221.79 264.4C220.83 265.467 220.35 266.707 220.35 268.12C220.35 270.12 220.937 271.573 222.11 272.48C223.31 273.387 224.763 273.84 226.47 273.84C227.03 273.84 227.603 273.76 228.19 273.6C228.777 273.44 229.39 273.173 230.03 272.8C230.697 272.427 231.23 271.853 231.63 271.08C232.03 270.28 232.23 269.347 232.23 268.28ZM264.39 250.72L273.67 250.72C273.67 251.867 273.457 252.893 273.03 253.8C272.603 254.68 272.043 255.4 271.35 255.96C270.683 256.52 269.843 257 268.83 257.4C267.817 257.8 266.79 258.093 265.75 258.28C264.737 258.467 263.603 258.613 262.35 258.72C260.83 258.853 259.497 259.04 258.35 259.28C257.203 259.493 256.137 259.8 255.15 260.2C254.19 260.6 253.443 261.12 252.91 261.76C252.403 262.4 252.137 263.147 252.11 264C254.483 262.08 258.123 261.12 263.03 261.12C264.683 261.12 266.137 261.253 267.39 261.52C268.643 261.787 269.79 262.24 270.83 262.88C271.87 263.52 272.657 264.427 273.19 265.6C273.75 266.747 274.03 268.147 274.03 269.8C274.03 276.36 268.963 279.64 258.83 279.64C248.883 279.64 243.91 275.333 243.91 266.72C243.91 264.747 244.243 262.96 244.91 261.36C245.603 259.76 246.497 258.44 247.59 257.4C248.683 256.333 249.99 255.427 251.51 254.68C253.057 253.933 254.617 253.387 256.19 253.04C257.763 252.667 259.443 252.413 261.23 252.28C262.377 252.2 263.19 252.053 263.67 251.84C264.15 251.6 264.39 251.227 264.39 250.72ZM264.27 270.24C264.27 267.893 262.603 266.72 259.27 266.72C258.31 266.72 257.43 266.827 256.63 267.04C255.857 267.227 255.163 267.613 254.55 268.2C253.963 268.76 253.67 269.48 253.67 270.36C253.67 271.56 254.19 272.48 255.23 273.12C256.297 273.733 257.55 274.04 258.99 274.04C260.59 274.04 261.87 273.733 262.83 273.12C263.79 272.507 264.27 271.547 264.27 270.24ZM276.02 268.44C276.02 266.493 276.46 264.773 277.34 263.28C278.22 261.787 279.406 260.613 280.9 259.76C282.42 258.907 284.06 258.28 285.82 257.88C287.606 257.453 289.5 257.24 291.5 257.24C294.38 257.24 296.886 257.573 299.02 258.24C301.153 258.88 302.806 259.747 303.98 260.84C305.153 261.933 306.006 263.107 306.54 264.36C307.1 265.613 307.38 266.947 307.38 268.36C307.38 271.96 305.913 274.733 302.98 276.68C300.046 278.6 296.286 279.56 291.7 279.56C289.726 279.56 287.846 279.36 286.06 278.96C284.3 278.56 282.646 277.96 281.1 277.16C279.553 276.333 278.313 275.173 277.38 273.68C276.473 272.187 276.02 270.44 276.02 268.44ZM297.66 268.28C297.66 266.573 297.113 265.24 296.02 264.28C294.953 263.293 293.486 262.8 291.62 262.8C289.673 262.8 288.206 263.333 287.22 264.4C286.26 265.467 285.78 266.707 285.78 268.12C285.78 270.12 286.366 271.573 287.54 272.48C288.74 273.387 290.193 273.84 291.9 273.84C292.46 273.84 293.033 273.76 293.62 273.6C294.206 273.44 294.82 273.173 295.46 272.8C296.126 272.427 296.66 271.853 297.06 271.08C297.46 270.28 297.66 269.347 297.66 268.28ZM337.62 279L328.18 279L328.18 268.44L319.66 276.04L319.66 279L310.26 279L310.26 257.8L319.66 257.8L319.66 268.04L328.18 260.4L328.18 257.8L337.62 257.8L337.62 279ZM327.06 249.8L332.66 251.28C332.287 252.8 331.313 254.053 329.74 255.04C328.193 256 326.22 256.48 323.82 256.48C321.5 256.48 319.54 256 317.94 255.04C316.34 254.08 315.38 252.827 315.06 251.28L320.66 249.8C320.873 250.28 321.073 250.653 321.26 250.92C321.447 251.187 321.767 251.453 322.22 251.72C322.673 251.96 323.22 252.08 323.86 252.08C324.9 252.08 325.633 251.893 326.06 251.52C326.513 251.147 326.847 250.573 327.06 249.8ZM351.591 250.76L351.591 256.2C351.591 257.507 351.444 259.92 351.151 263.44L350.751 268.52L343.231 268.52L342.871 263.44C342.551 258.96 342.391 256.56 342.391 256.24L342.391 250.76L351.591 250.76ZM350.751 279L343.231 279L343.231 271.6L350.751 271.6L350.751 279Z" fill="white"/>
</svg>
