<svg width="556" height="505" viewBox="0 0 556 505" fill="none" xmlns="http://www.w3.org/2000/svg">
<path d="M420.892 494.62L455.795 499.67L434.685 471.418C423.302 456.185 417.496 437.674 417.978 418.574C456.002 400.809 485.733 374.501 504.3 342.083C522.854 309.691 530.033 272.116 525.06 233.419C519.094 186.987 495.84 142.089 459.583 106.994C420.184 68.8575 367.845 44.1399 308.222 35.514C233.113 24.6476 166.682 37.0679 116.114 71.431C70.5588 102.389 41.2229 148.793 33.5113 202.096C29.7648 227.993 31.3925 253.953 38.3482 279.257C45.5466 305.441 58.132 329.649 75.7551 351.207C114.547 398.662 174.682 429.48 249.657 440.327C277.49 444.353 307.071 444.84 333.987 441.773C354.889 470.502 386.083 489.584 420.892 494.62ZM304.039 64.4292C423.592 81.7254 486.636 163.637 496.082 237.143C505.008 306.607 468.481 365.739 398.371 395.322L390.537 398.628L389.542 407.071C387.572 423.784 389.222 440.395 394.229 455.919C377.776 447.563 363.613 434.68 353.421 418.378L348.353 410.272L338.896 411.672C312.357 415.6 282.15 415.507 253.839 411.411C105.05 389.885 50.3161 289.988 62.4265 206.28C68.949 161.195 93.8478 121.887 132.537 95.5958C176.967 65.4027 236.272 54.6251 304.039 64.4292Z" fill="white"/>
<ellipse rx="229.904" ry="182.756" transform="matrix(-0.989696 -0.143183 -0.143183 0.989696 280.298 238.955)" fill="white"/>
<path d="M405.672 470.99L401.78 379.08L305.775 404.48L405.672 470.99Z" fill="white"/>
<path d="M118.928 218.76L138.288 218.76C139.382 218.76 140.262 218.773 140.928 218.8C141.622 218.827 142.422 218.92 143.328 219.08C144.262 219.24 145.035 219.467 145.648 219.76C146.262 220.053 146.862 220.48 147.448 221.04C148.062 221.573 148.568 222.24 148.968 223.04C149.635 224.427 149.968 226 149.968 227.76C149.968 231.093 148.768 233.56 146.368 235.16C145.515 235.72 144.462 236.16 143.208 236.48C141.955 236.773 140.888 236.947 140.008 237C139.155 237.027 138.035 237.04 136.648 237.04L129.008 237.04L129.008 247L118.928 247L118.928 218.76ZM129.008 225.16L129.008 230.68L135.608 230.68C136.755 230.68 137.515 230.627 137.888 230.52C139.195 230.173 139.848 229.307 139.848 227.92C139.848 227.44 139.728 226.96 139.488 226.48C138.982 225.6 137.942 225.16 136.368 225.16L129.008 225.16ZM180.568 247L170.768 247C170.582 246.227 170.462 245.547 170.408 244.96C166.595 246.72 163.088 247.6 159.888 247.6C156.715 247.6 154.368 246.947 152.848 245.64C151.328 244.333 150.568 242.747 150.568 240.88C150.568 238 151.968 236.053 154.768 235.04C157.595 234 162.675 233.48 170.008 233.48L170.248 233.48L170.248 233.24C170.248 231.4 168.728 230.48 165.688 230.48C162.462 230.48 160.742 231.12 160.528 232.4L151.448 232.4C151.875 229.733 153.115 227.853 155.168 226.76C157.248 225.64 160.648 225.08 165.368 225.08C169.022 225.08 171.862 225.36 173.888 225.92C175.942 226.453 177.368 227.253 178.168 228.32C178.995 229.387 179.408 230.853 179.408 232.72L179.408 243.92C179.408 244.8 179.488 245.44 179.648 245.84C179.835 246.213 180.142 246.6 180.568 247ZM170.368 237.28L164.888 237.56C163.262 237.64 162.062 237.853 161.288 238.2C160.515 238.52 160.128 239.08 160.128 239.88C160.128 240.413 160.395 240.907 160.928 241.36C161.462 241.787 162.288 242 163.408 242C164.315 242 165.355 241.8 166.528 241.4C167.728 241 168.675 240.413 169.368 239.64C169.822 239.133 170.155 238.347 170.368 237.28ZM204.288 238.76L213.648 239.12C212.022 244.827 206.768 247.68 197.888 247.68C193.088 247.68 189.315 246.68 186.568 244.68C183.822 242.68 182.448 239.933 182.448 236.44C182.448 235.613 182.542 234.773 182.728 233.92C182.915 233.067 183.355 232.067 184.048 230.92C184.742 229.773 185.635 228.773 186.728 227.92C187.848 227.067 189.435 226.347 191.488 225.76C193.568 225.147 195.982 224.84 198.728 224.84C203.075 224.84 206.582 225.76 209.248 227.6C211.088 228.88 212.382 230.587 213.128 232.72L203.808 233.56C203.488 232.6 202.808 231.853 201.768 231.32C200.755 230.787 199.688 230.52 198.568 230.52C196.808 230.52 195.355 231.04 194.208 232.08C193.062 233.12 192.488 234.493 192.488 236.2C192.488 237.933 193.035 239.36 194.128 240.48C195.248 241.573 196.782 242.12 198.728 242.12C199.075 242.12 199.435 242.093 199.808 242.04C200.208 241.987 200.728 241.867 201.368 241.68C202.008 241.467 202.595 241.12 203.128 240.64C203.662 240.133 204.048 239.507 204.288 238.76ZM236.749 238.76L246.109 239.12C244.482 244.827 239.229 247.68 230.349 247.68C225.549 247.68 221.776 246.68 219.029 244.68C216.282 242.68 214.909 239.933 214.909 236.44C214.909 235.613 215.002 234.773 215.189 233.92C215.376 233.067 215.816 232.067 216.509 230.92C217.202 229.773 218.096 228.773 219.189 227.92C220.309 227.067 221.896 226.347 223.949 225.76C226.029 225.147 228.442 224.84 231.189 224.84C235.536 224.84 239.042 225.76 241.709 227.6C243.549 228.88 244.842 230.587 245.589 232.72L236.269 233.56C235.949 232.6 235.269 231.853 234.229 231.32C233.216 230.787 232.149 230.52 231.029 230.52C229.269 230.52 227.816 231.04 226.669 232.08C225.522 233.12 224.949 234.493 224.949 236.2C224.949 237.933 225.496 239.36 226.589 240.48C227.709 241.573 229.242 242.12 231.189 242.12C231.536 242.12 231.896 242.093 232.269 242.04C232.669 241.987 233.189 241.867 233.829 241.68C234.469 241.467 235.056 241.12 235.589 240.64C236.122 240.133 236.509 239.507 236.749 238.76ZM274.05 247L264.61 247L264.61 231.4L259.33 231.4L259.33 236.12C259.33 239.96 258.503 242.733 256.85 244.44C255.223 246.147 252.837 247 249.69 247L246.57 247L246.57 240.6L247.09 240.6C248.583 240.6 249.57 239.947 250.05 238.64C250.53 237.307 250.77 234.507 250.77 230.24L250.77 225.8L274.05 225.8L274.05 247ZM306.74 247L296.94 247C296.754 246.227 296.634 245.547 296.58 244.96C292.767 246.72 289.26 247.6 286.06 247.6C282.887 247.6 280.54 246.947 279.02 245.64C277.5 244.333 276.74 242.747 276.74 240.88C276.74 238 278.14 236.053 280.94 235.04C283.767 234 288.847 233.48 296.18 233.48L296.42 233.48L296.42 233.24C296.42 231.4 294.9 230.48 291.86 230.48C288.634 230.48 286.914 231.12 286.7 232.4L277.62 232.4C278.047 229.733 279.287 227.853 281.34 226.76C283.42 225.64 286.82 225.08 291.54 225.08C295.194 225.08 298.034 225.36 300.06 225.92C302.114 226.453 303.54 227.253 304.34 228.32C305.167 229.387 305.58 230.853 305.58 232.72L305.58 243.92C305.58 244.8 305.66 245.44 305.82 245.84C306.007 246.213 306.314 246.6 306.74 247ZM296.54 237.28L291.06 237.56C289.434 237.64 288.234 237.853 287.46 238.2C286.687 238.52 286.3 239.08 286.3 239.88C286.3 240.413 286.567 240.907 287.1 241.36C287.634 241.787 288.46 242 289.58 242C290.487 242 291.527 241.8 292.7 241.4C293.9 241 294.847 240.413 295.54 239.64C295.994 239.133 296.327 238.347 296.54 237.28ZM329.14 218.72L338.42 218.72C338.42 219.867 338.207 220.893 337.78 221.8C337.353 222.68 336.793 223.4 336.1 223.96C335.433 224.52 334.593 225 333.58 225.4C332.567 225.8 331.54 226.093 330.5 226.28C329.487 226.467 328.353 226.613 327.1 226.72C325.58 226.853 324.247 227.04 323.1 227.28C321.953 227.493 320.887 227.8 319.9 228.2C318.94 228.6 318.193 229.12 317.66 229.76C317.153 230.4 316.887 231.147 316.86 232C319.233 230.08 322.873 229.12 327.78 229.12C329.433 229.12 330.887 229.253 332.14 229.52C333.393 229.787 334.54 230.24 335.58 230.88C336.62 231.52 337.407 232.427 337.94 233.6C338.5 234.747 338.78 236.147 338.78 237.8C338.78 244.36 333.713 247.64 323.58 247.64C313.633 247.64 308.66 243.333 308.66 234.72C308.66 232.747 308.993 230.96 309.66 229.36C310.353 227.76 311.247 226.44 312.34 225.4C313.433 224.333 314.74 223.427 316.26 222.68C317.807 221.933 319.367 221.387 320.94 221.04C322.513 220.667 324.193 220.413 325.98 220.28C327.127 220.2 327.94 220.053 328.42 219.84C328.9 219.6 329.14 219.227 329.14 218.72ZM329.02 238.24C329.02 235.893 327.353 234.72 324.02 234.72C323.06 234.72 322.18 234.827 321.38 235.04C320.607 235.227 319.913 235.613 319.3 236.2C318.713 236.76 318.42 237.48 318.42 238.36C318.42 239.56 318.94 240.48 319.98 241.12C321.047 241.733 322.3 242.04 323.74 242.04C325.34 242.04 326.62 241.733 327.58 241.12C328.54 240.507 329.02 239.547 329.02 238.24ZM341.689 247L341.689 225.76L351.129 225.76L351.129 232.64L358.249 232.64C361.823 232.64 364.369 233.173 365.889 234.24C367.436 235.28 368.209 237.053 368.209 239.56C368.209 244.52 364.969 247 358.489 247L341.689 247ZM351.129 241.4L356.889 241.4C357.449 241.4 357.903 241.213 358.249 240.84C358.596 240.467 358.769 240.027 358.769 239.52C358.769 238.907 358.583 238.413 358.209 238.04C357.863 237.64 357.369 237.44 356.729 237.44L351.129 237.44L351.129 241.4ZM392.023 238.76L401.383 239.12C399.756 244.827 394.503 247.68 385.623 247.68C380.823 247.68 377.049 246.68 374.303 244.68C371.556 242.68 370.183 239.933 370.183 236.44C370.183 235.613 370.276 234.773 370.463 233.92C370.649 233.067 371.089 232.067 371.783 230.92C372.476 229.773 373.369 228.773 374.463 227.92C375.583 227.067 377.169 226.347 379.223 225.76C381.303 225.147 383.716 224.84 386.463 224.84C390.809 224.84 394.316 225.76 396.983 227.6C398.823 228.88 400.116 230.587 400.863 232.72L391.543 233.56C391.223 232.6 390.543 231.853 389.503 231.32C388.489 230.787 387.423 230.52 386.303 230.52C384.543 230.52 383.089 231.04 381.943 232.08C380.796 233.12 380.223 234.493 380.223 236.2C380.223 237.933 380.769 239.36 381.863 240.48C382.983 241.573 384.516 242.12 386.463 242.12C386.809 242.12 387.169 242.093 387.543 242.04C387.943 241.987 388.463 241.867 389.103 241.68C389.743 241.467 390.329 241.12 390.863 240.64C391.396 240.133 391.783 239.507 392.023 238.76ZM420.323 240.56L416.523 240.56C415.697 240.56 415.043 240.827 414.563 241.36C414.11 241.867 413.817 242.453 413.683 243.12C413.55 243.76 413.35 244.48 413.083 245.28C412.817 246.053 412.47 246.627 412.043 247L402.323 247C403.043 246.493 403.643 245.627 404.123 244.4C404.63 243.147 405.177 241.92 405.763 240.72C406.35 239.52 407.123 238.68 408.083 238.2C405.523 237.4 404.243 235.653 404.243 232.96C404.243 230.827 405.017 229.107 406.563 227.8C408.11 226.467 410.23 225.8 412.923 225.8L429.763 225.8L429.763 247L420.323 247L420.323 240.56ZM420.323 231.16L416.443 231.16C415.643 231.16 414.977 231.373 414.443 231.8C413.937 232.227 413.683 232.8 413.683 233.52C413.683 235.013 414.603 235.76 416.443 235.76L420.323 235.76L420.323 231.16ZM443.723 218.76L443.723 224.2C443.723 225.507 443.577 227.92 443.283 231.44L442.883 236.52L435.363 236.52L435.003 231.44C434.683 226.96 434.523 224.56 434.523 224.24L434.523 218.76L443.723 218.76ZM442.883 247L435.363 247L435.363 239.6L442.883 239.6L442.883 247Z" fill="black"/>
</svg>
