<svg width="125" height="116" viewBox="0 0 125 116" fill="none" xmlns="http://www.w3.org/2000/svg">
<g clip-path="url(#clip0)">
<path d="M16.0956 32.9592C20.3723 27.1462 26.1771 22.5871 32.7292 19.6142C31.8904 18.5263 31.0517 17.4384 30.213 16.3506C22.2989 24.6798 15.1323 33.7066 8.79613 43.2898C8.23144 44.1451 8.547 45.3824 9.3276 45.9721C10.2079 46.6281 11.2293 46.4869 12.0514 45.806C26.6089 33.8062 41.2328 21.7733 57.2684 11.7749C61.7943 8.95143 66.4281 6.30235 71.1698 3.86919C70.4723 2.67336 69.7747 1.47754 69.0771 0.281723C49.3378 14.9804 31.0268 31.5724 14.5261 49.8502C9.9006 54.9739 5.41627 60.2389 1.07312 65.6201C0.367251 66.492 0.217774 67.7044 1.07312 68.5598C1.87033 69.357 3.21563 69.357 4.01284 68.5598C13.978 58.578 24.566 49.219 35.7187 40.5909C46.8216 31.9959 58.4974 24.1151 70.6051 16.9983C77.4977 12.9458 84.5315 9.15073 91.6898 5.61309C90.851 4.52523 90.0123 3.43736 89.1736 2.3495C77.8133 11.6503 66.6606 21.2003 55.7238 30.9994C44.787 40.7985 34.0745 50.8384 23.5861 61.1191C17.69 66.8989 11.8604 72.7535 6.10553 78.6744C4.22876 80.601 7.06053 83.3913 9.04526 81.6142C18.9025 72.7618 29.1251 64.308 39.7048 56.3192C50.3675 48.264 61.379 40.6573 72.6895 33.5322C79.034 29.5295 85.4781 25.6846 92.0136 21.9892C91.1749 20.9013 90.3362 19.8135 89.4974 18.7256C79.3828 28.9482 69.1602 39.0379 58.8213 49.0114C48.5323 58.9434 38.127 68.7508 27.6054 78.4336C21.6346 83.9394 15.6223 89.3953 9.57673 94.8263C10.5566 95.8062 11.5366 96.7861 12.5165 97.7661C24.566 85.6501 37.3962 74.2898 51.0319 63.9841C64.6925 53.6535 79.1254 44.3361 94.2558 36.2975C102.676 31.8215 111.305 27.7358 120.124 24.1068C119.592 22.8445 119.061 21.574 118.521 20.3117C105.018 30.3433 91.7479 40.6822 78.7351 51.3366C65.8052 61.9246 53.1329 72.8116 40.7262 84.0058C33.7008 90.342 26.7584 96.7778 19.899 103.305C19.1599 104.011 19.1101 105.248 19.7329 106.029C20.3142 106.76 21.5765 107.2 22.4152 106.56C32.6129 98.829 42.9269 91.2555 53.465 84.0141C64.053 76.7395 74.8736 69.8054 86.0096 63.3945C92.2628 59.7987 98.6239 56.3691 105.076 53.1387C104.238 52.0508 103.399 50.9629 102.56 49.8751C87.2221 65.8194 70.7795 80.6841 53.3654 94.3364C48.499 98.148 43.558 101.852 38.5422 105.472C37.637 106.128 37.1969 107.283 37.7948 108.313C38.3595 109.276 39.6716 109.633 40.6349 109.06C61.7943 96.3709 82.9619 83.6819 104.121 70.9929C110.15 67.3806 116.179 63.7599 122.208 60.1475C121.369 59.0597 120.531 57.9718 119.692 56.8839C103.897 71.3251 87.4795 85.102 70.4723 98.0982C65.689 101.752 60.8642 105.348 55.9978 108.886C53.8719 110.43 55.6906 113.752 58.0905 112.473C73.2625 104.393 88.4262 96.3211 103.598 88.241C107.925 85.9407 112.251 83.6321 116.578 81.3318C115.739 80.2439 114.9 79.1561 114.062 78.0682C102.635 89.4119 91.2164 100.756 79.7897 112.099C78.1205 113.752 80.2547 116.567 82.3059 115.363C91.0088 110.247 99.8529 105.074 109.768 102.724C109.096 101.569 108.423 100.407 107.75 99.2525C103.316 104.841 97.6108 109.168 91.042 111.95C90.0123 112.39 89.7798 113.91 90.2947 114.79C90.9175 115.861 92.0967 115.977 93.1347 115.537C99.9775 112.639 106.065 108.005 110.682 102.192C111.927 100.623 110.815 98.2145 108.664 98.721C98.408 101.146 89.2068 106.486 80.2049 111.775C81.0436 112.863 81.8824 113.951 82.7211 115.039C94.1479 103.695 105.566 92.3516 116.993 81.0079C118.695 79.3139 116.536 76.6482 114.477 77.7444C99.3048 85.8244 84.1412 93.8962 68.9692 101.976C64.6426 104.277 60.3161 106.585 55.9895 108.886C56.6871 110.081 57.3847 111.277 58.0822 112.473C75.5794 99.7591 92.5368 86.2895 108.855 72.0974C113.497 68.0615 118.081 63.9675 122.615 59.8236C124.367 58.2209 122.108 55.3559 120.099 56.5601C98.9394 69.249 77.7718 81.938 56.6124 94.627C50.5834 98.2394 44.5545 101.86 38.5256 105.472C39.2231 106.668 39.9207 107.864 40.6183 109.06C58.7549 95.9806 75.9863 81.6557 92.1216 66.1598C96.6641 61.8001 101.107 57.349 105.475 52.8148C107.152 51.0709 105.043 48.5132 102.959 49.5512C91.532 55.2646 80.4291 61.6091 69.6086 68.402C58.7217 75.2365 48.1171 82.5193 37.7034 90.0513C31.8489 94.2865 26.0525 98.6048 20.2893 102.973C21.128 104.061 21.9668 105.149 22.8055 106.236C34.8634 94.7599 47.187 83.574 59.768 72.6787C72.3573 61.7918 85.1958 51.1955 98.2834 40.9147C105.641 35.1349 113.073 29.4631 120.58 23.8909C121.411 23.2764 121.876 22.3131 121.428 21.2999C121.054 20.4446 119.949 19.6972 118.978 20.0958C102.917 26.6977 87.4629 34.6948 72.7476 43.9209C58.0656 53.1636 44.0895 63.5855 30.9271 74.9209C23.5529 81.2737 16.4361 87.9171 9.57673 94.818C7.67505 96.728 10.5317 99.5266 12.5165 97.7577C23.2124 88.1663 33.7921 78.4502 44.2638 68.6096C54.6775 58.8188 64.9831 48.9118 75.1725 38.8802C80.9606 33.1834 86.7155 27.4451 92.4289 21.6736C94.0897 19.9962 91.9721 17.2474 89.9127 18.41C78.2202 25.0286 66.8101 32.1288 55.7238 39.7106C44.596 47.3173 33.7921 55.4058 23.3453 63.9177C17.4824 68.701 11.7359 73.6171 6.10553 78.6744C7.08544 79.6543 8.06535 80.6343 9.04526 81.6142C19.2762 71.0843 29.7396 60.7703 40.4273 50.7055C51.1149 40.6324 62.0268 30.8001 73.1462 21.2169C79.3994 15.8274 85.7273 10.5126 92.1133 5.28092C92.9022 4.63318 92.8607 3.29619 92.2794 2.5571C91.6067 1.71837 90.5521 1.55228 89.5971 2.02563C76.8417 8.3286 64.5015 15.4454 52.6595 23.3345C40.776 31.2485 29.3908 39.9182 18.6035 49.2772C12.5663 54.5089 6.72005 59.9648 1.07312 65.6201C2.05303 66.6 3.03294 67.5799 4.01284 68.5598C19.2762 49.6259 36.3831 32.2035 55.0345 16.608C60.2912 12.2067 65.6807 7.95491 71.1781 3.86088C73.2874 2.29137 71.5103 -0.972228 69.0854 0.273418C52.0118 9.04277 36.5907 20.5775 21.6927 32.5855C17.4741 35.982 13.2971 39.4283 9.12 42.8662C10.2079 43.705 11.2957 44.5437 12.3836 45.3824C18.5288 36.0816 25.4795 27.3621 33.1527 19.2903C34.8551 17.4966 32.7209 15.0883 30.6365 16.0267C23.4034 19.3069 17.2084 24.4722 12.5082 30.8582C11.8438 31.7634 12.3587 33.1751 13.2555 33.6983C14.3102 34.3211 15.4313 33.8644 16.0956 32.9592Z" fill="#21B8EB"/>
</g>
<defs>
<clipPath id="clip0">
<rect width="124" height="115.77" fill="white" transform="translate(0.492188)"/>
</clipPath>
</defs>
</svg>
