<svg width="142" height="130" viewBox="0 0 142 130" fill="none" xmlns="http://www.w3.org/2000/svg">
<g filter="url(#filter0_d)">
<g clip-path="url(#clip0)">
<path d="M8.78305 30.0087C16.2668 20.4787 26.0794 12.9165 37.1741 8.0547C42.8471 5.56884 48.9754 3.69529 55.1351 2.94168C58.5996 2.51778 62.1635 2.42881 65.6176 2.99402C68.9041 3.53305 72.0285 4.64253 74.9748 6.18115C80.9514 9.31071 86.1533 13.7748 91.4286 17.9196C97.358 22.5773 103.287 27.235 109.222 31.898C114.026 35.6765 118.862 39.4602 123.159 43.8196C127.141 47.8598 130.742 52.4704 132.809 57.8032C135.305 64.2455 135.248 71.2111 134.086 77.936C133.065 83.8393 131.438 89.7373 128.837 95.1539C126.429 100.167 123.153 104.857 118.721 108.284C113.555 112.277 107.171 114.041 100.849 115.203C93.7888 116.501 86.6191 117.448 79.4546 117.914C72.1802 118.385 64.8116 118.291 57.6053 117.082C45.9557 115.124 34.4475 110.163 26.3044 101.403C21.72 96.4727 18.627 90.4438 15.7748 84.4045C14.3618 81.411 12.9541 78.2082 13.3884 74.8169C13.8123 71.5251 15.4922 68.5369 16.5441 65.4335C18.5695 59.457 18.6584 52.8315 16.9576 46.766C16.0784 43.6312 14.6758 40.7372 12.9593 37.9844C11.5149 35.666 9.63609 32.9761 9.95009 30.1553C10.0548 29.2237 10.4473 28.1561 11.0177 27.4182C11.63 26.628 12.4098 26.1727 13.3256 26.1517C12.9488 25.4976 12.572 24.8381 12.1952 24.184C9.12845 28.5957 8.09224 34.2111 9.23835 39.4393C9.55235 40.8732 11.8707 40.5697 11.8079 39.0939C11.6614 35.755 12.2737 32.4161 13.6867 29.3807C14.0321 28.6323 13.7809 27.6903 12.9069 27.4601C9.37442 26.5181 6.8781 29.6843 6.38092 32.8609C6.10879 34.5984 6.24486 36.3516 6.9723 37.9635C7.81487 39.8213 9.26975 41.407 10.5938 42.9352C12.0277 44.5837 13.5193 46.2845 14.1787 48.4145C14.9741 48.0796 15.7748 47.7447 16.5703 47.4045C14.8433 43.8092 15.0736 39.6643 16.3662 35.9696C17.7374 32.0445 20.3279 28.7318 23.4888 26.0785C30.5068 20.1804 39.592 17.5794 47.6147 13.4189C52.1102 11.0901 56.4225 8.22216 59.7248 4.33376C60.7191 3.16672 59.4997 1.68044 58.1391 2.27704C50.4722 5.65781 42.9989 9.50957 35.7925 13.8062C32.171 15.9676 28.6176 18.2389 25.1426 20.62C23.4051 21.808 21.6833 23.0274 19.9825 24.2729C18.3706 25.4505 16.7326 26.6227 15.2358 27.952C12.2057 30.642 9.45292 34.3891 10.4944 38.6543C10.845 40.0882 13.0797 39.7794 13.064 38.3089C12.9907 31.2176 16.5337 24.2572 22.1596 19.9659C23.7714 18.736 25.5665 17.705 27.461 16.9776C27.126 16.1821 26.7911 15.3814 26.4509 14.586C19.2393 17.726 13.8071 24.5555 12.012 32.1806C11.5044 34.3367 11.2741 36.5714 11.3683 38.7851C11.3997 39.4916 11.9492 40.0935 12.6767 40.0935C13.4565 40.0935 13.8961 39.4916 13.985 38.7851C15.419 27.413 25.2996 19.6676 34.4737 14.1673C37.2945 12.4769 40.1938 10.9174 43.1193 9.41014C42.6797 8.65653 42.2401 7.90293 41.8004 7.14932C35.1959 10.7604 28.5862 14.3766 21.9816 17.9877C22.5102 18.6732 23.0388 19.3588 23.5673 20.0444C30.6219 14.4342 38.6081 9.96488 47.0757 6.87195C48.6352 6.30151 48.0386 3.93079 46.3797 4.34946C38.8541 6.25441 31.6529 9.50434 25.2577 13.9161C23.4156 15.1878 21.6362 16.5589 19.9249 18.0034C19.3859 18.4587 19.4539 19.385 19.9249 19.856C20.4744 20.4055 21.2176 20.2956 21.7775 19.856C26.4091 16.2083 31.8361 13.6439 37.5614 12.2728C37.2265 11.4773 36.8915 10.6766 36.5514 9.88114C31.7367 13.0055 26.9219 16.1298 22.1072 19.2489C20.6838 20.1752 21.9188 22.2372 23.426 21.5097C31.4227 17.6632 39.2727 13.5079 46.9449 9.0438C49.1429 7.76686 51.3252 6.46375 53.4918 5.13447C54.0937 4.76813 54.3239 3.96219 53.9628 3.34465C53.5756 2.68001 52.8219 2.58581 52.173 2.87365C47.2746 5.0612 42.8576 8.3059 39.2884 12.3094C38.3569 13.3561 39.5815 15.2506 40.8741 14.3662C44.2444 12.0582 47.62 9.75554 50.9903 7.44762C50.5507 6.69402 50.111 5.94041 49.6714 5.1868C47.3426 6.80915 45.019 8.4315 42.6901 10.0538C41.3294 11.0011 42.5383 13.1834 44.0089 12.3147C47.1961 10.4254 50.5088 8.75597 53.9419 7.35866C53.607 6.56318 53.272 5.76247 52.9318 4.967C48.8917 7.24352 44.8567 9.51481 40.8166 11.7913C41.2562 12.5449 41.6958 13.2985 42.1354 14.0521C49.2057 9.51481 57.218 6.54748 65.5391 5.3909C67.8784 5.06643 70.2386 4.90943 72.5937 4.8728C74.0642 4.85187 74.373 2.71141 72.9391 2.30321C65.9159 0.288358 57.9925 1.73277 52.1887 6.20208C52.7173 6.88765 53.2458 7.57322 53.7744 8.2588C60.0545 3.39175 69.3961 3.26092 75.9378 7.65172C76.2727 6.85625 76.6077 6.05554 76.9478 5.26007C69.0873 2.95738 60.7034 3.22428 52.8219 5.2967C44.8934 7.38482 37.4253 11.2104 30.8836 16.1246C27.4819 18.6785 24.2634 21.5045 21.6362 24.8591C19.1242 28.0724 17.2193 31.6729 15.958 35.5509C13.5036 43.0817 13.4826 51.1673 13.8123 58.9964C14.1525 67.1448 14.9532 75.3246 14.2624 83.4782C14.1787 84.4673 14.0688 85.4564 13.9379 86.4403C14.7962 86.3251 15.6492 86.21 16.5075 86.0949C15.8847 81.5261 15.2672 76.9574 14.6444 72.3939C14.5607 71.7606 13.7757 71.3734 13.2105 71.4571C12.5929 71.5513 12.0539 72.0799 12.0748 72.7445C12.415 82.3059 15.9632 91.5533 22.0601 98.9219C22.5102 99.4662 23.4417 99.3877 23.9128 98.9219C24.4518 98.3829 24.3628 97.6188 23.9128 97.0693C18.2816 90.2606 15.0108 81.568 14.6968 72.7445C13.8385 72.8596 12.9855 72.9748 12.1272 73.0899C12.7499 77.6587 13.3675 82.2274 13.9903 86.7909C14.074 87.4241 14.859 87.8114 15.4242 87.7277C16.1202 87.623 16.4709 87.1101 16.5598 86.4403C17.6065 78.5588 17.0256 70.5884 16.6122 62.686C16.2092 55.0452 15.8324 47.2056 17.5437 39.6853C18.3706 36.0428 19.7051 32.5417 21.6729 29.3598C23.8081 25.8953 26.655 22.9489 29.7584 20.3427C35.8135 15.2558 42.8942 11.2052 50.4198 8.7455C57.8094 6.32768 65.806 5.42754 73.4624 7.07082C74.4096 7.27492 75.3464 7.51566 76.2727 7.78779C77.7485 8.22216 78.476 6.19685 77.2828 5.39614C71.4789 1.49727 63.6707 0.806463 57.2023 3.39699C55.2973 4.16106 53.5651 5.1554 51.948 6.41141C50.7862 7.31156 52.3562 9.37351 53.5337 8.46813C58.8194 4.40179 65.8426 2.99402 72.2692 4.83617C72.3843 3.97789 72.4995 3.12485 72.6146 2.26658C63.8696 2.38694 55.2136 4.42796 47.3217 8.19076C45.087 9.25837 42.9204 10.4673 40.8375 11.807C39.4245 12.7124 40.6805 14.9 42.1563 14.0678C46.1651 11.7704 50.2053 9.49388 54.2402 7.22259C55.491 6.51608 54.6379 4.26049 53.2301 4.83093C49.5877 6.31198 46.0552 8.04423 42.6744 10.0486C43.114 10.8022 43.5536 11.5558 43.9932 12.3094C46.3221 10.6871 48.6457 9.06474 50.9746 7.44239C51.5555 7.03942 51.8224 6.29628 51.4456 5.65257C51.1054 5.0769 50.2419 4.78383 49.6557 5.18157C46.2854 7.48949 42.9099 9.79218 39.5396 12.1001C40.0682 12.7857 40.5968 13.4712 41.1253 14.1568C44.5637 10.2946 48.7608 7.23829 53.4813 5.12924C53.0417 4.37563 52.6021 3.62202 52.1625 2.86841C44.5898 7.49996 36.8444 11.8384 28.9316 15.8577C26.6655 17.009 24.389 18.1342 22.0968 19.2384C22.5364 19.992 22.976 20.7456 23.4156 21.4993C28.2303 18.3749 33.045 15.2506 37.8597 12.1315C39.1 11.3256 38.3202 9.38921 36.8497 9.73984C30.6638 11.2157 24.9071 14.0626 19.9144 17.9929C20.532 18.6104 21.1495 19.228 21.7671 19.8455C27.4348 15.0465 33.9765 11.2523 40.9579 8.7298C42.9623 8.00759 44.998 7.38482 47.06 6.86148C46.8297 6.01891 46.5942 5.18157 46.364 4.33899C37.441 7.59939 29.1304 12.2728 21.699 18.1865C21.1966 18.5895 21.228 19.4425 21.5944 19.9031C22.0026 20.4159 22.6986 20.5625 23.2847 20.238C29.8893 16.627 36.499 13.0107 43.1036 9.39967C44.5846 8.5885 43.2763 6.36955 41.7847 7.13885C36.4258 9.90208 31.1191 12.8432 26.2782 16.4595C21.5839 19.9659 17.2088 24.1264 14.388 29.3179C12.7813 32.2695 11.7765 35.4462 11.3579 38.7746C12.2318 38.7746 13.1006 38.7746 13.9746 38.7746C13.6763 31.563 17.0413 24.5294 22.5887 19.9659C24.1483 18.6837 25.9119 17.6422 27.7645 16.8363C29.1095 16.2502 28.1413 13.9108 26.7545 14.4447C19.2603 17.323 13.4722 23.8595 11.3265 31.5892C10.7246 33.7663 10.4211 36.0428 10.4473 38.3036C11.3055 38.1885 12.1586 38.0734 13.0169 37.9582C12.2266 34.7188 14.7805 31.8666 17.0099 29.8727C18.3915 28.6376 19.904 27.5595 21.4007 26.4657C23.0388 25.2673 24.6925 24.1002 26.3672 22.9541C33.0293 18.3906 39.9583 14.2249 47.1123 10.483C51.163 8.35823 55.2869 6.37478 59.4736 4.53263C58.945 3.84706 58.4164 3.16148 57.8879 2.47591C51.791 9.65611 42.6273 12.8485 34.3167 16.6584C29.9625 18.6523 25.7078 20.8974 21.9816 23.938C18.5119 26.7745 15.7644 30.3332 14.1263 34.5199C12.3365 39.0939 12.169 44.2383 14.32 48.7128C14.9637 50.0526 17.146 49.1106 16.7116 47.7028C15.5707 44.0237 12.5877 41.6216 10.4211 38.5862C9.52095 37.325 8.92435 36.1684 8.87201 34.7711C8.81968 33.468 9.08135 32.2277 9.73552 31.1548C10.0234 30.6891 10.3845 30.3384 10.8293 30.0663C11.0543 29.9302 10.8136 30.0297 11.07 29.9616C11.1485 29.9407 11.5149 29.8622 11.4311 29.8727C11.6876 29.8465 11.8864 29.8779 12.2161 29.9669C11.9545 29.3284 11.6928 28.6847 11.4364 28.0462C9.82972 31.5055 9.03425 35.263 9.20172 39.0782C10.06 38.963 10.913 38.8479 11.7713 38.7328C10.7665 34.1536 11.7975 29.3284 14.4665 25.4923C15.0369 24.6707 14.2781 23.5036 13.3361 23.5246C10.4682 23.5821 8.40101 25.8534 7.64217 28.4753C6.75249 31.5526 7.9143 34.5879 9.45292 37.2465C11.0491 39.9993 12.7918 42.5688 13.8542 45.5885C14.927 48.6291 15.4975 51.8162 15.5446 55.04C15.5864 58.2271 15.1207 61.3881 14.1316 64.4182C13.0849 67.6263 11.405 70.6459 10.8869 74.011C10.306 77.7738 11.4625 81.2383 13.0116 84.6243C14.4613 87.7957 16.0051 90.9462 17.7426 93.9711C21.0763 99.7697 25.3415 104.789 30.69 108.808C35.6512 112.534 41.3085 115.292 47.1961 117.218C61.0279 121.739 75.8907 121.31 90.1516 119.458C93.8046 118.981 97.4575 118.453 101.089 117.804C104.475 117.197 107.846 116.443 111.085 115.281C117.056 113.136 122.206 109.535 126.121 104.527C129.852 99.7592 132.427 94.2066 134.238 88.4499C136.289 81.9343 137.686 74.9268 137.467 68.0816C137.257 61.4561 135.159 55.2127 131.453 49.7281C128.01 44.6308 123.562 40.3133 118.893 36.3516C113.55 31.8195 107.94 27.5909 102.429 23.2629C96.4579 18.5738 90.5599 13.7591 84.4734 9.22174C79.0098 5.14494 73.028 1.54437 66.1932 0.450593C59.0968 -0.679817 51.8381 0.450593 44.998 2.44974C32.9456 5.97181 21.8037 12.5868 12.8965 21.4417C10.7717 23.556 8.78305 25.8011 6.93043 28.1561C6.49606 28.7108 6.38616 29.4645 6.93043 30.0087C7.38573 30.4588 8.34344 30.5687 8.78305 30.0087Z" fill="white"/>
<path d="M17.1406 26.2727C18.0303 25.4562 18.7786 24.4881 19.3386 23.4205C19.9719 22.2116 18.7211 21.0811 17.5488 21.6306C15.9579 22.3738 14.6652 23.5251 13.6342 24.9329C14.4454 25.1527 15.2618 25.3725 16.073 25.5923C16.0782 24.6137 16.3033 23.6926 16.7586 22.8291C17.4023 21.6202 16.1358 20.4898 14.9687 21.0393C11.7241 22.5622 9.15446 25.2155 6.99831 28.0206C5.915 29.4336 4.96252 30.9513 4.42872 32.6626C3.87921 34.4367 3.89491 36.3155 4.26648 38.121C5.00439 41.6797 7.08204 44.7936 8.63112 48.0278C10.243 51.3876 11.4257 54.9463 12.2055 58.5888C13.0847 62.6917 13.3987 66.8941 13.1894 71.0861C13.1057 72.7712 15.7224 72.766 15.8061 71.0861C16.1777 63.7803 14.9426 56.3698 12.1689 49.5978C11.4781 47.9074 10.6983 46.2642 9.8505 44.647C9.04979 43.1189 8.20199 41.596 7.57398 39.9893C6.97214 38.4455 6.53254 36.8336 6.61627 35.1642C6.69477 33.5575 7.36988 32.0922 8.23862 30.7577C10.2116 27.7223 12.9853 24.8492 16.2876 23.2949C15.691 22.6983 15.0943 22.1017 14.4977 21.505C13.8226 22.7768 13.4615 24.1479 13.4511 25.5871C13.4406 26.9844 15.1676 27.2356 15.8898 26.2465C16.6539 25.1998 17.7006 24.4305 18.8676 23.881C18.271 23.2844 17.6744 22.6878 17.0778 22.0912C16.612 22.9861 16.0364 23.7345 15.2932 24.4148C14.0424 25.5609 15.9003 27.4083 17.1406 26.2727Z" fill="white"/>
<path d="M6.54276 38.1834C8.02381 41.6479 9.88689 44.9292 12.1058 47.9803C12.5193 48.5507 13.2415 48.8333 13.8957 48.4513C14.487 48.1059 14.7487 47.2581 14.3667 46.6615C12.8176 44.2698 11.2685 41.8781 9.71942 39.4865C9.36879 38.9422 8.69368 38.6806 8.08661 38.9527C7.54757 39.1882 7.0818 39.8842 7.32777 40.4965C9.23795 45.2327 11.1586 50.0161 12.1111 55.0558C12.5716 57.4998 12.7391 59.9752 12.6135 62.4558C12.4774 65.0673 12.0692 67.6578 11.7552 70.2535C11.3993 73.1633 11.1638 76.0888 11.5197 79.009C11.6034 79.7103 12.0587 80.3173 12.8281 80.3173C13.4665 80.3173 14.2201 79.7155 14.1364 79.009C13.4927 73.7442 14.7906 68.5527 15.1778 63.3245C15.5651 58.1016 14.5917 52.9781 12.9641 48.0274C12.0483 45.2432 10.9545 42.5219 9.86073 39.8005C9.06525 40.1354 8.26454 40.4704 7.46907 40.8105C9.01815 43.2022 10.5672 45.5939 12.1163 47.9855C12.8699 47.5459 13.6235 47.1063 14.3771 46.6667C12.1582 43.6209 10.2951 40.3395 8.81405 36.8698C8.53668 36.2209 7.57897 36.0743 7.02423 36.3988C6.33866 36.7861 6.26539 37.5292 6.54276 38.1834Z" fill="white"/>
<path d="M11.5041 45.3741C13.4091 53.5487 13.43 61.9692 13.9115 70.306C14.3406 77.7007 15.1675 85.2159 17.8313 92.1815C19.2914 96.0019 21.2696 99.5658 23.902 102.706C24.3573 103.25 25.2836 103.177 25.7546 102.706C26.2936 102.167 26.2099 101.397 25.7546 100.853C21.2591 95.4838 18.9826 88.6751 17.7685 81.877C16.4025 74.2362 16.4392 66.4385 15.9315 58.714C15.6175 53.9987 15.1099 49.2835 14.0318 44.6781C13.6446 43.04 11.1221 43.7308 11.5041 45.3741Z" fill="white"/>
<path d="M26.8535 101.721C25.273 98.2562 23.6663 94.8074 22.1277 91.3272C20.6833 88.0563 19.3436 84.7227 18.4225 81.2634C17.5224 77.867 17.1142 74.4234 17.3497 70.9118C17.5956 67.2327 18.4068 63.6269 18.9092 59.9845C19.1604 58.1528 19.354 56.3159 19.3697 54.4633C19.3854 52.506 19.197 50.5487 19.0191 48.6019C18.6999 45.1374 18.4173 41.6467 19.2337 38.2293C20.6572 32.2528 24.5613 27.1712 29.1143 23.1886C34.9966 18.0442 42.0878 14.543 48.7238 10.5029C50.1577 9.6289 48.8441 7.36285 47.405 8.24206C35.9491 15.2129 22.2062 21.6029 17.4072 35.1783C16.2402 38.4805 15.9366 41.9398 16.146 45.42C16.3762 49.2665 16.9519 53.066 16.6431 56.9282C16.3396 60.7172 15.4866 64.4381 15.0051 68.2061C14.5236 71.9637 14.5812 75.6794 15.3086 79.4056C16.0989 83.451 17.5747 87.3184 19.1918 91.0969C20.9136 95.1162 22.7819 99.0674 24.5927 103.045C24.8857 103.688 25.8173 103.845 26.3825 103.516C27.0419 103.123 27.1465 102.364 26.8535 101.721Z" fill="white"/>
<path d="M45.3748 11.2374C49.0225 8.97135 52.7853 6.8937 56.6475 5.02538C57.6576 4.53868 57.3959 2.87446 56.3335 2.63373C52.2515 1.70219 48.405 3.93161 44.8358 5.60629C45.2754 6.35989 45.715 7.1135 46.1546 7.86711C47.8607 6.6739 49.7238 5.81039 51.7438 5.29752C51.5083 4.45494 51.2781 3.61237 51.0478 2.77503C49.4987 3.32453 47.9549 3.87404 46.4058 4.42354C45.7412 4.65905 45.2963 5.31845 45.49 6.03542C45.6679 6.67913 46.432 7.18677 47.1018 6.95127C48.6509 6.40176 50.1948 5.85226 51.7438 5.30275C53.3139 4.74801 52.7016 2.36159 51.0478 2.78026C48.8289 3.34547 46.7093 4.30318 44.8358 5.61152C43.4489 6.5797 44.6265 8.58932 46.1546 7.87234C47.7089 7.1449 49.2528 6.34943 50.8646 5.75806C52.3928 5.19808 54.0204 4.79511 55.6375 5.16668C55.5328 4.37121 55.4281 3.5705 55.3235 2.77503C51.4612 4.64858 47.6984 6.721 44.0508 8.98705C42.6221 9.86626 43.9356 12.1323 45.3748 11.2374Z" fill="white"/>
<path d="M19.056 93.7673C19.1764 95.1699 20.1864 96.3055 20.9767 97.415C21.8036 98.5768 22.6618 99.7177 23.5463 100.832C25.2471 102.983 27.0579 105.04 28.9733 107.003C30.1508 108.211 32.0034 106.359 30.8259 105.15C29.0675 103.35 27.398 101.471 25.8176 99.5084C25.064 98.5716 24.3365 97.6139 23.63 96.6405C23.2794 96.1538 22.934 95.6618 22.5938 95.1699C22.4002 94.8925 22.2118 94.6099 22.0234 94.3325C21.9292 94.1912 21.6937 93.9453 21.678 93.7673C21.6204 93.0608 21.118 92.459 20.3696 92.459C19.705 92.459 18.9985 93.0608 19.056 93.7673Z" fill="white"/>
<path d="M22.4366 98.1419C25.9587 102.92 29.8209 107.431 34.0233 111.623C35.2165 112.811 37.0691 110.964 35.8759 109.77C31.8305 105.741 28.0834 101.418 24.6974 96.8178C24.2787 96.2474 23.5618 95.9648 22.9076 96.3468C22.3424 96.6765 22.0127 97.5662 22.4366 98.1419Z" fill="white"/>
<path d="M12.6873 78.0989C11.6511 81.7518 12.7291 85.4361 14.3463 88.7384C15.9058 91.936 17.8788 94.9766 19.7994 97.9648C23.5884 103.858 28.0839 109.531 34.2959 113C37.6505 114.874 41.3976 116.036 45.2598 116.083C46.945 116.104 46.945 113.487 45.2598 113.466C39.0216 113.393 33.3539 110.028 29.0625 105.695C26.697 103.303 24.6717 100.608 22.8191 97.8078C20.9613 95.008 19.1714 92.1244 17.5386 89.1885C15.7959 86.0589 14.184 82.4165 15.215 78.7897C15.6703 77.1726 13.1478 76.4818 12.6873 78.0989Z" fill="white"/>
<path d="M19.9562 94.584C22.9863 100.362 27.7801 105.061 33.16 108.672C38.5347 112.278 44.5164 114.701 50.6447 116.695C54.6587 117.998 58.6727 119.301 62.6867 120.599C64.2933 121.117 64.9789 118.595 63.3827 118.077C59.9392 116.962 56.4904 115.842 53.0468 114.727C49.9382 113.717 46.8191 112.723 43.8099 111.435C38.2625 109.06 32.9768 105.914 28.6279 101.701C26.0687 99.226 23.8707 96.4209 22.2117 93.2652C21.4372 91.7685 19.1764 93.0925 19.9562 94.584Z" fill="white"/>
<path d="M53.7428 9.38918C56.5583 5.80955 61.7184 6.90333 65.6016 7.47376C68.0404 7.82963 70.4843 8.1855 72.9231 8.54661C74.0587 8.71408 75.2991 8.77164 76.3824 9.17985C77.2459 9.50432 77.9105 10.1742 78.5281 10.8336C81.5373 14.0312 84.4941 17.2497 87.765 20.1909C91.0672 23.1582 94.6102 25.89 98.4463 28.1352C103.036 30.8199 107.966 32.8975 112.801 35.0955C113.445 35.3886 114.209 35.2787 114.591 34.6245C114.921 34.0646 114.769 33.1278 114.12 32.8347C109.656 30.8042 105.114 28.8783 100.827 26.4814C96.8763 24.2781 93.2443 21.5777 89.874 18.5738C86.4776 15.5436 83.437 12.2047 80.3074 8.91295C79.5852 8.14887 78.7688 7.41096 77.8111 6.96089C76.6859 6.43232 75.477 6.30149 74.2628 6.12355C71.7351 5.75198 69.2126 5.38565 66.6849 5.01408C61.8126 4.30234 55.4331 3.04632 51.8954 7.54703C51.461 8.10177 51.3563 8.85538 51.8954 9.39965C52.3454 9.83925 53.3032 9.94392 53.7428 9.38918Z" fill="white"/>
<path d="M54.9935 8.03279C55.7995 7.34199 56.7206 6.80818 57.694 6.38951C57.0974 5.79291 56.5008 5.1963 55.9041 4.5997C55.2814 5.56787 54.5225 6.39998 53.6433 7.14835C54.2609 7.76589 54.8784 8.38343 55.4959 9.00097C56.4955 7.91766 57.7097 7.12219 59.1227 6.68258C58.6988 5.95514 58.2749 5.22247 57.851 4.49503C55.229 6.80295 52.1989 8.65557 48.9333 9.90634C47.379 10.503 47.9546 12.7899 49.6293 12.4288C51.8012 11.9631 53.9102 11.0786 55.7471 9.82261C56.6368 9.21031 57.4166 8.441 58.3272 7.86533C59.1907 7.32105 60.1641 7.17452 61.1689 7.11172C65.387 6.85005 69.6104 7.44666 73.6087 8.79163C77.5075 10.1052 81.15 12.1672 84.2848 14.8362C87.205 17.322 89.7746 20.1742 92.5954 22.77C95.7459 25.6745 99.2679 28.265 103.47 29.3693C104.972 29.767 105.642 27.815 104.48 26.9776C99.6709 23.5131 94.8614 20.0486 90.0572 16.5841C89.4815 16.1707 88.6023 16.4847 88.2674 17.0551C87.8801 17.7145 88.1627 18.4315 88.7384 18.845C93.5479 22.3095 98.3573 25.774 103.162 29.2385C103.497 28.443 103.831 27.6423 104.172 26.8468C96.7193 24.8895 91.9883 18.0547 86.4357 13.24C79.8573 7.53562 71.3269 4.29093 62.5924 4.43746C61.3155 4.45839 59.9757 4.49503 58.7354 4.84043C57.4428 5.20154 56.4327 5.98131 55.407 6.81342C53.5125 8.35203 51.3197 9.38824 48.9385 9.89588C49.1688 10.7385 49.4043 11.5758 49.6346 12.4184C53.3398 11.0001 56.7258 8.96434 59.7036 6.33718C60.6875 5.46844 59.6512 3.77282 58.4319 4.14963C56.6054 4.72006 54.9569 5.73011 53.6538 7.13789C52.4972 8.38866 54.2295 10.0686 55.5064 8.9905C56.5478 8.10606 57.4375 7.06462 58.1754 5.91328C58.4894 5.42657 58.3691 4.7253 57.9713 4.32756C57.5265 3.88272 56.9247 3.88796 56.3856 4.12346C55.1976 4.63633 54.1353 5.3376 53.1566 6.17494C52.6176 6.63548 52.6856 7.55132 53.1566 8.02756C53.6747 8.5666 54.4545 8.49333 54.9935 8.03279Z" fill="white"/>
<path d="M45.2857 12.1736C45.2648 12.1422 45.2386 12.1108 45.2177 12.0794C45.2752 12.2992 45.338 12.519 45.3956 12.7388C45.3904 12.7074 45.3904 12.676 45.3851 12.6446C45.3276 12.8644 45.2648 13.0842 45.2072 13.304C45.0659 13.6075 44.7205 13.5395 45.113 13.6128C45.3799 13.6651 45.6834 13.6494 45.9556 13.6494C46.4894 13.6442 47.0232 13.5814 47.5465 13.4924C48.5932 13.3197 49.5875 12.9795 50.5662 12.5713C52.6386 11.7078 54.554 10.5198 56.6212 9.6354C58.8454 8.68816 61.258 8.22762 63.6287 7.82465C65.9314 7.43738 68.3911 6.88787 70.6781 7.61531C72.2847 8.12818 72.9755 5.60569 71.3741 5.09282C69.2441 4.41248 67.0252 4.64798 64.8585 4.98815C62.6919 5.32309 60.5096 5.66849 58.3901 6.2651C56.3962 6.82507 54.5383 7.69381 52.7014 8.64106C51.0476 9.4941 49.3939 10.3942 47.5674 10.8234C47.1017 10.9333 46.6464 11.0065 46.1701 11.0222C45.6416 11.0432 45.1078 10.9385 44.5896 10.9908C43.454 11.1007 42.1666 12.3149 43.0353 13.4872C43.454 14.0524 44.1657 14.3402 44.8252 13.9582C45.3747 13.6389 45.7096 12.744 45.2857 12.1736Z" fill="white"/>
<path d="M37.4774 16.2396C41.1094 16.0564 44.7466 15.6063 48.2843 14.7376C51.7907 13.8793 55.0511 12.4977 58.3063 10.9591C61.4306 9.48329 64.5497 8.35811 68.0561 8.44185C71.4473 8.52558 74.7705 9.54086 77.764 11.1004C81.1081 12.8431 84.0597 15.1929 86.8073 17.752C88.0371 18.8981 89.895 17.0508 88.6599 15.8994C83.4527 11.0481 77.3505 6.87183 70.1285 5.98216C66.4808 5.53209 62.943 6.12346 59.5675 7.53647C56.2548 8.92332 53.1304 10.6189 49.6712 11.6499C45.7043 12.8327 41.6013 13.4136 37.4722 13.6229C35.7975 13.7066 35.787 16.3233 37.4774 16.2396Z" fill="white"/>
<path d="M107.013 31.6684C108.594 33.6623 110.357 35.3998 112.519 36.7657C114.78 38.1944 117.166 39.4504 119.49 40.7745C120.955 41.6066 122.274 39.3458 120.809 38.5136C118.548 37.2262 116.24 35.9964 114.026 34.6252C111.98 33.3535 110.352 31.6998 108.861 29.821C108.421 29.2663 107.469 29.3605 107.008 29.821C106.469 30.3653 106.574 31.1136 107.013 31.6684Z" fill="white"/>
<path d="M102.073 28.7424C104.852 31.5161 107.83 34.0909 110.981 36.4407C114.21 38.8532 117.658 40.91 121.071 43.0504C123.023 44.275 124.943 45.5467 126.744 46.9859C127.393 47.5093 128.324 46.5882 127.67 46.0596C124.556 43.5633 121.123 41.5589 117.742 39.4499C114.325 37.3199 111.043 34.9858 107.966 32.3848C106.244 30.9299 104.591 29.4018 102.995 27.8108C102.403 27.2194 101.477 28.1458 102.073 28.7424Z" fill="white"/>
<path d="M103.528 30.3176C104.596 30.9247 105.549 31.6573 106.407 32.5365C106.668 32.1964 106.935 31.851 107.197 31.5108C106.046 30.8095 104.894 30.1083 103.743 29.407C103.115 29.025 102.398 29.9251 102.953 30.4327C104.005 31.4009 105.13 32.2801 106.323 33.0756C106.946 33.489 107.637 32.5627 107.113 32.0498C106.36 31.3119 105.538 30.6525 104.654 30.0821C104.13 29.7419 103.361 30.4432 103.759 30.977C104.978 32.6046 106.595 33.7821 108.296 34.8602C110.143 36.0272 112.001 37.1733 113.828 38.377C117.491 40.7896 121.066 43.3592 124.394 46.2218C126.267 47.8337 128.057 49.5346 129.742 51.3401C130.318 51.9576 131.244 51.0313 130.669 50.4138C124.781 44.118 117.664 39.1568 110.384 34.6142C108.416 33.3896 106.307 32.2016 104.889 30.3124C104.591 30.6107 104.293 30.909 103.994 31.2073C104.79 31.7201 105.512 32.3063 106.187 32.9709C106.449 32.6308 106.716 32.2853 106.977 31.9452C105.878 31.2125 104.842 30.4013 103.874 29.5064C103.612 29.8466 103.345 30.192 103.084 30.5322C104.235 31.2334 105.386 31.9347 106.538 32.636C107.181 33.0285 107.846 32.1388 107.328 31.6102C106.402 30.6525 105.344 29.8414 104.188 29.1872C103.455 28.7685 102.796 29.8989 103.528 30.3176Z" fill="white"/>
<path d="M37.0017 113.082C38.5979 114.621 40.4453 115.888 42.4863 116.772C44.7733 117.761 47.2173 118.311 49.6246 118.907C54.4446 120.106 59.4268 121.147 64.4142 121.199C67.078 121.226 69.7575 120.896 72.2538 119.949C73.0336 119.656 72.6934 118.389 71.9084 118.687C67.5647 120.331 62.8389 120.017 58.333 119.347C55.889 118.986 53.4712 118.489 51.0743 117.908C48.7925 117.358 46.4689 116.845 44.2552 116.06C41.8845 115.223 39.744 113.894 37.9333 112.151C37.321 111.575 36.3946 112.496 37.0017 113.082Z" fill="white"/>
</g>
</g>
<defs>
<filter id="filter0_d" x="0" y="0" width="141.493" height="129.205" filterUnits="userSpaceOnUse" color-interpolation-filters="sRGB">
<feFlood flood-opacity="0" result="BackgroundImageFix"/>
<feColorMatrix in="SourceAlpha" type="matrix" values="0 0 0 0 0 0 0 0 0 0 0 0 0 0 0 0 0 0 127 0"/>
<feOffset dy="4"/>
<feGaussianBlur stdDeviation="2"/>
<feColorMatrix type="matrix" values="0 0 0 0 0 0 0 0 0 0 0 0 0 0 0 0 0 0 0.25 0"/>
<feBlend mode="normal" in2="BackgroundImageFix" result="effect1_dropShadow"/>
<feBlend mode="normal" in="SourceGraphic" in2="effect1_dropShadow" result="shape"/>
</filter>
<clipPath id="clip0">
<rect width="133.493" height="121.205" fill="white" transform="translate(4)"/>
</clipPath>
</defs>
</svg>
