<svg width="125" height="122" viewBox="0 0 125 122" fill="none" xmlns="http://www.w3.org/2000/svg">
<g clip-path="url(#clip0)">
<path d="M64.7187 24.1242C66.6071 16.8667 68.4878 9.60912 70.3761 2.35916C70.9904 -0.00693051 67.3351 -1.01555 66.7208 1.35054C64.8325 8.60808 62.9518 15.8656 61.0634 23.1156C60.4492 25.4817 64.1045 26.4903 64.7187 24.1242Z" fill="#FFEC51"/>
<path d="M76.1089 24.1325C77.3906 18.1641 80.2193 12.6357 84.3675 8.15374C86.0283 6.364 83.3513 3.67939 81.6829 5.46913C77.1024 10.4137 73.8642 16.5261 72.446 23.1238C72.2337 24.1249 72.7418 25.1714 73.7732 25.4596C74.7211 25.7174 75.8966 25.1411 76.1089 24.1325Z" fill="#FFEC51"/>
<path d="M88.8714 34.4303C92.6556 30.646 96.4398 26.8618 100.224 23.0776C100.929 22.3723 100.975 21.0907 100.224 20.393C99.4657 19.6953 98.2903 19.6422 97.5395 20.393C93.7552 24.1772 89.971 27.9614 86.1868 31.7457C85.4815 32.4509 85.436 33.7326 86.1868 34.4303C86.9451 35.128 88.1206 35.1811 88.8714 34.4303Z" fill="#FFEC51"/>
<path d="M95.6066 51.9556C102.091 49.8398 108.734 48.2624 115.476 47.2234C116.492 47.0717 117.046 45.7977 116.803 44.8877C116.507 43.8032 115.483 43.4088 114.467 43.5605C107.725 44.5919 101.082 46.1769 94.598 48.2927C92.285 49.0511 93.2784 52.714 95.6066 51.9556Z" fill="#FFEC51"/>
<path d="M102.644 64.5823C108.87 65.2572 115.248 64.4458 121.103 62.2314C122.058 61.8674 122.718 60.9497 122.43 59.8956C122.179 58.978 121.057 58.2045 120.094 58.5685C114.505 60.6767 108.582 61.4275 102.644 60.7829C101.628 60.6692 100.748 61.7309 100.748 62.6788C100.748 63.8012 101.62 64.4686 102.644 64.5823Z" fill="#FFEC51"/>
<path d="M107.406 76.6572C112.274 76.2098 117.211 76.9757 121.655 79.0612C122.581 79.4935 123.703 79.3191 124.249 78.3787C124.727 77.5597 124.499 76.2249 123.566 75.7851C118.531 73.419 112.957 72.3497 107.406 72.8654C106.389 72.9564 105.51 73.6693 105.51 74.7613C105.51 75.7093 106.382 76.7482 107.406 76.6572Z" fill="#FFEC51"/>
<path d="M106.018 90.5033C110.736 91.8229 115.453 93.1348 120.162 94.4544C121.148 94.7274 122.225 94.1131 122.498 93.1272C122.771 92.1338 122.164 91.0721 121.171 90.7915C116.454 89.4719 111.737 88.16 107.027 86.8404C106.041 86.5674 104.964 87.1817 104.691 88.1675C104.426 89.1686 105.033 90.2227 106.018 90.5033Z" fill="#FFEC51"/>
<path d="M96.0227 93.7875C98.4419 99.0505 100.861 104.314 103.28 109.584C103.705 110.517 105.055 110.745 105.874 110.267C106.829 109.706 106.981 108.606 106.556 107.673C104.137 102.41 101.718 97.1471 99.2988 91.8764C98.8741 90.9437 97.5243 90.7161 96.7052 91.1939C95.7497 91.7551 95.5904 92.8547 96.0227 93.7875Z" fill="#FFEC51"/>
<path d="M89.6994 101.219C91.6864 105.307 93.1652 109.607 94.1738 114.035C94.4013 115.036 95.554 115.62 96.5096 115.363C97.5333 115.082 98.0642 114.035 97.8367 113.027C96.7598 108.279 95.1142 103.684 92.9832 99.308C92.5357 98.3904 91.2238 98.1401 90.3896 98.6255C89.4416 99.1791 89.252 100.294 89.6994 101.219Z" fill="#FFEC51"/>
<path d="M77.1548 109.729C77.4733 112.566 77.7842 115.41 78.1027 118.246C78.1634 118.761 78.2772 119.201 78.6564 119.588C78.9824 119.914 79.5285 120.164 79.9987 120.142C80.9314 120.096 82.0083 119.3 81.8946 118.246C81.5761 115.41 81.2651 112.566 80.9466 109.729C80.8859 109.214 80.7722 108.774 80.393 108.387C80.0669 108.061 79.5209 107.811 79.0507 107.833C78.1179 107.879 77.041 108.675 77.1548 109.729Z" fill="#FFEC51"/>
<path d="M71.286 100.658C70.0954 105.723 68.8972 110.782 67.7065 115.848C67.4714 116.841 68.0175 117.903 69.0337 118.183C69.9968 118.449 71.1267 117.857 71.3694 116.856C72.5601 111.79 73.7583 106.732 74.9489 101.666C75.184 100.673 74.638 99.611 73.6218 99.3304C72.6586 99.0725 71.5211 99.6565 71.286 100.658Z" fill="#FFEC51"/>
<path d="M56.2773 107.841C56.2167 109.828 56.0271 111.231 55.5569 113.172C55.1094 115.015 54.5028 116.714 53.7596 118.261C53.3349 119.156 53.4865 120.346 54.4421 120.854C55.2915 121.302 56.5807 121.127 57.0357 120.172C58.8861 116.304 59.9326 112.133 60.0691 107.841C60.0995 106.847 59.1743 105.899 58.1732 105.945C57.1191 105.99 56.3077 106.779 56.2773 107.841Z" fill="#FFEC51"/>
<path d="M39.3212 108.28C39.1847 108.682 39.0406 109.084 38.8662 109.47C38.9193 109.349 38.9875 109.197 38.8889 109.41C38.851 109.493 38.8131 109.584 38.7752 109.668C38.6842 109.857 38.5932 110.054 38.5022 110.244C38.123 111.002 37.6983 111.746 37.2281 112.451C37.0082 112.785 36.7731 113.111 36.538 113.437C36.3257 113.725 36.6821 113.262 36.5304 113.444C36.4698 113.52 36.4167 113.596 36.356 113.664C36.2195 113.831 36.0906 113.99 35.9465 114.157C35.3929 114.802 34.8014 115.408 34.1719 115.985C33.4363 116.66 33.4439 117.994 34.1719 118.669C34.953 119.39 36.0678 119.382 36.8565 118.669C39.6549 116.114 41.7328 112.86 42.9841 109.288C43.3102 108.348 42.6125 107.173 41.657 106.953C40.5953 106.71 39.67 107.271 39.3212 108.28Z" fill="#FFEC51"/>
<path d="M33.7536 96.4261C31.2359 101.158 28.0963 105.208 24.1224 108.818C23.3641 109.508 23.4247 110.797 24.1224 111.502C24.8732 112.253 26.0411 112.192 26.807 111.502C30.9401 107.756 34.421 103.274 37.0374 98.3447C37.5151 97.4423 37.2649 96.282 36.3548 95.7511C35.4903 95.243 34.239 95.516 33.7536 96.4261Z" fill="#FFEC51"/>
<path d="M13.1182 93.6821C12.2082 95.2823 11.3057 96.8824 10.3957 98.4826C10.153 98.9148 10.0696 99.4609 10.2061 99.9462C10.3274 100.386 10.6687 100.864 11.0782 101.076C11.9731 101.554 13.1486 101.319 13.6718 100.394C14.5819 98.7935 15.4843 97.1934 16.3944 95.5932C16.637 95.161 16.7205 94.6149 16.5839 94.1296C16.4626 93.6897 16.1213 93.212 15.7118 92.9996C14.817 92.5294 13.6415 92.7645 13.1182 93.6821Z" fill="#FFEC51"/>
<path d="M17.9118 78.8782C14.2793 81.9268 9.17549 82.9203 4.69356 81.6993C2.33505 81.0547 1.32642 84.7176 3.68493 85.3546C9.585 86.9547 15.9325 85.4684 20.5964 81.5628C21.3851 80.903 21.279 79.5607 20.5964 78.8782C19.8153 78.1046 18.7005 78.2184 17.9118 78.8782Z" fill="#FFEC51"/>
<path d="M15.6367 66.4486C11.223 66.7444 6.80177 67.0477 2.3881 67.3435C1.36431 67.4118 0.492188 68.1625 0.492188 69.2394C0.492188 70.2101 1.36431 71.2036 2.3881 71.1353C6.80177 70.8396 11.223 70.5438 15.6367 70.2405C16.6605 70.1722 17.5326 69.4214 17.5326 68.3445C17.5326 67.3738 16.6681 66.3804 15.6367 66.4486Z" fill="#FFEC51"/>
<path d="M17.4112 47.7402C12.224 44.7447 7.61315 40.6799 4.07159 35.8794C3.4649 35.0528 2.42594 34.6433 1.47799 35.1969C0.666539 35.6747 0.18877 36.9639 0.79546 37.7905C4.74653 43.1521 9.7214 47.672 15.4925 51.0088C17.616 52.2373 19.527 48.9612 17.4112 47.7402Z" fill="#FFEC51"/>
<path d="M23.5697 32.8608C23.1678 32.5498 22.7204 32.201 22.1895 31.7687C21.689 31.3592 21.196 30.9421 20.7031 30.5174C19.7021 29.6453 18.7238 28.7504 17.7834 27.8177C15.8951 25.9597 14.1205 23.9728 12.4749 21.8948C11.8606 21.1137 10.4349 21.1971 9.79026 21.8948C9.03189 22.7215 9.13048 23.7452 9.79026 24.5794C13.2332 28.94 17.2298 32.7774 21.6511 36.1369C22.4473 36.736 23.8048 36.2886 24.2447 35.4544C24.7831 34.4533 24.4191 33.5054 23.5697 32.8608Z" fill="#FFEC51"/>
<path d="M35.1796 28.864C34.3378 25.368 33.496 21.8719 32.6542 18.3835C32.4191 17.4203 31.274 16.753 30.3185 17.0563C29.3174 17.3824 28.7486 18.3531 28.9913 19.3921C29.8331 22.8881 30.6749 26.3842 31.5167 29.8727C31.7518 30.8358 32.8969 31.5032 33.8524 31.1998C34.8611 30.8737 35.4298 29.8954 35.1796 28.864Z" fill="#FFEC51"/>
<path d="M45.7964 25.064C47.0553 21.894 47.7302 18.5193 47.8592 15.1143C47.8971 14.1208 46.9567 13.1729 45.9632 13.2184C44.9015 13.2639 44.1053 14.0526 44.0673 15.1143C44.037 15.9409 43.9688 16.7599 43.8702 17.5714C43.8171 17.9885 43.9157 17.3059 43.8398 17.7686C43.8095 17.943 43.7867 18.1174 43.7564 18.2918C43.6882 18.6938 43.6123 19.1033 43.5213 19.5052C43.1876 21.0598 42.7175 22.5766 42.1335 24.0554C41.7695 24.9806 42.5354 26.1788 43.4606 26.3911C44.5527 26.6338 45.4021 26.0499 45.7964 25.064Z" fill="#FFEC51"/>
<path d="M58.1951 20.7958C58.3923 16.4579 57.7325 12.067 56.2461 7.987C55.8973 7.02388 54.9569 6.37927 53.9104 6.65986C52.9851 6.91771 52.2344 8.02492 52.5832 8.99562C53.9938 12.886 54.5777 16.6854 54.3957 20.7958C54.3502 21.7892 55.2982 22.7372 56.2916 22.6917C57.3685 22.6386 58.1496 21.8575 58.1951 20.7958Z" fill="#FFEC51"/>
</g>
<defs>
<clipPath id="clip0">
<rect width="124" height="121.088" fill="white" transform="translate(0.492188)"/>
</clipPath>
</defs>
</svg>
