<svg width="101" height="99" viewBox="0 0 101 99" fill="none" xmlns="http://www.w3.org/2000/svg">
<g clip-path="url(#clip0)">
<path d="M56.8201 11.5297C56.9492 10.7042 57.1522 9.89705 57.4381 9.11299C57.4981 8.94696 57.558 8.7717 57.6318 8.61488C57.3689 9.16834 57.7194 8.45346 57.7656 8.35199C57.9362 8.00608 58.1253 7.66479 58.3236 7.33272C58.5266 7.00064 58.7433 6.68241 58.9693 6.36878C59.1215 6.16585 59.1123 6.17969 58.937 6.41029C59.0108 6.31805 59.0892 6.22581 59.163 6.13356C59.2783 5.9952 59.3983 5.86145 59.5182 5.73231C59.7995 5.42791 60.0993 5.13273 60.4083 4.85601C60.5421 4.73609 60.6804 4.6254 60.8142 4.5101C61.0125 4.34867 60.9987 4.36251 60.7681 4.54238C60.8649 4.4732 60.9618 4.39941 61.0586 4.33484C59.9287 3.87363 58.7987 3.41703 57.6733 2.95581C57.844 3.54155 57.9916 4.12729 58.1115 4.72687C58.1668 5.00821 58.2083 5.28955 58.2591 5.57089C58.3236 5.93524 58.2314 5.22498 58.2637 5.59395C58.2775 5.77382 58.3006 5.94908 58.319 6.12895C58.4251 7.34194 58.4067 8.55954 58.2867 9.77253C58.1345 11.2807 59.8779 12.3738 61.2062 11.9956C64.1856 11.1469 66.9345 9.43584 68.9315 7.06521C67.6171 6.52098 66.3072 5.97675 64.9928 5.43252C64.8037 7.14362 64.6192 8.85471 64.4301 10.5658C64.2917 11.8249 65.5969 12.8442 66.7361 12.8719C70.2137 12.9549 73.6912 13.0333 77.1734 13.1163C76.4308 12.1432 75.6929 11.17 74.9503 10.1968C74.526 12.6735 74.0971 15.1503 73.6728 17.627C73.5298 18.4618 73.6405 19.2458 74.2677 19.8685C74.8627 20.4634 75.7021 20.6525 76.5092 20.4634C77.6576 20.1913 78.8199 19.9561 79.9868 19.7716C80.2773 19.7255 80.5725 19.6794 80.8631 19.6425C80.4526 19.6978 81.0245 19.624 81.1306 19.6102C81.7163 19.541 82.3067 19.481 82.897 19.4349C85.18 19.2504 87.4768 19.2458 89.7598 19.398C89.0173 18.4249 88.2794 17.4517 87.5368 16.4785C86.5636 19.1536 85.5859 21.8286 84.6127 24.5082C84.2806 25.4168 84.8249 26.6713 85.6735 27.1141C89.3632 29.0327 93.3804 30.1212 97.5359 30.3241C96.9917 29.0097 96.4474 27.6998 95.9032 26.3854C93.9661 28.4977 91.7938 31.0944 92.0152 34.166C92.2273 37.0809 94.5057 40.2079 97.725 39.9312C97.3376 38.4968 96.9501 37.0671 96.5627 35.6327C95.4374 36.4536 94.3166 37.2746 93.1913 38.0956C92.5133 38.5891 92.0475 39.2071 92.0475 40.088C92.0475 40.9228 92.4948 41.6423 93.1913 42.0804C93.3619 42.1865 93.5279 42.3018 93.694 42.4171C94.0307 42.6477 93.6294 42.3894 93.6017 42.3433C93.634 42.4033 93.7862 42.4955 93.8462 42.5462C94.1967 42.846 94.5288 43.1735 94.8378 43.5148C94.8977 43.5794 95.3082 44.119 95.1237 43.8469C94.93 43.5655 95.3128 44.1328 95.3543 44.1974C95.4512 44.3496 95.5434 44.5018 95.6265 44.6586C95.6726 44.7462 95.7141 44.8385 95.7602 44.9261C95.9954 45.3643 95.6172 44.4418 95.751 44.9077C95.8017 45.0829 95.8478 45.2536 95.8986 45.4288C96 45.7932 95.8847 44.8569 95.8847 45.4473C95.8847 45.5072 95.8709 45.5718 95.8755 45.6271C95.9032 45.9085 95.9631 45.0875 95.9032 45.3689C95.8801 45.4749 95.7648 45.7009 95.9262 45.3735C96.1246 44.963 95.8847 45.3596 95.8801 45.415C95.8894 45.1521 96.2214 45.0552 96.0139 45.2443C96.0139 45.2443 95.8294 45.4011 95.8248 45.4242C95.8432 45.3274 96.2214 45.1244 95.9493 45.3135C95.6265 45.5349 95.8894 45.3643 95.9954 45.3227C95.3682 45.5672 94.7271 45.7194 94.1091 46.0007C91.7523 47.08 91.1942 49.7458 91.6185 52.0749C91.8076 53.1126 92.2827 54.0812 92.7762 55.0036C93.0206 55.4602 93.2743 55.9168 93.5003 56.3872C93.5326 56.4518 93.7032 56.8208 93.5833 56.5486C93.4726 56.2996 93.5971 56.5855 93.611 56.627C93.6525 56.7377 93.9523 57.4434 93.8692 57.5264C93.86 57.5356 93.8508 56.9361 93.8554 57.4665C93.8554 57.6233 93.8508 57.7801 93.8508 57.9369C93.86 58.3105 93.92 57.4342 93.8692 57.7293C93.8001 58.1352 93.8277 57.6648 93.9477 57.5956C93.9292 57.6048 93.8416 57.7801 93.8231 57.817C93.6525 58.1537 94.1045 57.5495 93.9108 57.7109C93.8462 57.7662 93.7862 57.8354 93.7309 57.8954C93.4403 58.1998 93.7263 57.817 93.8462 57.817C93.8139 57.817 93.6709 57.9277 93.6294 57.9507C93.2835 58.1444 93.4495 57.9046 93.7263 57.9231C93.6848 57.9184 93.5233 57.983 93.4957 57.9922C93.1267 58.1122 93.9753 57.9507 93.7078 57.9646C93.6525 57.9692 93.5971 57.9692 93.5418 57.9646C93.9523 58.0337 94.0676 58.0476 93.8831 58.0061C93.7078 57.9599 93.8093 58.0061 94.1829 58.1491C94.0076 58.0476 94.0399 58.0015 94.3766 58.3289C94.0952 58.0568 94.6764 58.8086 94.4411 58.4304C93.92 57.591 92.8223 57.0514 91.8353 57.3696C90.7791 57.7109 90.2764 58.5365 90.1427 59.5927C89.6399 63.5683 90.567 67.7008 92.5871 71.1506C93.4541 70.0207 94.3212 68.8907 95.1929 67.7653C92.0705 66.8752 89.0865 68.5217 87.3108 71.0492C85.6781 73.369 85.2722 76.8466 87.0341 79.2126C87.6982 78.055 88.3624 76.8973 89.0265 75.7443C88.3947 75.795 87.7582 75.8181 87.1217 75.8042C86.8035 75.795 86.4852 75.7812 86.1716 75.7581C86.0286 75.7489 85.8903 75.7351 85.7519 75.7212C85.6597 75.712 85.1708 75.652 85.6274 75.7166C84.3683 75.5414 83.1322 75.2185 81.9377 74.785C80.7478 74.3514 79.4333 75.2785 79.1012 76.3946C78.2157 79.3648 77.3256 82.3396 76.44 85.3098C77.8467 85.1253 79.2488 84.9409 80.6555 84.761C79.1796 81.7031 75.0241 81.2327 72.2984 82.7501C69.2036 84.475 68.2812 88.4046 68.4657 91.6838C69.9001 91.2964 71.3298 90.9089 72.7642 90.5215C70.9009 87.6666 67.1512 86.0985 63.8351 87.2192C60.5605 88.3215 58.1345 91.7207 58.4989 95.2305C59.9333 94.8431 61.363 94.4557 62.7974 94.0682C61.5337 91.3517 60.2746 88.6352 59.0108 85.9186C58.628 85.0977 57.5396 84.7056 56.714 84.8163C55.8193 84.9362 55.0352 85.5773 54.7954 86.4675C54.5786 87.2607 54.3618 88.0586 54.0851 88.8335C54.0205 89.0134 53.9513 89.1886 53.8822 89.3639C54.0851 88.8519 53.8176 89.4838 53.7669 89.5853C53.587 89.9496 53.3748 90.2909 53.1534 90.6322C52.8352 91.1211 53.4578 90.3232 53.0566 90.7567C52.9413 90.8813 52.826 91.0104 52.7015 91.1303C52.6231 91.2041 52.54 91.2779 52.457 91.3471C52.6876 91.1764 52.7337 91.1395 52.5954 91.2364C52.4293 91.3379 52.2725 91.4486 52.1019 91.5454C52.0512 91.5731 52.005 91.5961 51.9543 91.6238C51.7237 91.7345 51.756 91.7207 52.0512 91.5961C52.0004 91.5823 51.6453 91.7345 51.5853 91.753C51.5254 91.7714 51.1702 91.9052 51.1103 91.859C51.4562 91.8175 51.5023 91.8083 51.244 91.8314C51.1656 91.836 51.0872 91.836 51.0042 91.836C50.9258 91.836 50.8474 91.8314 50.769 91.8268C51.0964 91.8775 51.1702 91.8913 50.9904 91.859C50.912 91.8406 50.4876 91.7899 50.46 91.7161C50.5476 91.753 50.6352 91.7899 50.7229 91.8221C50.626 91.776 50.5338 91.7253 50.4461 91.6653C50.0126 91.4439 50.7321 91.9928 50.5061 91.7068C50.2109 91.3379 50.5568 91.693 50.5707 91.8083C50.566 91.7714 50.2801 91.2133 50.4646 91.6653C50.6306 92.0758 50.4507 91.5777 50.4277 91.4901C50.3585 91.2041 50.5245 91.1211 50.4323 91.6284C50.4507 91.527 50.4185 91.3748 50.4231 91.2687C50.4369 90.8259 50.4784 91.241 50.3908 91.4071C50.4369 91.3194 50.4784 91.1119 50.4923 91.0104C50.5522 90.8398 50.5061 90.932 50.3631 91.2917C50.3954 91.2226 50.4277 91.1534 50.4646 91.0888C50.709 90.706 50.4415 91.2133 50.3585 91.1903C50.3539 91.1903 50.5937 90.9597 50.5937 90.9597C50.6029 91.1395 50.1141 91.2825 50.4969 91.0842C49.8742 91.4024 50.257 91.1949 50.4969 91.158C51.447 91.0104 52.231 89.8574 52.1895 88.935C52.148 87.9618 51.5115 86.9241 50.4969 86.7119C45.6864 85.6972 40.7468 86.3383 36.3515 88.5291C37.4815 88.9903 38.6114 89.4469 39.7368 89.9081C39.5846 88.8658 39.4278 87.828 39.2756 86.7857C39.1649 86.0293 38.367 85.3559 37.6659 85.1761C35.3184 84.5719 32.9893 84.5073 30.6002 84.8348C31.5733 85.5773 32.5465 86.3153 33.5196 87.0578C33.4505 86.3614 33.4505 85.6696 33.5196 84.9731C33.4966 85.2038 33.4874 85.1807 33.5289 84.9685C33.5658 84.7979 33.5981 84.6272 33.6396 84.4566C33.7318 84.083 33.8471 83.7187 33.9762 83.3589C34.3129 82.4457 33.7595 81.2004 32.9155 80.7531C30.0052 79.2218 26.8736 78.138 23.6174 77.6307C24.0786 78.7606 24.5352 79.8906 24.9965 81.0159C25.7159 79.4617 26.4354 77.9074 27.1549 76.3531C27.4732 75.6613 27.5746 75.0202 27.2702 74.3007C27.0027 73.6596 26.4723 73.1338 25.7759 72.9632C20.8548 71.7686 15.703 71.7917 10.8003 73.0554C11.7458 73.5904 12.6913 74.1301 13.6368 74.6651C11.9488 69.7762 8.51273 65.5838 3.95135 63.1071C3.95135 64.4354 3.95135 65.7637 3.95135 67.0873C7.02763 65.4777 9.98861 62.9779 10.376 59.3113C10.5282 57.8447 10.15 56.2212 9.35675 54.9759C8.32364 53.3617 6.82008 52.4623 4.93373 52.2548C5.13666 53.7629 5.34421 55.2757 5.54714 56.7839C6.82931 56.5671 8.11148 56.3457 9.39365 56.1289C10.6712 55.9122 11.2431 54.4086 11.0033 53.2925C10.21 49.6028 8.16682 46.1437 5.3027 43.6854C4.75847 44.9999 4.21424 46.3097 3.67001 47.6242C5.90688 47.3567 8.14376 47.0938 10.3853 46.8263C11.5383 46.6879 12.8112 45.8762 12.6913 44.5202C12.4192 41.3609 11.8196 38.2385 10.8188 35.2268C9.4121 35.8172 8.01001 36.4121 6.60331 37.0025C8.50812 39.8251 12.0179 40.2633 14.9743 38.9303C18.2489 37.4591 19.4066 33.8386 18.9407 30.4948C18.6825 28.6592 17.8846 26.8604 16.7823 25.3799C15.9152 26.5099 15.0481 27.6399 14.1764 28.7652C17.1881 29.3095 20.1998 29.8583 23.2116 30.4025C24.8027 30.6885 25.9604 29.7568 26.131 28.1795C26.5092 24.6973 26.7352 21.206 26.8182 17.7054C25.3101 17.9083 23.7973 18.1159 22.2891 18.3188C23.4007 21.5288 26.7214 23.2999 30.0375 22.9171C31.8593 22.7049 33.5104 22.0223 34.8341 20.7263C36.1486 19.4441 37.0479 17.71 37.4584 15.9297C37.9381 13.8404 37.8735 11.6819 37.3892 9.59727C36.2593 10.4643 35.1293 11.3314 34.0039 12.2031C35.7704 13.4069 37.606 14.5876 39.6907 15.1549C41.78 15.7222 43.9292 15.5469 45.8847 14.6199C46.6965 14.2371 47.4529 13.6467 48.0109 12.9457C48.7489 12.0186 49.1317 11.027 49.4545 9.89705C49.4868 9.78175 49.5329 9.66184 49.5606 9.54192C49.6067 9.3436 49.5283 9.27442 49.5237 9.57882C49.5237 9.51425 49.6206 9.38972 49.6482 9.33437C49.7128 9.21907 49.9203 9.05304 49.6759 9.25597C49.3761 9.50041 49.8419 9.18217 49.8558 9.08993C49.8466 9.14067 49.3715 9.38972 49.6897 9.21907C49.7774 9.17295 50.1141 9.02536 49.7405 9.16373C49.3577 9.3067 49.8281 9.1545 49.9296 9.12222C50.2893 9.00691 49.3807 9.12683 49.8788 9.13144C50.031 9.13144 50.1832 9.13605 50.3354 9.14067C50.7182 9.14989 50.1602 9.14067 50.1279 9.11299C50.1925 9.16834 50.3908 9.16373 50.4738 9.18679C50.686 9.23752 50.8981 9.30209 51.1011 9.37588C51.1702 9.39894 51.2394 9.43584 51.3132 9.45429C51.5761 9.52808 50.8797 9.23752 51.2533 9.43584C51.6545 9.64339 52.0512 9.85093 52.434 10.0954C52.6369 10.2245 52.8352 10.3675 53.0335 10.5059C53.0843 10.5428 53.2964 10.7134 53.0566 10.5197C52.7845 10.2983 53.1396 10.5935 53.195 10.6396C53.5501 10.9348 53.8822 11.253 54.2004 11.5897C55.0306 12.466 56.6356 12.4891 57.4612 11.5897C58.3236 10.6488 58.3467 9.26519 57.4612 8.32893C55.1413 5.8799 50.7782 3.15413 47.4114 5.20653C46.346 5.85684 45.6772 6.82999 45.2298 7.96919C45.0592 8.39812 44.9577 8.8501 44.8286 9.29287C44.8009 9.3805 44.7732 9.46813 44.7456 9.55576C44.598 10.0493 44.7871 9.4958 44.7824 9.49119C44.7917 9.52808 44.6441 9.75869 44.6395 9.7633C44.5887 9.85093 44.455 10.2199 44.5657 9.90628C44.6349 9.69873 44.6579 9.80942 44.5565 9.91089C44.4873 9.98468 44.4181 10.0585 44.3489 10.1277C44.3212 10.1553 44.1368 10.3398 44.1229 10.3306C44.1045 10.3214 44.6118 10.0124 44.2244 10.2476C44.0722 10.3398 43.9246 10.4413 43.7632 10.5243C43.694 10.5612 43.6248 10.5935 43.5556 10.6304C43.0898 10.8656 44.0307 10.4828 43.528 10.635C43.3112 10.6996 42.6609 10.9947 42.4533 10.8979C42.5502 10.944 42.9238 10.8656 42.5917 10.8702C42.4856 10.8702 42.3795 10.884 42.2735 10.884C42.0613 10.8887 41.8538 10.8702 41.6416 10.8656C41.4525 10.861 41.3234 10.9394 41.7846 10.8933C41.637 10.9071 41.4433 10.8333 41.3003 10.801C41.0466 10.7457 40.793 10.6765 40.5439 10.5981C40.4194 10.5566 40.2949 10.5151 40.1749 10.4736C39.9812 10.4044 39.7875 10.3214 40.0873 10.4505C39.8475 10.3444 39.6076 10.2291 39.377 10.1092C38.3163 9.56498 37.3246 8.89161 36.3377 8.22285C35.5813 7.7063 34.4605 7.87694 33.7779 8.40273C33.0308 8.97924 32.7402 9.90628 32.9524 10.8287C33.0031 11.0455 33.0492 11.2669 33.0907 11.4836C33.1092 11.5943 33.1276 11.705 33.1461 11.8157C33.1046 11.4836 33.0999 11.4467 33.1276 11.705C33.1645 12.157 33.2014 12.6044 33.1968 13.061C33.1922 13.393 33.2475 13.9234 33.123 14.2417C33.1691 13.905 33.1737 13.8681 33.1322 14.1264C33.1138 14.2371 33.0953 14.3477 33.0723 14.4538C33.0262 14.6706 32.9754 14.8874 32.9155 15.1041C32.8555 15.3163 32.7909 15.5285 32.7125 15.736C32.6756 15.8375 32.6341 15.9435 32.5926 16.045C32.7218 15.7452 32.731 15.7129 32.6249 15.9435C32.4496 16.2848 32.2559 16.6031 32.053 16.9305C31.9054 17.1335 31.9285 17.1104 32.1222 16.8567C32.053 16.9398 31.9838 17.0274 31.91 17.1058C31.767 17.2718 31.6102 17.4286 31.4488 17.5762C31.3658 17.65 31.2828 17.7238 31.1998 17.7976C31.4949 17.5762 31.5457 17.5393 31.3473 17.6823C31.2182 17.7653 31.0891 17.853 30.9553 17.9314C30.84 18.0005 30.6325 18.0513 30.5402 18.1435C30.8861 18.0005 30.9461 17.9775 30.7201 18.0651C30.6371 18.0974 30.5541 18.1251 30.4664 18.1527C30.2958 18.2081 30.1251 18.2542 29.9499 18.2911C29.8622 18.3096 29.7746 18.328 29.687 18.3418C29.4379 18.3834 29.5117 18.3741 29.8991 18.3142C29.604 18.2773 29.2627 18.3603 28.9583 18.3465C28.7138 18.3372 28.2664 18.162 28.9075 18.3649C28.7415 18.3142 28.557 18.3049 28.3864 18.2634C28.2157 18.2219 28.0497 18.1712 27.8836 18.1159C27.2887 17.9129 28.1834 18.2911 27.8375 18.102C27.5792 17.959 27.3348 17.7746 27.0765 17.6408C27.63 17.9314 27.2426 17.7653 27.0673 17.5901C27.0073 17.5301 26.952 17.4702 26.8966 17.4056C26.7444 17.2211 26.786 17.2811 27.0212 17.5762C26.975 17.4333 26.8275 17.2764 26.7537 17.1427C26.4585 16.5892 26.8644 17.4794 26.7306 17.092C26.3524 15.9989 25.3793 15.2794 24.1986 15.4408C23.0594 15.593 22.2246 16.5477 22.1969 17.7054C22.1139 21.206 21.8879 24.6973 21.5097 28.1795C22.4828 27.4369 23.456 26.699 24.4292 25.9565C21.4174 25.4122 18.4057 24.8634 15.394 24.3192C14.4578 24.1485 13.5768 24.3607 12.968 25.1447C12.4515 25.8089 12.2439 26.9757 12.7882 27.7044C13.0372 28.0411 13.2724 28.3824 13.48 28.7422C13.5722 28.899 13.6552 29.0558 13.7383 29.2172C13.7659 29.2726 14.0657 29.8952 13.9274 29.5954C13.7936 29.2956 14.0519 29.9275 14.0703 29.9921C14.1303 30.1627 14.181 30.3334 14.2318 30.504C14.2779 30.6747 14.324 30.8499 14.3609 31.0206C14.384 31.1359 14.407 31.2512 14.4301 31.3665C14.4716 31.6294 14.467 31.5971 14.4209 31.2788C14.5454 31.5325 14.467 32.0398 14.4531 32.3212C14.4485 32.4134 14.3332 33.0453 14.4301 32.6994C14.5269 32.3396 14.3517 33.0038 14.3332 33.0683C14.2871 33.2344 14.2318 33.3958 14.1764 33.5618C14.0242 34.0415 14.3701 33.2482 14.1303 33.6495C14.0334 33.8155 13.9366 33.9815 13.8351 34.1476C13.6137 34.5027 14.1856 33.7878 13.8628 34.1015C13.7659 34.1937 13.6783 34.2952 13.5815 34.3874C13.5169 34.4474 13.4477 34.5073 13.3785 34.5627C13.6506 34.3551 13.7198 34.3044 13.5768 34.4059C13.3232 34.5442 13.0787 34.7149 12.8205 34.8532C12.4146 35.0746 13.2817 34.701 12.8712 34.8302C12.7005 34.8855 12.5299 34.9455 12.3546 34.9916C12.2255 35.0239 12.0917 35.0469 11.9626 35.0746C11.4968 35.1761 12.5207 35.0516 12.0456 35.0562C11.8934 35.0562 11.7412 35.07 11.5844 35.0654C11.3169 35.0608 11.0263 34.8994 11.6167 35.0977C11.3815 35.0193 11.1186 34.9824 10.8741 34.9132C10.5006 34.8025 11.3861 35.1899 10.8557 34.8855C10.7496 34.8256 10.6481 34.7287 10.5421 34.678C10.9572 34.8578 10.828 34.9132 10.6251 34.7056C10.1915 34.2629 10.8003 34.9916 10.579 34.6595C9.93327 33.7002 8.79868 33.2528 7.701 33.714C6.69556 34.1384 5.99913 35.3375 6.3681 36.4352C6.8247 37.805 7.2075 39.2025 7.50268 40.6138C7.64565 41.2871 7.76557 41.9605 7.86704 42.6385C7.89471 42.8091 7.93622 43.1182 7.8901 42.7769C7.91316 42.9567 7.93622 43.1366 7.95467 43.3165C8.00079 43.7131 8.03768 44.1051 8.07458 44.5018C8.84481 43.7316 9.61042 42.966 10.3806 42.1957C8.14376 42.4632 5.90688 42.7261 3.66539 42.9936C2.71991 43.1043 1.94969 43.4825 1.55765 44.4095C1.22097 45.2074 1.34089 46.3282 2.0327 46.9278C2.6415 47.4535 3.21341 48.0162 3.73458 48.625C3.79915 48.7034 4.29725 49.3353 3.95596 48.8787C4.06665 49.0263 4.17734 49.1739 4.28342 49.3261C4.51402 49.6535 4.73079 49.9902 4.93834 50.3361C5.14127 50.682 5.33498 51.0326 5.51485 51.3923C5.59787 51.5583 5.67167 51.7244 5.75007 51.895C5.85615 52.1348 5.85154 52.121 5.73624 51.8535C5.77313 51.9411 5.80542 52.0242 5.8377 52.1118C6.13749 52.8912 6.37271 53.6891 6.54797 54.5009C7.08297 53.5554 7.62259 52.6099 8.1576 51.6644C6.87543 51.8812 5.59326 52.1026 4.31109 52.3193C3.18573 52.513 2.52159 53.8183 2.65995 54.8514C2.82138 56.0644 3.76686 56.7239 4.9245 56.853C4.0851 56.7608 5.03058 56.9637 5.11821 56.9545C4.79998 56.8115 4.71696 56.7839 4.87377 56.8623C4.93373 56.8946 4.99368 56.9268 5.04903 56.9591C5.10899 56.996 5.20584 57.0929 5.27041 57.1113C5.00291 56.8992 4.93373 56.8484 5.06287 56.9637C5.1136 57.0099 5.16433 57.056 5.21045 57.1021C5.28886 57.1805 5.45951 57.4895 5.3027 57.1805C5.13205 56.8484 5.33037 57.2266 5.36727 57.2866C5.43184 57.3834 5.48257 57.4895 5.54253 57.591C5.7593 57.9553 5.48718 57.6279 5.51947 57.4941C5.50102 57.5679 5.61632 57.7616 5.63938 57.8308C5.67628 57.9461 5.70856 58.0614 5.73624 58.1767C5.75007 58.2413 5.81003 58.6933 5.77775 58.2966C5.74085 57.8954 5.77775 58.3335 5.78236 58.4212C5.79158 58.5641 5.79158 58.7117 5.78697 58.8547C5.78697 58.9054 5.74085 59.1038 5.76852 59.1453C5.82387 58.7948 5.83309 58.7117 5.80081 58.887C5.78697 58.9562 5.77313 59.03 5.7593 59.0991C5.72701 59.2375 5.5333 60.0077 5.68089 59.4543C5.61171 59.7172 5.41339 59.9939 5.27041 60.2199C5.19201 60.3444 5.10438 60.4597 5.02597 60.5796C4.87838 60.8102 5.29808 60.2752 5.00752 60.5935C4.8092 60.8102 4.61549 61.027 4.39872 61.2299C4.20501 61.4144 3.96979 61.6958 3.72535 61.8111C4.16812 61.6035 3.73458 61.7972 3.61466 61.8803C3.49013 61.9679 3.36561 62.0509 3.24108 62.1339C2.7153 62.4798 2.16645 62.7888 1.60839 63.0794C0.0910008 63.8727 0.123286 66.2572 1.60839 67.0597C2.07421 67.3133 2.53542 67.5854 2.97819 67.876C3.22263 68.0374 3.46707 68.2081 3.7069 68.3833C3.79915 68.4525 3.90984 68.5171 3.99285 68.5955C3.7807 68.388 3.81298 68.4571 4.0113 68.6186C4.85993 69.3104 5.64399 70.0806 6.35426 70.9108C6.43267 70.9984 6.50646 71.0907 6.58025 71.1829C6.62176 71.2336 6.93539 71.6257 6.73245 71.3674C6.54797 71.1322 6.7878 71.4412 6.82008 71.4873C6.90771 71.6072 6.99534 71.7271 7.07836 71.847C7.38276 72.2806 7.67333 72.7326 7.93622 73.1892C8.21756 73.6734 8.47584 74.1716 8.71105 74.6835C8.76179 74.7896 8.80791 74.9003 8.85864 75.0064C8.97856 75.2646 8.70644 74.6143 8.86325 75.0294C8.96933 75.3061 9.0708 75.5829 9.16765 75.8596C9.57813 77.0541 10.7312 77.7967 12.0041 77.4692C12.5668 77.3262 13.1295 77.1925 13.6968 77.0818C13.9827 77.0265 14.264 76.9757 14.55 76.9296C14.6376 76.9158 15.5139 76.8005 15.0112 76.8604C16.0904 76.7313 17.1743 76.6575 18.2581 76.6529C19.342 76.6437 20.4305 76.699 21.5097 76.8189C21.6527 76.8327 21.7956 76.8512 21.9386 76.8696C21.6849 76.8327 21.6942 76.8374 21.9709 76.8743C22.2569 76.9204 22.5428 76.9619 22.8288 77.0172C23.4007 77.1187 23.9633 77.2432 24.526 77.3816C24.0648 76.2516 23.6082 75.1217 23.147 73.9963C22.4275 75.5506 21.708 77.1049 20.9885 78.6591C20.6703 79.351 20.5688 79.9921 20.8732 80.7115C21.1269 81.3111 21.6803 81.9384 22.3675 82.0491C23.8573 82.2797 25.3285 82.6256 26.7629 83.0914C27.095 83.2021 27.427 83.3174 27.7545 83.4373C27.9205 83.4973 28.082 83.5618 28.248 83.6218C28.2803 83.6356 28.9168 83.8939 28.474 83.7094C29.1843 84.0046 29.8807 84.3459 30.5587 84.7056C30.2035 83.8386 29.853 82.9715 29.4979 82.0998C28.926 83.6541 28.7046 85.3744 28.8706 87.0209C29.0367 88.6582 30.2035 89.4607 31.7901 89.244C31.3151 89.3085 31.9423 89.2347 32.0438 89.2301C32.2605 89.2117 32.4773 89.1978 32.6987 89.1886C33.1691 89.1702 33.6442 89.1748 34.1146 89.2025C34.3314 89.2163 34.5482 89.2347 34.7649 89.2532C34.8756 89.2624 34.9817 89.2763 35.0878 89.2901C34.871 89.2624 34.8479 89.2624 35.014 89.2855C35.4752 89.3869 35.941 89.4653 36.3976 89.5807C35.8626 89.0456 35.323 88.506 34.788 87.971C34.9402 89.0134 35.097 90.0511 35.2492 91.0934C35.3507 91.776 35.9917 92.3387 36.5821 92.5878C37.2878 92.8829 37.9565 92.8091 38.6345 92.4725C38.8743 92.3525 39.1188 92.2418 39.3632 92.1219C39.6077 92.0159 39.6077 92.0112 39.3678 92.1127C39.4923 92.062 39.6169 92.0112 39.7414 91.9651C40.1796 91.7945 40.6269 91.6423 41.0743 91.5085C41.5909 91.3517 42.112 91.2179 42.6378 91.1073C42.8361 91.0658 43.0345 91.0289 43.2328 90.992C43.3296 90.9735 44.1829 90.8582 43.6156 90.9228C44.6164 90.8029 45.6265 90.7567 46.6365 90.7936C47.107 90.8121 47.5774 90.8536 48.0432 90.8997C48.3153 90.932 48.3107 90.932 48.0294 90.8951C48.1631 90.9136 48.2969 90.9366 48.426 90.9597C48.6935 91.0058 48.9564 91.0565 49.2193 91.1119C49.2193 89.6314 49.2193 88.1463 49.2193 86.6658C47.5866 86.9195 46.3091 88.4046 45.9355 89.9542C45.5296 91.6376 45.9032 93.358 47.0055 94.6909C48.2692 96.2221 50.4369 96.5865 52.2956 96.2544C54.1912 95.9131 55.7455 94.7139 56.88 93.2104C58.1023 91.5961 58.6834 89.576 59.2046 87.6482C57.7979 87.8327 56.3958 88.0171 54.9891 88.197C56.2528 90.9136 57.5119 93.6301 58.7756 96.3466C59.1861 97.2275 60.4821 97.698 61.3815 97.4074C62.2808 97.1169 63.1802 96.2083 63.0741 95.1844C63.0464 94.9169 63.0326 94.6448 63.0418 94.3773C63.0464 94.3219 63.1249 93.8376 63.0464 94.202C62.968 94.5756 63.0741 94.1098 63.0926 94.0313C63.1387 93.8376 63.3601 93.4456 63.3324 93.2611C63.2125 93.5378 63.1894 93.5978 63.2632 93.441C63.2955 93.3672 63.3324 93.2934 63.3693 93.2242C63.42 93.1274 63.4708 93.0351 63.5307 92.9429C63.5538 92.906 63.8074 92.5693 63.7982 92.537C63.812 92.6016 63.4984 92.8829 63.7383 92.62C63.9227 92.4171 64.1072 92.2326 64.3055 92.0435C64.693 91.6792 63.9043 92.2926 64.3517 92.0066C64.4439 91.9513 64.5315 91.8867 64.6238 91.8314C64.6653 91.8083 65.0389 91.6376 65.0527 91.6054C65.0112 91.7114 64.5961 91.7714 65.025 91.6284C65.2787 91.5454 65.5324 91.4901 65.7907 91.4347C66.072 91.3748 65.2188 91.4532 65.7261 91.4532C65.8598 91.4532 65.989 91.4439 66.1227 91.4439C66.2565 91.4439 66.3856 91.4532 66.5194 91.4624C66.9529 91.4855 66.1735 91.384 66.4548 91.4532C66.7131 91.5177 66.9714 91.5685 67.225 91.6515C67.4372 91.7207 67.6171 91.6515 67.1927 91.6192C67.3034 91.6284 67.4556 91.7437 67.5479 91.7899C67.7831 91.9144 67.9999 92.062 68.2212 92.2049C68.4472 92.3525 67.8938 91.8913 68.189 92.1911C68.2812 92.2833 68.3827 92.371 68.4749 92.4632C68.5256 92.514 68.7332 92.6754 68.7378 92.7584C68.6825 92.6846 68.6271 92.6154 68.5718 92.5416C68.6317 92.6293 68.6917 92.7169 68.7516 92.8045C69.2913 93.6347 70.3567 94.1882 71.3575 93.8653C72.2891 93.5655 73.1101 92.6754 73.0501 91.6423C73.0179 91.0565 73.0132 90.4708 73.0547 89.885C73.0547 89.862 73.1101 89.3593 73.1055 89.3593C73.1378 89.3685 73.0225 89.8389 73.1009 89.4515C73.1608 89.1656 73.2162 88.8796 73.2992 88.6029C73.3453 88.4368 73.4053 88.2754 73.4606 88.1094C73.5851 87.7404 73.4329 88.1878 73.4237 88.1832C73.4007 88.174 73.7788 87.5098 73.8296 87.436C73.8757 87.3622 73.9218 87.293 73.9726 87.2239C74.0694 87.0855 74.0371 87.1316 73.8711 87.353C73.8619 87.3392 74.0786 87.1178 74.0971 87.0947C74.1017 87.0855 74.443 86.758 74.4476 86.7626C74.4707 86.7995 73.9449 87.0809 74.3646 86.8364C74.4614 86.7811 74.5583 86.7165 74.6598 86.6612C74.7382 86.6197 75.1025 86.4213 74.7566 86.6012C74.4292 86.7765 74.7935 86.6012 74.8719 86.5735C74.9826 86.5413 75.0933 86.5182 75.204 86.4859C75.4577 86.4167 75.5222 86.5551 75.0656 86.4859C75.1717 86.4998 75.3008 86.4629 75.4069 86.4582C75.5222 86.4536 75.6329 86.4536 75.7482 86.4582C75.8405 86.4629 76.2556 86.509 75.8451 86.4536C75.43 86.3983 75.8681 86.4675 75.9327 86.4813C76.0388 86.509 76.1449 86.5413 76.2509 86.5735C76.6568 86.6935 76.1864 86.6151 76.1218 86.5136C76.1587 86.5735 76.3432 86.6381 76.4031 86.6704C76.7629 86.8687 76.334 86.6935 76.2971 86.5735C76.3155 86.6335 76.4816 86.7626 76.5277 86.7949C76.7214 86.9425 76.2648 86.3522 76.4446 86.6889C76.5092 86.8088 76.5784 86.9195 76.6384 87.0394C77.035 87.8603 78.0958 88.2524 78.9352 88.1417C79.8484 88.0171 80.5863 87.3761 80.8538 86.4905C81.7394 83.5203 82.6295 80.5455 83.515 77.5753C82.5695 78.1103 81.6241 78.6499 80.6786 79.1849C83.3167 80.1443 86.1947 80.5317 88.9942 80.3149C89.8244 80.2503 90.5485 79.9183 90.9867 79.1711C91.3695 78.5208 91.4663 77.4831 90.9867 76.842C90.8391 76.6437 90.7146 76.4361 90.59 76.2193C90.3871 75.8596 90.6546 76.2193 90.6361 76.3531C90.6454 76.2839 90.5393 76.0579 90.5208 75.9841C90.4932 75.8827 90.4839 75.772 90.4517 75.6705C90.3733 75.4399 90.4839 76.2747 90.4747 75.8365C90.4701 75.6198 90.4563 75.4076 90.4701 75.1908C90.4886 74.8864 90.6223 74.8588 90.447 75.2877C90.4886 75.1908 90.4886 75.0663 90.5116 74.9648C90.567 74.725 90.6454 74.499 90.7192 74.2638C90.8391 73.881 90.5347 74.6282 90.6638 74.3791C90.7145 74.2822 90.7607 74.1762 90.8114 74.0747C90.9267 73.8533 91.0512 73.6412 91.1896 73.4382C91.2449 73.3552 91.351 73.2491 91.3833 73.1615C91.3187 73.3183 91.0651 73.5351 91.3187 73.263C91.4848 73.0831 91.6508 72.9032 91.8353 72.7372C91.9045 72.6726 92.2273 72.4605 91.9091 72.6588C91.5816 72.8663 91.9229 72.6542 91.9967 72.6034C92.195 72.4697 92.4072 72.3544 92.6147 72.2391C92.9607 72.05 92.624 72.2852 92.4764 72.2898C92.5686 72.2898 92.7531 72.193 92.8407 72.1653C92.9238 72.1422 93.0068 72.1192 93.0898 72.1007C93.3942 72.0315 93.4311 72.1607 92.9837 72.1007C93.1774 72.1284 93.4311 72.0869 93.6294 72.0869C94.0814 72.0823 93.0944 71.9577 93.5418 72.073C93.6755 72.1053 93.8047 72.133 93.9384 72.1699C95.8755 72.7234 97.5543 70.5095 96.5443 68.7846C96.3137 68.388 96.0923 67.9867 95.894 67.5716C95.811 67.3964 95.7279 67.2165 95.6495 67.0366C95.8571 67.5024 95.6265 66.9628 95.5849 66.8614C95.2713 66.0358 95.0223 65.1825 94.847 64.3155C94.8009 64.0895 94.764 63.8635 94.7225 63.6375C94.6302 63.1348 94.7548 64.0249 94.6994 63.4714C94.6579 63.0471 94.621 62.6228 94.6072 62.1985C94.5749 61.313 94.6256 60.432 94.7363 59.5511C93.3019 59.9386 91.8722 60.326 90.4378 60.7134C92.006 63.2316 95.442 62.9088 97.2407 60.8287C98.26 59.6526 98.5736 58.269 98.3707 56.747C98.1816 55.3264 97.5036 54.0535 96.8302 52.8082C96.6919 52.5499 96.5535 52.2963 96.4244 52.0334C96.4013 51.9873 96.1061 51.5445 96.3321 51.8627C96.535 52.1487 96.3137 51.8028 96.2814 51.7105C96.2122 51.5122 96.1569 51.3139 96.1107 51.111C96.0831 50.9864 96.06 50.8573 96.0323 50.7281C96.0047 50.5483 96.0139 50.6267 96.0646 50.9588C96.0554 50.885 96.0508 50.8066 96.0508 50.7281C96.0554 50.5713 96.1292 50.1931 96.0692 50.0594C96.1799 50.3131 95.9816 50.5391 96.0784 50.1793C96.1845 49.7873 96.1845 50.1885 96.0139 50.2715C96.0323 50.2623 96.1476 50.0271 96.1476 50.0271C96.3275 49.6674 96.0877 50.1793 96.0369 50.1609C96.0692 50.1286 96.1015 50.0917 96.1338 50.0594C96.2768 49.9349 96.2722 49.9303 96.1246 50.0594C95.9539 50.1839 95.9724 50.1839 96.1707 50.0594C96.4059 49.9441 96.3921 49.9487 96.1338 50.0732C97.5728 49.6212 98.9057 49.1093 99.782 47.8041C100.511 46.7248 100.589 45.4058 100.331 44.1605C99.805 41.6192 97.6189 39.3869 95.5019 38.054C95.5019 39.3823 95.5019 40.7106 95.5019 42.0343C96.6273 41.2133 97.748 40.3924 98.8734 39.5714C99.6805 38.9857 100.266 38.0033 99.9342 36.9656C99.639 36.057 98.7396 35.1853 97.7111 35.2729C97.6143 35.2822 97.5128 35.2775 97.416 35.2914C97.0747 35.3329 97.5405 35.2499 97.6004 35.3329C97.5774 35.3052 97.3698 35.2729 97.3283 35.2683C96.9271 35.1899 97.5866 35.4436 97.4252 35.3144C97.3652 35.2683 97.2499 35.1991 97.1807 35.1715C96.9594 35.0838 97.4621 35.4528 97.3053 35.2729C97.2453 35.2038 97.1623 35.1346 97.0931 35.0746C97.0562 35.0423 97.0239 35.0054 96.9916 34.9685C96.9132 34.8763 96.9225 34.8947 97.0285 35.0331C97.13 35.1715 97.1439 35.1899 97.0747 35.0885C97.047 35.0469 97.0147 35.0054 96.9916 34.9639C96.9271 34.8578 96.8579 34.7518 96.7979 34.6411C96.7795 34.6088 96.6457 34.392 96.6642 34.369C96.6642 34.3736 96.821 34.8532 96.7288 34.4889C96.7149 34.4381 96.5719 33.8939 96.5766 33.8939C96.6135 33.8939 96.6042 34.4381 96.6042 34.0507C96.6042 33.9262 96.5996 33.7971 96.5996 33.6725C96.5996 33.6033 96.6365 33.2574 96.595 33.5849C96.5489 33.9308 96.6181 33.5203 96.6319 33.4558C96.6872 33.2159 96.7749 32.9899 96.8348 32.7547C96.9132 32.4457 96.6642 33.0868 96.8072 32.8008C96.8625 32.6902 96.9132 32.5795 96.9686 32.4734C97.0931 32.2289 97.2361 31.9891 97.3837 31.7585C97.5174 31.551 97.6604 31.348 97.808 31.1451C97.9464 30.9514 97.9187 31.0159 97.7896 31.1635C97.8726 31.0667 97.9464 30.9698 98.0294 30.873C98.3891 30.4394 98.7673 30.0243 99.1501 29.6093C100.529 28.1057 99.5375 25.772 97.5174 25.6705C97.0332 25.6474 96.5535 25.6152 96.0738 25.5644C95.8663 25.5414 95.6634 25.5183 95.4558 25.4952C95.9862 25.5598 95.3036 25.4676 95.2483 25.4583C94.3627 25.3154 93.4864 25.1263 92.6194 24.8911C91.7523 24.6558 90.899 24.3791 90.0642 24.0517C89.8705 23.9779 89.6768 23.8995 89.4877 23.821C89.9397 24.0101 89.3171 23.7426 89.2802 23.7242C88.842 23.5259 88.4085 23.3091 87.9796 23.0877C88.3347 23.9548 88.6852 24.8219 89.0404 25.6936C90.0135 23.0185 90.9913 20.3435 91.9644 17.6639C92.5133 16.1603 91.1158 14.8366 89.7414 14.7444C84.8894 14.4169 79.996 14.8551 75.2639 15.9758C76.2094 16.9213 77.1549 17.8668 78.1004 18.8123C78.5247 16.3356 78.9536 13.8589 79.378 11.3822C79.6316 9.89705 78.7645 8.49958 77.1549 8.46268C73.6774 8.37967 70.1998 8.30126 66.7177 8.21824C67.4879 8.98847 68.2535 9.75408 69.0238 10.5243C69.2128 8.8132 69.3973 7.10211 69.5864 5.39101C69.6833 4.49626 68.9269 3.60151 68.1705 3.28327C67.3818 2.9512 66.2426 3.05728 65.6523 3.75832C65.2372 4.25182 64.7898 4.71764 64.3102 5.15118C64.1949 5.25265 64.0796 5.35412 63.9643 5.45558C63.9596 5.46019 63.5077 5.81533 63.7659 5.62162C64.0196 5.42791 63.6045 5.73692 63.5538 5.76921C63.4016 5.87529 63.2494 5.97675 63.0972 6.07822C62.5806 6.41029 62.041 6.71008 61.4829 6.97297C61.3999 7.00987 60.8372 7.22202 61.3584 7.03293C61.2154 7.08366 61.0725 7.14362 60.9295 7.19896C60.6112 7.31427 60.2884 7.41573 59.9655 7.50798C60.9387 8.25053 61.9119 8.98847 62.885 9.73102C63.1525 7.04215 62.8712 4.27949 62.1102 1.68748C61.7228 0.368414 59.9702 -0.581683 58.7249 0.308457C55.4226 2.66525 53.0012 6.21658 52.3555 10.266C52.1665 11.4513 52.66 12.8073 53.9652 13.1025C55.0905 13.393 56.6218 12.8027 56.8201 11.5297Z" fill="#FFCCD6"/>
</g>
<defs>
<clipPath id="clip0">
<rect width="100" height="98.0491" fill="white" transform="translate(0.492188)"/>
</clipPath>
</defs>
</svg>
