<svg width="143" height="121" viewBox="0 0 143 121" fill="none" xmlns="http://www.w3.org/2000/svg">
<g clip-path="url(#clip0)">
<g clip-path="url(#clip1)">
<path d="M53.9728 9.51472C57.6795 14.2676 61.3862 19.0204 65.086 23.7801C65.6568 24.5161 66.9153 24.3785 67.5205 23.7801C68.2425 23.0579 68.0912 22.0812 67.5205 21.3452C63.8138 16.5924 60.1071 11.8396 56.4073 7.07984C55.8365 6.34387 54.578 6.48143 53.9728 7.07984C53.2507 7.80205 53.402 8.77875 53.9728 9.51472Z" fill="#F3A2BC"/>
<path d="M58.1663 20.1973C60.5182 14.8254 63.1315 9.57734 65.9992 4.45996C67.0789 2.52718 64.1149 0.793875 63.0283 2.72665C60.1675 7.84404 57.5542 13.0921 55.1954 18.464C54.8241 19.3169 54.9479 20.3073 55.8144 20.8163C56.5433 21.2428 57.7881 21.0502 58.1663 20.1973Z" fill="#F3A2BC"/>
<path d="M84.0456 17.1976C88.3368 19.887 92.6281 22.5764 96.9193 25.2658C97.7033 25.761 98.8105 25.4308 99.2712 24.6467C99.7526 23.8213 99.4431 22.7896 98.6523 22.2944C94.361 19.605 90.0698 16.9156 85.7786 14.2262C84.9946 13.731 83.8874 14.0612 83.4266 14.8453C82.9453 15.6707 83.2547 16.7024 84.0456 17.1976Z" fill="#F3A2BC"/>
<path d="M89.2102 24.9289C91.1082 19.7633 93.0063 14.5909 94.9043 9.42539C95.2275 8.55186 94.5467 7.54076 93.7008 7.3069C92.7449 7.04553 91.9059 7.63018 91.5827 8.51059C89.6847 13.6761 87.7866 18.8485 85.8886 24.0141C85.5654 24.8876 86.2462 25.8987 87.0921 26.1325C88.0548 26.3939 88.887 25.8093 89.2102 24.9289Z" fill="#F3A2BC"/>
<path d="M112.027 27.756C115.073 29.1592 118.271 30.1428 121.599 30.6105C122.487 30.7343 123.491 30.3973 123.718 29.4068C123.903 28.5952 123.47 27.4259 122.514 27.2883C120.96 27.0751 119.419 26.7518 117.913 26.3116C117.157 26.0915 116.414 25.8508 115.678 25.5756C115.314 25.4381 114.943 25.2936 114.585 25.1492C114.255 25.0116 114.736 25.218 114.379 25.0598C114.172 24.9704 113.966 24.8741 113.767 24.7847C112.948 24.4132 111.875 24.5233 111.415 25.4037C111.016 26.1603 111.16 27.3571 112.027 27.756Z" fill="#F3A2BC"/>
<path d="M118.932 21.7998C118.492 23.4781 117.983 25.1426 117.399 26.7796C117.11 27.5981 116.794 28.4098 116.47 29.2145C116.312 29.5997 116.271 29.7029 116.065 30.1706C115.893 30.5695 115.707 30.9616 115.528 31.3536C115.15 32.1653 115.274 33.2451 116.147 33.706C116.904 34.1049 118.093 33.9605 118.499 33.0869C120.053 29.7441 121.326 26.2775 122.254 22.7077C122.481 21.8411 121.965 20.8025 121.05 20.5892C120.15 20.3966 119.173 20.8712 118.932 21.7998Z" fill="#F3A2BC"/>
<path d="M126.084 48.7483C129.007 49.8419 131.923 50.9356 134.846 52.0292C137.06 52.8615 141.186 55.1588 142.417 51.7816C142.733 50.9081 142.06 49.897 141.214 49.6631C140.258 49.4017 139.419 49.9864 139.096 50.8668C139.212 50.5504 139.405 50.3303 139.68 50.1927C139.873 50.1583 139.866 50.1515 139.653 50.1515C139.852 50.2821 139.543 50.1102 139.439 50.0827C138.855 49.9038 138.284 49.6562 137.713 49.443C136.537 49.0028 135.361 48.5626 134.185 48.1224C131.785 47.2282 129.392 46.3272 126.992 45.433C126.126 45.1097 125.108 45.7976 124.874 46.6367C124.619 47.5928 125.211 48.4182 126.084 48.7483Z" fill="#F3A2BC"/>
<path d="M134.715 36.8636C132.81 43.6456 131.242 50.5238 130.018 57.4639C129.86 58.3787 130.265 59.3141 131.221 59.5824C132.053 59.8093 133.174 59.3004 133.339 58.3787C134.563 51.4386 136.131 44.5672 138.036 37.7784C138.628 35.6462 135.313 34.7314 134.715 36.8636Z" fill="#F3A2BC"/>
<path d="M127.149 80.3807C129.804 82.5405 132.912 84.0743 136.282 84.714C137.162 84.8791 138.18 84.4664 138.4 83.5103C138.593 82.6643 138.146 81.5707 137.197 81.3918C136.454 81.2543 135.725 81.0686 135.003 80.8416C134.645 80.7247 134.288 80.6008 133.937 80.4702C133.868 80.4426 133.304 80.2088 133.689 80.3807C133.517 80.3051 133.346 80.2294 133.174 80.1538C132.493 79.8374 131.826 79.4797 131.186 79.0808C130.863 78.8813 130.554 78.675 130.244 78.4548C130.093 78.3448 129.941 78.2347 129.79 78.1178C130.12 78.3654 129.639 77.994 129.584 77.9459C128.889 77.3818 127.823 77.2168 127.149 77.9459C126.572 78.5787 126.407 79.7755 127.149 80.3807Z" fill="#F3A2BC"/>
<path d="M133.249 76.5569C133.07 77.1966 132.871 77.8294 132.651 78.4553C132.534 78.7854 132.41 79.1225 132.279 79.4457C132.231 79.5695 132.183 79.6934 132.128 79.8172C132.052 79.996 132.059 79.9822 132.149 79.7759C132.114 79.8584 132.08 79.941 132.046 80.0166C131.509 81.2341 130.89 82.4034 130.196 83.5383C129.721 84.3086 130.003 85.4642 130.815 85.8906C131.654 86.3377 132.664 86.0901 133.166 85.2716C134.659 82.8504 135.807 80.2092 136.571 77.4717C136.811 76.605 136.275 75.5595 135.367 75.3532C134.452 75.1537 133.503 75.6352 133.249 76.5569Z" fill="#F3A2BC"/>
<path d="M25.667 16.1394C30.4672 20.796 35.5149 25.1912 40.7964 29.2974C41.5254 29.8683 42.5157 30.0128 43.2309 29.2974C43.8223 28.7059 43.9667 27.4403 43.2309 26.8626C37.9562 22.7563 32.9016 18.3611 28.1015 13.7046C26.506 12.1638 24.0716 14.5987 25.667 16.1394Z" fill="#F3A2BC"/>
<path d="M35.1423 10.4023C32.7491 16.5514 30.356 22.7005 27.9628 28.8427C27.6258 29.7094 28.3341 30.7274 29.1662 30.9612C30.1359 31.2295 30.9405 30.6311 31.2843 29.7575C33.6775 23.6084 36.0707 17.4593 38.4639 11.3171C38.8009 10.4504 38.0926 9.43243 37.2604 9.19857C36.2839 8.9372 35.4793 9.5356 35.1423 10.4023Z" fill="#F3A2BC"/>
<path d="M15.413 46.3411C18.1019 46.8845 20.8459 47.1596 23.5898 47.139C24.4907 47.1321 25.3503 46.3549 25.309 45.4194C25.2678 44.4909 24.5526 43.693 23.5898 43.6999C22.3175 43.7136 21.0522 43.6586 19.7868 43.5417C19.4636 43.5142 19.1404 43.4798 18.824 43.4385C18.6727 43.4179 18.5283 43.4041 18.377 43.3835C18.6865 43.4248 18.377 43.3835 18.2395 43.3628C17.5999 43.2666 16.9604 43.1565 16.3277 43.0258C15.4474 42.847 14.4296 43.2803 14.2096 44.2295C14.017 45.0824 14.4709 46.1485 15.413 46.3411Z" fill="#F3A2BC"/>
<path d="M20.0134 38.6988C19.367 42.3924 18.7137 46.0791 18.0672 49.7727C17.9091 50.6531 18.301 51.6711 19.2707 51.8912C20.1097 52.0838 21.2169 51.6367 21.3888 50.6875C22.0352 46.9939 22.6886 43.3072 23.335 39.6136C23.4932 38.7332 23.1012 37.7152 22.1315 37.4951C21.2925 37.3026 20.1785 37.7496 20.0134 38.6988Z" fill="#F3A2BC"/>
<path d="M8.80402 70.9442C15.3647 72.2373 22.0422 72.8976 28.7335 72.8839C30.9479 72.877 30.9479 69.4379 28.7335 69.4448C22.3448 69.4654 15.9836 68.867 9.71866 67.629C8.8109 67.4501 7.86188 67.8903 7.60055 68.8326C7.36673 69.6787 7.88938 70.7654 8.80402 70.9442Z" fill="#F3A2BC"/>
<path d="M14.561 62.691C14.6504 68.1798 13.7908 73.5861 12.0303 78.7791C11.7346 79.6595 12.3741 80.6569 13.2337 80.8976C14.1759 81.159 15.0493 80.5812 15.3519 79.6939C17.2018 74.2326 18.0958 68.4549 18.0064 62.691C17.9651 60.4762 14.5266 60.4694 14.561 62.691Z" fill="#F3A2BC"/>
<path d="M28.0524 84.4612C30.1843 87.8522 33.3064 90.6379 36.9787 92.268C37.7971 92.6325 38.863 92.5362 39.3307 91.649C39.7227 90.8992 39.592 89.6818 38.7118 89.2966C37.8796 88.9321 37.075 88.5056 36.3117 88.0241C35.9403 87.7903 35.569 87.5427 35.2114 87.2813C35.122 87.2194 35.0257 87.1575 34.9432 87.0818C35.2595 87.357 34.9225 87.0612 34.8744 87.0268C34.7025 86.8892 34.5305 86.7448 34.3655 86.6004C33.6984 86.0226 33.0657 85.3967 32.4881 84.7295C32.3437 84.5644 32.1992 84.3924 32.0617 84.2205C32.0204 84.1723 31.7316 83.8216 31.9998 84.1517C31.931 84.0692 31.8691 83.9729 31.8004 83.8835C31.5253 83.512 31.264 83.1269 31.0164 82.7279C30.535 81.9644 29.4622 81.5999 28.6645 82.1089C27.908 82.6041 27.5435 83.6496 28.0524 84.4612Z" fill="#F3A2BC"/>
<path d="M35.4602 81.6878C33.7203 86.1518 30.7426 90.1893 26.9809 93.3257C26.2657 93.9242 26.3688 95.1416 26.9809 95.7606C27.6892 96.4691 28.7001 96.359 29.4153 95.7606C33.6172 92.2528 36.7943 87.6925 38.7818 82.6026C39.1188 81.736 38.4104 80.718 37.5783 80.4841C36.6018 80.2159 35.8041 80.8212 35.4602 81.6878Z" fill="#F3A2BC"/>
<path d="M41.5928 111.429C44.8594 111.457 48.1397 110.968 51.2481 109.971C52.1008 109.696 52.7404 108.767 52.4516 107.853C52.1765 106.993 51.255 106.36 50.3334 106.649C48.8755 107.117 47.3901 107.474 45.8771 107.708C45.8153 107.715 45.2445 107.798 45.5608 107.756C45.3889 107.777 45.217 107.798 45.045 107.818C44.6737 107.86 44.2954 107.894 43.9241 107.921C43.147 107.976 42.3699 107.997 41.5859 107.99C40.685 107.983 39.8254 108.788 39.8667 109.71C39.9148 110.645 40.63 111.422 41.5928 111.429Z" fill="#F3A2BC"/>
<path d="M44.3036 104.957C44.1317 108.273 44.2417 111.588 44.62 114.883C44.7231 115.77 45.3352 116.65 46.3392 116.602C47.1851 116.568 48.1685 115.839 48.0585 114.883C47.6802 111.588 47.5702 108.266 47.7421 104.957C47.7903 104.056 46.9169 103.196 46.0229 103.238C45.0532 103.279 44.3518 103.994 44.3036 104.957Z" fill="#F3A2BC"/>
<path d="M64.9279 100.019C68.0019 102.44 70.8008 105.191 73.2628 108.232C73.8336 108.933 75.1127 108.864 75.6972 108.232C76.378 107.489 76.3024 106.546 75.6972 105.797C73.2353 102.757 70.4363 99.9984 67.3623 97.5841C66.991 97.2884 66.6402 97.082 66.1451 97.082C65.7256 97.082 65.2167 97.2677 64.9279 97.5841C64.3571 98.2032 64.1714 99.4206 64.9279 100.019Z" fill="#F3A2BC"/>
<path d="M70.6428 97.4953C68.449 100.439 66.2484 103.39 64.0546 106.334C63.5182 107.056 63.9102 108.287 64.6736 108.686C65.5745 109.161 66.4478 108.844 67.0255 108.067C69.2193 105.123 71.4199 102.173 73.6136 99.2286C74.15 98.5064 73.7581 97.2752 72.9947 96.8763C72.0938 96.4017 71.2136 96.725 70.6428 97.4953Z" fill="#F3A2BC"/>
<path d="M86.6866 111.506C88.1376 111.746 89.5749 112.07 90.9847 112.489C91.693 112.702 92.3876 112.936 93.0753 113.191C93.4191 113.321 93.763 113.459 94.1068 113.59C94.4507 113.727 93.9074 113.5 94.2788 113.659C94.4713 113.741 94.6639 113.83 94.8564 113.913C95.6748 114.284 96.7407 114.174 97.2084 113.294C97.6072 112.544 97.4697 111.334 96.5894 110.942C93.7149 109.642 90.7165 108.692 87.6012 108.177C86.7141 108.032 85.7101 108.404 85.4831 109.38C85.2974 110.213 85.7376 111.347 86.6866 111.506Z" fill="#F3A2BC"/>
<path d="M90.6472 114.965C92.1532 110.79 93.2673 106.484 93.9825 102.11C94.1338 101.195 93.7418 100.26 92.7791 99.9913C91.9607 99.7643 90.8122 100.273 90.6609 101.195C89.9457 105.576 88.8248 109.875 87.3256 114.05C87.0093 114.924 87.6832 115.935 88.5291 116.169C89.485 116.43 90.3308 115.846 90.6472 114.965Z" fill="#F3A2BC"/>
<path d="M110.92 100.92C113.348 102.309 115.775 103.691 118.203 105.081C118.987 105.528 120.121 105.287 120.555 104.462C120.988 103.643 120.775 102.584 119.936 102.11C117.508 100.72 115.08 99.3376 112.653 97.9482C111.869 97.5011 110.734 97.7419 110.301 98.5672C109.868 99.3789 110.088 100.438 110.92 100.92Z" fill="#F3A2BC"/>
<path d="M118.87 94.0415C115.122 97.742 112.378 102.399 110.948 107.468C110.694 108.362 111.257 109.339 112.152 109.586C113.052 109.834 114.015 109.284 114.27 108.383C115.542 103.87 117.963 99.778 121.305 96.4764C122.88 94.9151 120.452 92.4802 118.87 94.0415Z" fill="#F3A2BC"/>
</g>
</g>
<defs>
<clipPath id="clip0">
<rect width="142" height="120.371" fill="white" transform="translate(0.492188)"/>
</clipPath>
<clipPath id="clip1">
<rect width="134.947" height="114.728" fill="white" transform="translate(7.54492 1.88086)"/>
</clipPath>
</defs>
</svg>
