<svg width="204" height="449" viewBox="0 0 204 449" fill="none" xmlns="http://www.w3.org/2000/svg">
<rect y="41.7148" width="128.732" height="16.8151" transform="rotate(-18.9073 0 41.7148)" fill="white"/>
<rect x="17.2559" y="92.0879" width="128.732" height="16.8151" transform="rotate(-18.9073 17.2559 92.0879)" fill="white"/>
<rect x="34.5098" y="142.465" width="128.732" height="15.4139" transform="rotate(-18.9073 34.5098 142.465)" fill="white"/>
<rect x="51.3086" y="191.514" width="128.732" height="16.8151" transform="rotate(-18.9073 51.3086 191.514)" fill="#FFEC51"/>
<rect x="68.5645" y="241.889" width="128.732" height="16.8151" transform="rotate(-18.9073 68.5645 241.889)" fill="white"/>
<rect x="83.0938" y="284.309" width="128.732" height="16.8151" transform="rotate(-18.9073 83.0938 284.309)" fill="white"/>
<rect x="97.623" y="326.732" width="128.732" height="16.8151" transform="rotate(-18.9073 97.623 326.732)" fill="#F3A2BC"/>
<rect x="112.152" y="369.152" width="128.732" height="16.8151" transform="rotate(-18.9073 112.152 369.152)" fill="white"/>
<rect x="126.686" y="411.572" width="128.732" height="16.8151" transform="rotate(-18.9073 126.686 411.572)" fill="#21B8EB"/>
<rect x="141.215" y="453.992" width="128.732" height="16.8151" transform="rotate(-18.9073 141.215 453.992)" fill="white"/>
</svg>
