<svg width="514" height="147" viewBox="0 0 514 147" fill="none" xmlns="http://www.w3.org/2000/svg">
<rect x="514" width="146.193" height="19.096" transform="rotate(90 514 0)" fill="white"/>
<rect x="453.529" width="146.193" height="19.096" transform="rotate(90 453.529 0)" fill="white"/>
<rect x="393.059" width="146.193" height="17.5046" transform="rotate(90 393.059 0)" fill="white"/>
<rect x="334.18" width="146.193" height="19.096" transform="rotate(90 334.18 0)" fill="#FFEC51"/>
<rect x="273.709" width="146.193" height="19.096" transform="rotate(90 273.709 0)" fill="white"/>
<rect x="222.787" width="146.193" height="19.096" transform="rotate(90 222.787 0)" fill="white"/>
<rect x="171.863" width="146.193" height="19.096" transform="rotate(90 171.863 0)" fill="#F3A2BC"/>
<rect x="120.94" width="146.193" height="19.096" transform="rotate(90 120.94 0)" fill="white"/>
<rect x="70.0186" width="146.193" height="19.096" transform="rotate(90 70.0186 0)" fill="#21B8EB"/>
<rect x="19.0957" width="146.193" height="19.096" transform="rotate(90 19.0957 0)" fill="white"/>
</svg>
