<svg width="383" height="87" viewBox="0 0 383 87" fill="none" xmlns="http://www.w3.org/2000/svg">
<rect y="87" width="101" height="14.2291" transform="rotate(-90 0 87)" fill="white"/>
<rect x="45.0586" y="87" width="101" height="14.2291" transform="rotate(-90 45.0586 87)" fill="white"/>
<rect x="90.1172" y="87" width="101" height="13.0433" transform="rotate(-90 90.1172 87)" fill="white"/>
<rect x="133.99" y="87" width="101" height="14.2291" transform="rotate(-90 133.99 87)" fill="#FFEC51"/>
<rect x="179.049" y="87" width="101" height="14.2291" transform="rotate(-90 179.049 87)" fill="white"/>
<rect x="216.994" y="87" width="101" height="14.2291" transform="rotate(-90 216.994 87)" fill="white"/>
<rect x="254.938" y="87" width="101" height="14.2291" transform="rotate(-90 254.938 87)" fill="#F3A2BC"/>
<rect x="292.883" y="87" width="101" height="14.2291" transform="rotate(-90 292.883 87)" fill="white"/>
<rect x="330.826" y="87" width="101" height="14.2291" transform="rotate(-90 330.826 87)" fill="#21B8EB"/>
<rect x="368.771" y="87" width="101" height="14.2291" transform="rotate(-90 368.771 87)" fill="white"/>
</svg>
