<svg width="370" height="384" viewBox="0 0 370 384" fill="none" xmlns="http://www.w3.org/2000/svg">
<rect y="73.3438" width="106.89" height="15.8156" transform="rotate(-43.3261 0 73.3438)" fill="white"/>
<rect x="34.3652" y="109.777" width="106.89" height="15.8156" transform="rotate(-43.3261 34.3652 109.777)" fill="white"/>
<rect x="68.7285" y="146.211" width="106.89" height="14.4977" transform="rotate(-43.3261 68.7285 146.211)" fill="white"/>
<rect x="102.189" y="181.684" width="106.89" height="15.8156" transform="rotate(-43.3261 102.189 181.684)" fill="#FFEC51"/>
<rect x="136.553" y="218.117" width="106.89" height="15.8156" transform="rotate(-43.3261 136.553 218.117)" fill="#F3A2BC"/>
<rect x="165.492" y="248.801" width="106.89" height="15.8156" transform="rotate(-43.3261 165.492 248.801)" fill="white"/>
<rect x="194.43" y="279.48" width="106.89" height="15.8156" transform="rotate(-43.3261 194.43 279.48)" fill="white"/>
<rect x="223.369" y="310.16" width="106.89" height="15.8156" transform="rotate(-43.3261 223.369 310.16)" fill="white"/>
<rect x="252.307" y="340.84" width="106.89" height="15.8156" transform="rotate(-43.3261 252.307 340.84)" fill="#21B8EB"/>
<rect x="281.246" y="371.523" width="106.89" height="15.8156" transform="rotate(-43.3261 281.246 371.523)" fill="white"/>
</svg>
