<svg width="338" height="387" viewBox="0 0 338 387" fill="none" xmlns="http://www.w3.org/2000/svg">
<rect width="192.12" height="15.1027" transform="matrix(-0.919282 0.393599 0.393599 0.919282 177.396 0.972656)" fill="white"/>
<rect width="192.12" height="15.1027" transform="matrix(-0.919282 0.393599 0.393599 0.919282 196.221 44.9375)" fill="white"/>
<rect width="192.12" height="13.8441" transform="matrix(-0.919282 0.393599 0.393599 0.919282 215.045 88.9023)" fill="white"/>
<rect width="192.12" height="15.1027" transform="matrix(-0.919282 0.393599 0.393599 0.919282 233.371 131.711)" fill="#FFEC51"/>
<rect width="192.12" height="15.1027" transform="matrix(-0.919282 0.393599 0.393599 0.919282 252.197 175.676)" fill="white"/>
<rect width="192.12" height="15.1027" transform="matrix(-0.919282 0.393599 0.393599 0.919282 268.049 212.699)" fill="white"/>
<rect width="192.12" height="15.1027" transform="matrix(-0.919282 0.393599 0.393599 0.919282 283.9 249.723)" fill="#F3A2BC"/>
<rect width="192.12" height="15.1027" transform="matrix(-0.919282 0.393599 0.393599 0.919282 299.75 286.746)" fill="white"/>
<rect width="192.12" height="15.1027" transform="matrix(-0.919282 0.393599 0.393599 0.919282 315.602 323.766)" fill="#21B8EB"/>
<rect width="192.12" height="15.1027" transform="matrix(-0.919282 0.393599 0.393599 0.919282 331.455 360.789)" fill="white"/>
</svg>
