<svg width="108" height="108" viewBox="0 0 108 108" fill="none" xmlns="http://www.w3.org/2000/svg">
<path d="M95.6646 42.1426L89.4521 42.8335C88.6246 42.934 87.8256 42.4946 87.4669 41.7424C86.6503 39.9756 85.71 38.2684 84.6531 36.6338C84.203 35.9272 84.2559 35.0117 84.7843 34.3615L88.6989 29.4606C90.7537 26.8895 90.3367 23.1398 87.7672 21.083L78.4354 13.6316C75.8644 11.5768 72.1146 11.9938 70.0579 14.5633L66.1442 19.4541C65.6267 20.1121 64.7464 20.3654 63.9584 20.0831C62.1308 19.4067 60.2578 18.8606 58.3532 18.4487C57.5375 18.2671 56.9296 17.5838 56.8447 16.7526L56.1538 10.5401C55.7898 7.26713 52.8416 4.90901 49.5687 5.27299L37.7164 6.59104C34.4435 6.95501 32.0854 9.90323 32.4493 13.1762L33.1402 19.3887C33.2407 20.2162 32.8016 21.0152 32.0491 21.3739C30.2825 22.1938 28.5756 23.1375 26.9417 24.1976C26.2352 24.6489 25.3191 24.596 24.6693 24.0664L19.7684 20.1518C17.1954 18.1039 13.4511 18.5203 11.3909 21.0835L3.93969 30.3992C1.88364 32.9707 2.3008 36.7219 4.87156 38.7788L12.0704 44.5475C12.9383 45.2195 14.1868 45.0606 14.8587 44.1925C15.5142 43.3457 15.3809 42.1316 14.5574 41.4473L7.35477 35.6809C6.49785 34.9953 6.35879 33.7449 7.04415 32.8877L14.4953 23.572C15.1809 22.715 16.4314 22.576 17.2885 23.2613L22.1914 27.1757C24.1766 28.7732 26.9624 28.9179 29.1026 27.535C30.5802 26.5775 32.1233 25.7249 33.7204 24.9836C36.0249 23.9067 37.3825 21.4764 37.091 18.9494L36.4001 12.7368C36.2788 11.6459 37.0649 10.6631 38.1558 10.5418L50.008 9.22373C51.0989 9.10241 52.0817 9.88852 52.203 10.9794L52.8939 17.192C53.1649 19.7208 55.0231 21.7927 57.5076 22.3363C59.2294 22.7088 60.9228 23.2019 62.5753 23.8126C64.9669 24.6855 67.6491 23.9322 69.2366 21.9419L73.1599 17.048C73.8455 16.1911 75.0959 16.0521 75.9531 16.7374L85.2691 24.1906C86.1247 24.8761 86.2636 26.125 85.5795 26.9818L81.6651 31.8846C80.0694 33.8706 79.9249 36.6552 81.3058 38.7959C82.2633 40.2735 83.1159 41.8165 83.8572 43.4137C84.9337 45.7187 87.3642 47.0763 89.8914 46.7842L96.104 46.0933C97.1949 45.972 98.1777 46.7581 98.299 47.849L99.6171 59.7012C99.7384 60.7921 98.9523 61.775 97.8614 61.8963L91.6488 62.5872C89.12 62.8581 87.0481 64.7164 86.5045 67.2009C86.1323 68.9226 85.6389 70.616 85.0282 72.2685C84.1533 74.6601 84.9069 77.3433 86.8989 78.9298L91.7947 82.8529C92.6517 83.5385 92.7907 84.789 92.1054 85.6461L84.6502 94.9623C83.9647 95.818 82.7158 95.9568 81.859 95.2727L74.6477 89.5173C73.8015 88.818 72.5486 88.9373 71.8495 89.7835C71.1502 90.6297 71.2695 91.8825 72.1157 92.5816C72.1333 92.5962 72.1514 92.6106 72.1695 92.6246L79.3789 98.3802C81.9499 100.435 85.6997 100.018 87.7565 97.4486L95.2078 88.1348C97.2639 85.5634 96.8467 81.8121 94.276 79.7553L89.3867 75.8374C88.7292 75.3196 88.4761 74.4396 88.7577 73.6516C89.4341 71.8241 89.9803 69.951 90.3921 68.0464C90.5736 67.2308 91.257 66.6228 92.0882 66.5379L98.3007 65.847C101.574 65.4831 103.932 62.5348 103.568 59.2619L102.25 47.4097C101.886 44.1367 98.9376 41.7786 95.6646 42.1426Z" fill="white"/>
<path d="M65.7126 39.0896C54.5647 30.1921 38.3182 31.9988 29.3974 43.1281C28.7269 43.9971 28.8877 45.2453 29.7567 45.9158C30.6043 46.57 31.818 46.435 32.5012 45.6106C39.9799 36.1308 53.7274 34.5088 63.2072 41.9874C72.687 49.4661 74.309 63.2136 66.8304 72.6934C66.7699 72.7701 66.7089 72.8464 66.6473 72.9222C65.9469 73.7676 66.0643 75.0204 66.9096 75.7208C67.7549 76.4212 69.0077 76.3039 69.7081 75.4586C69.7227 75.441 69.7371 75.4229 69.7511 75.4048C78.6486 64.2568 76.8419 48.0104 65.7126 39.0896Z" fill="white"/>
</svg>
