<svg width="304" height="304" viewBox="0 0 304 304" fill="none" xmlns="http://www.w3.org/2000/svg">
<path d="M165.447 44.1169L161.035 59.1408C160.467 61.1502 158.679 62.5716 156.593 62.6727C151.721 62.8509 146.866 63.3723 142.067 64.2336C139.999 64.5901 137.934 63.5822 136.943 61.7324L129.405 47.9464C125.451 40.7113 116.383 38.048 109.145 41.996L82.9004 56.3522C75.6653 60.3057 73.0019 69.3738 76.95 76.6119L84.4659 90.386C85.4858 92.2183 85.2199 94.4974 83.8053 96.0453C80.4745 99.6141 77.4008 103.414 74.6068 107.417C73.3985 109.126 71.2315 109.87 69.2286 109.262L54.2046 104.849C46.2896 102.525 37.9889 107.056 35.6642 114.971L27.2458 143.634C24.9211 151.549 29.4528 159.85 37.3679 162.174L52.3918 166.587C54.4012 167.155 55.8227 168.943 55.9236 171.029C56.1094 175.904 56.6392 180.761 57.5085 185.562C57.8679 187.631 56.8597 189.696 55.0072 190.686L41.2213 198.224C34.0004 202.189 31.3409 211.244 35.2709 218.484L49.5902 244.712C53.5434 251.951 62.6151 254.615 69.8547 250.664L90.148 239.609C92.5401 238.254 93.3807 235.215 92.0245 232.823C90.7017 230.489 87.7674 229.623 85.3895 230.864L65.0981 241.93C62.6849 243.247 59.661 242.359 58.3433 239.946L44.0239 213.717C42.707 211.304 43.5951 208.28 46.0079 206.962L59.7952 199.419C65.407 196.377 68.4358 190.08 67.3104 183.796C66.5271 179.456 66.0496 175.066 65.8815 170.658C65.622 164.291 61.3194 158.804 55.1979 157.033L40.174 152.62C37.5358 151.845 36.0251 149.078 36.8 146.44L45.2183 117.778C45.9932 115.139 48.7603 113.629 51.3985 114.404L66.4224 118.816C72.5281 120.636 79.1131 118.346 82.7724 113.131C85.2985 109.513 88.0759 106.077 91.0853 102.849C95.4157 98.1666 96.2696 91.2401 93.2058 85.6466L85.6921 71.8472C84.3752 69.434 85.2633 66.4101 87.6761 65.0924L113.909 50.7744C116.321 49.4602 119.341 50.3473 120.659 52.7569L128.203 66.5443C131.248 72.1526 137.543 75.1799 143.825 74.0595C148.166 73.2762 152.556 72.7987 156.964 72.6305C163.331 72.3725 168.819 68.0693 170.589 61.947L175.002 46.923C175.776 44.2849 178.544 42.7741 181.182 43.549L209.844 51.9674C212.482 52.7422 213.993 55.5094 213.218 58.1475L208.806 73.1715C206.986 79.2771 209.276 85.8621 214.491 89.5214C218.109 92.0469 221.545 94.8249 224.773 97.8344C229.453 102.169 236.382 103.023 241.975 99.9549L255.776 92.4364C258.189 91.1194 261.213 92.0076 262.531 94.4203L276.847 120.658C278.162 123.07 277.274 126.09 274.865 127.408L254.59 138.505C252.156 139.784 251.22 142.795 252.499 145.229C253.778 147.663 256.788 148.599 259.222 147.32C259.273 147.293 259.324 147.266 259.374 147.237L279.647 136.145C286.882 132.192 289.545 123.124 285.597 115.886L271.282 89.6584C267.329 82.4202 258.258 79.7557 251.018 83.7066L237.236 91.215C235.403 92.2335 233.125 91.9672 231.576 90.5543C228.008 87.2235 224.208 84.1499 220.205 81.3558C218.496 80.1475 217.752 77.9805 218.36 75.9776L222.772 60.9536C225.097 53.0386 220.565 44.7379 212.65 42.4132L183.988 33.9948C176.073 31.6701 167.772 36.2018 165.447 44.1169Z" fill="white"/>
<path d="M129.42 110.378C98.0769 127.533 86.5374 166.822 103.626 198.2C104.985 200.59 108.025 201.426 110.415 200.067C112.747 198.741 113.609 195.806 112.365 193.43C97.6928 166.979 107.242 133.643 133.693 118.971C160.143 104.299 193.479 113.848 208.151 140.299C208.27 140.513 208.387 140.728 208.503 140.943C209.779 143.379 212.787 144.32 215.223 143.044C217.66 141.768 218.6 138.76 217.324 136.324C217.298 136.273 217.27 136.222 217.242 136.172C200.088 104.83 160.798 93.29 129.42 110.378Z" fill="white"/>
</svg>
