<svg width="90" height="90" viewBox="0 0 90 90" fill="none" xmlns="http://www.w3.org/2000/svg">
<path d="M76.7401 47.7301L72.2392 46.5242C71.6374 46.3695 71.2018 45.8476 71.1569 45.228C71.0693 43.7797 70.8796 42.3392 70.5893 40.9175C70.4686 40.3048 70.7537 39.6835 71.297 39.3754L75.3447 37.0348C77.469 35.8072 78.1969 33.0906 76.9709 30.9653L72.5135 23.2597C71.2859 21.1354 68.5693 20.4075 66.444 21.6335L62.3997 23.9673C61.8618 24.2838 61.1819 24.2209 60.7113 23.811C59.626 22.8455 58.4737 21.9581 57.263 21.1553C56.746 20.808 56.5093 20.1686 56.6758 19.5684L57.8818 15.0675C58.5171 12.6963 57.11 10.259 54.7388 9.62371L46.1519 7.32299C43.7807 6.68765 41.3435 8.09482 40.7081 10.466L39.5022 14.967C39.3474 15.5688 38.8258 16.0044 38.206 16.0492C36.7569 16.1392 35.3157 16.3313 33.8936 16.624C33.2806 16.7457 32.659 16.4604 32.3515 15.9163L30.0109 11.8686C28.78 9.74862 26.0673 9.02179 23.9414 10.2424L16.2403 14.6888C14.115 15.9163 13.3868 18.634 14.6137 20.7597L18.0467 26.7183C18.467 27.4203 19.3769 27.6488 20.079 27.2283C20.7639 26.8182 21.0008 25.9391 20.6146 25.2405L17.1783 19.2825C16.7694 18.574 17.0121 17.6681 17.7205 17.2589L25.4217 12.8125C26.1302 12.4036 27.0361 12.6463 27.4453 13.3547L29.7874 17.4028C30.7323 19.0507 32.6273 19.907 34.4885 19.5275C35.7742 19.2636 37.0769 19.0904 38.387 19.009C40.2792 18.8866 41.8812 17.5676 42.3645 15.7339L43.5704 11.2329C43.7822 10.4426 44.5947 9.9735 45.385 10.1853L53.9718 12.486C54.7622 12.6977 55.2313 13.5102 55.0195 14.3006L53.8136 18.8015C53.3156 20.6309 54.0436 22.5736 55.6211 23.6252C56.7155 24.3509 57.7575 25.1528 58.7391 26.0252C60.1628 27.2802 62.2295 27.4849 63.8717 26.5337L67.9236 24.2003C68.6322 23.7914 69.5381 24.0341 69.9473 24.7426L74.3932 32.4451C74.8013 33.1532 74.5589 34.0581 73.8514 34.4673L69.8034 36.8094C68.1566 37.7553 67.3007 39.6495 67.6786 41.5105C67.9425 42.7962 68.1158 44.0989 68.1971 45.409C68.3191 47.3015 69.6383 48.9035 71.4723 49.3865L75.9732 50.5924C76.7636 50.8042 77.2327 51.6167 77.0209 52.407L74.7202 60.9938C74.5084 61.7842 73.6959 62.2533 72.9056 62.0415L68.4047 60.8356C66.5753 60.3376 64.6326 61.0656 63.581 62.6431C62.8554 63.7375 62.0534 64.7795 61.181 65.7611C59.9246 67.1842 59.7198 69.2517 60.6724 70.8937L63.0073 74.946C63.4162 75.6546 63.1735 76.5605 62.465 76.9696L54.7611 81.4152C54.0529 81.8233 53.1481 81.5809 52.7389 80.8734L49.2935 74.9207C48.8957 74.2055 47.9934 73.9485 47.2785 74.3463C46.5633 74.7441 46.3062 75.6463 46.7041 76.3613C46.7124 76.3762 46.721 76.3911 46.7297 76.4058L50.1737 82.3581C51.4013 84.4824 54.1179 85.2103 56.2431 83.9843L63.9439 79.5394C66.0692 78.3119 66.7973 75.5941 65.5705 73.4685L63.2388 69.4217C62.9228 68.8837 62.9859 68.2041 63.3952 67.7333C64.3607 66.648 65.2481 65.4957 66.0509 64.285C66.3982 63.768 67.0376 63.5313 67.6378 63.6978L72.1387 64.9038C74.5099 65.5391 76.9471 64.132 77.5825 61.7608L79.8832 53.1739C80.5185 50.8027 79.1113 48.3655 76.7401 47.7301Z" fill="black"/>
<path d="M56.7715 37.4847C51.4454 28.2823 39.675 25.1285 30.4614 30.4353C29.7601 30.8567 29.533 31.767 29.9545 32.4684C30.3655 33.1526 31.2448 33.3882 31.9428 33.0011C39.7076 28.4483 49.6928 31.0522 54.2456 38.817C58.7984 46.5817 56.1945 56.5669 48.4298 61.1197C48.367 61.1566 48.3039 61.193 48.2406 61.2289C47.525 61.6258 47.2665 62.5275 47.6634 63.2432C48.0602 63.9588 48.9619 64.2173 49.6776 63.8204C49.6925 63.8122 49.7074 63.8035 49.7221 63.7948C58.9245 58.4687 62.0782 46.6983 56.7715 37.4847Z" fill="black"/>
</svg>
