<svg width="115" height="115" viewBox="0 0 115 115" fill="none" xmlns="http://www.w3.org/2000/svg">
<path d="M54.7029 11.2031L53.9641 17.7734C53.8745 18.6505 53.2346 19.3721 52.3747 19.5663C50.3613 19.996 48.3804 20.5672 46.4473 21.2756C45.6132 21.5748 44.6811 21.3063 44.1338 20.6093L39.9926 15.426C37.8205 12.7055 33.8548 12.2596 31.1327 14.4297L21.2655 22.3155C18.5451 24.4877 18.0991 28.4533 20.2693 31.1755L24.4002 36.3555C24.9581 37.0431 25.0138 38.0103 24.5385 38.7573C23.4137 40.4846 22.4127 42.2892 21.5428 44.1578C21.165 44.9568 20.318 45.4243 19.4407 45.3177L12.8704 44.5789C9.40898 44.1897 6.28752 46.6801 5.89831 50.1416L4.48886 62.6763C4.09964 66.1377 6.59008 69.2592 10.0515 69.6484L16.6218 70.3872C17.4989 70.4768 18.2206 71.1164 18.4147 71.9766C18.8478 73.9906 19.4226 75.9719 20.1344 77.9051C20.4349 78.7394 20.1663 79.672 19.4681 80.2187L14.2848 84.3598C11.5711 86.5357 11.1258 90.4956 13.2886 93.2198L21.1578 103.083C23.3301 105.805 27.2974 106.251 30.0199 104.079L37.6529 98.0009C38.5488 97.2626 38.6767 95.9375 37.9381 95.0416C37.2176 94.1675 35.9341 94.0213 35.0357 94.711L27.4043 100.794C26.4968 101.518 25.1744 101.369 24.4503 100.462L16.581 90.5986C15.8572 89.6911 16.0059 88.3687 16.9132 87.6446L22.0967 83.5014C24.2086 81.8266 25.0087 78.9866 24.0821 76.4556C23.4396 74.7076 22.9206 72.9166 22.5291 71.0958C21.9565 68.4669 19.7666 66.4986 17.0916 66.2089L10.5213 65.4701C9.36759 65.3404 8.53737 64.2998 8.6671 63.1461L10.0765 50.6114C10.2063 49.4577 11.2469 48.6274 12.4006 48.7572L18.9709 49.4959C21.6429 49.8073 24.2145 48.3744 25.3557 45.9384C26.1422 44.2493 27.0466 42.6175 28.0626 41.0555C29.5219 38.7923 29.3715 35.8493 27.6892 33.7466L23.5573 28.5559C22.8335 27.6484 22.9822 26.326 23.8895 25.6019L33.7547 17.7329C34.6618 17.0103 35.9827 17.1588 36.7067 18.0648L40.8499 23.2483C42.5259 25.3585 45.3647 26.1581 47.8957 25.2337C49.6437 24.5912 51.4346 24.0722 53.2555 23.6807C55.8849 23.1087 57.8532 20.9186 58.1424 18.2432L58.8811 11.6729C59.0109 10.5192 60.0515 9.68897 61.2052 9.8187L73.7399 11.2281C74.8936 11.3579 75.7238 12.3985 75.5941 13.5522L74.8553 20.1225C74.544 22.7946 75.9769 25.3661 78.4129 26.5073C80.1021 27.2936 81.7337 28.1982 83.2958 29.2142C85.5585 30.6756 88.5026 30.5251 90.6047 28.8408L95.7956 24.7068C96.7031 23.983 98.0255 24.1317 98.7496 25.039L106.618 34.9064C107.341 35.8134 107.192 37.1343 106.286 37.8583L98.6644 43.9529C97.7452 44.6624 97.5756 45.9827 98.2852 46.9016C98.9947 47.8207 100.315 47.9903 101.234 47.2808C101.253 47.266 101.272 47.2507 101.291 47.2353L108.913 41.1428C111.633 38.9707 112.079 35.005 109.909 32.2829L102.042 22.4199C99.8695 19.6981 95.9023 19.252 93.1798 21.4234L87.9958 25.5518C87.308 26.1092 86.341 26.1647 85.5939 25.6901C83.8667 24.5653 82.062 23.5643 80.1934 22.6944C79.3945 22.3166 78.927 21.4696 79.0336 20.5923L79.7724 14.022C80.1616 10.5606 77.6711 7.43912 74.2097 7.04991L61.675 5.64046C58.2136 5.25124 55.0921 7.74168 54.7029 11.2031Z" fill="white"/>
<path d="M44.5555 41.3886C32.7722 50.8101 30.8402 67.992 40.237 79.795C40.9767 80.6898 42.302 80.8155 43.1968 80.0757C44.0696 79.3541 44.214 78.0706 43.5231 77.1732C35.4911 67.2433 37.0297 52.6824 46.9596 44.6503C56.8895 36.6182 71.4504 38.1569 79.4824 48.0868C79.5474 48.1671 79.6119 48.2478 79.6757 48.329C80.3841 49.2491 81.7039 49.4208 82.624 48.7124C83.544 48.004 83.7157 46.6842 83.0073 45.7641C82.9926 45.745 82.9773 45.7258 82.9619 45.7072C73.5405 33.9239 56.3585 31.9919 44.5555 41.3886Z" fill="white"/>
</svg>
