<svg width="346" height="346" viewBox="0 0 346 346" fill="none" xmlns="http://www.w3.org/2000/svg">
<path d="M239.957 87.3423L228.381 97.8705C226.852 99.2901 224.587 99.5737 222.755 98.576C218.504 96.1953 214.09 94.1168 209.546 92.357C207.596 91.5862 206.358 89.6529 206.473 87.5588L207.206 71.8747C207.593 63.6448 201.238 56.6579 193.009 56.2649L163.148 54.8745C154.918 54.4876 147.931 60.8422 147.538 69.0717L146.792 84.7341C146.71 86.8281 145.299 88.6349 143.287 89.2206C138.589 90.5349 133.99 92.1802 129.525 94.1439C127.606 94.9744 125.369 94.4827 123.976 92.9229L113.448 81.3472C107.901 75.2487 98.4612 74.8014 92.3628 80.348L70.2787 100.434C64.1803 105.98 63.7329 115.42 69.2795 121.519L79.8078 133.094C81.2273 134.624 81.5114 136.888 80.5132 138.721C78.1375 142.978 76.0649 147.399 74.311 151.948C73.5423 153.901 71.6081 155.139 69.5128 155.021L53.8286 154.288C45.605 153.918 38.6283 160.264 38.2189 168.485L36.8054 198.313C36.4166 206.546 42.7737 213.536 51.006 213.927L74.0719 215.041C76.818 215.128 79.1149 212.971 79.201 210.225C79.2853 207.545 77.2314 205.281 74.5569 205.104L51.487 204C48.7429 203.869 46.6238 201.54 46.7534 198.795L48.1669 168.967C48.2974 166.223 50.6273 164.104 53.3714 164.234L69.0593 164.963C75.43 165.284 81.2884 161.484 83.5941 155.537C85.1819 151.425 87.0566 147.43 89.2043 143.581C92.2924 138.012 91.473 131.092 87.1692 126.399L76.6409 114.823C74.7922 112.791 74.9413 109.644 76.974 107.795L99.058 87.7094C101.091 85.8606 104.238 86.0098 106.086 88.0424L116.615 99.6182C120.879 104.345 127.69 105.814 133.524 103.265C137.56 101.49 141.717 100.002 145.963 98.8112C152.093 97.0664 156.422 91.5988 156.715 85.2325L157.476 69.5497C157.606 66.8056 159.936 64.6866 162.68 64.8162L192.512 66.2334C195.253 66.3655 197.37 68.6926 197.242 71.4342L196.513 87.122C196.197 93.4916 199.995 99.3474 205.939 101.657C210.051 103.245 214.046 105.119 217.895 107.267C223.463 110.357 230.384 109.537 235.077 105.232L246.652 94.7036C248.685 92.8549 251.832 93.004 253.681 95.0367L273.766 117.121C275.615 119.153 275.466 122.3 273.433 124.149L261.858 134.677C257.131 138.942 255.662 145.752 258.211 151.586C259.986 155.623 261.474 159.78 262.665 164.026C264.405 170.159 269.875 174.489 276.243 174.778L291.93 175.535C294.674 175.666 296.793 177.996 296.663 180.74L295.242 210.575C295.11 213.316 292.783 215.432 290.042 215.305L266.97 214.236C264.228 214.062 261.864 216.145 261.69 218.887C261.516 221.629 263.599 223.993 266.341 224.167C266.398 224.17 266.456 224.173 266.513 224.175L289.581 225.247C297.811 225.634 304.798 219.279 305.191 211.049L306.608 181.225C306.996 172.993 300.639 166.003 292.407 165.612L276.742 164.855C274.648 164.772 272.842 163.36 272.255 161.349C270.941 156.652 269.296 152.053 267.332 147.588C266.501 145.668 266.993 143.432 268.553 142.039L280.129 131.51C286.227 125.964 286.674 116.524 281.128 110.426L261.042 88.3414C255.495 82.243 246.056 81.7957 239.957 87.3423Z" fill="white"/>
<path d="M174.77 125.164C139.103 123.511 108.831 151.043 107.104 186.706C107.022 189.453 109.182 191.746 111.928 191.828C114.607 191.908 116.869 189.852 117.042 187.177C118.27 156.976 143.749 133.49 173.95 134.718C204.151 135.946 227.637 161.425 226.409 191.626C226.399 191.87 226.388 192.114 226.374 192.358C226.197 195.101 228.275 197.467 231.018 197.645C233.76 197.822 236.127 195.744 236.304 193.001C236.308 192.944 236.31 192.886 236.312 192.829C237.965 157.163 210.432 126.891 174.77 125.164Z" fill="white"/>
</svg>
