<svg width="66" height="66" viewBox="0 0 66 66" fill="none" xmlns="http://www.w3.org/2000/svg">
<path d="M36.4658 60.9186L36.6143 56.8526C36.6286 56.3102 36.9878 55.8377 37.5064 55.6787C38.7219 55.3216 39.9109 54.8792 41.0643 54.3548C41.5622 54.1325 42.1466 54.254 42.5148 54.6563L45.2964 57.6447C46.7556 59.2133 49.2097 59.3029 50.7793 57.8449L56.4681 52.5482C58.0366 51.0891 58.1262 48.6349 56.6683 47.0653L53.8931 44.0784C53.5188 43.6824 53.4398 43.0914 53.6968 42.611C54.3069 41.4989 54.8373 40.3451 55.2844 39.1581C55.4792 38.6503 55.9772 38.3242 56.5205 38.3489L60.5864 38.4973C62.7285 38.5755 64.5283 36.9025 64.6065 34.7604L64.8898 27.0035C64.968 24.8614 63.295 23.0616 61.1529 22.9834L57.087 22.8349C56.5446 22.8206 56.0721 22.4616 55.913 21.9428C55.5538 20.7271 55.1092 19.538 54.5827 18.3847C54.3596 17.8867 54.4811 17.302 54.8842 16.9342L57.8726 14.1525C59.4368 12.6915 59.5263 10.2409 58.0728 8.66965L52.7864 2.98254C51.3271 1.41318 48.872 1.32354 47.3022 2.7823L42.9004 6.86643C42.3849 7.36106 42.368 8.18005 42.8628 8.69555C43.3454 9.19847 44.1398 9.22861 44.6591 8.76373L49.0596 4.67697C49.5829 4.19071 50.4012 4.22059 50.8877 4.74372L56.1741 10.4308C56.6604 10.9541 56.6305 11.7725 56.1074 12.2589L53.1189 15.0418C51.9007 16.1674 51.5415 17.9473 52.2275 19.4573C52.7029 20.5001 53.1045 21.575 53.4292 22.6742C53.9026 24.2608 55.3376 25.3669 56.9925 25.4206L61.0585 25.569C61.7725 25.5951 62.3302 26.1951 62.3041 26.9091L62.0209 34.666C61.9948 35.38 61.3948 35.9377 60.6809 35.9117L56.6149 35.7632C54.9608 35.6962 53.4494 36.6948 52.8621 38.2425C52.4579 39.3155 51.9786 40.3587 51.4277 41.3643C50.6372 42.8208 50.8661 44.6197 51.996 45.8319L54.7722 48.8253C55.2585 49.3486 55.2286 50.1669 54.7055 50.6533L49.0171 55.9397C48.494 56.4252 47.6766 56.3953 47.1903 55.873L44.4074 52.8846C43.2811 51.6675 41.502 51.3085 39.9919 51.9932C38.9491 52.4686 37.8742 52.8701 36.775 53.1949C35.1881 53.6679 34.082 55.1031 34.0286 56.7582L33.8802 60.8242C33.8541 61.5381 33.2541 62.0959 32.5401 62.0698L24.7832 61.7866C24.0692 61.7605 23.5115 61.1605 23.5375 60.4465L23.686 56.3806C23.753 54.7265 22.7545 53.215 21.2067 52.6278C20.1337 52.2237 19.0905 51.7443 18.0849 51.1933C16.6286 50.4016 14.8291 50.6306 13.6173 51.7616L10.6239 54.5392C10.1006 55.0255 9.28224 54.9956 8.79582 54.4724L3.50948 48.7828C3.02403 48.2597 3.05387 47.4423 3.57618 46.956L7.97048 42.8625C8.50155 42.3845 8.54436 41.5664 8.06632 41.0355C7.58827 40.5045 6.77023 40.4617 6.23932 40.9397C6.22828 40.9497 6.21722 40.9599 6.20649 40.9702L1.81223 45.0624C0.243685 46.5215 0.154079 48.9756 1.61204 50.5453L6.89718 56.2323C8.35645 57.8017 10.8115 57.8913 12.3814 56.4326L15.3708 53.6587C15.767 53.2848 16.3578 53.2059 16.8382 53.4625C17.9503 54.0725 19.1041 54.603 20.2911 55.0501C20.7989 55.2449 21.125 55.7429 21.1003 56.2862L20.9519 60.3521C20.8737 62.4942 22.5467 64.294 24.6888 64.3722L32.4457 64.6555C34.5878 64.7337 36.3876 63.0606 36.4658 60.9186Z" fill="white"/>
<path d="M41.2897 41.9254C48.0831 35.5974 48.4713 24.9645 42.1576 18.158C41.6621 17.6433 40.843 17.6276 40.3283 18.1231C39.8262 18.6064 39.7972 19.4007 40.2627 19.9193C45.6522 25.6398 45.3837 34.6461 39.6632 40.0355C33.9427 45.4249 24.9365 45.1564 19.547 39.436C19.5034 39.3897 19.4601 39.3431 19.4172 39.2963C18.9398 38.7646 18.122 38.7205 17.5903 39.1978C17.0586 39.6752 17.0145 40.4931 17.4919 41.0247C17.5018 41.0358 17.5121 41.0468 17.5224 41.0576C23.8503 47.8509 34.4832 48.2391 41.2897 41.9254Z" fill="white"/>
</svg>
