<svg width="48" height="216" viewBox="0 0 48 216" fill="none" xmlns="http://www.w3.org/2000/svg">
<rect x="47.6094" y="215.957" width="47.29" height="7.98736" transform="rotate(180 47.6094 215.957)" fill="white"/>
<rect x="47.6055" y="190.664" width="47.29" height="7.98736" transform="rotate(180 47.6055 190.664)" fill="white"/>
<rect x="47.6074" y="165.371" width="47.29" height="7.32175" transform="rotate(180 47.6074 165.371)" fill="white"/>
<rect x="47.6055" y="140.74" width="47.29" height="7.98736" transform="rotate(180 47.6055 140.74)" fill="#FFEC51"/>
<rect x="47.6074" y="115.447" width="47.29" height="7.98736" transform="rotate(180 47.6074 115.447)" fill="white"/>
<rect x="47.6074" y="94.1465" width="47.29" height="7.98736" transform="rotate(180 47.6074 94.1465)" fill="white"/>
<rect x="47.6074" y="72.8477" width="47.29" height="7.98736" transform="rotate(180 47.6074 72.8477)" fill="#F3A2BC"/>
<rect x="47.6074" y="51.5469" width="47.29" height="7.98736" transform="rotate(180 47.6074 51.5469)" fill="white"/>
<rect x="47.6074" y="30.248" width="47.29" height="7.98736" transform="rotate(180 47.6074 30.248)" fill="#21B8EB"/>
<rect x="47.6074" y="8.95117" width="47.29" height="7.98736" transform="rotate(180 47.6074 8.95117)" fill="white"/>
</svg>
