<svg width="142" height="142" viewBox="0 0 142 142" fill="none" xmlns="http://www.w3.org/2000/svg">
<circle cx="71" cy="71" r="71" fill="url(#paint0_radial)"/>
<circle cx="71" cy="71" r="40.5" fill="white" stroke="white" stroke-width="5"/>
<path d="M76.144 75.52H65.776C65.776 74.688 65.792 74.016 65.824 73.504C65.888 72.992 66.048 72.48 66.304 71.968C66.56 71.456 66.784 71.072 66.976 70.816C67.2 70.56 67.648 70.224 68.32 69.808C69.024 69.36 69.616 69.008 70.096 68.752C70.608 68.496 71.488 68.064 72.736 67.456C72.8 67.424 72.992 67.344 73.312 67.216C73.632 67.056 73.84 66.944 73.936 66.88C74.064 66.784 74.272 66.656 74.56 66.496C74.848 66.336 75.056 66.176 75.184 66.016C75.312 65.856 75.456 65.664 75.616 65.44C75.808 65.216 75.936 64.96 76 64.672C76.064 64.384 76.096 64.08 76.096 63.76C76.096 62.64 75.648 61.744 74.752 61.072C73.856 60.4 72.592 60.064 70.96 60.064C70.128 60.064 69.408 60.128 68.8 60.256C68.192 60.384 67.536 60.624 66.832 60.976C66.16 61.328 65.632 61.936 65.248 62.8C64.896 63.632 64.72 64.672 64.72 65.92V66.352L55.024 65.776C55.088 64.592 55.216 63.472 55.408 62.416C55.6 61.424 56.048 60.304 56.752 59.056C57.488 57.776 58.56 56.688 59.968 55.792C62.528 54.16 66.592 53.344 72.16 53.344C73.6 53.344 74.848 53.392 75.904 53.488C76.992 53.552 78.224 53.728 79.6 54.016C80.976 54.272 82.224 54.72 83.344 55.36C84.464 55.968 85.408 56.768 86.176 57.76C87.392 59.232 88 61.072 88 63.28C88 63.92 87.936 64.496 87.808 65.008C87.68 65.52 87.392 66.16 86.944 66.928C86.496 67.696 85.712 68.496 84.592 69.328C83.504 70.128 82.112 70.944 80.416 71.776C78.752 72.608 77.616 73.28 77.008 73.792C76.432 74.272 76.144 74.848 76.144 75.52ZM76.192 88H65.872V79.168H76.192V88Z" fill="black"/>
<defs>
<radialGradient id="paint0_radial" cx="0" cy="0" r="1" gradientUnits="userSpaceOnUse" gradientTransform="translate(71 71) rotate(90) scale(71)">
<stop offset="0.526042" stop-color="white"/>
<stop offset="1" stop-color="white" stop-opacity="0"/>
</radialGradient>
</defs>
</svg>
