<svg width="598" height="466" viewBox="0 0 598 466" fill="none" xmlns="http://www.w3.org/2000/svg">
<ellipse rx="228.586" ry="150.538" transform="matrix(-0.949457 -0.313897 -0.313897 0.949457 264.286 250.686)" fill="white"/>
<ellipse cx="112.566" cy="88.7163" rx="70.0449" ry="70.2808" transform="rotate(-18.2943 112.566 88.7163)" fill="#FFEC51"/>
<path d="M122.24 96.2H104.96C104.96 94.8133 104.987 93.6933 105.04 92.84C105.147 91.9867 105.413 91.1333 105.84 90.28C106.267 89.4267 106.64 88.7867 106.96 88.36C107.333 87.9333 108.08 87.3733 109.2 86.68C110.373 85.9333 111.36 85.3467 112.16 84.92C113.013 84.4933 114.48 83.7733 116.56 82.76C116.667 82.7067 116.987 82.5733 117.52 82.36C118.053 82.0933 118.4 81.9067 118.56 81.8C118.773 81.64 119.12 81.4267 119.6 81.16C120.08 80.8933 120.427 80.6267 120.64 80.36C120.853 80.0933 121.093 79.7733 121.36 79.4C121.68 79.0267 121.893 78.6 122 78.12C122.107 77.64 122.16 77.1333 122.16 76.6C122.16 74.7333 121.413 73.24 119.92 72.12C118.427 71 116.32 70.44 113.6 70.44C112.213 70.44 111.013 70.5467 110 70.76C108.987 70.9733 107.893 71.3733 106.72 71.96C105.6 72.5467 104.72 73.56 104.08 75C103.493 76.3867 103.2 78.12 103.2 80.2V80.92L87.04 79.96C87.1467 77.9867 87.36 76.12 87.68 74.36C88 72.7067 88.7467 70.84 89.92 68.76C91.1467 66.6267 92.9333 64.8133 95.28 63.32C99.5467 60.6 106.32 59.24 115.6 59.24C118 59.24 120.08 59.32 121.84 59.48C123.653 59.5867 125.707 59.88 128 60.36C130.293 60.7867 132.373 61.5333 134.24 62.6C136.107 63.6133 137.68 64.9467 138.96 66.6C140.987 69.0533 142 72.12 142 75.8C142 76.8667 141.893 77.8267 141.68 78.68C141.467 79.5333 140.987 80.6 140.24 81.88C139.493 83.16 138.187 84.4933 136.32 85.88C134.507 87.2133 132.187 88.5733 129.36 89.96C126.587 91.3467 124.693 92.4667 123.68 93.32C122.72 94.12 122.24 95.08 122.24 96.2ZM122.32 117H105.12V102.28H122.32V117Z" fill="black"/>
<path d="M130.476 204.292H140.43C141.618 204.292 142.542 204.742 143.202 205.642C143.598 206.182 143.796 206.794 143.796 207.478C143.796 208.258 143.58 208.888 143.148 209.368C142.716 209.848 142.194 210.148 141.582 210.268C142.47 210.34 143.166 210.688 143.67 211.312C144.186 211.936 144.444 212.68 144.444 213.544C144.444 214.768 144.018 215.686 143.166 216.298C142.518 216.766 141.588 217 140.376 217H130.476V204.292ZM131.718 205.318V209.818H139.476C140.052 209.818 140.538 209.764 140.934 209.656C141.342 209.548 141.696 209.314 141.996 208.954C142.32 208.57 142.482 208.102 142.482 207.55C142.482 207.082 142.368 206.662 142.14 206.29C141.876 205.882 141.546 205.618 141.15 205.498C140.754 205.378 140.256 205.318 139.656 205.318H131.718ZM131.718 210.898V215.938H140.394C141.618 215.938 142.44 215.554 142.86 214.786C143.076 214.39 143.184 213.976 143.184 213.544C143.184 212.932 143.022 212.41 142.698 211.978C142.458 211.654 142.128 211.408 141.708 211.24C141.3 211.072 140.934 210.976 140.61 210.952C140.298 210.916 139.884 210.898 139.368 210.898H131.718ZM155.982 213.526L157.17 213.976C156.69 214.756 156.24 215.344 155.82 215.74C154.776 216.712 153.36 217.198 151.572 217.198C150.84 217.198 150.174 217.108 149.574 216.928C149.25 216.832 148.932 216.7 148.62 216.532C148.308 216.352 147.954 216.1 147.558 215.776C147.162 215.44 146.838 214.99 146.586 214.426C146.346 213.862 146.226 213.22 146.226 212.5C146.226 211.288 146.616 210.268 147.396 209.44C147.912 208.888 148.566 208.468 149.358 208.18C150.15 207.892 150.954 207.748 151.77 207.748C154.122 207.748 155.862 208.696 156.99 210.592L155.802 211.078C155.694 210.85 155.484 210.562 155.172 210.214C154.86 209.866 154.542 209.596 154.218 209.404C153.534 208.984 152.706 208.774 151.734 208.774C150.822 208.774 150.054 208.954 149.43 209.314C148.818 209.662 148.368 210.088 148.08 210.592C147.732 211.156 147.558 211.786 147.558 212.482C147.558 213.67 147.972 214.582 148.8 215.218C149.64 215.842 150.606 216.154 151.698 216.154C152.298 216.154 152.904 216.046 153.516 215.83C154.14 215.614 154.65 215.314 155.046 214.93C155.358 214.618 155.67 214.15 155.982 213.526ZM167.862 213.904L168.798 214.57C168.282 215.314 167.688 215.902 167.016 216.334C166.044 216.934 164.94 217.234 163.704 217.234C162.324 217.234 161.16 216.928 160.212 216.316C158.976 215.5 158.358 214.21 158.358 212.446C158.358 211.078 158.85 209.968 159.834 209.116C160.182 208.804 160.692 208.51 161.364 208.234C162.048 207.958 162.804 207.82 163.632 207.82C165.36 207.82 166.668 208.33 167.556 209.35C168.348 210.262 168.762 211.372 168.798 212.68H159.6C159.6 213.76 160.002 214.612 160.806 215.236C161.61 215.848 162.618 216.154 163.83 216.154C165.618 216.154 166.962 215.404 167.862 213.904ZM159.636 211.708H167.358C167.178 210.844 166.758 210.136 166.098 209.584C165.546 209.128 164.676 208.9 163.488 208.9C162.324 208.9 161.4 209.188 160.716 209.764C160.116 210.268 159.756 210.916 159.636 211.708ZM175.934 212.554C175.934 211.966 176.024 211.426 176.204 210.934C176.396 210.442 176.642 210.034 176.942 209.71C177.242 209.374 177.518 209.116 177.77 208.936C178.022 208.744 178.28 208.582 178.544 208.45C179.384 208.03 180.416 207.82 181.64 207.82C183.212 207.82 184.484 208.222 185.456 209.026C186.092 209.554 186.524 210.154 186.752 210.826C186.992 211.498 187.112 212.098 187.112 212.626C187.112 213.526 186.866 214.33 186.374 215.038C185.966 215.626 185.36 216.142 184.556 216.586C183.752 217.03 182.732 217.252 181.496 217.252C180.992 217.252 180.524 217.21 180.092 217.126C178.58 216.85 177.452 216.172 176.708 215.092C176.192 214.336 175.934 213.49 175.934 212.554ZM185.78 212.554C185.78 211.39 185.372 210.472 184.556 209.8C183.74 209.128 182.738 208.792 181.55 208.792C180.506 208.792 179.6 209.044 178.832 209.548C177.8 210.232 177.284 211.24 177.284 212.572C177.284 213.436 177.524 214.18 178.004 214.804C178.388 215.296 178.892 215.662 179.516 215.902C180.14 216.13 180.794 216.244 181.478 216.244C183.002 216.244 184.16 215.794 184.952 214.894C185.504 214.258 185.78 213.478 185.78 212.554ZM197.84 203.77H198.974C198.974 205.282 197.726 206.038 195.23 206.038C193.55 206.038 192.272 206.374 191.396 207.046C190.532 207.718 190.004 208.792 189.812 210.268C190.196 209.572 190.808 209.038 191.648 208.666C192.5 208.294 193.412 208.108 194.384 208.108C196.052 208.108 197.348 208.45 198.272 209.134C199.328 209.902 199.856 211.03 199.856 212.518C199.856 213.682 199.46 214.696 198.668 215.56C197.624 216.688 196.148 217.252 194.24 217.252C192.464 217.252 191.09 216.82 190.118 215.956C189.158 215.08 188.678 213.784 188.678 212.068C188.678 210.952 188.768 209.992 188.948 209.188C189.14 208.372 189.404 207.706 189.74 207.19C190.076 206.662 190.532 206.236 191.108 205.912C191.696 205.576 192.326 205.336 192.998 205.192C193.67 205.036 194.486 204.922 195.446 204.85C195.782 204.826 196.07 204.796 196.31 204.76C196.55 204.724 196.796 204.67 197.048 204.598C197.312 204.526 197.51 204.424 197.642 204.292C197.774 204.148 197.84 203.974 197.84 203.77ZM198.542 212.554C198.542 211.438 198.17 210.58 197.426 209.98C196.682 209.38 195.722 209.08 194.546 209.08C193.922 209.08 193.328 209.152 192.764 209.296C192.2 209.428 191.774 209.602 191.486 209.818C190.514 210.538 190.028 211.456 190.028 212.572C190.028 213.436 190.268 214.18 190.748 214.804C191.132 215.296 191.636 215.668 192.26 215.92C192.896 216.16 193.55 216.28 194.222 216.28C195.782 216.28 196.946 215.842 197.714 214.966C198.266 214.342 198.542 213.538 198.542 212.554ZM203.816 217V209.08H200.864V208.108H205.004V211.636H208.784C209.372 211.636 209.846 211.648 210.206 211.672C210.566 211.696 210.962 211.756 211.394 211.852C211.826 211.948 212.162 212.092 212.402 212.284C212.642 212.464 212.84 212.728 212.996 213.076C213.164 213.412 213.248 213.832 213.248 214.336C213.248 215.164 212.996 215.818 212.492 216.298C211.988 216.766 211.322 217 210.494 217H203.816ZM205.004 216.028H209.396C210.356 216.028 211.04 215.926 211.448 215.722C211.856 215.518 212.06 215.044 212.06 214.3C212.06 213.928 211.994 213.628 211.862 213.4C211.742 213.16 211.544 212.986 211.268 212.878C210.992 212.77 210.704 212.698 210.404 212.662C210.116 212.626 209.732 212.608 209.252 212.608H205.004V216.028ZM224.024 213.904L224.96 214.57C224.444 215.314 223.85 215.902 223.178 216.334C222.206 216.934 221.102 217.234 219.866 217.234C218.486 217.234 217.322 216.928 216.374 216.316C215.138 215.5 214.52 214.21 214.52 212.446C214.52 211.078 215.012 209.968 215.996 209.116C216.344 208.804 216.854 208.51 217.526 208.234C218.21 207.958 218.966 207.82 219.794 207.82C221.522 207.82 222.83 208.33 223.718 209.35C224.51 210.262 224.924 211.372 224.96 212.68H215.762C215.762 213.76 216.164 214.612 216.968 215.236C217.772 215.848 218.78 216.154 219.992 216.154C221.78 216.154 223.124 215.404 224.024 213.904ZM215.798 211.708H223.52C223.34 210.844 222.92 210.136 222.26 209.584C221.708 209.128 220.838 208.9 219.65 208.9C218.486 208.9 217.562 209.188 216.878 209.764C216.278 210.268 215.918 210.916 215.798 211.708ZM228.164 208.108V211.744H232.646C233.198 211.744 233.624 211.612 233.924 211.348C234.236 211.072 234.428 210.766 234.5 210.43C234.584 210.082 234.686 209.674 234.806 209.206C234.938 208.738 235.106 208.372 235.31 208.108H236.588C236.312 208.468 236.096 208.882 235.94 209.35C235.784 209.806 235.676 210.196 235.616 210.52C235.556 210.844 235.418 211.168 235.202 211.492C234.998 211.804 234.692 212.038 234.284 212.194C234.788 212.278 235.172 212.494 235.436 212.842C235.712 213.19 235.88 213.574 235.94 213.994C236.012 214.414 236.126 214.918 236.282 215.506C236.45 216.094 236.672 216.592 236.948 217H235.688C235.484 216.736 235.316 216.334 235.184 215.794C235.064 215.254 234.962 214.774 234.878 214.354C234.806 213.934 234.572 213.556 234.176 213.22C233.78 212.884 233.216 212.716 232.484 212.716H228.164V217H226.976V208.108H228.164ZM247.427 209.08H243.197V217H242.009V209.08H237.779V208.108H247.427V209.08ZM248.931 217V208.108H250.119V211.636H253.359C253.947 211.636 254.409 211.648 254.745 211.672C255.093 211.684 255.483 211.738 255.915 211.834C256.359 211.93 256.695 212.074 256.923 212.266C257.151 212.446 257.343 212.71 257.499 213.058C257.667 213.406 257.751 213.832 257.751 214.336C257.751 215.236 257.511 215.908 257.031 216.352C256.563 216.784 255.909 217 255.069 217H248.931ZM250.119 216.028H253.971C254.895 216.028 255.549 215.926 255.933 215.722C256.329 215.518 256.527 215.044 256.527 214.3C256.527 213.592 256.311 213.136 255.879 212.932C255.447 212.716 254.763 212.608 253.827 212.608H250.119V216.028ZM260.379 217H259.191V208.108H260.379V217ZM278.626 217H277.438V212.716H269.806V217H268.618V208.108H269.806V211.744H277.438V208.108H278.626V217ZM291.914 217C291.506 217.048 291.11 217.072 290.726 217.072C290.522 217.072 290.342 217.042 290.186 216.982C290.03 216.922 289.904 216.856 289.808 216.784C289.724 216.7 289.646 216.598 289.574 216.478C289.514 216.346 289.472 216.244 289.448 216.172C289.424 216.088 289.406 215.992 289.394 215.884L289.358 215.704C288.986 215.98 288.662 216.196 288.386 216.352C287.306 216.94 286.058 217.234 284.642 217.234C283.034 217.234 281.906 216.844 281.258 216.064C280.862 215.584 280.664 215.008 280.664 214.336C280.664 213.388 281.036 212.656 281.78 212.14C282.356 211.744 283.214 211.492 284.354 211.384C285.494 211.264 287.162 211.192 289.358 211.168C289.358 210.556 289.256 210.106 289.052 209.818C288.632 209.23 287.51 208.936 285.686 208.936C284.798 208.936 284.096 209.014 283.58 209.17C283.076 209.326 282.728 209.524 282.536 209.764C282.344 209.992 282.176 210.328 282.032 210.772L280.772 210.7C281.06 209.644 281.6 208.906 282.392 208.486C283.172 208.066 284.234 207.856 285.578 207.856C287.738 207.856 289.166 208.24 289.862 209.008C290.258 209.464 290.456 210.118 290.456 210.97V214.876C290.456 215.356 290.54 215.68 290.708 215.848C290.888 216.004 291.188 216.082 291.608 216.082H291.914V217ZM289.358 212.176H288.8C286.256 212.176 284.474 212.332 283.454 212.644C282.446 212.956 281.942 213.532 281.942 214.372C281.942 215.008 282.23 215.47 282.806 215.758C283.382 216.034 284.042 216.172 284.786 216.172C285.494 216.172 286.286 216.034 287.162 215.758C288.05 215.47 288.674 215.02 289.034 214.408C289.25 214.024 289.358 213.436 289.358 212.644V212.176ZM308.05 213.526L309.238 213.976C308.758 214.756 308.308 215.344 307.888 215.74C306.844 216.712 305.428 217.198 303.64 217.198C302.908 217.198 302.242 217.108 301.642 216.928C301.318 216.832 301 216.7 300.688 216.532C300.376 216.352 300.022 216.1 299.626 215.776C299.23 215.44 298.906 214.99 298.654 214.426C298.414 213.862 298.294 213.22 298.294 212.5C298.294 211.288 298.684 210.268 299.464 209.44C299.98 208.888 300.634 208.468 301.426 208.18C302.218 207.892 303.022 207.748 303.838 207.748C306.19 207.748 307.93 208.696 309.058 210.592L307.87 211.078C307.762 210.85 307.552 210.562 307.24 210.214C306.928 209.866 306.61 209.596 306.286 209.404C305.602 208.984 304.774 208.774 303.802 208.774C302.89 208.774 302.122 208.954 301.498 209.314C300.886 209.662 300.436 210.088 300.148 210.592C299.8 211.156 299.626 211.786 299.626 212.482C299.626 213.67 300.04 214.582 300.868 215.218C301.708 215.842 302.674 216.154 303.766 216.154C304.366 216.154 304.972 216.046 305.584 215.83C306.208 215.614 306.718 215.314 307.114 214.93C307.426 214.618 307.738 214.15 308.05 213.526ZM319.444 209.08H315.214V217H314.026V209.08H309.796V208.108H319.444V209.08ZM322.136 208.108V209.494C322.436 209.134 322.808 208.834 323.252 208.594C323.696 208.342 324.14 208.174 324.584 208.09C325.04 207.994 325.4 207.934 325.664 207.91C325.94 207.874 326.198 207.856 326.438 207.856C327.41 207.856 328.298 208.06 329.102 208.468C329.906 208.864 330.524 209.464 330.956 210.268C331.328 210.94 331.514 211.696 331.514 212.536C331.514 213.88 331.076 214.972 330.2 215.812C329.24 216.748 327.896 217.216 326.168 217.216C325.544 217.216 324.938 217.138 324.35 216.982C323.762 216.814 323.306 216.61 322.982 216.37C322.622 216.106 322.34 215.86 322.136 215.632V220.366H320.984V208.108H322.136ZM330.2 212.518C330.2 211.966 330.08 211.432 329.84 210.916C329.228 209.596 327.998 208.936 326.15 208.936C324.758 208.936 323.744 209.284 323.108 209.98C322.472 210.664 322.154 211.552 322.154 212.644C322.154 213.688 322.442 214.492 323.018 215.056C323.774 215.776 324.8 216.136 326.096 216.136C327.704 216.136 328.838 215.692 329.498 214.804C329.966 214.18 330.2 213.418 330.2 212.518ZM344.384 217C343.976 217.048 343.58 217.072 343.196 217.072C342.992 217.072 342.812 217.042 342.656 216.982C342.5 216.922 342.374 216.856 342.278 216.784C342.194 216.7 342.116 216.598 342.044 216.478C341.984 216.346 341.942 216.244 341.918 216.172C341.894 216.088 341.876 215.992 341.864 215.884L341.828 215.704C341.456 215.98 341.132 216.196 340.856 216.352C339.776 216.94 338.528 217.234 337.112 217.234C335.504 217.234 334.376 216.844 333.728 216.064C333.332 215.584 333.134 215.008 333.134 214.336C333.134 213.388 333.506 212.656 334.25 212.14C334.826 211.744 335.684 211.492 336.824 211.384C337.964 211.264 339.632 211.192 341.828 211.168C341.828 210.556 341.726 210.106 341.522 209.818C341.102 209.23 339.98 208.936 338.156 208.936C337.268 208.936 336.566 209.014 336.05 209.17C335.546 209.326 335.198 209.524 335.006 209.764C334.814 209.992 334.646 210.328 334.502 210.772L333.242 210.7C333.53 209.644 334.07 208.906 334.862 208.486C335.642 208.066 336.704 207.856 338.048 207.856C340.208 207.856 341.636 208.24 342.332 209.008C342.728 209.464 342.926 210.118 342.926 210.97V214.876C342.926 215.356 343.01 215.68 343.178 215.848C343.358 216.004 343.658 216.082 344.078 216.082H344.384V217ZM341.828 212.176H341.27C338.726 212.176 336.944 212.332 335.924 212.644C334.916 212.956 334.412 213.532 334.412 214.372C334.412 215.008 334.7 215.47 335.276 215.758C335.852 216.034 336.512 216.172 337.256 216.172C337.964 216.172 338.756 216.034 339.632 215.758C340.52 215.47 341.144 215.02 341.504 214.408C341.72 214.024 341.828 213.436 341.828 212.644V212.176ZM355.706 217H354.518V212.716H346.886V217H345.698V208.108H346.886V211.744H354.518V208.108H355.706V217ZM368.526 217H367.338V210.25L359.49 215.92V217H358.302V208.108H359.49V214.66L367.338 208.99V208.108H368.526V217ZM381.124 208.108V216.028H382.78V219.16H381.664V217H371.116V208.108H372.304V216.028H379.936V208.108H381.124ZM393.846 213.904L394.782 214.57C394.266 215.314 393.672 215.902 393 216.334C392.028 216.934 390.924 217.234 389.688 217.234C388.308 217.234 387.144 216.928 386.196 216.316C384.96 215.5 384.342 214.21 384.342 212.446C384.342 211.078 384.834 209.968 385.818 209.116C386.166 208.804 386.676 208.51 387.348 208.234C388.032 207.958 388.788 207.82 389.616 207.82C391.344 207.82 392.652 208.33 393.54 209.35C394.332 210.262 394.746 211.372 394.782 212.68H385.584C385.584 213.76 385.986 214.612 386.79 215.236C387.594 215.848 388.602 216.154 389.814 216.154C391.602 216.154 392.946 215.404 393.846 213.904ZM385.62 211.708H393.342C393.162 210.844 392.742 210.136 392.082 209.584C391.53 209.128 390.66 208.9 389.472 208.9C388.308 208.9 387.384 209.188 386.7 209.764C386.1 210.268 385.74 210.916 385.62 211.708ZM139.476 236.526L140.664 236.976C140.184 237.756 139.734 238.344 139.314 238.74C138.27 239.712 136.854 240.198 135.066 240.198C134.334 240.198 133.668 240.108 133.068 239.928C132.744 239.832 132.426 239.7 132.114 239.532C131.802 239.352 131.448 239.1 131.052 238.776C130.656 238.44 130.332 237.99 130.08 237.426C129.84 236.862 129.72 236.22 129.72 235.5C129.72 234.288 130.11 233.268 130.89 232.44C131.406 231.888 132.06 231.468 132.852 231.18C133.644 230.892 134.448 230.748 135.264 230.748C137.616 230.748 139.356 231.696 140.484 233.592L139.296 234.078C139.188 233.85 138.978 233.562 138.666 233.214C138.354 232.866 138.036 232.596 137.712 232.404C137.028 231.984 136.2 231.774 135.228 231.774C134.316 231.774 133.548 231.954 132.924 232.314C132.312 232.662 131.862 233.088 131.574 233.592C131.226 234.156 131.052 234.786 131.052 235.482C131.052 236.67 131.466 237.582 132.294 238.218C133.134 238.842 134.1 239.154 135.192 239.154C135.792 239.154 136.398 239.046 137.01 238.83C137.634 238.614 138.144 238.314 138.54 237.93C138.852 237.618 139.164 237.15 139.476 236.526ZM142.302 231.108H149.214C150.114 231.108 150.786 231.318 151.23 231.738C151.686 232.158 151.914 232.71 151.914 233.394C151.914 234.342 151.386 234.984 150.33 235.32C151.602 235.536 152.238 236.268 152.238 237.516C152.238 238.32 151.944 238.938 151.356 239.37C150.78 239.79 150.006 240 149.034 240H142.302V231.108ZM143.49 232.08V234.888H148.638C150.006 234.888 150.69 234.414 150.69 233.466C150.69 232.542 150.03 232.08 148.71 232.08H143.49ZM143.49 235.86V239.028H148.602C148.95 239.028 149.25 239.01 149.502 238.974C149.754 238.938 150 238.872 150.24 238.776C150.492 238.68 150.684 238.524 150.816 238.308C150.948 238.092 151.014 237.822 151.014 237.498C151.014 236.91 150.798 236.49 150.366 236.238C149.934 235.986 149.22 235.86 148.224 235.86H143.49ZM153.663 235.554C153.663 234.966 153.753 234.426 153.933 233.934C154.125 233.442 154.371 233.034 154.671 232.71C154.971 232.374 155.247 232.116 155.499 231.936C155.751 231.744 156.009 231.582 156.273 231.45C157.113 231.03 158.145 230.82 159.369 230.82C160.941 230.82 162.213 231.222 163.185 232.026C163.821 232.554 164.253 233.154 164.481 233.826C164.721 234.498 164.841 235.098 164.841 235.626C164.841 236.526 164.595 237.33 164.103 238.038C163.695 238.626 163.089 239.142 162.285 239.586C161.481 240.03 160.461 240.252 159.225 240.252C158.721 240.252 158.253 240.21 157.821 240.126C156.309 239.85 155.181 239.172 154.437 238.092C153.921 237.336 153.663 236.49 153.663 235.554ZM163.509 235.554C163.509 234.39 163.101 233.472 162.285 232.8C161.469 232.128 160.467 231.792 159.279 231.792C158.235 231.792 157.329 232.044 156.561 232.548C155.529 233.232 155.013 234.24 155.013 235.572C155.013 236.436 155.253 237.18 155.733 237.804C156.117 238.296 156.621 238.662 157.245 238.902C157.869 239.13 158.523 239.244 159.207 239.244C160.731 239.244 161.889 238.794 162.681 237.894C163.233 237.258 163.509 236.478 163.509 235.554ZM175.569 226.77H176.703C176.703 228.282 175.455 229.038 172.959 229.038C171.279 229.038 170.001 229.374 169.125 230.046C168.261 230.718 167.733 231.792 167.541 233.268C167.925 232.572 168.537 232.038 169.377 231.666C170.229 231.294 171.141 231.108 172.113 231.108C173.781 231.108 175.077 231.45 176.001 232.134C177.057 232.902 177.585 234.03 177.585 235.518C177.585 236.682 177.189 237.696 176.397 238.56C175.353 239.688 173.877 240.252 171.969 240.252C170.193 240.252 168.819 239.82 167.847 238.956C166.887 238.08 166.407 236.784 166.407 235.068C166.407 233.952 166.497 232.992 166.677 232.188C166.869 231.372 167.133 230.706 167.469 230.19C167.805 229.662 168.261 229.236 168.837 228.912C169.425 228.576 170.055 228.336 170.727 228.192C171.399 228.036 172.215 227.922 173.175 227.85C173.511 227.826 173.799 227.796 174.039 227.76C174.279 227.724 174.525 227.67 174.777 227.598C175.041 227.526 175.239 227.424 175.371 227.292C175.503 227.148 175.569 226.974 175.569 226.77ZM176.271 235.554C176.271 234.438 175.899 233.58 175.155 232.98C174.411 232.38 173.451 232.08 172.275 232.08C171.651 232.08 171.057 232.152 170.493 232.296C169.929 232.428 169.503 232.602 169.215 232.818C168.243 233.538 167.757 234.456 167.757 235.572C167.757 236.436 167.997 237.18 168.477 237.804C168.861 238.296 169.365 238.668 169.989 238.92C170.625 239.16 171.279 239.28 171.951 239.28C173.511 239.28 174.675 238.842 175.443 237.966C175.995 237.342 176.271 236.538 176.271 235.554ZM179.151 235.554C179.151 234.966 179.241 234.426 179.421 233.934C179.613 233.442 179.859 233.034 180.159 232.71C180.459 232.374 180.735 232.116 180.987 231.936C181.239 231.744 181.497 231.582 181.761 231.45C182.601 231.03 183.633 230.82 184.857 230.82C186.429 230.82 187.701 231.222 188.673 232.026C189.309 232.554 189.741 233.154 189.969 233.826C190.209 234.498 190.329 235.098 190.329 235.626C190.329 236.526 190.083 237.33 189.591 238.038C189.183 238.626 188.577 239.142 187.773 239.586C186.969 240.03 185.949 240.252 184.713 240.252C184.209 240.252 183.741 240.21 183.309 240.126C181.797 239.85 180.669 239.172 179.925 238.092C179.409 237.336 179.151 236.49 179.151 235.554ZM188.997 235.554C188.997 234.39 188.589 233.472 187.773 232.8C186.957 232.128 185.955 231.792 184.767 231.792C183.723 231.792 182.817 232.044 182.049 232.548C181.017 233.232 180.501 234.24 180.501 235.572C180.501 236.436 180.741 237.18 181.221 237.804C181.605 238.296 182.109 238.662 182.733 238.902C183.357 239.13 184.011 239.244 184.695 239.244C186.219 239.244 187.377 238.794 188.169 237.894C188.721 237.258 188.997 236.478 188.997 235.554ZM201.741 239.028H203.361V242.16H202.245V240H192.417V242.16H191.301V239.028C192.213 238.776 192.843 238.128 193.191 237.084C193.551 236.028 193.737 234.6 193.749 232.8V231.108H201.741V239.028ZM200.553 232.08H194.865V232.8C194.865 234.408 194.727 235.758 194.451 236.85C194.175 237.942 193.779 238.668 193.263 239.028H200.553V232.08ZM215.38 240H214.192V235.716H206.56V240H205.372V231.108H206.56V234.744H214.192V231.108H215.38V240ZM217.454 235.554C217.454 234.966 217.544 234.426 217.724 233.934C217.916 233.442 218.162 233.034 218.462 232.71C218.762 232.374 219.038 232.116 219.29 231.936C219.542 231.744 219.8 231.582 220.064 231.45C220.904 231.03 221.936 230.82 223.16 230.82C224.732 230.82 226.004 231.222 226.976 232.026C227.612 232.554 228.044 233.154 228.272 233.826C228.512 234.498 228.632 235.098 228.632 235.626C228.632 236.526 228.386 237.33 227.894 238.038C227.486 238.626 226.88 239.142 226.076 239.586C225.272 240.03 224.252 240.252 223.016 240.252C222.512 240.252 222.044 240.21 221.612 240.126C220.1 239.85 218.972 239.172 218.228 238.092C217.712 237.336 217.454 236.49 217.454 235.554ZM227.3 235.554C227.3 234.39 226.892 233.472 226.076 232.8C225.26 232.128 224.258 231.792 223.07 231.792C222.026 231.792 221.12 232.044 220.352 232.548C219.32 233.232 218.804 234.24 218.804 235.572C218.804 236.436 219.044 237.18 219.524 237.804C219.908 238.296 220.412 238.662 221.036 238.902C221.66 239.13 222.314 239.244 222.998 239.244C224.522 239.244 225.68 238.794 226.472 237.894C227.024 237.258 227.3 236.478 227.3 235.554ZM246.37 240H245.182V232.08H237.55V240H236.362V231.108H246.37V240ZM258.02 236.904L258.956 237.57C258.44 238.314 257.846 238.902 257.174 239.334C256.202 239.934 255.098 240.234 253.862 240.234C252.482 240.234 251.318 239.928 250.37 239.316C249.134 238.5 248.516 237.21 248.516 235.446C248.516 234.078 249.008 232.968 249.992 232.116C250.34 231.804 250.85 231.51 251.522 231.234C252.206 230.958 252.962 230.82 253.79 230.82C255.518 230.82 256.826 231.33 257.714 232.35C258.506 233.262 258.92 234.372 258.956 235.68H249.758C249.758 236.76 250.16 237.612 250.964 238.236C251.768 238.848 252.776 239.154 253.988 239.154C255.776 239.154 257.12 238.404 258.02 236.904ZM249.794 234.708H257.516C257.336 233.844 256.916 233.136 256.256 232.584C255.704 232.128 254.834 231.9 253.646 231.9C252.482 231.9 251.558 232.188 250.874 232.764C250.274 233.268 249.914 233.916 249.794 234.708ZM262.16 231.108V232.494C262.46 232.134 262.832 231.834 263.276 231.594C263.72 231.342 264.164 231.174 264.608 231.09C265.064 230.994 265.424 230.934 265.688 230.91C265.964 230.874 266.222 230.856 266.462 230.856C267.434 230.856 268.322 231.06 269.126 231.468C269.93 231.864 270.548 232.464 270.98 233.268C271.352 233.94 271.538 234.696 271.538 235.536C271.538 236.88 271.1 237.972 270.224 238.812C269.264 239.748 267.92 240.216 266.192 240.216C265.568 240.216 264.962 240.138 264.374 239.982C263.786 239.814 263.33 239.61 263.006 239.37C262.646 239.106 262.364 238.86 262.16 238.632V243.366H261.008V231.108H262.16ZM270.224 235.518C270.224 234.966 270.104 234.432 269.864 233.916C269.252 232.596 268.022 231.936 266.174 231.936C264.782 231.936 263.768 232.284 263.132 232.98C262.496 233.664 262.178 234.552 262.178 235.644C262.178 236.688 262.466 237.492 263.042 238.056C263.798 238.776 264.824 239.136 266.12 239.136C267.728 239.136 268.862 238.692 269.522 237.804C269.99 237.18 270.224 236.418 270.224 235.518ZM282.77 236.904L283.706 237.57C283.19 238.314 282.596 238.902 281.924 239.334C280.952 239.934 279.848 240.234 278.612 240.234C277.232 240.234 276.068 239.928 275.12 239.316C273.884 238.5 273.266 237.21 273.266 235.446C273.266 234.078 273.758 232.968 274.742 232.116C275.09 231.804 275.6 231.51 276.272 231.234C276.956 230.958 277.712 230.82 278.54 230.82C280.268 230.82 281.576 231.33 282.464 232.35C283.256 233.262 283.67 234.372 283.706 235.68H274.508C274.508 236.76 274.91 237.612 275.714 238.236C276.518 238.848 277.526 239.154 278.738 239.154C280.526 239.154 281.87 238.404 282.77 236.904ZM274.544 234.708H282.266C282.086 233.844 281.666 233.136 281.006 232.584C280.454 232.128 279.584 231.9 278.396 231.9C277.232 231.9 276.308 232.188 275.624 232.764C275.024 233.268 274.664 233.916 274.544 234.708ZM295.046 239.028H296.666V242.16H295.55V240H285.722V242.16H284.606V239.028C285.518 238.776 286.148 238.128 286.496 237.084C286.856 236.028 287.042 234.6 287.054 232.8V231.108H295.046V239.028ZM293.858 232.08H288.17V232.8C288.17 234.408 288.032 235.758 287.756 236.85C287.48 237.942 287.084 238.668 286.568 239.028H293.858V232.08ZM298.677 231.108H305.589C306.489 231.108 307.161 231.318 307.605 231.738C308.061 232.158 308.289 232.71 308.289 233.394C308.289 234.342 307.761 234.984 306.705 235.32C307.977 235.536 308.613 236.268 308.613 237.516C308.613 238.32 308.319 238.938 307.731 239.37C307.155 239.79 306.381 240 305.409 240H298.677V231.108ZM299.865 232.08V234.888H305.013C306.381 234.888 307.065 234.414 307.065 233.466C307.065 232.542 306.405 232.08 305.085 232.08H299.865ZM299.865 235.86V239.028H304.977C305.325 239.028 305.625 239.01 305.877 238.974C306.129 238.938 306.375 238.872 306.615 238.776C306.867 238.68 307.059 238.524 307.191 238.308C307.323 238.092 307.389 237.822 307.389 237.498C307.389 236.91 307.173 236.49 306.741 236.238C306.309 235.986 305.595 235.86 304.599 235.86H299.865ZM320.784 240H319.596V233.25L311.748 238.92V240H310.56V231.108H311.748V237.66L319.596 231.99V231.108H320.784V240ZM331.582 231.108V232.08H324.562V240H323.374V231.108H331.582ZM343.787 240C343.379 240.048 342.983 240.072 342.599 240.072C342.395 240.072 342.215 240.042 342.059 239.982C341.903 239.922 341.777 239.856 341.681 239.784C341.597 239.7 341.519 239.598 341.447 239.478C341.387 239.346 341.345 239.244 341.321 239.172C341.297 239.088 341.279 238.992 341.267 238.884L341.231 238.704C340.859 238.98 340.535 239.196 340.259 239.352C339.179 239.94 337.931 240.234 336.515 240.234C334.907 240.234 333.779 239.844 333.131 239.064C332.735 238.584 332.537 238.008 332.537 237.336C332.537 236.388 332.909 235.656 333.653 235.14C334.229 234.744 335.087 234.492 336.227 234.384C337.367 234.264 339.035 234.192 341.231 234.168C341.231 233.556 341.129 233.106 340.925 232.818C340.505 232.23 339.383 231.936 337.559 231.936C336.671 231.936 335.969 232.014 335.453 232.17C334.949 232.326 334.601 232.524 334.409 232.764C334.217 232.992 334.049 233.328 333.905 233.772L332.645 233.7C332.933 232.644 333.473 231.906 334.265 231.486C335.045 231.066 336.107 230.856 337.451 230.856C339.611 230.856 341.039 231.24 341.735 232.008C342.131 232.464 342.329 233.118 342.329 233.97V237.876C342.329 238.356 342.413 238.68 342.581 238.848C342.761 239.004 343.061 239.082 343.481 239.082H343.787V240ZM341.231 235.176H340.673C338.129 235.176 336.347 235.332 335.327 235.644C334.319 235.956 333.815 236.532 333.815 237.372C333.815 238.008 334.103 238.47 334.679 238.758C335.255 239.034 335.915 239.172 336.659 239.172C337.367 239.172 338.159 239.034 339.035 238.758C339.923 238.47 340.547 238.02 340.907 237.408C341.123 237.024 341.231 236.436 341.231 235.644V235.176ZM346.289 234.744H349.187C349.391 233.532 350.003 232.578 351.023 231.882C352.055 231.174 353.321 230.82 354.821 230.82C356.525 230.82 357.845 231.234 358.781 232.062C359.393 232.59 359.795 233.136 359.987 233.7C360.191 234.264 360.293 234.906 360.293 235.626C360.293 236.526 360.047 237.33 359.555 238.038C359.147 238.626 358.541 239.142 357.737 239.586C356.933 240.03 355.913 240.252 354.677 240.252C353.057 240.252 351.737 239.85 350.717 239.046C349.697 238.23 349.163 237.12 349.115 235.716H346.289V240H345.101V231.108H346.289V234.744ZM358.979 235.554C358.979 234.93 358.859 234.378 358.619 233.898C358.379 233.418 358.049 233.04 357.629 232.764C357.221 232.476 356.771 232.26 356.279 232.116C355.799 231.972 355.283 231.9 354.731 231.9C353.627 231.9 352.721 232.116 352.013 232.548C351.617 232.788 351.251 233.16 350.915 233.664C350.591 234.168 350.429 234.804 350.429 235.572C350.429 235.824 350.489 236.16 350.609 236.58C350.729 237 350.933 237.396 351.221 237.768C351.953 238.704 353.099 239.172 354.659 239.172C356.219 239.172 357.377 238.746 358.133 237.894C358.697 237.27 358.979 236.49 358.979 235.554ZM370.948 232.08H366.718V240H365.53V232.08H361.3V231.108H370.948V232.08ZM381.632 236.526L382.82 236.976C382.34 237.756 381.89 238.344 381.47 238.74C380.426 239.712 379.01 240.198 377.222 240.198C376.49 240.198 375.824 240.108 375.224 239.928C374.9 239.832 374.582 239.7 374.27 239.532C373.958 239.352 373.604 239.1 373.208 238.776C372.812 238.44 372.488 237.99 372.236 237.426C371.996 236.862 371.876 236.22 371.876 235.5C371.876 234.288 372.266 233.268 373.046 232.44C373.562 231.888 374.216 231.468 375.008 231.18C375.8 230.892 376.604 230.748 377.42 230.748C379.772 230.748 381.512 231.696 382.64 233.592L381.452 234.078C381.344 233.85 381.134 233.562 380.822 233.214C380.51 232.866 380.192 232.596 379.868 232.404C379.184 231.984 378.356 231.774 377.384 231.774C376.472 231.774 375.704 231.954 375.08 232.314C374.468 232.662 374.018 233.088 373.73 233.592C373.382 234.156 373.208 234.786 373.208 235.482C373.208 236.67 373.622 237.582 374.45 238.218C375.29 238.842 376.256 239.154 377.348 239.154C377.948 239.154 378.554 239.046 379.166 238.83C379.79 238.614 380.3 238.314 380.696 237.93C381.008 237.618 381.32 237.15 381.632 236.526ZM391.838 236.4H388.04C387.428 236.4 386.942 236.538 386.582 236.814C386.222 237.09 385.988 237.408 385.88 237.768C385.784 238.116 385.652 238.518 385.484 238.974C385.328 239.43 385.136 239.772 384.908 240H383.558C383.834 239.772 384.062 239.442 384.242 239.01C384.434 238.578 384.578 238.176 384.674 237.804C384.77 237.42 384.938 237.06 385.178 236.724C385.43 236.388 385.754 236.178 386.15 236.094C385.538 235.974 385.106 235.746 384.854 235.41C384.602 235.074 384.476 234.6 384.476 233.988C384.476 233.088 384.74 232.386 385.268 231.882C385.808 231.366 386.6 231.108 387.644 231.108H393.026V240H391.838V236.4ZM391.838 232.08H387.59C387.098 232.08 386.654 232.236 386.258 232.548C385.862 232.848 385.664 233.322 385.664 233.97C385.664 234.534 385.838 234.918 386.186 235.122C386.546 235.326 387.026 235.428 387.626 235.428H391.838V232.08ZM396.07 238.218H397.42V240.468C397.42 240.912 397.306 241.278 397.078 241.566C396.862 241.866 396.538 242.04 396.106 242.088V241.44C396.538 241.38 396.754 240.954 396.754 240.162V240H396.07V238.218ZM140.988 263C140.58 263.048 140.184 263.072 139.8 263.072C139.596 263.072 139.416 263.042 139.26 262.982C139.104 262.922 138.978 262.856 138.882 262.784C138.798 262.7 138.72 262.598 138.648 262.478C138.588 262.346 138.546 262.244 138.522 262.172C138.498 262.088 138.48 261.992 138.468 261.884L138.432 261.704C138.06 261.98 137.736 262.196 137.46 262.352C136.38 262.94 135.132 263.234 133.716 263.234C132.108 263.234 130.98 262.844 130.332 262.064C129.936 261.584 129.738 261.008 129.738 260.336C129.738 259.388 130.11 258.656 130.854 258.14C131.43 257.744 132.288 257.492 133.428 257.384C134.568 257.264 136.236 257.192 138.432 257.168C138.432 256.556 138.33 256.106 138.126 255.818C137.706 255.23 136.584 254.936 134.76 254.936C133.872 254.936 133.17 255.014 132.654 255.17C132.15 255.326 131.802 255.524 131.61 255.764C131.418 255.992 131.25 256.328 131.106 256.772L129.846 256.7C130.134 255.644 130.674 254.906 131.466 254.486C132.246 254.066 133.308 253.856 134.652 253.856C136.812 253.856 138.24 254.24 138.936 255.008C139.332 255.464 139.53 256.118 139.53 256.97V260.876C139.53 261.356 139.614 261.68 139.782 261.848C139.962 262.004 140.262 262.082 140.682 262.082H140.988V263ZM138.432 258.176H137.874C135.33 258.176 133.548 258.332 132.528 258.644C131.52 258.956 131.016 259.532 131.016 260.372C131.016 261.008 131.304 261.47 131.88 261.758C132.456 262.034 133.116 262.172 133.86 262.172C134.568 262.172 135.36 262.034 136.236 261.758C137.124 261.47 137.748 261.02 138.108 260.408C138.324 260.024 138.432 259.436 138.432 258.644V258.176ZM156.512 255.08H152.282V263H151.094V255.08H146.864V254.108H156.512V255.08ZM168.709 263C168.301 263.048 167.905 263.072 167.521 263.072C167.317 263.072 167.137 263.042 166.981 262.982C166.825 262.922 166.699 262.856 166.603 262.784C166.519 262.7 166.441 262.598 166.369 262.478C166.309 262.346 166.267 262.244 166.243 262.172C166.219 262.088 166.201 261.992 166.189 261.884L166.153 261.704C165.781 261.98 165.457 262.196 165.181 262.352C164.101 262.94 162.853 263.234 161.437 263.234C159.829 263.234 158.701 262.844 158.053 262.064C157.657 261.584 157.459 261.008 157.459 260.336C157.459 259.388 157.831 258.656 158.575 258.14C159.151 257.744 160.009 257.492 161.149 257.384C162.289 257.264 163.957 257.192 166.153 257.168C166.153 256.556 166.051 256.106 165.847 255.818C165.427 255.23 164.305 254.936 162.481 254.936C161.593 254.936 160.891 255.014 160.375 255.17C159.871 255.326 159.523 255.524 159.331 255.764C159.139 255.992 158.971 256.328 158.827 256.772L157.567 256.7C157.855 255.644 158.395 254.906 159.187 254.486C159.967 254.066 161.029 253.856 162.373 253.856C164.533 253.856 165.961 254.24 166.657 255.008C167.053 255.464 167.251 256.118 167.251 256.97V260.876C167.251 261.356 167.335 261.68 167.503 261.848C167.683 262.004 167.983 262.082 168.403 262.082H168.709V263ZM166.153 258.176H165.595C163.051 258.176 161.269 258.332 160.249 258.644C159.241 258.956 158.737 259.532 158.737 260.372C158.737 261.008 159.025 261.47 159.601 261.758C160.177 262.034 160.837 262.172 161.581 262.172C162.289 262.172 163.081 262.034 163.957 261.758C164.845 261.47 165.469 261.02 165.829 260.408C166.045 260.024 166.153 259.436 166.153 258.644V258.176ZM171.211 254.108V257.744H175.693C176.245 257.744 176.671 257.612 176.971 257.348C177.283 257.072 177.475 256.766 177.547 256.43C177.631 256.082 177.733 255.674 177.853 255.206C177.985 254.738 178.153 254.372 178.357 254.108H179.635C179.359 254.468 179.143 254.882 178.987 255.35C178.831 255.806 178.723 256.196 178.663 256.52C178.603 256.844 178.465 257.168 178.249 257.492C178.045 257.804 177.739 258.038 177.331 258.194C177.835 258.278 178.219 258.494 178.483 258.842C178.759 259.19 178.927 259.574 178.987 259.994C179.059 260.414 179.173 260.918 179.329 261.506C179.497 262.094 179.719 262.592 179.995 263H178.735C178.531 262.736 178.363 262.334 178.231 261.794C178.111 261.254 178.009 260.774 177.925 260.354C177.853 259.934 177.619 259.556 177.223 259.22C176.827 258.884 176.263 258.716 175.531 258.716H171.211V263H170.023V254.108H171.211ZM187.611 254.108H188.727V257.744H190.815C191.379 257.744 191.811 257.612 192.111 257.348C192.411 257.072 192.591 256.766 192.651 256.43C192.711 256.082 192.795 255.674 192.903 255.206C193.011 254.738 193.161 254.372 193.353 254.108H194.631C194.379 254.468 194.181 254.882 194.037 255.35C193.905 255.806 193.821 256.196 193.785 256.52C193.749 256.844 193.623 257.168 193.407 257.492C193.191 257.804 192.873 258.038 192.453 258.194C192.909 258.254 193.269 258.398 193.533 258.626C193.797 258.854 193.977 259.142 194.073 259.49C194.181 259.838 194.259 260.198 194.307 260.57C194.367 260.942 194.457 261.356 194.577 261.812C194.709 262.268 194.889 262.664 195.117 263H193.857C193.677 262.772 193.539 262.46 193.443 262.064C193.359 261.668 193.287 261.29 193.227 260.93C193.167 260.558 193.065 260.204 192.921 259.868C192.777 259.52 192.519 259.244 192.147 259.04C191.775 258.824 191.277 258.716 190.653 258.716H188.727V263H187.611V258.716H185.685C185.061 258.716 184.563 258.824 184.191 259.04C183.819 259.244 183.561 259.52 183.417 259.868C183.273 260.204 183.171 260.558 183.111 260.93C183.051 261.29 182.973 261.668 182.877 262.064C182.793 262.46 182.661 262.772 182.481 263H181.221C181.497 262.604 181.707 262.124 181.851 261.56C181.995 260.996 182.091 260.522 182.139 260.138C182.199 259.742 182.367 259.358 182.643 258.986C182.919 258.614 183.333 258.35 183.885 258.194C183.465 258.038 183.147 257.804 182.931 257.492C182.715 257.168 182.589 256.844 182.553 256.52C182.517 256.196 182.427 255.806 182.283 255.35C182.151 254.882 181.959 254.468 181.707 254.108H182.985C183.177 254.372 183.327 254.738 183.435 255.206C183.543 255.674 183.627 256.082 183.687 256.43C183.747 256.766 183.927 257.072 184.227 257.348C184.527 257.612 184.959 257.744 185.523 257.744H187.611V254.108ZM206.077 259.904L207.013 260.57C206.497 261.314 205.903 261.902 205.231 262.334C204.259 262.934 203.155 263.234 201.919 263.234C200.539 263.234 199.375 262.928 198.427 262.316C197.191 261.5 196.573 260.21 196.573 258.446C196.573 257.078 197.065 255.968 198.049 255.116C198.397 254.804 198.907 254.51 199.579 254.234C200.263 253.958 201.019 253.82 201.847 253.82C203.575 253.82 204.883 254.33 205.771 255.35C206.563 256.262 206.977 257.372 207.013 258.68H197.815C197.815 259.76 198.217 260.612 199.021 261.236C199.825 261.848 200.833 262.154 202.045 262.154C203.833 262.154 205.177 261.404 206.077 259.904ZM197.851 257.708H205.573C205.393 256.844 204.973 256.136 204.313 255.584C203.761 255.128 202.891 254.9 201.703 254.9C200.539 254.9 199.615 255.188 198.931 255.764C198.331 256.268 197.971 256.916 197.851 257.708ZM224.895 263H223.707V256.25L215.859 261.92V263H214.671V254.108H215.859V260.66L223.707 254.99V254.108H224.895V263ZM230.167 258.716V257.744H232.867C233.335 257.744 233.761 257.696 234.145 257.6C234.841 257.348 235.189 256.97 235.189 256.466C235.189 256.178 235.111 255.938 234.955 255.746C234.811 255.542 234.637 255.392 234.433 255.296C234.241 255.188 233.977 255.11 233.641 255.062C233.317 255.002 233.047 254.966 232.831 254.954C232.615 254.942 232.345 254.936 232.021 254.936C230.041 254.936 228.817 255.452 228.349 256.484L227.035 256.124C227.755 254.612 229.417 253.856 232.021 253.856C233.629 253.856 234.763 254.06 235.423 254.468C236.083 254.864 236.413 255.488 236.413 256.34C236.413 257.252 235.885 257.864 234.829 258.176C235.417 258.308 235.885 258.554 236.233 258.914C236.593 259.274 236.773 259.754 236.773 260.354C236.773 260.558 236.755 260.756 236.719 260.948C236.683 261.128 236.575 261.368 236.395 261.668C236.215 261.956 235.969 262.208 235.657 262.424C235.345 262.64 234.877 262.826 234.253 262.982C233.641 263.138 232.921 263.216 232.093 263.216C229.057 263.216 227.269 262.412 226.729 260.804L228.025 260.516C228.217 261.02 228.643 261.416 229.303 261.704C230.023 261.992 230.941 262.136 232.057 262.136C233.125 262.136 233.971 261.986 234.595 261.686C235.231 261.386 235.549 260.942 235.549 260.354C235.549 259.262 234.625 258.716 232.777 258.716H230.167ZM249.122 263H248.042V255.17L244.424 263H243.524L239.888 255.206V263H238.808V254.108H240.572L243.992 261.83L247.358 254.108H249.122V263ZM260.832 259.904L261.768 260.57C261.252 261.314 260.658 261.902 259.986 262.334C259.014 262.934 257.91 263.234 256.674 263.234C255.294 263.234 254.13 262.928 253.182 262.316C251.946 261.5 251.328 260.21 251.328 258.446C251.328 257.078 251.82 255.968 252.804 255.116C253.152 254.804 253.662 254.51 254.334 254.234C255.018 253.958 255.774 253.82 256.602 253.82C258.33 253.82 259.638 254.33 260.526 255.35C261.318 256.262 261.732 257.372 261.768 258.68H252.57C252.57 259.76 252.972 260.612 253.776 261.236C254.58 261.848 255.588 262.154 256.8 262.154C258.588 262.154 259.932 261.404 260.832 259.904ZM252.606 257.708H260.328C260.148 256.844 259.728 256.136 259.068 255.584C258.516 255.128 257.646 254.9 256.458 254.9C255.294 254.9 254.37 255.188 253.686 255.764C253.086 256.268 252.726 256.916 252.606 257.708ZM273.792 263H272.604V258.716H264.972V263H263.784V254.108H264.972V257.744H272.604V254.108H273.792V263ZM283.768 259.4H279.97C279.358 259.4 278.872 259.538 278.512 259.814C278.152 260.09 277.918 260.408 277.81 260.768C277.714 261.116 277.582 261.518 277.414 261.974C277.258 262.43 277.066 262.772 276.838 263H275.488C275.764 262.772 275.992 262.442 276.172 262.01C276.364 261.578 276.508 261.176 276.604 260.804C276.7 260.42 276.868 260.06 277.108 259.724C277.36 259.388 277.684 259.178 278.08 259.094C277.468 258.974 277.036 258.746 276.784 258.41C276.532 258.074 276.406 257.6 276.406 256.988C276.406 256.088 276.67 255.386 277.198 254.882C277.738 254.366 278.53 254.108 279.574 254.108H284.956V263H283.768V259.4ZM283.768 255.08H279.52C279.028 255.08 278.584 255.236 278.188 255.548C277.792 255.848 277.594 256.322 277.594 256.97C277.594 257.534 277.768 257.918 278.116 258.122C278.476 258.326 278.956 258.428 279.556 258.428H283.768V255.08ZM288.738 257.744H291.636C291.84 256.532 292.452 255.578 293.472 254.882C294.504 254.174 295.77 253.82 297.27 253.82C298.974 253.82 300.294 254.234 301.23 255.062C301.842 255.59 302.244 256.136 302.436 256.7C302.64 257.264 302.742 257.906 302.742 258.626C302.742 259.526 302.496 260.33 302.004 261.038C301.596 261.626 300.99 262.142 300.186 262.586C299.382 263.03 298.362 263.252 297.126 263.252C295.506 263.252 294.186 262.85 293.166 262.046C292.146 261.23 291.612 260.12 291.564 258.716H288.738V263H287.55V254.108H288.738V257.744ZM301.428 258.554C301.428 257.93 301.308 257.378 301.068 256.898C300.828 256.418 300.498 256.04 300.078 255.764C299.67 255.476 299.22 255.26 298.728 255.116C298.248 254.972 297.732 254.9 297.18 254.9C296.076 254.9 295.17 255.116 294.462 255.548C294.066 255.788 293.7 256.16 293.364 256.664C293.04 257.168 292.878 257.804 292.878 258.572C292.878 258.824 292.938 259.16 293.058 259.58C293.178 260 293.382 260.396 293.67 260.768C294.402 261.704 295.548 262.172 297.108 262.172C298.668 262.172 299.826 261.746 300.582 260.894C301.146 260.27 301.428 259.49 301.428 258.554ZM313.397 255.08H309.167V263H307.979V255.08H303.749V254.108H313.397V255.08ZM324.081 259.526L325.269 259.976C324.789 260.756 324.339 261.344 323.919 261.74C322.875 262.712 321.459 263.198 319.671 263.198C318.939 263.198 318.273 263.108 317.673 262.928C317.349 262.832 317.031 262.7 316.719 262.532C316.407 262.352 316.053 262.1 315.657 261.776C315.261 261.44 314.937 260.99 314.685 260.426C314.445 259.862 314.325 259.22 314.325 258.5C314.325 257.288 314.715 256.268 315.495 255.44C316.011 254.888 316.665 254.468 317.457 254.18C318.249 253.892 319.053 253.748 319.869 253.748C322.221 253.748 323.961 254.696 325.089 256.592L323.901 257.078C323.793 256.85 323.583 256.562 323.271 256.214C322.959 255.866 322.641 255.596 322.317 255.404C321.633 254.984 320.805 254.774 319.833 254.774C318.921 254.774 318.153 254.954 317.529 255.314C316.917 255.662 316.467 256.088 316.179 256.592C315.831 257.156 315.657 257.786 315.657 258.482C315.657 259.67 316.071 260.582 316.899 261.218C317.739 261.842 318.705 262.154 319.797 262.154C320.397 262.154 321.003 262.046 321.615 261.83C322.239 261.614 322.749 261.314 323.145 260.93C323.457 260.618 323.769 260.15 324.081 259.526ZM334.287 259.4H330.489C329.877 259.4 329.391 259.538 329.031 259.814C328.671 260.09 328.437 260.408 328.329 260.768C328.233 261.116 328.101 261.518 327.933 261.974C327.777 262.43 327.585 262.772 327.357 263H326.007C326.283 262.772 326.511 262.442 326.691 262.01C326.883 261.578 327.027 261.176 327.123 260.804C327.219 260.42 327.387 260.06 327.627 259.724C327.879 259.388 328.203 259.178 328.599 259.094C327.987 258.974 327.555 258.746 327.303 258.41C327.051 258.074 326.925 257.6 326.925 256.988C326.925 256.088 327.189 255.386 327.717 254.882C328.257 254.366 329.049 254.108 330.093 254.108H335.475V263H334.287V259.4ZM334.287 255.08H330.039C329.547 255.08 329.103 255.236 328.707 255.548C328.311 255.848 328.113 256.322 328.113 256.97C328.113 257.534 328.287 257.918 328.635 258.122C328.995 258.326 329.475 258.428 330.075 258.428H334.287V255.08ZM140.304 286H139.116V278.08H131.484V286H130.296V277.108H140.304V286ZM142.378 281.554C142.378 280.966 142.468 280.426 142.648 279.934C142.84 279.442 143.086 279.034 143.386 278.71C143.686 278.374 143.962 278.116 144.214 277.936C144.466 277.744 144.724 277.582 144.988 277.45C145.828 277.03 146.86 276.82 148.084 276.82C149.656 276.82 150.928 277.222 151.9 278.026C152.536 278.554 152.968 279.154 153.196 279.826C153.436 280.498 153.556 281.098 153.556 281.626C153.556 282.526 153.31 283.33 152.818 284.038C152.41 284.626 151.804 285.142 151 285.586C150.196 286.03 149.176 286.252 147.94 286.252C147.436 286.252 146.968 286.21 146.536 286.126C145.024 285.85 143.896 285.172 143.152 284.092C142.636 283.336 142.378 282.49 142.378 281.554ZM152.224 281.554C152.224 280.39 151.816 279.472 151 278.8C150.184 278.128 149.182 277.792 147.994 277.792C146.95 277.792 146.044 278.044 145.276 278.548C144.244 279.232 143.728 280.24 143.728 281.572C143.728 282.436 143.968 283.18 144.448 283.804C144.832 284.296 145.336 284.662 145.96 284.902C146.584 285.13 147.238 285.244 147.922 285.244C149.446 285.244 150.604 284.794 151.396 283.894C151.948 283.258 152.224 282.478 152.224 281.554ZM162.474 277.108V280.744H166.956C167.508 280.744 167.934 280.612 168.234 280.348C168.546 280.072 168.738 279.766 168.81 279.43C168.894 279.082 168.996 278.674 169.116 278.206C169.248 277.738 169.416 277.372 169.62 277.108H170.898C170.622 277.468 170.406 277.882 170.25 278.35C170.094 278.806 169.986 279.196 169.926 279.52C169.866 279.844 169.728 280.168 169.512 280.492C169.308 280.804 169.002 281.038 168.594 281.194C169.098 281.278 169.482 281.494 169.746 281.842C170.022 282.19 170.19 282.574 170.25 282.994C170.322 283.414 170.436 283.918 170.592 284.506C170.76 285.094 170.982 285.592 171.258 286H169.998C169.794 285.736 169.626 285.334 169.494 284.794C169.374 284.254 169.272 283.774 169.188 283.354C169.116 282.934 168.882 282.556 168.486 282.22C168.09 281.884 167.526 281.716 166.794 281.716H162.474V286H161.286V277.108H162.474ZM182.817 286H181.629V278.08H175.491V279.484C175.491 281.908 175.293 283.6 174.897 284.56C174.501 285.52 173.733 286 172.593 286H172.053V285.028H172.593C173.073 285.016 173.439 284.848 173.691 284.524C173.955 284.188 174.141 283.63 174.249 282.85C174.357 282.07 174.411 280.948 174.411 279.484V277.108H182.817V286ZM195.627 286H194.439V279.25L186.591 284.92V286H185.403V277.108H186.591V283.66L194.439 277.99V277.108H195.627V286ZM199.406 277.108V280.744H203.888C204.44 280.744 204.866 280.612 205.166 280.348C205.478 280.072 205.67 279.766 205.742 279.43C205.826 279.082 205.928 278.674 206.048 278.206C206.18 277.738 206.348 277.372 206.552 277.108H207.83C207.554 277.468 207.338 277.882 207.182 278.35C207.026 278.806 206.918 279.196 206.858 279.52C206.798 279.844 206.66 280.168 206.444 280.492C206.24 280.804 205.934 281.038 205.526 281.194C206.03 281.278 206.414 281.494 206.678 281.842C206.954 282.19 207.122 282.574 207.182 282.994C207.254 283.414 207.368 283.918 207.524 284.506C207.692 285.094 207.914 285.592 208.19 286H206.93C206.726 285.736 206.558 285.334 206.426 284.794C206.306 284.254 206.204 283.774 206.12 283.354C206.048 282.934 205.814 282.556 205.418 282.22C205.022 281.884 204.458 281.716 203.726 281.716H199.406V286H198.218V277.108H199.406ZM217.607 277.108H218.885L214.691 286.684C214.499 287.14 214.349 287.47 214.241 287.674C214.145 287.878 214.019 288.094 213.863 288.322C213.707 288.55 213.533 288.736 213.341 288.88C212.825 289.288 211.991 289.492 210.839 289.492C210.251 289.492 209.639 289.42 209.003 289.276V288.16C209.627 288.376 210.227 288.484 210.803 288.484C211.271 288.484 211.667 288.43 211.991 288.322C212.315 288.226 212.579 288.064 212.783 287.836C212.987 287.62 213.137 287.422 213.233 287.242C213.329 287.062 213.443 286.81 213.575 286.486L208.805 277.108H210.227L214.205 285.172L217.607 277.108ZM236.075 286H234.887V279.25L227.039 284.92V286H225.851V277.108H227.039V283.66L234.887 277.99V277.108H236.075V286ZM253.488 282.526L254.676 282.976C254.196 283.756 253.746 284.344 253.326 284.74C252.282 285.712 250.866 286.198 249.078 286.198C248.346 286.198 247.68 286.108 247.08 285.928C246.756 285.832 246.438 285.7 246.126 285.532C245.814 285.352 245.46 285.1 245.064 284.776C244.668 284.44 244.344 283.99 244.092 283.426C243.852 282.862 243.732 282.22 243.732 281.5C243.732 280.288 244.122 279.268 244.902 278.44C245.418 277.888 246.072 277.468 246.864 277.18C247.656 276.892 248.46 276.748 249.276 276.748C251.628 276.748 253.368 277.696 254.496 279.592L253.308 280.078C253.2 279.85 252.99 279.562 252.678 279.214C252.366 278.866 252.048 278.596 251.724 278.404C251.04 277.984 250.212 277.774 249.24 277.774C248.328 277.774 247.56 277.954 246.936 278.314C246.324 278.662 245.874 279.088 245.586 279.592C245.238 280.156 245.064 280.786 245.064 281.482C245.064 282.67 245.478 283.582 246.306 284.218C247.146 284.842 248.112 285.154 249.204 285.154C249.804 285.154 250.41 285.046 251.022 284.83C251.646 284.614 252.156 284.314 252.552 283.93C252.864 283.618 253.176 283.15 253.488 282.526ZM257.502 277.108V280.744H261.984C262.536 280.744 262.962 280.612 263.262 280.348C263.574 280.072 263.766 279.766 263.838 279.43C263.922 279.082 264.024 278.674 264.144 278.206C264.276 277.738 264.444 277.372 264.648 277.108H265.926C265.65 277.468 265.434 277.882 265.278 278.35C265.122 278.806 265.014 279.196 264.954 279.52C264.894 279.844 264.756 280.168 264.54 280.492C264.336 280.804 264.03 281.038 263.622 281.194C264.126 281.278 264.51 281.494 264.774 281.842C265.05 282.19 265.218 282.574 265.278 282.994C265.35 283.414 265.464 283.918 265.62 284.506C265.788 285.094 266.01 285.592 266.286 286H265.026C264.822 285.736 264.654 285.334 264.522 284.794C264.402 284.254 264.3 283.774 264.216 283.354C264.144 282.934 263.91 282.556 263.514 282.22C263.118 281.884 262.554 281.716 261.822 281.716H257.502V286H256.314V277.108H257.502ZM269.384 277.108V278.494C269.684 278.134 270.056 277.834 270.5 277.594C270.944 277.342 271.388 277.174 271.832 277.09C272.288 276.994 272.648 276.934 272.912 276.91C273.188 276.874 273.446 276.856 273.686 276.856C274.658 276.856 275.546 277.06 276.35 277.468C277.154 277.864 277.772 278.464 278.204 279.268C278.576 279.94 278.762 280.696 278.762 281.536C278.762 282.88 278.324 283.972 277.448 284.812C276.488 285.748 275.144 286.216 273.416 286.216C272.792 286.216 272.186 286.138 271.598 285.982C271.01 285.814 270.554 285.61 270.23 285.37C269.87 285.106 269.588 284.86 269.384 284.632V289.366H268.232V277.108H269.384ZM277.448 281.518C277.448 280.966 277.328 280.432 277.088 279.916C276.476 278.596 275.246 277.936 273.398 277.936C272.006 277.936 270.992 278.284 270.356 278.98C269.72 279.664 269.402 280.552 269.402 281.644C269.402 282.688 269.69 283.492 270.266 284.056C271.022 284.776 272.048 285.136 273.344 285.136C274.952 285.136 276.086 284.692 276.746 283.804C277.214 283.18 277.448 282.418 277.448 281.518ZM280.419 281.554C280.419 280.966 280.509 280.426 280.689 279.934C280.881 279.442 281.127 279.034 281.427 278.71C281.727 278.374 282.003 278.116 282.255 277.936C282.507 277.744 282.765 277.582 283.029 277.45C283.869 277.03 284.901 276.82 286.125 276.82C287.697 276.82 288.969 277.222 289.941 278.026C290.577 278.554 291.009 279.154 291.237 279.826C291.477 280.498 291.597 281.098 291.597 281.626C291.597 282.526 291.351 283.33 290.859 284.038C290.451 284.626 289.845 285.142 289.041 285.586C288.237 286.03 287.217 286.252 285.981 286.252C285.477 286.252 285.009 286.21 284.577 286.126C283.065 285.85 281.937 285.172 281.193 284.092C280.677 283.336 280.419 282.49 280.419 281.554ZM290.265 281.554C290.265 280.39 289.857 279.472 289.041 278.8C288.225 278.128 287.223 277.792 286.035 277.792C284.991 277.792 284.085 278.044 283.317 278.548C282.285 279.232 281.769 280.24 281.769 281.572C281.769 282.436 282.009 283.18 282.489 283.804C282.873 284.296 283.377 284.662 284.001 284.902C284.625 285.13 285.279 285.244 285.963 285.244C287.487 285.244 288.645 284.794 289.437 283.894C289.989 283.258 290.265 282.478 290.265 281.554ZM303.333 286H302.145V278.08H296.007V279.484C296.007 281.908 295.809 283.6 295.413 284.56C295.017 285.52 294.249 286 293.109 286H292.569V285.028H293.109C293.589 285.016 293.955 284.848 294.207 284.524C294.471 284.188 294.657 283.63 294.765 282.85C294.873 282.07 294.927 280.948 294.927 279.484V277.108H303.333V286ZM313.425 277.108H314.703L310.509 286.684C310.317 287.14 310.167 287.47 310.059 287.674C309.963 287.878 309.837 288.094 309.681 288.322C309.525 288.55 309.351 288.736 309.159 288.88C308.643 289.288 307.809 289.492 306.657 289.492C306.069 289.492 305.457 289.42 304.821 289.276V288.16C305.445 288.376 306.045 288.484 306.621 288.484C307.089 288.484 307.485 288.43 307.809 288.322C308.133 288.226 308.397 288.064 308.601 287.836C308.805 287.62 308.955 287.422 309.051 287.242C309.147 287.062 309.261 286.81 309.393 286.486L304.623 277.108H306.045L310.023 285.172L313.425 277.108ZM316.737 286H315.351V284.218H316.737V286Z" fill="black"/>
<ellipse rx="121.881" ry="73.7147" transform="matrix(-0.962936 0.269731 0.269731 0.962936 460.52 317.858)" fill="#FFCCD6"/>
<path d="M400.782 326.579L403.782 325.635C403.809 325.983 403.794 326.35 403.737 326.736C403.691 327.119 403.554 327.572 403.327 328.095C403.11 328.615 402.808 329.108 402.42 329.574C402.039 330.027 401.487 330.48 400.762 330.934C400.052 331.395 399.221 331.775 398.27 332.074C396.173 332.734 394.336 332.73 392.759 332.062C391.179 331.382 390.081 330.065 389.466 328.108C388.904 326.324 389.047 324.681 389.893 323.179C390.747 321.663 392.314 320.546 394.595 319.829C396.303 319.291 397.841 319.194 399.208 319.536C400.572 319.867 401.597 320.465 402.285 321.33L399.278 322.704C398.079 321.726 396.74 321.471 395.259 321.937C394.534 322.165 393.935 322.49 393.462 322.912C392.989 323.334 392.666 323.798 392.492 324.304C392.33 324.807 392.243 325.303 392.231 325.794C392.23 326.282 392.3 326.752 392.443 327.207C392.797 328.331 393.478 329.156 394.488 329.682C395.507 330.205 396.628 330.274 397.85 329.89C399.59 329.342 400.568 328.238 400.782 326.579ZM415.635 321.532C415.883 322.321 415.936 323.076 415.795 323.798C415.65 324.509 415.351 325.126 414.898 325.649C414.456 326.168 413.943 326.614 413.359 326.988C412.776 327.362 412.144 327.656 411.462 327.87C410.976 328.023 410.476 328.133 409.962 328.199C409.463 328.273 408.921 328.289 408.338 328.247C407.761 328.191 407.228 328.062 406.737 327.86C406.245 327.658 405.792 327.331 405.377 326.88C404.958 326.418 404.643 325.851 404.432 325.181C404.024 323.884 404.197 322.659 404.952 321.507C405.713 320.34 406.975 319.48 408.737 318.926C409.721 318.616 410.673 318.489 411.593 318.544C412.514 318.599 413.346 318.883 414.09 319.398C414.831 319.902 415.345 320.613 415.635 321.532ZM412.893 322.448C412.655 321.691 412.208 321.178 411.553 320.909C410.895 320.629 410.144 320.621 409.301 320.887C408.404 321.169 407.769 321.624 407.396 322.252C407.023 322.881 406.96 323.584 407.204 324.362C407.432 325.087 407.872 325.596 408.523 325.89C409.181 326.17 409.959 326.169 410.856 325.887C411.354 325.73 411.764 325.524 412.087 325.268C412.407 325.001 412.63 324.746 412.756 324.505C412.889 324.249 412.969 323.974 412.996 323.681C413.03 323.373 413.032 323.135 413.003 322.966C412.981 322.783 412.944 322.61 412.893 322.448ZM422.832 310.962L425.719 310.054C425.826 310.733 425.755 311.32 425.506 311.814C425.269 312.305 424.922 312.693 424.465 312.979C424.005 313.255 423.485 313.507 422.904 313.738C422.334 313.965 421.769 314.19 421.209 314.413C420.65 314.637 420.149 314.895 419.707 315.189C419.261 315.472 418.932 315.861 418.719 316.355C418.518 316.846 418.488 317.432 418.631 318.112C419.201 316.792 420.416 315.839 422.276 315.254C423.616 314.832 424.868 314.825 426.029 315.232C427.198 315.624 427.98 316.448 428.375 317.702C428.568 318.318 428.632 318.916 428.565 319.495C428.505 320.061 428.339 320.57 428.066 321.024C427.803 321.475 427.459 321.892 427.034 322.276C426.619 322.656 426.167 322.976 425.679 323.237C425.201 323.494 424.692 323.708 424.151 323.878L424.314 323.827C422.724 324.327 421.332 324.432 420.136 324.143C418.562 323.747 417.481 322.614 416.892 320.744C416.552 319.663 416.37 318.687 416.345 317.815C416.32 316.944 416.429 316.232 416.672 315.681C416.914 315.129 417.23 314.644 417.621 314.224C418.019 313.789 418.46 313.455 418.945 313.219C419.429 312.984 419.907 312.768 420.38 312.571C420.861 312.361 421.29 312.196 421.668 312.077C422.054 311.944 422.354 311.784 422.569 311.598C422.794 311.408 422.882 311.196 422.832 310.962ZM425.584 318.633C425.37 317.952 424.939 317.505 424.29 317.294C423.641 317.082 422.911 317.104 422.1 317.359C421.279 317.617 420.648 318.03 420.208 318.596C419.776 319.147 419.664 319.753 419.871 320.413C420.092 321.115 420.516 321.612 421.142 321.902C421.779 322.189 422.583 322.179 423.556 321.873C424.291 321.642 424.877 321.255 425.313 320.714C425.759 320.17 425.85 319.476 425.584 318.633ZM438.219 316.066L441.079 315.469C441.031 315.733 440.955 316.001 440.85 316.271C440.745 316.542 440.573 316.864 440.334 317.236C440.102 317.594 439.824 317.937 439.499 318.265C439.182 318.578 438.752 318.892 438.209 319.205C437.68 319.526 437.091 319.789 436.443 319.993C435.427 320.312 434.496 320.451 433.651 320.408C432.813 320.351 432.126 320.151 431.591 319.808C431.055 319.466 430.625 319.079 430.299 318.647C429.969 318.204 429.723 317.723 429.559 317.204C429.131 315.842 429.293 314.621 430.046 313.54C430.81 312.456 432.025 311.652 433.689 311.128C435.43 310.581 436.898 310.6 438.092 311.187C439.297 311.77 440.104 312.71 440.512 314.008L440.609 314.316L432.468 316.877C433.178 318.151 434.349 318.531 435.982 318.017C436.5 317.854 436.974 317.604 437.403 317.267C437.828 316.919 438.1 316.519 438.219 316.066ZM432.085 315.376L437.193 313.769C436.951 313.263 436.555 312.966 436.004 312.877C435.45 312.778 434.86 312.828 434.233 313.025C433.595 313.226 433.079 313.53 432.685 313.94C432.287 314.338 432.088 314.817 432.085 315.376ZM443.7 308.335L443.996 309.276C444.59 308.257 445.525 307.547 446.801 307.146C448.141 306.724 449.354 306.782 450.438 307.32C451.529 307.844 452.281 308.76 452.692 310.068C453.053 311.214 452.984 312.335 452.485 313.431C451.997 314.523 451.039 315.293 449.612 315.742C448.304 316.154 447.092 316.096 445.975 315.568L447.261 319.654L444.585 320.496L441.024 309.177L443.7 308.335ZM445.001 312.471C445.249 313.26 445.688 313.787 446.318 314.052C446.945 314.306 447.609 314.323 448.312 314.102C449.09 313.857 449.612 313.455 449.875 312.897C450.147 312.325 450.162 311.655 449.92 310.887C449.692 310.163 449.303 309.644 448.753 309.33C448.199 309.005 447.528 308.967 446.739 309.215C445.906 309.477 445.354 309.912 445.082 310.52C444.81 311.129 444.783 311.779 445.001 312.471ZM466 310.337L463.325 311.179L461.845 306.476L458.052 311.412L458.46 312.709L455.784 313.551L453.202 305.346L455.878 304.504L457.307 309.044L461.1 304.108L460.743 302.973L463.419 302.131L466 310.337ZM480.802 302.472L483.648 302.004C483.473 303.069 482.976 304.004 482.16 304.807C481.343 305.61 480.384 306.186 479.281 306.533C478.341 306.828 477.464 306.95 476.651 306.897C475.846 306.829 475.177 306.63 474.645 306.298C474.12 305.952 473.684 305.567 473.337 305.141C472.996 304.702 472.75 304.239 472.597 303.753C472.362 303.007 472.309 302.292 472.439 301.61C472.569 300.928 472.839 300.332 473.249 299.822C473.659 299.313 474.151 298.874 474.723 298.503C475.303 298.119 475.934 297.819 476.615 297.605C477.037 297.472 477.488 297.378 477.969 297.322C478.461 297.262 478.981 297.253 479.529 297.294C480.073 297.325 480.603 297.461 481.119 297.703C481.631 297.934 482.066 298.26 482.425 298.682L479.728 299.852C479.015 299.399 478.188 299.32 477.248 299.616C476.523 299.844 475.961 300.264 475.559 300.878C475.158 301.491 475.072 302.16 475.3 302.884C475.364 303.09 475.466 303.301 475.606 303.519C475.757 303.733 475.964 303.958 476.229 304.196C476.501 304.419 476.856 304.563 477.292 304.628C477.739 304.689 478.227 304.636 478.757 304.47C478.897 304.426 479.045 304.367 479.201 304.294C479.356 304.222 479.559 304.111 479.809 303.961C480.055 303.8 480.268 303.59 480.448 303.332C480.639 303.07 480.757 302.783 480.802 302.472ZM483.275 295.884L489.957 293.782C491.081 293.428 491.92 293.414 492.474 293.738C492.896 293.986 493.192 294.38 493.362 294.92C493.638 295.796 493.366 296.517 492.546 297.084C493.816 297.005 494.623 297.512 494.967 298.603C495.154 299.198 495.179 299.695 495.044 300.094C494.933 300.461 494.742 300.777 494.468 301.041C494.195 301.306 493.948 301.484 493.728 301.577C493.508 301.67 493.214 301.775 492.846 301.89L485.857 304.089L483.275 295.884ZM486.946 298.204L490.206 297.179C490.865 296.971 491.106 296.586 490.929 296.024C490.77 295.516 490.36 295.366 489.7 295.573L486.441 296.599L486.946 298.204ZM488.043 301.691L491.416 300.629C492.227 300.374 492.527 299.912 492.316 299.241C492.122 298.625 491.663 298.431 490.939 298.659L487.436 299.761L488.043 301.691ZM506.867 292.828C507.115 293.617 507.169 294.372 507.028 295.094C506.883 295.805 506.584 296.422 506.131 296.944C505.688 297.464 505.175 297.91 504.592 298.284C504.008 298.658 503.376 298.952 502.695 299.166C502.209 299.319 501.708 299.429 501.195 299.495C500.695 299.569 500.154 299.585 499.57 299.543C498.994 299.487 498.46 299.358 497.969 299.156C497.478 298.954 497.025 298.627 496.609 298.176C496.191 297.713 495.876 297.147 495.665 296.477C495.257 295.179 495.43 293.955 496.184 292.803C496.946 291.636 498.208 290.776 499.97 290.221C500.954 289.912 501.906 289.785 502.826 289.84C503.746 289.895 504.578 290.179 505.323 290.694C506.063 291.197 506.578 291.909 506.867 292.828ZM504.126 293.744C503.888 292.987 503.441 292.474 502.786 292.205C502.128 291.925 501.377 291.917 500.534 292.183C499.636 292.465 499.001 292.92 498.629 293.548C498.256 294.176 498.192 294.88 498.437 295.658C498.665 296.382 499.104 296.892 499.755 297.186C500.414 297.466 501.192 297.465 502.089 297.182C502.586 297.026 502.996 296.82 503.32 296.563C503.64 296.296 503.863 296.042 503.989 295.8C504.122 295.545 504.202 295.27 504.228 294.977C504.262 294.669 504.265 294.431 504.235 294.262C504.213 294.078 504.177 293.906 504.126 293.744ZM511.057 290.369L512.662 289.864C512.624 288.723 512.99 287.717 513.762 286.845C514.54 285.958 515.675 285.28 517.167 284.811C518.151 284.501 519.103 284.374 520.023 284.429C520.943 284.484 521.776 284.769 522.52 285.283C523.26 285.787 523.775 286.498 524.064 287.417C524.313 288.206 524.366 288.961 524.225 289.683C524.08 290.394 523.781 291.011 523.328 291.534C522.885 292.053 522.372 292.5 521.789 292.873C521.206 293.247 520.573 293.541 519.892 293.755C519.319 293.935 518.728 294.056 518.117 294.118C517.518 294.176 516.894 294.158 516.247 294.064C515.6 293.971 514.996 293.733 514.436 293.351C513.884 292.954 513.45 292.426 513.135 291.764L511.643 292.234L512.715 295.639L510.039 296.481L507.457 288.276L510.133 287.434L511.057 290.369ZM521.323 288.333C521.085 287.576 520.638 287.063 519.983 286.794C519.325 286.514 518.574 286.507 517.731 286.772C516.833 287.054 516.198 287.51 515.826 288.138C515.453 288.766 515.389 289.469 515.634 290.247C515.865 290.983 516.307 291.497 516.958 291.791C517.619 292.082 518.399 292.086 519.296 291.804C520.226 291.512 520.854 291.053 521.18 290.427C521.517 289.799 521.564 289.1 521.323 288.333ZM398.582 345.594L399.474 348.432L402.15 347.59C402.572 347.457 402.856 347.267 403.004 347.018C403.162 346.767 403.224 346.509 403.189 346.247C403.151 345.974 403.133 345.635 403.136 345.23C403.147 344.811 403.223 344.431 403.365 344.089L406.203 343.196C405.999 343.641 405.879 344.112 405.846 344.609C405.812 345.107 405.816 345.516 405.857 345.835C405.899 346.155 405.861 346.47 405.745 346.78C405.625 347.079 405.386 347.32 405.028 347.504C405.513 347.423 405.942 347.538 406.313 347.849C406.691 348.145 406.984 348.511 407.192 348.944C407.411 349.374 407.679 349.831 407.997 350.313C408.315 350.795 408.642 351.137 408.979 351.34L406.142 352.233C405.879 352.078 405.626 351.801 405.381 351.403C405.148 351.001 404.955 350.634 404.803 350.302C404.648 349.959 404.403 349.691 404.07 349.499C403.732 349.296 403.331 349.268 402.867 349.414L400.061 350.297L401.163 353.799L398.488 354.641L395.906 346.436L398.582 345.594ZM419.83 343.275C420.078 344.064 420.132 344.819 419.991 345.541C419.846 346.252 419.547 346.869 419.094 347.392C418.651 347.911 418.138 348.358 417.555 348.731C416.971 349.105 416.339 349.399 415.658 349.613C415.172 349.766 414.671 349.876 414.158 349.943C413.658 350.017 413.117 350.033 412.533 349.99C411.957 349.934 411.423 349.805 410.932 349.603C410.441 349.401 409.988 349.074 409.572 348.623C409.154 348.161 408.839 347.594 408.628 346.924C408.22 345.627 408.393 344.402 409.147 343.25C409.909 342.084 411.171 341.223 412.933 340.669C413.917 340.359 414.869 340.232 415.789 340.287C416.709 340.342 417.541 340.627 418.285 341.141C419.026 341.645 419.541 342.356 419.83 343.275ZM417.089 344.191C416.851 343.434 416.404 342.921 415.749 342.652C415.091 342.372 414.34 342.365 413.497 342.63C412.599 342.912 411.964 343.368 411.592 343.996C411.219 344.624 411.155 345.327 411.4 346.105C411.628 346.83 412.067 347.339 412.718 347.633C413.377 347.913 414.155 347.912 415.052 347.63C415.549 347.473 415.959 347.267 416.283 347.011C416.603 346.744 416.826 346.489 416.952 346.248C417.085 345.992 417.165 345.717 417.191 345.424C417.225 345.116 417.228 344.878 417.198 344.709C417.176 344.526 417.14 344.353 417.089 344.191ZM434.256 343.387L431.824 344.153L430.058 338.542L429.407 344.913L427.851 345.403L423.669 340.552L425.434 346.163L423.002 346.928L420.42 338.723L423.761 337.672L427.774 342.326L428.35 336.228L431.675 335.182L434.256 343.387ZM446.74 339.46L444.064 340.302L442.07 333.961L437.302 335.461L439.297 341.802L436.621 342.643L434.04 334.438L444.159 331.254L446.74 339.46ZM458.439 331.128C458.687 331.917 458.741 332.672 458.599 333.394C458.455 334.105 458.156 334.722 457.702 335.244C457.26 335.764 456.747 336.21 456.164 336.584C455.58 336.958 454.948 337.252 454.267 337.466C453.78 337.619 453.28 337.729 452.767 337.795C452.267 337.869 451.726 337.885 451.142 337.843C450.566 337.787 450.032 337.658 449.541 337.456C449.05 337.254 448.596 336.927 448.181 336.476C447.762 336.013 447.448 335.447 447.237 334.777C446.829 333.479 447.002 332.255 447.756 331.103C448.518 329.936 449.78 329.076 451.542 328.521C452.526 328.212 453.478 328.085 454.398 328.14C455.318 328.195 456.15 328.479 456.894 328.994C457.635 329.497 458.15 330.209 458.439 331.128ZM455.697 332.044C455.459 331.287 455.013 330.774 454.358 330.505C453.699 330.225 452.949 330.217 452.105 330.483C451.208 330.765 450.573 331.22 450.2 331.848C449.828 332.476 449.764 333.18 450.009 333.958C450.237 334.682 450.676 335.192 451.327 335.486C451.985 335.766 452.763 335.765 453.661 335.482C454.158 335.326 454.568 335.12 454.892 334.863C455.211 334.596 455.434 334.342 455.56 334.1C455.694 333.845 455.774 333.57 455.8 333.277C455.834 332.969 455.836 332.731 455.807 332.562C455.785 332.378 455.748 332.206 455.697 332.044ZM462.954 328.798L464.738 328.237C465.646 327.951 466.015 327.538 465.845 326.997C465.644 326.36 464.949 326.228 463.76 326.602C462.43 327.02 461.806 327.585 461.887 328.296L459.058 328.99C459.111 327.987 459.476 327.148 460.155 326.471C460.833 325.794 461.88 325.233 463.296 324.787C464.885 324.287 466.092 324.139 466.917 324.343C467.738 324.536 468.271 325.022 468.516 325.801C468.791 326.676 468.519 327.398 467.7 327.964C468.927 327.863 469.718 328.375 470.072 329.499C470.157 329.769 470.206 330.021 470.22 330.254C470.242 330.473 470.19 330.745 470.067 331.069C469.954 331.39 469.751 331.691 469.46 331.973C469.165 332.244 468.712 332.541 468.101 332.864C467.489 333.187 466.735 333.49 465.838 333.772C464.281 334.262 463.028 334.395 462.078 334.171C461.128 333.947 460.383 333.391 459.843 332.504L462.647 331.39C463.157 332.18 464.093 332.361 465.455 331.932C466.882 331.483 467.488 330.918 467.274 330.237C467.155 329.858 466.938 329.642 466.624 329.586C466.32 329.527 465.833 329.603 465.163 329.814L463.444 330.355L462.954 328.798ZM482.849 328.099L480.173 328.941L478.694 324.238L474.9 329.174L475.309 330.471L472.633 331.313L470.051 323.108L472.727 322.266L474.155 326.806L477.949 321.87L477.592 320.735L480.267 319.893L482.849 328.099ZM485.317 318.305L487.312 324.645L492.047 323.156L490.052 316.815L492.728 315.973L494.722 322.314L496.02 321.906L497.27 325.879L494.756 326.669L494.093 324.561L485.223 327.352L482.641 319.147L485.317 318.305ZM508.741 319.952L506.066 320.794L504.586 316.092L500.793 321.028L501.201 322.325L498.525 323.167L495.943 314.961L498.619 314.119L500.048 318.66L503.841 313.724L503.484 312.589L506.16 311.747L508.741 319.952ZM512.132 313.094L513.738 312.588C513.7 311.448 514.066 310.442 514.837 309.569C515.616 308.683 516.751 308.005 518.243 307.535C519.227 307.226 520.179 307.099 521.099 307.154C522.019 307.209 522.851 307.493 523.595 308.008C524.336 308.511 524.851 309.223 525.14 310.142C525.388 310.931 525.442 311.686 525.301 312.408C525.156 313.119 524.857 313.736 524.404 314.258C523.961 314.778 523.448 315.224 522.865 315.598C522.281 315.972 521.649 316.266 520.968 316.48C520.395 316.66 519.803 316.781 519.193 316.842C518.593 316.9 517.97 316.883 517.323 316.789C516.676 316.696 516.072 316.458 515.512 316.076C514.96 315.679 514.526 315.15 514.211 314.489L512.719 314.958L513.791 318.364L511.115 319.206L508.533 311L511.209 310.158L512.132 313.094ZM522.399 311.058C522.161 310.301 521.714 309.788 521.059 309.519C520.401 309.239 519.65 309.231 518.807 309.497C517.909 309.779 517.274 310.234 516.902 310.862C516.529 311.49 516.465 312.194 516.71 312.972C516.941 313.707 517.382 314.222 518.033 314.516C518.695 314.807 519.475 314.811 520.372 314.529C521.302 314.236 521.93 313.777 522.256 313.152C522.592 312.523 522.64 311.825 522.399 311.058ZM525.247 302.178L527.89 301.346L529.267 305.724L530.009 309.554L528.177 310.131L526.624 306.556L525.247 302.178ZM531.492 312.795L528.849 313.626L528.211 311.599L530.854 310.768L531.492 312.795Z" fill="black"/>
<circle cx="201.044" cy="128.999" r="9.21434" fill="#F3A2BC"/>
<circle cx="313.711" cy="376.532" r="17.1722" fill="#21B8EB"/>
<circle cx="272.246" cy="350.982" r="8.37667" fill="#FFEC51"/>
</svg>
