<svg width="713" height="556" viewBox="0 0 713 556" fill="none" xmlns="http://www.w3.org/2000/svg">
<ellipse rx="272.884" ry="179.711" transform="matrix(-0.949457 -0.313897 -0.313897 0.949457 315.503 299.269)" fill="white"/>
<ellipse cx="134.735" cy="105.908" rx="83.619" ry="83.9006" transform="rotate(-18.2943 134.735 105.908)" fill="#FFEC51"/>
<path d="M145.276 115.096H125.836C125.836 113.536 125.866 112.276 125.926 111.316C126.046 110.356 126.346 109.396 126.826 108.436C127.306 107.476 127.726 106.756 128.086 106.276C128.506 105.796 129.346 105.166 130.606 104.386C131.926 103.546 133.036 102.886 133.936 102.406C134.896 101.926 136.546 101.116 138.886 99.9761C139.006 99.9161 139.366 99.7661 139.966 99.5261C140.566 99.2261 140.956 99.0161 141.136 98.8961C141.376 98.7161 141.766 98.4761 142.306 98.1761C142.846 97.8761 143.236 97.5761 143.476 97.2761C143.716 96.9761 143.986 96.6161 144.286 96.1961C144.646 95.7761 144.886 95.2961 145.006 94.7561C145.126 94.2161 145.186 93.6461 145.186 93.0461C145.186 90.9461 144.346 89.2661 142.666 88.0061C140.986 86.7461 138.616 86.1161 135.556 86.1161C133.996 86.1161 132.646 86.2361 131.506 86.4761C130.366 86.7161 129.136 87.1661 127.816 87.8261C126.556 88.4861 125.566 89.6261 124.846 91.2461C124.186 92.8061 123.856 94.7561 123.856 97.0961V97.9061L105.676 96.8261C105.796 94.6061 106.036 92.5061 106.396 90.5261C106.756 88.6661 107.596 86.5661 108.916 84.2261C110.296 81.8261 112.306 79.7861 114.946 78.1061C119.746 75.0461 127.366 73.5161 137.806 73.5161C140.506 73.5161 142.846 73.6061 144.826 73.7861C146.866 73.9061 149.176 74.2361 151.756 74.7761C154.336 75.2561 156.676 76.0961 158.776 77.2961C160.876 78.4361 162.646 79.9361 164.086 81.7961C166.366 84.5561 167.506 88.0061 167.506 92.1461C167.506 93.3461 167.386 94.4261 167.146 95.3861C166.906 96.3461 166.366 97.5461 165.526 98.9861C164.686 100.426 163.216 101.926 161.116 103.486C159.076 104.986 156.466 106.516 153.286 108.076C150.166 109.636 148.036 110.896 146.896 111.856C145.816 112.756 145.276 113.836 145.276 115.096ZM145.366 138.496H126.016V121.936H145.366V138.496Z" fill="black"/>
<path d="M136.81 249.468H148.976C150.428 249.468 151.557 250.018 152.364 251.118C152.848 251.778 153.09 252.526 153.09 253.362C153.09 254.315 152.826 255.085 152.298 255.672C151.77 256.259 151.132 256.625 150.384 256.772C151.469 256.86 152.32 257.285 152.936 258.048C153.567 258.811 153.882 259.72 153.882 260.776C153.882 262.272 153.361 263.394 152.32 264.142C151.528 264.714 150.391 265 148.91 265H136.81V249.468ZM138.328 250.722V256.222H147.81C148.514 256.222 149.108 256.156 149.592 256.024C150.091 255.892 150.523 255.606 150.89 255.166C151.286 254.697 151.484 254.125 151.484 253.45C151.484 252.878 151.345 252.365 151.066 251.91C150.743 251.411 150.34 251.089 149.856 250.942C149.372 250.795 148.763 250.722 148.03 250.722H138.328ZM138.328 257.542V263.702H148.932C150.428 263.702 151.433 263.233 151.946 262.294C152.21 261.81 152.342 261.304 152.342 260.776C152.342 260.028 152.144 259.39 151.748 258.862C151.455 258.466 151.051 258.165 150.538 257.96C150.039 257.755 149.592 257.637 149.196 257.608C148.815 257.564 148.309 257.542 147.678 257.542H138.328ZM167.984 260.754L169.436 261.304C168.849 262.257 168.299 262.976 167.786 263.46C166.51 264.648 164.779 265.242 162.594 265.242C161.699 265.242 160.885 265.132 160.152 264.912C159.756 264.795 159.367 264.633 158.986 264.428C158.604 264.208 158.172 263.9 157.688 263.504C157.204 263.093 156.808 262.543 156.5 261.854C156.206 261.165 156.06 260.38 156.06 259.5C156.06 258.019 156.536 256.772 157.49 255.76C158.12 255.085 158.92 254.572 159.888 254.22C160.856 253.868 161.838 253.692 162.836 253.692C165.71 253.692 167.837 254.851 169.216 257.168L167.764 257.762C167.632 257.483 167.375 257.131 166.994 256.706C166.612 256.281 166.224 255.951 165.828 255.716C164.992 255.203 163.98 254.946 162.792 254.946C161.677 254.946 160.738 255.166 159.976 255.606C159.228 256.031 158.678 256.552 158.326 257.168C157.9 257.857 157.688 258.627 157.688 259.478C157.688 260.93 158.194 262.045 159.206 262.822C160.232 263.585 161.413 263.966 162.748 263.966C163.481 263.966 164.222 263.834 164.97 263.57C165.732 263.306 166.356 262.939 166.84 262.47C167.221 262.089 167.602 261.517 167.984 260.754ZM182.504 261.216L183.648 262.03C183.017 262.939 182.291 263.658 181.47 264.186C180.282 264.919 178.932 265.286 177.422 265.286C175.735 265.286 174.312 264.912 173.154 264.164C171.643 263.167 170.888 261.59 170.888 259.434C170.888 257.762 171.489 256.405 172.692 255.364C173.117 254.983 173.74 254.623 174.562 254.286C175.398 253.949 176.322 253.78 177.334 253.78C179.446 253.78 181.044 254.403 182.13 255.65C183.098 256.765 183.604 258.121 183.648 259.72H172.406C172.406 261.04 172.897 262.081 173.88 262.844C174.862 263.592 176.094 263.966 177.576 263.966C179.761 263.966 181.404 263.049 182.504 261.216ZM172.45 258.532H181.888C181.668 257.476 181.154 256.611 180.348 255.936C179.673 255.379 178.61 255.1 177.158 255.1C175.735 255.1 174.606 255.452 173.77 256.156C173.036 256.772 172.596 257.564 172.45 258.532ZM192.37 259.566C192.37 258.847 192.48 258.187 192.7 257.586C192.934 256.985 193.235 256.486 193.602 256.09C193.968 255.679 194.306 255.364 194.614 255.144C194.922 254.909 195.237 254.711 195.56 254.55C196.586 254.037 197.848 253.78 199.344 253.78C201.265 253.78 202.82 254.271 204.008 255.254C204.785 255.899 205.313 256.633 205.592 257.454C205.885 258.275 206.032 259.009 206.032 259.654C206.032 260.754 205.731 261.737 205.13 262.602C204.631 263.321 203.89 263.951 202.908 264.494C201.925 265.037 200.678 265.308 199.168 265.308C198.552 265.308 197.98 265.257 197.452 265.154C195.604 264.817 194.225 263.988 193.316 262.668C192.685 261.744 192.37 260.71 192.37 259.566ZM204.404 259.566C204.404 258.143 203.905 257.021 202.908 256.2C201.91 255.379 200.686 254.968 199.234 254.968C197.958 254.968 196.85 255.276 195.912 255.892C194.65 256.728 194.02 257.96 194.02 259.588C194.02 260.644 194.313 261.553 194.9 262.316C195.369 262.917 195.985 263.365 196.748 263.658C197.51 263.937 198.31 264.076 199.146 264.076C201.008 264.076 202.424 263.526 203.392 262.426C204.066 261.649 204.404 260.695 204.404 259.566ZM219.144 248.83H220.53C220.53 250.678 219.005 251.602 215.954 251.602C213.901 251.602 212.339 252.013 211.268 252.834C210.212 253.655 209.567 254.968 209.332 256.772C209.801 255.921 210.549 255.269 211.576 254.814C212.617 254.359 213.732 254.132 214.92 254.132C216.959 254.132 218.543 254.55 219.672 255.386C220.963 256.325 221.608 257.703 221.608 259.522C221.608 260.945 221.124 262.184 220.156 263.24C218.88 264.619 217.076 265.308 214.744 265.308C212.573 265.308 210.894 264.78 209.706 263.724C208.533 262.653 207.946 261.069 207.946 258.972C207.946 257.608 208.056 256.435 208.276 255.452C208.511 254.455 208.833 253.641 209.244 253.01C209.655 252.365 210.212 251.844 210.916 251.448C211.635 251.037 212.405 250.744 213.226 250.568C214.047 250.377 215.045 250.238 216.218 250.15C216.629 250.121 216.981 250.084 217.274 250.04C217.567 249.996 217.868 249.93 218.176 249.842C218.499 249.754 218.741 249.629 218.902 249.468C219.063 249.292 219.144 249.079 219.144 248.83ZM220.002 259.566C220.002 258.202 219.547 257.153 218.638 256.42C217.729 255.687 216.555 255.32 215.118 255.32C214.355 255.32 213.629 255.408 212.94 255.584C212.251 255.745 211.73 255.958 211.378 256.222C210.19 257.102 209.596 258.224 209.596 259.588C209.596 260.644 209.889 261.553 210.476 262.316C210.945 262.917 211.561 263.372 212.324 263.68C213.101 263.973 213.901 264.12 214.722 264.12C216.629 264.12 218.051 263.585 218.99 262.514C219.665 261.751 220.002 260.769 220.002 259.566ZM226.448 265V255.32H222.84V254.132H227.9V258.444H232.52C233.239 258.444 233.818 258.459 234.258 258.488C234.698 258.517 235.182 258.591 235.71 258.708C236.238 258.825 236.649 259.001 236.942 259.236C237.236 259.456 237.478 259.779 237.668 260.204C237.874 260.615 237.976 261.128 237.976 261.744C237.976 262.756 237.668 263.555 237.052 264.142C236.436 264.714 235.622 265 234.61 265H226.448ZM227.9 263.812H233.268C234.442 263.812 235.278 263.687 235.776 263.438C236.275 263.189 236.524 262.609 236.524 261.7C236.524 261.245 236.444 260.879 236.282 260.6C236.136 260.307 235.894 260.094 235.556 259.962C235.219 259.83 234.867 259.742 234.5 259.698C234.148 259.654 233.679 259.632 233.092 259.632H227.9V263.812ZM251.146 261.216L252.29 262.03C251.659 262.939 250.933 263.658 250.112 264.186C248.924 264.919 247.575 265.286 246.064 265.286C244.377 265.286 242.955 264.912 241.796 264.164C240.285 263.167 239.53 261.59 239.53 259.434C239.53 257.762 240.131 256.405 241.334 255.364C241.759 254.983 242.383 254.623 243.204 254.286C244.04 253.949 244.964 253.78 245.976 253.78C248.088 253.78 249.687 254.403 250.772 255.65C251.74 256.765 252.246 258.121 252.29 259.72H241.048C241.048 261.04 241.539 262.081 242.522 262.844C243.505 263.592 244.737 263.966 246.218 263.966C248.403 263.966 250.046 263.049 251.146 261.216ZM241.092 258.532H250.53C250.31 257.476 249.797 256.611 248.99 255.936C248.315 255.379 247.252 255.1 245.8 255.1C244.377 255.1 243.248 255.452 242.412 256.156C241.679 256.772 241.239 257.564 241.092 258.532ZM256.206 254.132V258.576H261.684C262.359 258.576 262.879 258.415 263.246 258.092C263.627 257.755 263.862 257.381 263.95 256.97C264.053 256.545 264.177 256.046 264.324 255.474C264.485 254.902 264.691 254.455 264.94 254.132H266.502C266.165 254.572 265.901 255.078 265.71 255.65C265.519 256.207 265.387 256.684 265.314 257.08C265.241 257.476 265.072 257.872 264.808 258.268C264.559 258.649 264.185 258.935 263.686 259.126C264.302 259.229 264.771 259.493 265.094 259.918C265.431 260.343 265.637 260.813 265.71 261.326C265.798 261.839 265.937 262.455 266.128 263.174C266.333 263.893 266.605 264.501 266.942 265H265.402C265.153 264.677 264.947 264.186 264.786 263.526C264.639 262.866 264.515 262.279 264.412 261.766C264.324 261.253 264.038 260.791 263.554 260.38C263.07 259.969 262.381 259.764 261.486 259.764H256.206V265H254.754V254.132H256.206ZM279.749 255.32H274.579V265H273.127V255.32H267.957V254.132H279.749V255.32ZM281.588 265V254.132H283.04V258.444H287C287.719 258.444 288.283 258.459 288.694 258.488C289.119 258.503 289.596 258.569 290.124 258.686C290.667 258.803 291.077 258.979 291.356 259.214C291.635 259.434 291.869 259.757 292.06 260.182C292.265 260.607 292.368 261.128 292.368 261.744C292.368 262.844 292.075 263.665 291.488 264.208C290.916 264.736 290.117 265 289.09 265H281.588ZM283.04 263.812H287.748C288.877 263.812 289.677 263.687 290.146 263.438C290.63 263.189 290.872 262.609 290.872 261.7C290.872 260.835 290.608 260.277 290.08 260.028C289.552 259.764 288.716 259.632 287.572 259.632H283.04V263.812ZM295.58 265H294.128V254.132H295.58V265ZM317.882 265H316.43V259.764H307.102V265H305.65V254.132H307.102V258.576H316.43V254.132H317.882V265ZM334.123 265C333.624 265.059 333.14 265.088 332.671 265.088C332.421 265.088 332.201 265.051 332.011 264.978C331.82 264.905 331.666 264.824 331.549 264.736C331.446 264.633 331.351 264.509 331.263 264.362C331.189 264.201 331.138 264.076 331.109 263.988C331.079 263.885 331.057 263.768 331.043 263.636L330.999 263.416C330.544 263.753 330.148 264.017 329.811 264.208C328.491 264.927 326.965 265.286 325.235 265.286C323.269 265.286 321.891 264.809 321.099 263.856C320.615 263.269 320.373 262.565 320.373 261.744C320.373 260.585 320.827 259.691 321.737 259.06C322.441 258.576 323.489 258.268 324.883 258.136C326.276 257.989 328.315 257.901 330.999 257.872C330.999 257.124 330.874 256.574 330.625 256.222C330.111 255.503 328.74 255.144 326.511 255.144C325.425 255.144 324.567 255.239 323.937 255.43C323.321 255.621 322.895 255.863 322.661 256.156C322.426 256.435 322.221 256.845 322.045 257.388L320.505 257.3C320.857 256.009 321.517 255.107 322.485 254.594C323.438 254.081 324.736 253.824 326.379 253.824C329.019 253.824 330.764 254.293 331.615 255.232C332.099 255.789 332.341 256.589 332.341 257.63V262.404C332.341 262.991 332.443 263.387 332.649 263.592C332.869 263.783 333.235 263.878 333.749 263.878H334.123V265ZM330.999 259.104H330.317C327.207 259.104 325.029 259.295 323.783 259.676C322.551 260.057 321.935 260.761 321.935 261.788C321.935 262.565 322.287 263.13 322.991 263.482C323.695 263.819 324.501 263.988 325.411 263.988C326.276 263.988 327.244 263.819 328.315 263.482C329.4 263.13 330.163 262.58 330.603 261.832C330.867 261.363 330.999 260.644 330.999 259.676V259.104ZM353.845 260.754L355.297 261.304C354.71 262.257 354.16 262.976 353.647 263.46C352.371 264.648 350.64 265.242 348.455 265.242C347.56 265.242 346.746 265.132 346.013 264.912C345.617 264.795 345.228 264.633 344.847 264.428C344.466 264.208 344.033 263.9 343.549 263.504C343.065 263.093 342.669 262.543 342.361 261.854C342.068 261.165 341.921 260.38 341.921 259.5C341.921 258.019 342.398 256.772 343.351 255.76C343.982 255.085 344.781 254.572 345.749 254.22C346.717 253.868 347.7 253.692 348.697 253.692C351.572 253.692 353.698 254.851 355.077 257.168L353.625 257.762C353.493 257.483 353.236 257.131 352.855 256.706C352.474 256.281 352.085 255.951 351.689 255.716C350.853 255.203 349.841 254.946 348.653 254.946C347.538 254.946 346.6 255.166 345.837 255.606C345.089 256.031 344.539 256.552 344.187 257.168C343.762 257.857 343.549 258.627 343.549 259.478C343.549 260.93 344.055 262.045 345.067 262.822C346.094 263.585 347.274 263.966 348.609 263.966C349.342 263.966 350.083 263.834 350.831 263.57C351.594 263.306 352.217 262.939 352.701 262.47C353.082 262.089 353.464 261.517 353.845 260.754ZM367.771 255.32H362.601V265H361.149V255.32H355.979V254.132H367.771V255.32ZM371.061 254.132V255.826C371.428 255.386 371.883 255.019 372.425 254.726C372.968 254.418 373.511 254.213 374.053 254.11C374.611 253.993 375.051 253.919 375.373 253.89C375.711 253.846 376.026 253.824 376.319 253.824C377.507 253.824 378.593 254.073 379.575 254.572C380.558 255.056 381.313 255.789 381.841 256.772C382.296 257.593 382.523 258.517 382.523 259.544C382.523 261.187 381.988 262.521 380.917 263.548C379.744 264.692 378.101 265.264 375.989 265.264C375.227 265.264 374.486 265.169 373.767 264.978C373.049 264.773 372.491 264.523 372.095 264.23C371.655 263.907 371.311 263.607 371.061 263.328V269.114H369.653V254.132H371.061ZM380.917 259.522C380.917 258.847 380.771 258.195 380.477 257.564C379.729 255.951 378.226 255.144 375.967 255.144C374.266 255.144 373.027 255.569 372.249 256.42C371.472 257.256 371.083 258.341 371.083 259.676C371.083 260.952 371.435 261.935 372.139 262.624C373.063 263.504 374.317 263.944 375.901 263.944C377.867 263.944 379.253 263.401 380.059 262.316C380.631 261.553 380.917 260.622 380.917 259.522ZM398.254 265C397.755 265.059 397.271 265.088 396.802 265.088C396.552 265.088 396.332 265.051 396.142 264.978C395.951 264.905 395.797 264.824 395.68 264.736C395.577 264.633 395.482 264.509 395.394 264.362C395.32 264.201 395.269 264.076 395.24 263.988C395.21 263.885 395.188 263.768 395.174 263.636L395.13 263.416C394.675 263.753 394.279 264.017 393.942 264.208C392.622 264.927 391.096 265.286 389.366 265.286C387.4 265.286 386.022 264.809 385.23 263.856C384.746 263.269 384.504 262.565 384.504 261.744C384.504 260.585 384.958 259.691 385.868 259.06C386.572 258.576 387.62 258.268 389.014 258.136C390.407 257.989 392.446 257.901 395.13 257.872C395.13 257.124 395.005 256.574 394.756 256.222C394.242 255.503 392.871 255.144 390.642 255.144C389.556 255.144 388.698 255.239 388.068 255.43C387.452 255.621 387.026 255.863 386.792 256.156C386.557 256.435 386.352 256.845 386.176 257.388L384.636 257.3C384.988 256.009 385.648 255.107 386.616 254.594C387.569 254.081 388.867 253.824 390.51 253.824C393.15 253.824 394.895 254.293 395.746 255.232C396.23 255.789 396.472 256.589 396.472 257.63V262.404C396.472 262.991 396.574 263.387 396.78 263.592C397 263.783 397.366 263.878 397.88 263.878H398.254V265ZM395.13 259.104H394.448C391.338 259.104 389.16 259.295 387.914 259.676C386.682 260.057 386.066 260.761 386.066 261.788C386.066 262.565 386.418 263.13 387.122 263.482C387.826 263.819 388.632 263.988 389.542 263.988C390.407 263.988 391.375 263.819 392.446 263.482C393.531 263.13 394.294 262.58 394.734 261.832C394.998 261.363 395.13 260.644 395.13 259.676V259.104ZM412.091 265H410.639V259.764H401.311V265H399.859V254.132H401.311V258.576H410.639V254.132H412.091V265ZM427.76 265H426.308V256.75L416.716 263.68V265H415.264V254.132H416.716V262.14L426.308 255.21V254.132H427.76V265ZM443.158 254.132V263.812H445.182V267.64H443.818V265H430.926V254.132H432.378V263.812H441.706V254.132H443.158ZM458.707 261.216L459.851 262.03C459.22 262.939 458.494 263.658 457.673 264.186C456.485 264.919 455.135 265.286 453.625 265.286C451.938 265.286 450.515 264.912 449.357 264.164C447.846 263.167 447.091 261.59 447.091 259.434C447.091 257.762 447.692 256.405 448.895 255.364C449.32 254.983 449.943 254.623 450.765 254.286C451.601 253.949 452.525 253.78 453.537 253.78C455.649 253.78 457.247 254.403 458.333 255.65C459.301 256.765 459.807 258.121 459.851 259.72H448.609C448.609 261.04 449.1 262.081 450.083 262.844C451.065 263.592 452.297 263.966 453.779 263.966C455.964 263.966 457.607 263.049 458.707 261.216ZM448.653 258.532H458.091C457.871 257.476 457.357 256.611 456.551 255.936C455.876 255.379 454.813 255.1 453.361 255.1C451.938 255.1 450.809 255.452 449.973 256.156C449.239 256.772 448.799 257.564 448.653 258.532ZM147.81 288.754L149.262 289.304C148.675 290.257 148.125 290.976 147.612 291.46C146.336 292.648 144.605 293.242 142.42 293.242C141.525 293.242 140.711 293.132 139.978 292.912C139.582 292.795 139.193 292.633 138.812 292.428C138.431 292.208 137.998 291.9 137.514 291.504C137.03 291.093 136.634 290.543 136.326 289.854C136.033 289.165 135.886 288.38 135.886 287.5C135.886 286.019 136.363 284.772 137.316 283.76C137.947 283.085 138.746 282.572 139.714 282.22C140.682 281.868 141.665 281.692 142.662 281.692C145.537 281.692 147.663 282.851 149.042 285.168L147.59 285.762C147.458 285.483 147.201 285.131 146.82 284.706C146.439 284.281 146.05 283.951 145.654 283.716C144.818 283.203 143.806 282.946 142.618 282.946C141.503 282.946 140.565 283.166 139.802 283.606C139.054 284.031 138.504 284.552 138.152 285.168C137.727 285.857 137.514 286.627 137.514 287.478C137.514 288.93 138.02 290.045 139.032 290.822C140.059 291.585 141.239 291.966 142.574 291.966C143.307 291.966 144.048 291.834 144.796 291.57C145.559 291.306 146.182 290.939 146.666 290.47C147.047 290.089 147.429 289.517 147.81 288.754ZM151.264 282.132H159.712C160.812 282.132 161.633 282.389 162.176 282.902C162.733 283.415 163.012 284.09 163.012 284.926C163.012 286.085 162.366 286.869 161.076 287.28C162.63 287.544 163.408 288.439 163.408 289.964C163.408 290.947 163.048 291.702 162.33 292.23C161.626 292.743 160.68 293 159.492 293H151.264V282.132ZM152.716 283.32V286.752H159.008C160.68 286.752 161.516 286.173 161.516 285.014C161.516 283.885 160.709 283.32 159.096 283.32H152.716ZM152.716 287.94V291.812H158.964C159.389 291.812 159.756 291.79 160.064 291.746C160.372 291.702 160.672 291.621 160.966 291.504C161.274 291.387 161.508 291.196 161.67 290.932C161.831 290.668 161.912 290.338 161.912 289.942C161.912 289.223 161.648 288.71 161.12 288.402C160.592 288.094 159.719 287.94 158.502 287.94H152.716ZM165.149 287.566C165.149 286.847 165.259 286.187 165.479 285.586C165.714 284.985 166.014 284.486 166.381 284.09C166.748 283.679 167.085 283.364 167.393 283.144C167.701 282.909 168.016 282.711 168.339 282.55C169.366 282.037 170.627 281.78 172.123 281.78C174.044 281.78 175.599 282.271 176.787 283.254C177.564 283.899 178.092 284.633 178.371 285.454C178.664 286.275 178.811 287.009 178.811 287.654C178.811 288.754 178.51 289.737 177.909 290.602C177.41 291.321 176.67 291.951 175.687 292.494C174.704 293.037 173.458 293.308 171.947 293.308C171.331 293.308 170.759 293.257 170.231 293.154C168.383 292.817 167.004 291.988 166.095 290.668C165.464 289.744 165.149 288.71 165.149 287.566ZM177.183 287.566C177.183 286.143 176.684 285.021 175.687 284.2C174.69 283.379 173.465 282.968 172.013 282.968C170.737 282.968 169.63 283.276 168.691 283.892C167.43 284.728 166.799 285.96 166.799 287.588C166.799 288.644 167.092 289.553 167.679 290.316C168.148 290.917 168.764 291.365 169.527 291.658C170.29 291.937 171.089 292.076 171.925 292.076C173.788 292.076 175.203 291.526 176.171 290.426C176.846 289.649 177.183 288.695 177.183 287.566ZM191.923 276.83H193.309C193.309 278.678 191.784 279.602 188.733 279.602C186.68 279.602 185.118 280.013 184.047 280.834C182.991 281.655 182.346 282.968 182.111 284.772C182.581 283.921 183.329 283.269 184.355 282.814C185.397 282.359 186.511 282.132 187.699 282.132C189.738 282.132 191.322 282.55 192.451 283.386C193.742 284.325 194.387 285.703 194.387 287.522C194.387 288.945 193.903 290.184 192.935 291.24C191.659 292.619 189.855 293.308 187.523 293.308C185.353 293.308 183.673 292.78 182.485 291.724C181.312 290.653 180.725 289.069 180.725 286.972C180.725 285.608 180.835 284.435 181.055 283.452C181.29 282.455 181.613 281.641 182.023 281.01C182.434 280.365 182.991 279.844 183.695 279.448C184.414 279.037 185.184 278.744 186.005 278.568C186.827 278.377 187.824 278.238 188.997 278.15C189.408 278.121 189.76 278.084 190.053 278.04C190.347 277.996 190.647 277.93 190.955 277.842C191.278 277.754 191.52 277.629 191.681 277.468C191.843 277.292 191.923 277.079 191.923 276.83ZM192.781 287.566C192.781 286.202 192.327 285.153 191.417 284.42C190.508 283.687 189.335 283.32 187.897 283.32C187.135 283.32 186.409 283.408 185.719 283.584C185.03 283.745 184.509 283.958 184.157 284.222C182.969 285.102 182.375 286.224 182.375 287.588C182.375 288.644 182.669 289.553 183.255 290.316C183.725 290.917 184.341 291.372 185.103 291.68C185.881 291.973 186.68 292.12 187.501 292.12C189.408 292.12 190.831 291.585 191.769 290.514C192.444 289.751 192.781 288.769 192.781 287.566ZM196.301 287.566C196.301 286.847 196.411 286.187 196.631 285.586C196.866 284.985 197.167 284.486 197.533 284.09C197.9 283.679 198.237 283.364 198.545 283.144C198.853 282.909 199.169 282.711 199.491 282.55C200.518 282.037 201.779 281.78 203.275 281.78C205.197 281.78 206.751 282.271 207.939 283.254C208.717 283.899 209.245 284.633 209.523 285.454C209.817 286.275 209.963 287.009 209.963 287.654C209.963 288.754 209.663 289.737 209.061 290.602C208.563 291.321 207.822 291.951 206.839 292.494C205.857 293.037 204.61 293.308 203.099 293.308C202.483 293.308 201.911 293.257 201.383 293.154C199.535 292.817 198.157 291.988 197.247 290.668C196.617 289.744 196.301 288.71 196.301 287.566ZM208.335 287.566C208.335 286.143 207.837 285.021 206.839 284.2C205.842 283.379 204.617 282.968 203.165 282.968C201.889 282.968 200.782 283.276 199.843 283.892C198.582 284.728 197.951 285.96 197.951 287.588C197.951 288.644 198.245 289.553 198.831 290.316C199.301 290.917 199.917 291.365 200.679 291.658C201.442 291.937 202.241 292.076 203.077 292.076C204.94 292.076 206.355 291.526 207.323 290.426C207.998 289.649 208.335 288.695 208.335 287.566ZM223.912 291.812H225.892V295.64H224.528V293H212.516V295.64H211.152V291.812C212.266 291.504 213.036 290.712 213.462 289.436C213.902 288.145 214.129 286.4 214.144 284.2V282.132H223.912V291.812ZM222.46 283.32H215.508V284.2C215.508 286.165 215.339 287.815 215.002 289.15C214.664 290.485 214.18 291.372 213.55 291.812H222.46V283.32ZM240.582 293H239.13V287.764H229.802V293H228.35V282.132H229.802V286.576H239.13V282.132H240.582V293ZM243.116 287.566C243.116 286.847 243.226 286.187 243.446 285.586C243.681 284.985 243.981 284.486 244.348 284.09C244.715 283.679 245.052 283.364 245.36 283.144C245.668 282.909 245.983 282.711 246.306 282.55C247.333 282.037 248.594 281.78 250.09 281.78C252.011 281.78 253.566 282.271 254.754 283.254C255.531 283.899 256.059 284.633 256.338 285.454C256.631 286.275 256.778 287.009 256.778 287.654C256.778 288.754 256.477 289.737 255.876 290.602C255.377 291.321 254.637 291.951 253.654 292.494C252.671 293.037 251.425 293.308 249.914 293.308C249.298 293.308 248.726 293.257 248.198 293.154C246.35 292.817 244.971 291.988 244.062 290.668C243.431 289.744 243.116 288.71 243.116 287.566ZM255.15 287.566C255.15 286.143 254.651 285.021 253.654 284.2C252.657 283.379 251.432 282.968 249.98 282.968C248.704 282.968 247.597 283.276 246.658 283.892C245.397 284.728 244.766 285.96 244.766 287.588C244.766 288.644 245.059 289.553 245.646 290.316C246.115 290.917 246.731 291.365 247.494 291.658C248.257 291.937 249.056 292.076 249.892 292.076C251.755 292.076 253.17 291.526 254.138 290.426C254.813 289.649 255.15 288.695 255.15 287.566ZM278.459 293H277.007V283.32H267.679V293H266.227V282.132H278.459V293ZM292.697 289.216L293.841 290.03C293.21 290.939 292.484 291.658 291.663 292.186C290.475 292.919 289.126 293.286 287.615 293.286C285.928 293.286 284.506 292.912 283.347 292.164C281.836 291.167 281.081 289.59 281.081 287.434C281.081 285.762 281.682 284.405 282.885 283.364C283.31 282.983 283.934 282.623 284.755 282.286C285.591 281.949 286.515 281.78 287.527 281.78C289.639 281.78 291.238 282.403 292.323 283.65C293.291 284.765 293.797 286.121 293.841 287.72H282.599C282.599 289.04 283.09 290.081 284.073 290.844C285.056 291.592 286.288 291.966 287.769 291.966C289.954 291.966 291.597 291.049 292.697 289.216ZM282.643 286.532H292.081C291.861 285.476 291.348 284.611 290.541 283.936C289.866 283.379 288.803 283.1 287.351 283.1C285.928 283.1 284.799 283.452 283.963 284.156C283.23 284.772 282.79 285.564 282.643 286.532ZM297.757 282.132V283.826C298.123 283.386 298.578 283.019 299.121 282.726C299.663 282.418 300.206 282.213 300.749 282.11C301.306 281.993 301.746 281.919 302.069 281.89C302.406 281.846 302.721 281.824 303.015 281.824C304.203 281.824 305.288 282.073 306.271 282.572C307.253 283.056 308.009 283.789 308.537 284.772C308.991 285.593 309.219 286.517 309.219 287.544C309.219 289.187 308.683 290.521 307.613 291.548C306.439 292.692 304.797 293.264 302.685 293.264C301.922 293.264 301.181 293.169 300.463 292.978C299.744 292.773 299.187 292.523 298.791 292.23C298.351 291.907 298.006 291.607 297.757 291.328V297.114H296.349V282.132H297.757ZM307.613 287.522C307.613 286.847 307.466 286.195 307.173 285.564C306.425 283.951 304.921 283.144 302.663 283.144C300.961 283.144 299.722 283.569 298.945 284.42C298.167 285.256 297.779 286.341 297.779 287.676C297.779 288.952 298.131 289.935 298.835 290.624C299.759 291.504 301.013 291.944 302.597 291.944C304.562 291.944 305.948 291.401 306.755 290.316C307.327 289.553 307.613 288.622 307.613 287.522ZM322.947 289.216L324.091 290.03C323.46 290.939 322.734 291.658 321.913 292.186C320.725 292.919 319.376 293.286 317.865 293.286C316.178 293.286 314.756 292.912 313.597 292.164C312.086 291.167 311.331 289.59 311.331 287.434C311.331 285.762 311.932 284.405 313.135 283.364C313.56 282.983 314.184 282.623 315.005 282.286C315.841 281.949 316.765 281.78 317.777 281.78C319.889 281.78 321.488 282.403 322.573 283.65C323.541 284.765 324.047 286.121 324.091 287.72H312.849C312.849 289.04 313.34 290.081 314.323 290.844C315.306 291.592 316.538 291.966 318.019 291.966C320.204 291.966 321.847 291.049 322.947 289.216ZM312.893 286.532H322.331C322.111 285.476 321.598 284.611 320.791 283.936C320.116 283.379 319.053 283.1 317.601 283.1C316.178 283.1 315.049 283.452 314.213 284.156C313.48 284.772 313.04 285.564 312.893 286.532ZM337.951 291.812H339.931V295.64H338.567V293H326.555V295.64H325.191V291.812C326.305 291.504 327.075 290.712 327.501 289.436C327.941 288.145 328.168 286.4 328.183 284.2V282.132H337.951V291.812ZM336.499 283.32H329.547V284.2C329.547 286.165 329.378 287.815 329.041 289.15C328.703 290.485 328.219 291.372 327.589 291.812H336.499V283.32ZM342.389 282.132H350.837C351.937 282.132 352.758 282.389 353.301 282.902C353.858 283.415 354.137 284.09 354.137 284.926C354.137 286.085 353.491 286.869 352.201 287.28C353.755 287.544 354.533 288.439 354.533 289.964C354.533 290.947 354.173 291.702 353.455 292.23C352.751 292.743 351.805 293 350.617 293H342.389V282.132ZM343.841 283.32V286.752H350.133C351.805 286.752 352.641 286.173 352.641 285.014C352.641 283.885 351.834 283.32 350.221 283.32H343.841ZM343.841 287.94V291.812H350.089C350.514 291.812 350.881 291.79 351.189 291.746C351.497 291.702 351.797 291.621 352.091 291.504C352.399 291.387 352.633 291.196 352.795 290.932C352.956 290.668 353.037 290.338 353.037 289.942C353.037 289.223 352.773 288.71 352.245 288.402C351.717 288.094 350.844 287.94 349.627 287.94H343.841ZM369.408 293H367.956V284.75L358.364 291.68V293H356.912V282.132H358.364V290.14L367.956 283.21V282.132H369.408V293ZM382.606 282.132V283.32H374.026V293H372.574V282.132H382.606ZM397.523 293C397.024 293.059 396.54 293.088 396.071 293.088C395.822 293.088 395.602 293.051 395.411 292.978C395.22 292.905 395.066 292.824 394.949 292.736C394.846 292.633 394.751 292.509 394.663 292.362C394.59 292.201 394.538 292.076 394.509 291.988C394.48 291.885 394.458 291.768 394.443 291.636L394.399 291.416C393.944 291.753 393.548 292.017 393.211 292.208C391.891 292.927 390.366 293.286 388.635 293.286C386.67 293.286 385.291 292.809 384.499 291.856C384.015 291.269 383.773 290.565 383.773 289.744C383.773 288.585 384.228 287.691 385.137 287.06C385.841 286.576 386.89 286.268 388.283 286.136C389.676 285.989 391.715 285.901 394.399 285.872C394.399 285.124 394.274 284.574 394.025 284.222C393.512 283.503 392.14 283.144 389.911 283.144C388.826 283.144 387.968 283.239 387.337 283.43C386.721 283.621 386.296 283.863 386.061 284.156C385.826 284.435 385.621 284.845 385.445 285.388L383.905 285.3C384.257 284.009 384.917 283.107 385.885 282.594C386.838 282.081 388.136 281.824 389.779 281.824C392.419 281.824 394.164 282.293 395.015 283.232C395.499 283.789 395.741 284.589 395.741 285.63V290.404C395.741 290.991 395.844 291.387 396.049 291.592C396.269 291.783 396.636 291.878 397.149 291.878H397.523V293ZM394.399 287.104H393.717C390.608 287.104 388.43 287.295 387.183 287.676C385.951 288.057 385.335 288.761 385.335 289.788C385.335 290.565 385.687 291.13 386.391 291.482C387.095 291.819 387.902 291.988 388.811 291.988C389.676 291.988 390.644 291.819 391.715 291.482C392.8 291.13 393.563 290.58 394.003 289.832C394.267 289.363 394.399 288.644 394.399 287.676V287.104ZM400.581 286.576H404.123C404.372 285.095 405.12 283.929 406.367 283.078C407.628 282.213 409.176 281.78 411.009 281.78C413.092 281.78 414.705 282.286 415.849 283.298C416.597 283.943 417.088 284.611 417.323 285.3C417.572 285.989 417.697 286.774 417.697 287.654C417.697 288.754 417.396 289.737 416.795 290.602C416.296 291.321 415.556 291.951 414.573 292.494C413.59 293.037 412.344 293.308 410.833 293.308C408.853 293.308 407.24 292.817 405.993 291.834C404.746 290.837 404.094 289.48 404.035 287.764H400.581V293H399.129V282.132H400.581V286.576ZM416.091 287.566C416.091 286.803 415.944 286.129 415.651 285.542C415.358 284.955 414.954 284.493 414.441 284.156C413.942 283.804 413.392 283.54 412.791 283.364C412.204 283.188 411.574 283.1 410.899 283.1C409.55 283.1 408.442 283.364 407.577 283.892C407.093 284.185 406.646 284.64 406.235 285.256C405.839 285.872 405.641 286.649 405.641 287.588C405.641 287.896 405.714 288.307 405.861 288.82C406.008 289.333 406.257 289.817 406.609 290.272C407.504 291.416 408.904 291.988 410.811 291.988C412.718 291.988 414.133 291.467 415.057 290.426C415.746 289.663 416.091 288.71 416.091 287.566ZM430.72 283.32H425.55V293H424.098V283.32H418.928V282.132H430.72V283.32ZM443.779 288.754L445.231 289.304C444.644 290.257 444.094 290.976 443.581 291.46C442.305 292.648 440.574 293.242 438.389 293.242C437.494 293.242 436.68 293.132 435.947 292.912C435.551 292.795 435.162 292.633 434.781 292.428C434.399 292.208 433.967 291.9 433.483 291.504C432.999 291.093 432.603 290.543 432.295 289.854C432.001 289.165 431.855 288.38 431.855 287.5C431.855 286.019 432.331 284.772 433.285 283.76C433.915 283.085 434.715 282.572 435.683 282.22C436.651 281.868 437.633 281.692 438.631 281.692C441.505 281.692 443.632 282.851 445.011 285.168L443.559 285.762C443.427 285.483 443.17 285.131 442.789 284.706C442.407 284.281 442.019 283.951 441.623 283.716C440.787 283.203 439.775 282.946 438.587 282.946C437.472 282.946 436.533 283.166 435.771 283.606C435.023 284.031 434.473 284.552 434.121 285.168C433.695 285.857 433.483 286.627 433.483 287.478C433.483 288.93 433.989 290.045 435.001 290.822C436.027 291.585 437.208 291.966 438.543 291.966C439.276 291.966 440.017 291.834 440.765 291.57C441.527 291.306 442.151 290.939 442.635 290.47C443.016 290.089 443.397 289.517 443.779 288.754ZM456.252 288.6H451.61C450.862 288.6 450.268 288.769 449.828 289.106C449.388 289.443 449.102 289.832 448.97 290.272C448.853 290.697 448.692 291.189 448.486 291.746C448.296 292.303 448.061 292.721 447.782 293H446.132C446.47 292.721 446.748 292.318 446.968 291.79C447.203 291.262 447.379 290.771 447.496 290.316C447.614 289.847 447.819 289.407 448.112 288.996C448.42 288.585 448.816 288.329 449.3 288.226C448.552 288.079 448.024 287.801 447.716 287.39C447.408 286.979 447.254 286.4 447.254 285.652C447.254 284.552 447.577 283.694 448.222 283.078C448.882 282.447 449.85 282.132 451.126 282.132H457.704V293H456.252V288.6ZM456.252 283.32H451.06C450.459 283.32 449.916 283.511 449.432 283.892C448.948 284.259 448.706 284.838 448.706 285.63C448.706 286.319 448.919 286.789 449.344 287.038C449.784 287.287 450.371 287.412 451.104 287.412H456.252V283.32ZM461.425 290.822H463.075V293.572C463.075 294.115 462.936 294.562 462.657 294.914C462.393 295.281 461.997 295.493 461.469 295.552V294.76C461.997 294.687 462.261 294.166 462.261 293.198V293H461.425V290.822ZM149.658 321C149.159 321.059 148.675 321.088 148.206 321.088C147.957 321.088 147.737 321.051 147.546 320.978C147.355 320.905 147.201 320.824 147.084 320.736C146.981 320.633 146.886 320.509 146.798 320.362C146.725 320.201 146.673 320.076 146.644 319.988C146.615 319.885 146.593 319.768 146.578 319.636L146.534 319.416C146.079 319.753 145.683 320.017 145.346 320.208C144.026 320.927 142.501 321.286 140.77 321.286C138.805 321.286 137.426 320.809 136.634 319.856C136.15 319.269 135.908 318.565 135.908 317.744C135.908 316.585 136.363 315.691 137.272 315.06C137.976 314.576 139.025 314.268 140.418 314.136C141.811 313.989 143.85 313.901 146.534 313.872C146.534 313.124 146.409 312.574 146.16 312.222C145.647 311.503 144.275 311.144 142.046 311.144C140.961 311.144 140.103 311.239 139.472 311.43C138.856 311.621 138.431 311.863 138.196 312.156C137.961 312.435 137.756 312.845 137.58 313.388L136.04 313.3C136.392 312.009 137.052 311.107 138.02 310.594C138.973 310.081 140.271 309.824 141.914 309.824C144.554 309.824 146.299 310.293 147.15 311.232C147.634 311.789 147.876 312.589 147.876 313.63V318.404C147.876 318.991 147.979 319.387 148.184 319.592C148.404 319.783 148.771 319.878 149.284 319.878H149.658V321ZM146.534 315.104H145.852C142.743 315.104 140.565 315.295 139.318 315.676C138.086 316.057 137.47 316.761 137.47 317.788C137.47 318.565 137.822 319.13 138.526 319.482C139.23 319.819 140.037 319.988 140.946 319.988C141.811 319.988 142.779 319.819 143.85 319.482C144.935 319.13 145.698 318.58 146.138 317.832C146.402 317.363 146.534 316.644 146.534 315.676V315.104ZM168.632 311.32H163.462V321H162.01V311.32H156.84V310.132H168.632V311.32ZM183.539 321C183.04 321.059 182.556 321.088 182.087 321.088C181.837 321.088 181.617 321.051 181.427 320.978C181.236 320.905 181.082 320.824 180.965 320.736C180.862 320.633 180.767 320.509 180.679 320.362C180.605 320.201 180.554 320.076 180.525 319.988C180.495 319.885 180.473 319.768 180.459 319.636L180.415 319.416C179.96 319.753 179.564 320.017 179.227 320.208C177.907 320.927 176.381 321.286 174.651 321.286C172.685 321.286 171.307 320.809 170.515 319.856C170.031 319.269 169.789 318.565 169.789 317.744C169.789 316.585 170.243 315.691 171.153 315.06C171.857 314.576 172.905 314.268 174.299 314.136C175.692 313.989 177.731 313.901 180.415 313.872C180.415 313.124 180.29 312.574 180.041 312.222C179.527 311.503 178.156 311.144 175.927 311.144C174.841 311.144 173.983 311.239 173.353 311.43C172.737 311.621 172.311 311.863 172.077 312.156C171.842 312.435 171.637 312.845 171.461 313.388L169.921 313.3C170.273 312.009 170.933 311.107 171.901 310.594C172.854 310.081 174.152 309.824 175.795 309.824C178.435 309.824 180.18 310.293 181.031 311.232C181.515 311.789 181.757 312.589 181.757 313.63V318.404C181.757 318.991 181.859 319.387 182.065 319.592C182.285 319.783 182.651 319.878 183.165 319.878H183.539V321ZM180.415 315.104H179.733C176.623 315.104 174.445 315.295 173.199 315.676C171.967 316.057 171.351 316.761 171.351 317.788C171.351 318.565 171.703 319.13 172.407 319.482C173.111 319.819 173.917 319.988 174.827 319.988C175.692 319.988 176.66 319.819 177.731 319.482C178.816 319.13 179.579 318.58 180.019 317.832C180.283 317.363 180.415 316.644 180.415 315.676V315.104ZM186.597 310.132V314.576H192.075C192.749 314.576 193.27 314.415 193.637 314.092C194.018 313.755 194.253 313.381 194.341 312.97C194.443 312.545 194.568 312.046 194.715 311.474C194.876 310.902 195.081 310.455 195.331 310.132H196.893C196.555 310.572 196.291 311.078 196.101 311.65C195.91 312.207 195.778 312.684 195.705 313.08C195.631 313.476 195.463 313.872 195.199 314.268C194.949 314.649 194.575 314.935 194.077 315.126C194.693 315.229 195.162 315.493 195.485 315.918C195.822 316.343 196.027 316.813 196.101 317.326C196.189 317.839 196.328 318.455 196.519 319.174C196.724 319.893 196.995 320.501 197.333 321H195.793C195.543 320.677 195.338 320.186 195.177 319.526C195.03 318.866 194.905 318.279 194.803 317.766C194.715 317.253 194.429 316.791 193.945 316.38C193.461 315.969 192.771 315.764 191.877 315.764H186.597V321H185.145V310.132H186.597ZM206.642 310.132H208.006V314.576H210.558C211.247 314.576 211.775 314.415 212.142 314.092C212.509 313.755 212.729 313.381 212.802 312.97C212.875 312.545 212.978 312.046 213.11 311.474C213.242 310.902 213.425 310.455 213.66 310.132H215.222C214.914 310.572 214.672 311.078 214.496 311.65C214.335 312.207 214.232 312.684 214.188 313.08C214.144 313.476 213.99 313.872 213.726 314.268C213.462 314.649 213.073 314.935 212.56 315.126C213.117 315.199 213.557 315.375 213.88 315.654C214.203 315.933 214.423 316.285 214.54 316.71C214.672 317.135 214.767 317.575 214.826 318.03C214.899 318.485 215.009 318.991 215.156 319.548C215.317 320.105 215.537 320.589 215.816 321H214.276C214.056 320.721 213.887 320.34 213.77 319.856C213.667 319.372 213.579 318.91 213.506 318.47C213.433 318.015 213.308 317.583 213.132 317.172C212.956 316.747 212.641 316.409 212.186 316.16C211.731 315.896 211.123 315.764 210.36 315.764H208.006V321H206.642V315.764H204.288C203.525 315.764 202.917 315.896 202.462 316.16C202.007 316.409 201.692 316.747 201.516 317.172C201.34 317.583 201.215 318.015 201.142 318.47C201.069 318.91 200.973 319.372 200.856 319.856C200.753 320.34 200.592 320.721 200.372 321H198.832C199.169 320.516 199.426 319.929 199.602 319.24C199.778 318.551 199.895 317.971 199.954 317.502C200.027 317.018 200.233 316.549 200.57 316.094C200.907 315.639 201.413 315.317 202.088 315.126C201.575 314.935 201.186 314.649 200.922 314.268C200.658 313.872 200.504 313.476 200.46 313.08C200.416 312.684 200.306 312.207 200.13 311.65C199.969 311.078 199.734 310.572 199.426 310.132H200.988C201.223 310.455 201.406 310.902 201.538 311.474C201.67 312.046 201.773 312.545 201.846 312.97C201.919 313.381 202.139 313.755 202.506 314.092C202.873 314.415 203.401 314.576 204.09 314.576H206.642V310.132ZM229.211 317.216L230.355 318.03C229.724 318.939 228.998 319.658 228.177 320.186C226.989 320.919 225.639 321.286 224.129 321.286C222.442 321.286 221.019 320.912 219.861 320.164C218.35 319.167 217.595 317.59 217.595 315.434C217.595 313.762 218.196 312.405 219.399 311.364C219.824 310.983 220.447 310.623 221.269 310.286C222.105 309.949 223.029 309.78 224.041 309.78C226.153 309.78 227.751 310.403 228.837 311.65C229.805 312.765 230.311 314.121 230.355 315.72H219.113C219.113 317.04 219.604 318.081 220.587 318.844C221.569 319.592 222.801 319.966 224.283 319.966C226.468 319.966 228.111 319.049 229.211 317.216ZM219.157 314.532H228.595C228.375 313.476 227.861 312.611 227.055 311.936C226.38 311.379 225.317 311.1 223.865 311.1C222.442 311.1 221.313 311.452 220.477 312.156C219.743 312.772 219.303 313.564 219.157 314.532ZM252.211 321H250.759V312.75L241.167 319.68V321H239.715V310.132H241.167V318.14L250.759 311.21V310.132H252.211V321ZM258.655 315.764V314.576H261.955C262.527 314.576 263.048 314.517 263.517 314.4C264.368 314.092 264.793 313.63 264.793 313.014C264.793 312.662 264.698 312.369 264.507 312.134C264.331 311.885 264.118 311.701 263.869 311.584C263.634 311.452 263.312 311.357 262.901 311.298C262.505 311.225 262.175 311.181 261.911 311.166C261.647 311.151 261.317 311.144 260.921 311.144C258.501 311.144 257.005 311.775 256.433 313.036L254.827 312.596C255.707 310.748 257.738 309.824 260.921 309.824C262.886 309.824 264.272 310.073 265.079 310.572C265.886 311.056 266.289 311.819 266.289 312.86C266.289 313.975 265.644 314.723 264.353 315.104C265.072 315.265 265.644 315.566 266.069 316.006C266.509 316.446 266.729 317.033 266.729 317.766C266.729 318.015 266.707 318.257 266.663 318.492C266.619 318.712 266.487 319.005 266.267 319.372C266.047 319.724 265.746 320.032 265.365 320.296C264.984 320.56 264.412 320.787 263.649 320.978C262.901 321.169 262.021 321.264 261.009 321.264C257.298 321.264 255.113 320.281 254.453 318.316L256.037 317.964C256.272 318.58 256.792 319.064 257.599 319.416C258.479 319.768 259.601 319.944 260.965 319.944C262.27 319.944 263.304 319.761 264.067 319.394C264.844 319.027 265.233 318.485 265.233 317.766C265.233 316.431 264.104 315.764 261.845 315.764H258.655ZM281.821 321H280.501V311.43L276.079 321H274.979L270.535 311.474V321H269.215V310.132H271.371L275.551 319.57L279.665 310.132H281.821V321ZM296.134 317.216L297.278 318.03C296.648 318.939 295.922 319.658 295.1 320.186C293.912 320.919 292.563 321.286 291.052 321.286C289.366 321.286 287.943 320.912 286.784 320.164C285.274 319.167 284.518 317.59 284.518 315.434C284.518 313.762 285.12 312.405 286.322 311.364C286.748 310.983 287.371 310.623 288.192 310.286C289.028 309.949 289.952 309.78 290.964 309.78C293.076 309.78 294.675 310.403 295.76 311.65C296.728 312.765 297.234 314.121 297.278 315.72H286.036C286.036 317.04 286.528 318.081 287.51 318.844C288.493 319.592 289.725 319.966 291.206 319.966C293.392 319.966 295.034 319.049 296.134 317.216ZM286.08 314.532H295.518C295.298 313.476 294.785 312.611 293.978 311.936C293.304 311.379 292.24 311.1 290.788 311.1C289.366 311.1 288.236 311.452 287.4 312.156C286.667 312.772 286.227 313.564 286.08 314.532ZM311.974 321H310.522V315.764H301.194V321H299.742V310.132H301.194V314.576H310.522V310.132H311.974V321ZM324.167 316.6H319.525C318.777 316.6 318.183 316.769 317.743 317.106C317.303 317.443 317.017 317.832 316.885 318.272C316.767 318.697 316.606 319.189 316.401 319.746C316.21 320.303 315.975 320.721 315.697 321H314.047C314.384 320.721 314.663 320.318 314.883 319.79C315.117 319.262 315.293 318.771 315.411 318.316C315.528 317.847 315.733 317.407 316.027 316.996C316.335 316.585 316.731 316.329 317.215 316.226C316.467 316.079 315.939 315.801 315.631 315.39C315.323 314.979 315.169 314.4 315.169 313.652C315.169 312.552 315.491 311.694 316.137 311.078C316.797 310.447 317.765 310.132 319.041 310.132H325.619V321H324.167V316.6ZM324.167 311.32H318.975C318.373 311.32 317.831 311.511 317.347 311.892C316.863 312.259 316.621 312.838 316.621 313.63C316.621 314.319 316.833 314.789 317.259 315.038C317.699 315.287 318.285 315.412 319.019 315.412H324.167V311.32ZM330.241 314.576H333.783C334.032 313.095 334.78 311.929 336.027 311.078C337.288 310.213 338.836 309.78 340.669 309.78C342.752 309.78 344.365 310.286 345.509 311.298C346.257 311.943 346.748 312.611 346.983 313.3C347.232 313.989 347.357 314.774 347.357 315.654C347.357 316.754 347.056 317.737 346.455 318.602C345.956 319.321 345.216 319.951 344.233 320.494C343.25 321.037 342.004 321.308 340.493 321.308C338.513 321.308 336.9 320.817 335.653 319.834C334.406 318.837 333.754 317.48 333.695 315.764H330.241V321H328.789V310.132H330.241V314.576ZM345.751 315.566C345.751 314.803 345.604 314.129 345.311 313.542C345.018 312.955 344.614 312.493 344.101 312.156C343.602 311.804 343.052 311.54 342.451 311.364C341.864 311.188 341.234 311.1 340.559 311.1C339.21 311.1 338.102 311.364 337.237 311.892C336.753 312.185 336.306 312.64 335.895 313.256C335.499 313.872 335.301 314.649 335.301 315.588C335.301 315.896 335.374 316.307 335.521 316.82C335.668 317.333 335.917 317.817 336.269 318.272C337.164 319.416 338.564 319.988 340.471 319.988C342.378 319.988 343.793 319.467 344.717 318.426C345.406 317.663 345.751 316.71 345.751 315.566ZM360.38 311.32H355.21V321H353.758V311.32H348.588V310.132H360.38V311.32ZM373.439 316.754L374.891 317.304C374.304 318.257 373.754 318.976 373.241 319.46C371.965 320.648 370.234 321.242 368.049 321.242C367.154 321.242 366.34 321.132 365.607 320.912C365.211 320.795 364.822 320.633 364.441 320.428C364.059 320.208 363.627 319.9 363.143 319.504C362.659 319.093 362.263 318.543 361.955 317.854C361.661 317.165 361.515 316.38 361.515 315.5C361.515 314.019 361.991 312.772 362.945 311.76C363.575 311.085 364.375 310.572 365.343 310.22C366.311 309.868 367.293 309.692 368.291 309.692C371.165 309.692 373.292 310.851 374.671 313.168L373.219 313.762C373.087 313.483 372.83 313.131 372.449 312.706C372.067 312.281 371.679 311.951 371.283 311.716C370.447 311.203 369.435 310.946 368.247 310.946C367.132 310.946 366.193 311.166 365.431 311.606C364.683 312.031 364.133 312.552 363.781 313.168C363.355 313.857 363.143 314.627 363.143 315.478C363.143 316.93 363.649 318.045 364.661 318.822C365.687 319.585 366.868 319.966 368.203 319.966C368.936 319.966 369.677 319.834 370.425 319.57C371.187 319.306 371.811 318.939 372.295 318.47C372.676 318.089 373.057 317.517 373.439 316.754ZM385.913 316.6H381.271C380.523 316.6 379.929 316.769 379.489 317.106C379.049 317.443 378.763 317.832 378.631 318.272C378.513 318.697 378.352 319.189 378.147 319.746C377.956 320.303 377.721 320.721 377.443 321H375.793C376.13 320.721 376.409 320.318 376.629 319.79C376.863 319.262 377.039 318.771 377.157 318.316C377.274 317.847 377.479 317.407 377.773 316.996C378.081 316.585 378.477 316.329 378.961 316.226C378.213 316.079 377.685 315.801 377.377 315.39C377.069 314.979 376.915 314.4 376.915 313.652C376.915 312.552 377.237 311.694 377.883 311.078C378.543 310.447 379.511 310.132 380.787 310.132H387.365V321H385.913V316.6ZM385.913 311.32H380.721C380.119 311.32 379.577 311.511 379.093 311.892C378.609 312.259 378.367 312.838 378.367 313.63C378.367 314.319 378.579 314.789 379.005 315.038C379.445 315.287 380.031 315.412 380.765 315.412H385.913V311.32ZM148.822 349H147.37V339.32H138.042V349H136.59V338.132H148.822V349ZM151.356 343.566C151.356 342.847 151.466 342.187 151.686 341.586C151.921 340.985 152.221 340.486 152.588 340.09C152.955 339.679 153.292 339.364 153.6 339.144C153.908 338.909 154.223 338.711 154.546 338.55C155.573 338.037 156.834 337.78 158.33 337.78C160.251 337.78 161.806 338.271 162.994 339.254C163.771 339.899 164.299 340.633 164.578 341.454C164.871 342.275 165.018 343.009 165.018 343.654C165.018 344.754 164.717 345.737 164.116 346.602C163.617 347.321 162.877 347.951 161.894 348.494C160.911 349.037 159.665 349.308 158.154 349.308C157.538 349.308 156.966 349.257 156.438 349.154C154.59 348.817 153.211 347.988 152.302 346.668C151.671 345.744 151.356 344.71 151.356 343.566ZM163.39 343.566C163.39 342.143 162.891 341.021 161.894 340.2C160.897 339.379 159.672 338.968 158.22 338.968C156.944 338.968 155.837 339.276 154.898 339.892C153.637 340.728 153.006 341.96 153.006 343.588C153.006 344.644 153.299 345.553 153.886 346.316C154.355 346.917 154.971 347.365 155.734 347.658C156.497 347.937 157.296 348.076 158.132 348.076C159.995 348.076 161.41 347.526 162.378 346.426C163.053 345.649 163.39 344.695 163.39 343.566ZM175.919 338.132V342.576H181.397C182.071 342.576 182.592 342.415 182.959 342.092C183.34 341.755 183.575 341.381 183.663 340.97C183.765 340.545 183.89 340.046 184.037 339.474C184.198 338.902 184.403 338.455 184.653 338.132H186.215C185.877 338.572 185.613 339.078 185.423 339.65C185.232 340.207 185.1 340.684 185.027 341.08C184.953 341.476 184.785 341.872 184.521 342.268C184.271 342.649 183.897 342.935 183.399 343.126C184.015 343.229 184.484 343.493 184.807 343.918C185.144 344.343 185.349 344.813 185.423 345.326C185.511 345.839 185.65 346.455 185.841 347.174C186.046 347.893 186.317 348.501 186.655 349H185.115C184.865 348.677 184.66 348.186 184.499 347.526C184.352 346.866 184.227 346.279 184.125 345.766C184.037 345.253 183.751 344.791 183.267 344.38C182.783 343.969 182.093 343.764 181.199 343.764H175.919V349H174.467V338.132H175.919ZM200.782 349H199.33V339.32H191.828V341.036C191.828 343.999 191.586 346.067 191.102 347.24C190.618 348.413 189.68 349 188.286 349H187.626V347.812H188.286C188.873 347.797 189.32 347.592 189.628 347.196C189.951 346.785 190.178 346.103 190.31 345.15C190.442 344.197 190.508 342.825 190.508 341.036V338.132H200.782V349ZM216.439 349H214.987V340.75L205.395 347.68V349H203.943V338.132H205.395V346.14L214.987 339.21V338.132H216.439V349ZM221.057 338.132V342.576H226.535C227.21 342.576 227.731 342.415 228.097 342.092C228.479 341.755 228.713 341.381 228.801 340.97C228.904 340.545 229.029 340.046 229.175 339.474C229.337 338.902 229.542 338.455 229.791 338.132H231.353C231.016 338.572 230.752 339.078 230.561 339.65C230.371 340.207 230.239 340.684 230.165 341.08C230.092 341.476 229.923 341.872 229.659 342.268C229.41 342.649 229.036 342.935 228.537 343.126C229.153 343.229 229.623 343.493 229.945 343.918C230.283 344.343 230.488 344.813 230.561 345.326C230.649 345.839 230.789 346.455 230.979 347.174C231.185 347.893 231.456 348.501 231.793 349H230.253C230.004 348.677 229.799 348.186 229.637 347.526C229.491 346.866 229.366 346.279 229.263 345.766C229.175 345.253 228.889 344.791 228.405 344.38C227.921 343.969 227.232 343.764 226.337 343.764H221.057V349H219.605V338.132H221.057ZM243.303 338.132H244.865L239.739 349.836C239.504 350.393 239.321 350.797 239.189 351.046C239.072 351.295 238.918 351.559 238.727 351.838C238.536 352.117 238.324 352.344 238.089 352.52C237.458 353.019 236.439 353.268 235.031 353.268C234.312 353.268 233.564 353.18 232.787 353.004V351.64C233.55 351.904 234.283 352.036 234.987 352.036C235.559 352.036 236.043 351.97 236.439 351.838C236.835 351.721 237.158 351.523 237.407 351.244C237.656 350.98 237.84 350.738 237.957 350.518C238.074 350.298 238.214 349.99 238.375 349.594L232.545 338.132H234.283L239.145 347.988L243.303 338.132ZM265.875 349H264.423V340.75L254.831 347.68V349H253.379V338.132H254.831V346.14L264.423 339.21V338.132H265.875V349ZM287.158 344.754L288.61 345.304C288.023 346.257 287.473 346.976 286.96 347.46C285.684 348.648 283.953 349.242 281.768 349.242C280.873 349.242 280.059 349.132 279.326 348.912C278.93 348.795 278.541 348.633 278.16 348.428C277.778 348.208 277.346 347.9 276.862 347.504C276.378 347.093 275.982 346.543 275.674 345.854C275.38 345.165 275.234 344.38 275.234 343.5C275.234 342.019 275.71 340.772 276.664 339.76C277.294 339.085 278.094 338.572 279.062 338.22C280.03 337.868 281.012 337.692 282.01 337.692C284.884 337.692 287.011 338.851 288.39 341.168L286.938 341.762C286.806 341.483 286.549 341.131 286.168 340.706C285.786 340.281 285.398 339.951 285.002 339.716C284.166 339.203 283.154 338.946 281.966 338.946C280.851 338.946 279.912 339.166 279.15 339.606C278.402 340.031 277.852 340.552 277.5 341.168C277.074 341.857 276.862 342.627 276.862 343.478C276.862 344.93 277.368 346.045 278.38 346.822C279.406 347.585 280.587 347.966 281.922 347.966C282.655 347.966 283.396 347.834 284.144 347.57C284.906 347.306 285.53 346.939 286.014 346.47C286.395 346.089 286.776 345.517 287.158 344.754ZM292.063 338.132V342.576H297.541C298.216 342.576 298.737 342.415 299.103 342.092C299.485 341.755 299.719 341.381 299.807 340.97C299.91 340.545 300.035 340.046 300.181 339.474C300.343 338.902 300.548 338.455 300.797 338.132H302.359C302.022 338.572 301.758 339.078 301.567 339.65C301.377 340.207 301.245 340.684 301.171 341.08C301.098 341.476 300.929 341.872 300.665 342.268C300.416 342.649 300.042 342.935 299.543 343.126C300.159 343.229 300.629 343.493 300.951 343.918C301.289 344.343 301.494 344.813 301.567 345.326C301.655 345.839 301.795 346.455 301.985 347.174C302.191 347.893 302.462 348.501 302.799 349H301.259C301.01 348.677 300.805 348.186 300.643 347.526C300.497 346.866 300.372 346.279 300.269 345.766C300.181 345.253 299.895 344.791 299.411 344.38C298.927 343.969 298.238 343.764 297.343 343.764H292.063V349H290.611V338.132H292.063ZM306.587 338.132V339.826C306.953 339.386 307.408 339.019 307.951 338.726C308.493 338.418 309.036 338.213 309.579 338.11C310.136 337.993 310.576 337.919 310.899 337.89C311.236 337.846 311.551 337.824 311.845 337.824C313.033 337.824 314.118 338.073 315.101 338.572C316.083 339.056 316.839 339.789 317.367 340.772C317.821 341.593 318.049 342.517 318.049 343.544C318.049 345.187 317.513 346.521 316.443 347.548C315.269 348.692 313.627 349.264 311.515 349.264C310.752 349.264 310.011 349.169 309.293 348.978C308.574 348.773 308.017 348.523 307.621 348.23C307.181 347.907 306.836 347.607 306.587 347.328V353.114H305.179V338.132H306.587ZM316.443 343.522C316.443 342.847 316.296 342.195 316.003 341.564C315.255 339.951 313.751 339.144 311.493 339.144C309.791 339.144 308.552 339.569 307.775 340.42C306.997 341.256 306.609 342.341 306.609 343.676C306.609 344.952 306.961 345.935 307.665 346.624C308.589 347.504 309.843 347.944 311.427 347.944C313.392 347.944 314.778 347.401 315.585 346.316C316.157 345.553 316.443 344.622 316.443 343.522ZM320.073 343.566C320.073 342.847 320.183 342.187 320.403 341.586C320.638 340.985 320.938 340.486 321.305 340.09C321.672 339.679 322.009 339.364 322.317 339.144C322.625 338.909 322.94 338.711 323.263 338.55C324.29 338.037 325.551 337.78 327.047 337.78C328.968 337.78 330.523 338.271 331.711 339.254C332.488 339.899 333.016 340.633 333.295 341.454C333.588 342.275 333.735 343.009 333.735 343.654C333.735 344.754 333.434 345.737 332.833 346.602C332.334 347.321 331.594 347.951 330.611 348.494C329.628 349.037 328.382 349.308 326.871 349.308C326.255 349.308 325.683 349.257 325.155 349.154C323.307 348.817 321.928 347.988 321.019 346.668C320.388 345.744 320.073 344.71 320.073 343.566ZM332.107 343.566C332.107 342.143 331.608 341.021 330.611 340.2C329.614 339.379 328.389 338.968 326.937 338.968C325.661 338.968 324.554 339.276 323.615 339.892C322.354 340.728 321.723 341.96 321.723 343.588C321.723 344.644 322.016 345.553 322.603 346.316C323.072 346.917 323.688 347.365 324.451 347.658C325.214 347.937 326.013 348.076 326.849 348.076C328.712 348.076 330.127 347.526 331.095 346.426C331.77 345.649 332.107 344.695 332.107 343.566ZM348.079 349H346.627V339.32H339.125V341.036C339.125 343.999 338.883 346.067 338.399 347.24C337.915 348.413 336.976 349 335.583 349H334.923V347.812H335.583C336.17 347.797 336.617 347.592 336.925 347.196C337.248 346.785 337.475 346.103 337.607 345.15C337.739 344.197 337.805 342.825 337.805 341.036V338.132H348.079V349ZM360.414 338.132H361.976L356.85 349.836C356.616 350.393 356.432 350.797 356.3 351.046C356.183 351.295 356.029 351.559 355.838 351.838C355.648 352.117 355.435 352.344 355.2 352.52C354.57 353.019 353.55 353.268 352.142 353.268C351.424 353.268 350.676 353.18 349.898 353.004V351.64C350.661 351.904 351.394 352.036 352.098 352.036C352.67 352.036 353.154 351.97 353.55 351.838C353.946 351.721 354.269 351.523 354.518 351.244C354.768 350.98 354.951 350.738 355.068 350.518C355.186 350.298 355.325 349.99 355.486 349.594L349.656 338.132H351.394L356.256 347.988L360.414 338.132ZM364.462 349H362.768V346.822H364.462V349Z" fill="black"/>
<ellipse rx="145.5" ry="88" transform="matrix(-0.962936 0.269731 0.269731 0.962936 548.85 378.984)" fill="#FFCCD6"/>
<path d="M479.461 389.128L482.991 388.018C483.022 388.427 483.004 388.859 482.937 389.313C482.883 389.764 482.722 390.297 482.454 390.912C482.2 391.523 481.844 392.103 481.388 392.652C480.94 393.185 480.29 393.718 479.438 394.251C478.602 394.794 477.624 395.241 476.505 395.593C474.038 396.37 471.877 396.365 470.022 395.578C468.163 394.779 466.872 393.229 466.147 390.927C465.487 388.828 465.655 386.895 466.65 385.129C467.655 383.345 469.499 382.031 472.182 381.187C474.192 380.554 476.001 380.439 477.609 380.842C479.213 381.232 480.42 381.935 481.229 382.953L477.691 384.569C476.281 383.419 474.705 383.118 472.962 383.667C472.11 383.935 471.406 384.317 470.849 384.814C470.293 385.31 469.912 385.856 469.708 386.452C469.517 387.043 469.414 387.627 469.4 388.205C469.399 388.778 469.482 389.332 469.65 389.866C470.067 391.189 470.868 392.16 472.055 392.779C473.255 393.394 474.574 393.475 476.011 393.023C478.059 392.379 479.209 391.08 479.461 389.128ZM496.934 383.19C497.226 384.119 497.289 385.007 497.123 385.856C496.953 386.693 496.601 387.418 496.068 388.034C495.547 388.645 494.944 389.17 494.257 389.61C493.571 390.049 492.827 390.395 492.026 390.647C491.454 390.827 490.865 390.956 490.261 391.035C489.673 391.122 489.036 391.14 488.35 391.091C487.672 391.025 487.044 390.873 486.466 390.635C485.888 390.398 485.355 390.013 484.866 389.482C484.374 388.938 484.003 388.272 483.755 387.483C483.275 385.957 483.479 384.516 484.366 383.161C485.262 381.789 486.747 380.776 488.82 380.124C489.977 379.76 491.097 379.61 492.18 379.675C493.263 379.74 494.242 380.075 495.117 380.68C495.988 381.272 496.594 382.109 496.934 383.19ZM493.709 384.268C493.429 383.378 492.904 382.774 492.133 382.457C491.358 382.128 490.475 382.119 489.483 382.432C488.427 382.764 487.68 383.299 487.242 384.038C486.804 384.777 486.728 385.605 487.016 386.52C487.285 387.372 487.802 387.972 488.567 388.318C489.342 388.647 490.257 388.646 491.313 388.314C491.898 388.13 492.381 387.887 492.761 387.585C493.137 387.271 493.4 386.972 493.548 386.688C493.705 386.387 493.799 386.064 493.83 385.718C493.87 385.357 493.872 385.076 493.838 384.877C493.812 384.662 493.769 384.459 493.709 384.268ZM505.402 370.756L508.798 369.687C508.924 370.486 508.841 371.176 508.548 371.758C508.268 372.335 507.86 372.792 507.323 373.128C506.782 373.452 506.17 373.75 505.486 374.021C504.815 374.288 504.151 374.553 503.493 374.816C502.835 375.079 502.246 375.383 501.725 375.728C501.201 376.061 500.814 376.518 500.564 377.1C500.326 377.678 500.291 378.367 500.459 379.167C501.13 377.614 502.56 376.493 504.748 375.805C506.325 375.309 507.797 375.3 509.163 375.778C510.539 376.24 511.458 377.209 511.923 378.684C512.151 379.409 512.225 380.113 512.146 380.794C512.076 381.459 511.88 382.059 511.559 382.594C511.251 383.124 510.846 383.615 510.345 384.066C509.857 384.513 509.325 384.89 508.751 385.196C508.189 385.499 507.59 385.75 506.954 385.95L507.145 385.89C505.275 386.479 503.637 386.603 502.23 386.262C500.378 385.797 499.106 384.464 498.414 382.263C498.014 380.992 497.799 379.843 497.77 378.818C497.741 377.793 497.869 376.956 498.154 376.307C498.439 375.658 498.812 375.087 499.271 374.593C499.74 374.082 500.259 373.688 500.828 373.411C501.398 373.134 501.961 372.88 502.518 372.649C503.083 372.401 503.588 372.207 504.033 372.067C504.487 371.91 504.84 371.722 505.092 371.503C505.358 371.28 505.461 371.031 505.402 370.756ZM508.64 379.78C508.388 378.979 507.88 378.453 507.117 378.204C506.354 377.955 505.495 377.981 504.541 378.281C503.575 378.585 502.833 379.07 502.315 379.736C501.807 380.385 501.674 381.098 501.919 381.874C502.179 382.7 502.677 383.284 503.413 383.626C504.162 383.963 505.109 383.952 506.254 383.592C507.119 383.32 507.808 382.865 508.32 382.229C508.846 381.588 508.952 380.772 508.64 379.78ZM523.504 376.76L526.869 376.057C526.813 376.369 526.723 376.683 526.6 377.002C526.476 377.32 526.274 377.698 525.992 378.136C525.719 378.558 525.392 378.961 525.01 379.347C524.637 379.716 524.131 380.085 523.492 380.453C522.87 380.831 522.178 381.14 521.415 381.38C520.219 381.756 519.124 381.919 518.13 381.868C517.144 381.801 516.336 381.566 515.706 381.163C515.076 380.76 514.57 380.304 514.186 379.796C513.798 379.275 513.509 378.709 513.317 378.099C512.812 376.496 513.003 375.059 513.889 373.788C514.788 372.513 516.217 371.567 518.175 370.951C520.223 370.307 521.95 370.33 523.355 371.02C524.773 371.706 525.722 372.812 526.202 374.338L526.316 374.701L516.739 377.714C517.574 379.213 518.951 379.66 520.872 379.055C521.482 378.863 522.04 378.569 522.544 378.173C523.044 377.764 523.365 377.293 523.504 376.76ZM516.288 375.948L522.298 374.057C522.012 373.462 521.546 373.112 520.898 373.009C520.247 372.892 519.552 372.95 518.814 373.182C518.064 373.418 517.457 373.777 516.993 374.258C516.526 374.727 516.291 375.29 516.288 375.948ZM529.952 367.665L530.3 368.772C530.999 367.573 532.099 366.738 533.6 366.266C535.177 365.77 536.604 365.838 537.879 366.471C539.163 367.087 540.047 368.165 540.532 369.704C540.956 371.052 540.874 372.371 540.288 373.66C539.713 374.944 538.587 375.851 536.908 376.379C535.369 376.863 533.943 376.795 532.629 376.174L534.142 380.982L530.994 381.972L526.804 368.656L529.952 367.665ZM531.483 372.53C531.775 373.459 532.291 374.079 533.033 374.391C533.77 374.69 534.552 374.709 535.378 374.449C536.294 374.161 536.907 373.689 537.218 373.032C537.537 372.358 537.555 371.57 537.27 370.667C537.002 369.815 536.545 369.204 535.897 368.835C535.246 368.453 534.456 368.408 533.527 368.7C532.548 369.008 531.898 369.52 531.578 370.236C531.259 370.951 531.227 371.716 531.483 372.53ZM556.188 370.02L553.04 371.01L551.3 365.477L546.837 371.285L547.317 372.811L544.169 373.801L541.132 364.148L544.28 363.157L545.96 368.499L550.423 362.692L550.003 361.357L553.151 360.366L556.188 370.02ZM573.601 360.767L576.951 360.217C576.744 361.47 576.16 362.569 575.199 363.514C574.239 364.459 573.11 365.136 571.813 365.544C570.706 365.892 569.675 366.035 568.719 365.972C567.771 365.893 566.984 365.658 566.358 365.268C565.741 364.862 565.228 364.408 564.819 363.908C564.419 363.391 564.129 362.846 563.948 362.274C563.672 361.396 563.611 360.556 563.763 359.753C563.916 358.95 564.234 358.249 564.716 357.65C565.199 357.051 565.777 356.534 566.45 356.098C567.133 355.646 567.875 355.293 568.676 355.041C569.172 354.885 569.703 354.774 570.269 354.708C570.848 354.637 571.46 354.627 572.104 354.676C572.745 354.712 573.368 354.872 573.975 355.156C574.577 355.428 575.089 355.812 575.511 356.308L572.338 357.684C571.499 357.151 570.527 357.059 569.42 357.407C568.568 357.675 567.906 358.17 567.434 358.892C566.962 359.613 566.86 360.4 567.129 361.252C567.205 361.494 567.325 361.742 567.489 361.998C567.666 362.25 567.91 362.516 568.222 362.795C568.542 363.058 568.959 363.227 569.472 363.303C569.998 363.375 570.573 363.313 571.196 363.117C571.361 363.065 571.535 362.997 571.718 362.911C571.901 362.826 572.139 362.695 572.433 362.518C572.723 362.329 572.974 362.083 573.186 361.778C573.41 361.47 573.549 361.133 573.601 360.767ZM576.512 353.016L584.372 350.543C585.695 350.127 586.682 350.11 587.333 350.492C587.83 350.783 588.179 351.247 588.379 351.883C588.703 352.913 588.383 353.761 587.418 354.428C588.913 354.335 589.862 354.931 590.266 356.216C590.486 356.915 590.516 357.5 590.357 357.969C590.227 358.402 590.001 358.773 589.68 359.084C589.358 359.395 589.068 359.605 588.809 359.714C588.55 359.824 588.204 359.947 587.772 360.083L579.549 362.67L576.512 353.016ZM580.83 355.746L584.665 354.54C585.441 354.295 585.725 353.843 585.516 353.181C585.328 352.584 584.846 352.407 584.071 352.651L580.236 353.857L580.83 355.746ZM582.121 359.848L586.089 358.599C587.043 358.299 587.396 357.755 587.148 356.966C586.92 356.241 586.379 356.013 585.527 356.281L581.406 357.578L582.121 359.848ZM604.267 349.421C604.559 350.349 604.622 351.238 604.456 352.087C604.285 352.923 603.934 353.649 603.4 354.264C602.88 354.875 602.276 355.4 601.59 355.84C600.904 356.28 600.16 356.625 599.358 356.877C598.786 357.058 598.198 357.187 597.593 357.265C597.006 357.352 596.369 357.371 595.682 357.321C595.004 357.255 594.376 357.103 593.799 356.866C593.221 356.628 592.687 356.244 592.199 355.713C591.706 355.169 591.336 354.502 591.088 353.714C590.607 352.188 590.811 350.747 591.699 349.391C592.595 348.019 594.079 347.007 596.152 346.355C597.31 345.99 598.43 345.841 599.513 345.905C600.595 345.97 601.574 346.305 602.45 346.91C603.321 347.503 603.927 348.34 604.267 349.421ZM601.041 350.498C600.761 349.608 600.236 349.005 599.465 348.688C598.691 348.358 597.808 348.35 596.816 348.662C595.76 348.994 595.013 349.53 594.574 350.269C594.136 351.008 594.061 351.835 594.349 352.751C594.617 353.603 595.134 354.202 595.9 354.548C596.674 354.877 597.59 354.876 598.645 354.544C599.23 354.36 599.713 354.117 600.093 353.816C600.47 353.502 600.732 353.202 600.88 352.918C601.037 352.617 601.131 352.294 601.162 351.949C601.202 351.587 601.205 351.307 601.17 351.108C601.144 350.892 601.101 350.689 601.041 350.498ZM609.195 346.528L611.084 345.934C611.039 344.592 611.471 343.408 612.378 342.382C613.294 341.339 614.629 340.541 616.384 339.989C617.542 339.625 618.662 339.475 619.744 339.54C620.827 339.605 621.806 339.94 622.681 340.545C623.553 341.137 624.159 341.974 624.499 343.055C624.791 343.984 624.854 344.872 624.688 345.721C624.517 346.558 624.166 347.283 623.632 347.898C623.112 348.51 622.508 349.035 621.822 349.474C621.135 349.914 620.392 350.26 619.59 350.512C618.916 350.724 618.22 350.866 617.502 350.938C616.797 351.007 616.063 350.986 615.302 350.876C614.54 350.766 613.83 350.486 613.172 350.036C612.522 349.57 612.012 348.948 611.641 348.17L609.886 348.722L611.146 352.728L607.998 353.719L604.961 344.065L608.109 343.075L609.195 346.528ZM621.273 344.133C620.993 343.242 620.468 342.639 619.697 342.322C618.923 341.993 618.04 341.984 617.047 342.296C615.992 342.629 615.245 343.164 614.806 343.903C614.368 344.642 614.293 345.469 614.581 346.385C614.853 347.25 615.372 347.856 616.138 348.202C616.916 348.544 617.833 348.549 618.889 348.217C619.983 347.872 620.722 347.333 621.105 346.597C621.501 345.857 621.558 345.036 621.273 344.133ZM476.907 411.611L477.958 414.95L481.106 413.959C481.602 413.803 481.936 413.579 482.11 413.287C482.296 412.991 482.369 412.688 482.328 412.38C482.283 412.058 482.262 411.659 482.266 411.183C482.278 410.69 482.368 410.242 482.535 409.84L485.874 408.79C485.633 409.313 485.493 409.867 485.454 410.453C485.414 411.038 485.419 411.519 485.467 411.895C485.516 412.271 485.471 412.642 485.334 413.006C485.194 413.358 484.913 413.642 484.491 413.858C485.062 413.763 485.566 413.898 486.003 414.264C486.448 414.613 486.793 415.042 487.037 415.552C487.294 416.059 487.61 416.595 487.984 417.163C488.358 417.73 488.744 418.133 489.14 418.371L485.801 419.422C485.492 419.239 485.194 418.914 484.907 418.445C484.633 417.972 484.406 417.54 484.227 417.149C484.044 416.746 483.756 416.431 483.364 416.205C482.967 415.966 482.495 415.933 481.948 416.105L478.648 417.144L479.945 421.264L476.797 422.255L473.759 412.601L476.907 411.611ZM501.906 408.883C502.198 409.811 502.261 410.7 502.094 411.549C501.924 412.385 501.572 413.111 501.039 413.726C500.519 414.337 499.915 414.862 499.229 415.302C498.542 415.742 497.799 416.087 496.997 416.34C496.425 416.52 495.837 416.649 495.232 416.727C494.645 416.814 494.007 416.833 493.321 416.783C492.643 416.717 492.015 416.565 491.437 416.328C490.859 416.09 490.326 415.706 489.838 415.175C489.345 414.631 488.975 413.964 488.726 413.176C488.246 411.65 488.45 410.209 489.337 408.853C490.233 407.481 491.718 406.469 493.791 405.817C494.949 405.452 496.069 405.303 497.151 405.367C498.234 405.432 499.213 405.767 500.088 406.372C500.96 406.965 501.565 407.802 501.906 408.883ZM498.68 409.96C498.4 409.07 497.875 408.467 497.104 408.15C496.33 407.82 495.446 407.812 494.454 408.124C493.399 408.456 492.652 408.992 492.213 409.731C491.775 410.47 491.7 411.297 491.988 412.213C492.256 413.065 492.773 413.664 493.539 414.01C494.313 414.339 495.228 414.338 496.284 414.006C496.869 413.822 497.352 413.579 497.732 413.278C498.109 412.964 498.371 412.664 498.519 412.38C498.676 412.079 498.77 411.756 498.801 411.411C498.841 411.049 498.844 410.769 498.809 410.57C498.783 410.354 498.74 410.151 498.68 409.96ZM518.877 409.015L516.016 409.916L513.939 403.315L513.173 410.81L511.342 411.386L506.422 405.679L508.499 412.28L505.637 413.181L502.6 403.527L506.53 402.291L511.251 407.766L511.929 400.592L515.84 399.362L518.877 409.015ZM533.564 404.394L530.417 405.385L528.07 397.925L522.461 399.69L524.808 407.149L521.66 408.14L518.623 398.486L530.527 394.741L533.564 404.394ZM547.328 394.592C547.62 395.52 547.683 396.409 547.517 397.258C547.346 398.094 546.995 398.82 546.461 399.435C545.941 400.046 545.337 400.571 544.651 401.011C543.964 401.451 543.221 401.796 542.419 402.049C541.847 402.229 541.259 402.358 540.654 402.436C540.067 402.523 539.43 402.542 538.743 402.492C538.065 402.426 537.437 402.274 536.859 402.037C536.281 401.799 535.748 401.415 535.26 400.884C534.767 400.34 534.397 399.673 534.149 398.885C533.668 397.359 533.872 395.918 534.759 394.562C535.656 393.19 537.14 392.178 539.213 391.526C540.371 391.161 541.491 391.012 542.573 391.076C543.656 391.141 544.635 391.476 545.51 392.081C546.382 392.674 546.987 393.511 547.328 394.592ZM544.102 395.669C543.822 394.779 543.297 394.176 542.526 393.859C541.752 393.529 540.868 393.521 539.876 393.833C538.821 394.165 538.074 394.701 537.635 395.44C537.197 396.179 537.122 397.006 537.41 397.922C537.678 398.774 538.195 399.373 538.961 399.719C539.735 400.049 540.65 400.047 541.706 399.715C542.291 399.531 542.774 399.288 543.154 398.987C543.531 398.673 543.793 398.374 543.941 398.089C544.098 397.788 544.192 397.465 544.223 397.12C544.263 396.758 544.266 396.478 544.231 396.279C544.205 396.063 544.162 395.86 544.102 395.669ZM552.64 391.851L554.738 391.191C555.807 390.855 556.241 390.369 556.041 389.733C555.805 388.982 554.987 388.827 553.588 389.267C552.024 389.76 551.289 390.424 551.385 391.261L548.056 392.077C548.118 390.897 548.548 389.909 549.346 389.113C550.144 388.317 551.376 387.657 553.042 387.133C554.912 386.545 556.332 386.37 557.302 386.61C558.268 386.838 558.895 387.409 559.183 388.325C559.507 389.355 559.187 390.203 558.223 390.87C559.667 390.751 560.597 391.353 561.013 392.676C561.113 392.994 561.172 393.29 561.188 393.565C561.213 393.822 561.153 394.142 561.007 394.523C560.874 394.9 560.636 395.255 560.293 395.586C559.947 395.905 559.413 396.254 558.694 396.634C557.975 397.014 557.088 397.371 556.032 397.703C554.201 398.279 552.726 398.435 551.609 398.172C550.492 397.908 549.615 397.255 548.979 396.211L552.278 394.9C552.878 395.83 553.979 396.042 555.582 395.538C557.261 395.01 557.974 394.345 557.722 393.544C557.582 393.099 557.327 392.843 556.957 392.778C556.6 392.709 556.027 392.798 555.238 393.046L553.216 393.683L552.64 391.851ZM576.046 391.029L572.898 392.019L571.157 386.486L566.694 392.293L567.174 393.82L564.026 394.81L560.989 385.157L564.137 384.166L565.818 389.508L570.281 383.701L569.86 382.365L573.008 381.375L576.046 391.029ZM578.949 379.506L581.296 386.966L586.866 385.213L584.519 377.753L587.667 376.763L590.014 384.222L591.54 383.742L593.011 388.416L590.054 389.347L589.274 386.867L578.838 390.15L575.801 380.497L578.949 379.506ZM606.507 381.445L603.359 382.435L601.618 376.902L597.156 382.709L597.636 384.236L594.488 385.226L591.451 375.573L594.598 374.582L596.279 379.924L600.742 374.117L600.322 372.781L603.47 371.791L606.507 381.445ZM610.496 373.375L612.385 372.781C612.34 371.439 612.772 370.255 613.679 369.229C614.595 368.186 615.93 367.388 617.685 366.836C618.843 366.472 619.963 366.322 621.045 366.387C622.128 366.452 623.107 366.787 623.982 367.392C624.854 367.984 625.46 368.821 625.8 369.902C626.092 370.831 626.155 371.72 625.989 372.569C625.818 373.405 625.467 374.131 624.933 374.746C624.413 375.357 623.809 375.882 623.123 376.322C622.436 376.761 621.693 377.107 620.891 377.359C620.217 377.571 619.521 377.713 618.803 377.786C618.098 377.854 617.364 377.833 616.603 377.723C615.841 377.613 615.131 377.333 614.473 376.884C613.823 376.417 613.313 375.795 612.942 375.017L611.187 375.569L612.447 379.576L609.299 380.566L606.262 370.913L609.41 369.922L610.496 373.375ZM622.574 370.98C622.294 370.09 621.769 369.486 620.998 369.17C620.224 368.84 619.341 368.831 618.348 369.144C617.293 369.476 616.546 370.011 616.107 370.75C615.669 371.489 615.594 372.317 615.882 373.232C616.154 374.097 616.673 374.703 617.439 375.049C618.217 375.391 619.134 375.396 620.19 375.064C621.284 374.72 622.023 374.18 622.406 373.444C622.802 372.704 622.859 371.883 622.574 370.98ZM625.925 360.533L629.035 359.554L630.655 364.705L631.528 369.211L629.372 369.89L627.545 365.684L625.925 360.533ZM633.272 373.024L630.163 374.002L629.412 371.617L632.522 370.639L633.272 373.024Z" fill="black"/>
<circle cx="240.006" cy="154" r="11" fill="#F3A2BC"/>
<circle cx="374.506" cy="449.5" r="20.5" fill="#21B8EB"/>
<circle cx="325.006" cy="419" r="10" fill="#FFEC51"/>
</svg>
