<svg width="335" height="210" viewBox="0 0 335 210" fill="none" xmlns="http://www.w3.org/2000/svg">
<path d="M5 99.0404C23.3032 65.8659 51.8609 38.7466 86.2808 22.2538C99.4225 15.9567 113.53 10.7079 127.884 8.00073C139.421 5.82489 156.092 2.48835 167.048 8.64275C184.311 18.3401 178.765 42.6469 169.231 55.8961C154.245 76.7203 131.659 92.1716 114.145 110.854C98.6942 127.334 84.2709 143.496 76.2652 164.784C72.0662 175.95 67.7831 193.127 79.6037 201.123C93.5276 210.542 112.626 195.091 123.005 186.741C145.105 168.963 160.02 143.808 183.356 127.611C199.306 116.539 216.603 105.164 236.836 105.525C245.028 105.671 259.949 106.159 263.673 114.77C268.55 126.049 259.255 139.785 254.043 149.311C249.263 158.046 242.106 165.266 235.36 172.553C230.034 178.304 219.181 186.558 223.547 195.601C227.572 203.939 233.37 205.207 242.101 203.498C262.447 199.518 278.225 189.744 296.096 180.064C305.132 175.169 320.161 166.617 329.738 173.002" stroke="white" stroke-width="10" stroke-linecap="round" stroke-linejoin="round"/>
<path d="M109.028 50.7871C113.828 51.6796 118.448 53.8758 123.204 55.1018" stroke="white" stroke-width="7" stroke-linecap="round" stroke-linejoin="round"/>
<path d="M113.904 60.4301C115.283 58.3736 115.678 55.8451 116.272 53.4783C116.919 50.9002 117.544 48.3164 118.151 45.729" stroke="white" stroke-width="7" stroke-linecap="round" stroke-linejoin="round"/>
</svg>
