<svg width="468" height="232" viewBox="0 0 468 232" fill="none" xmlns="http://www.w3.org/2000/svg">
<path d="M262.374 135.588C264.378 128.173 267.945 122.076 272.122 115.991C274.954 111.865 277.697 107.561 281.695 104.314C282.361 103.773 288.223 100.601 288.33 104.583C288.471 109.852 285.893 114.3 285.143 119.203C284.051 126.341 283.571 134.008 284.564 141.96C284.653 142.667 286.178 153.277 289.242 151.972C290.523 151.426 292.716 148.977 293.327 148.235C296.455 144.441 298.803 140.083 301.688 136.116C310.925 123.412 322.422 109.88 340.424 105.097C342.808 104.464 352.505 102.244 356.495 106.255C360.368 110.149 354.86 116.137 353.574 117.96C346.777 127.594 338.58 136.217 332.425 146.313C330.804 148.972 320.573 162.903 332.027 167.842C338.795 170.759 345.349 167.006 349.482 165.472C364.069 160.056 377.796 153.672 392.705 148.626C412.727 141.85 434.222 135.152 459.065 135.19C459.976 135.191 467.495 135.281 463.974 136.769" stroke="white" stroke-width="6" stroke-linecap="round" stroke-linejoin="round"/>
<g clip-path="url(#clip0)">
<path d="M7.03542 12.606C3.15089 19.1181 196.252 141.466 226.583 159.558C256.914 177.651 261.888 173.456 265.773 166.944C269.657 160.432 270.99 154.065 240.654 135.969C210.318 117.874 10.92 6.09382 7.03542 12.606ZM259.001 162.905C257.279 165.791 247.944 163.398 238.158 157.561C228.373 151.724 221.832 144.646 223.554 141.76C225.275 138.874 234.611 141.267 244.396 147.104C254.181 152.941 260.722 160.018 259.001 162.905Z" fill="white"/>
</g>
<defs>
<clipPath id="clip0">
<rect width="27.4667" height="301.273" fill="white" transform="translate(0 24.4004) rotate(-59.1837)"/>
</clipPath>
</defs>
</svg>
