<svg width="476" height="273" viewBox="0 0 476 273" fill="none" xmlns="http://www.w3.org/2000/svg">
<rect y="39.6406" width="142.643" height="12.1851" transform="rotate(-60.0828 0 39.6406)" fill="white"/>
<rect x="33.4453" y="58.8867" width="142.643" height="12.1851" transform="rotate(-60.0828 33.4453 58.8867)" fill="white"/>
<rect x="66.8926" y="78.127" width="142.643" height="11.1696" transform="rotate(-60.0828 66.8926 78.127)" fill="white"/>
<rect x="99.4531" y="96.8652" width="142.643" height="12.1851" transform="rotate(-60.0828 99.4531 96.8652)" fill="white"/>
<rect x="132.9" y="116.109" width="142.643" height="12.1851" transform="rotate(-60.0828 132.9 116.109)" fill="white"/>
<rect x="161.062" y="132.314" width="142.643" height="12.1851" transform="rotate(-60.0828 161.062 132.314)" fill="white"/>
<rect x="189.225" y="148.521" width="142.643" height="12.1851" transform="rotate(-60.0828 189.225 148.521)" fill="white"/>
<rect x="217.391" y="164.729" width="142.643" height="12.1851" transform="rotate(-60.0828 217.391 164.729)" fill="white"/>
<rect x="245.555" y="180.934" width="142.643" height="12.1851" transform="rotate(-60.0828 245.555 180.934)" fill="white"/>
<rect x="273.717" y="197.143" width="142.643" height="12.1851" transform="rotate(-60.0828 273.717 197.143)" fill="white"/>
<rect x="308.043" y="216.893" width="35.933" height="110.681" transform="rotate(-60.0828 308.043 216.893)" fill="white"/>
<rect x="334.654" y="170.643" width="35.933" height="109.666" transform="rotate(-60.0828 334.654 170.643)" fill="white"/>
<rect x="361.26" y="124.402" width="35.933" height="110.681" transform="rotate(-60.0828 361.26 124.402)" fill="white"/>
</svg>
