<svg width="476" height="357" viewBox="0 0 476 357" fill="none" xmlns="http://www.w3.org/2000/svg">
<rect x="0.000244141" y="123.639" width="142.643" height="12.1851" transform="rotate(-60.0828 0.000244141 123.639)" fill="white"/>
<rect x="33.4458" y="142.885" width="142.643" height="12.1851" transform="rotate(-60.0828 33.4458 142.885)" fill="white"/>
<rect x="66.8931" y="162.126" width="142.643" height="11.1696" transform="rotate(-60.0828 66.8931 162.126)" fill="white"/>
<rect x="99.4534" y="180.864" width="142.643" height="12.1851" transform="rotate(-60.0828 99.4534 180.864)" fill="white"/>
<rect x="132.9" y="200.109" width="142.643" height="12.1851" transform="rotate(-60.0828 132.9 200.109)" fill="white"/>
<rect x="161.062" y="216.314" width="142.643" height="12.1851" transform="rotate(-60.0828 161.062 216.314)" fill="white"/>
<rect x="189.224" y="232.52" width="142.643" height="12.1851" transform="rotate(-60.0828 189.224 232.52)" fill="white"/>
<rect x="217.39" y="248.727" width="142.643" height="12.1851" transform="rotate(-60.0828 217.39 248.727)" fill="white"/>
<rect x="245.554" y="264.932" width="142.643" height="12.1851" transform="rotate(-60.0828 245.554 264.932)" fill="white"/>
<rect x="273.716" y="281.141" width="142.643" height="12.1851" transform="rotate(-60.0828 273.716 281.141)" fill="white"/>
<rect x="308.043" y="300.892" width="35.933" height="110.681" transform="rotate(-60.0828 308.043 300.892)" fill="white"/>
<rect x="334.655" y="254.641" width="35.933" height="109.666" transform="rotate(-60.0828 334.655 254.641)" fill="white"/>
<rect x="361.26" y="208.402" width="35.933" height="110.681" transform="rotate(-60.0828 361.26 208.402)" fill="white"/>
</svg>
