<svg width="170" height="468" viewBox="0 0 170 468" fill="none" xmlns="http://www.w3.org/2000/svg">
<rect x="169.352" y="457.387" width="168.351" height="15.8632" transform="rotate(-180 169.352 457.387)" fill="white"/>
<rect x="169.352" y="407.154" width="168.351" height="15.8632" transform="rotate(-180 169.352 407.154)" fill="white"/>
<rect x="169.352" y="364.852" width="168.351" height="15.8632" transform="rotate(-180 169.352 364.852)" fill="white"/>
<rect x="169.352" y="322.551" width="168.351" height="15.8632" transform="rotate(-180 169.352 322.551)" fill="white"/>
<rect x="169.352" y="280.248" width="168.351" height="15.8632" transform="rotate(-180 169.352 280.248)" fill="white"/>
<rect x="169.352" y="237.947" width="168.351" height="15.8632" transform="rotate(-180 169.352 237.947)" fill="white"/>
<rect x="169.352" y="195.645" width="168.351" height="15.8632" transform="rotate(-180 169.352 195.645)" fill="white"/>
<rect x="169.352" y="144.09" width="42.4091" height="144.09" transform="rotate(-180 169.352 144.09)" fill="white"/>
<rect x="106.381" y="144.09" width="42.4091" height="142.769" transform="rotate(-180 106.381 144.09)" fill="white"/>
<rect x="43.4102" y="144.09" width="42.4091" height="144.09" transform="rotate(-180 43.4102 144.09)" fill="white"/>
</svg>
