<svg width="436" height="386" viewBox="0 0 436 386" fill="none" xmlns="http://www.w3.org/2000/svg">
<rect x="0.994141" y="99.1211" width="126.521" height="11.9216" transform="rotate(-51.0288 0.994141 99.1211)" fill="white"/>
<rect x="30.3438" y="122.867" width="126.521" height="11.9216" transform="rotate(-51.0288 30.3438 122.867)" fill="white"/>
<rect x="59.6943" y="146.609" width="126.521" height="10.9282" transform="rotate(-51.0288 59.6943 146.609)" fill="white"/>
<rect x="88.2725" y="169.73" width="126.521" height="11.9216" transform="rotate(-51.0288 88.2725 169.73)" fill="white"/>
<rect x="117.624" y="193.473" width="126.521" height="11.9216" transform="rotate(-51.0288 117.624 193.473)" fill="white"/>
<rect x="142.339" y="213.465" width="126.521" height="11.9216" transform="rotate(-51.0288 142.339 213.465)" fill="white"/>
<rect x="167.056" y="233.461" width="126.521" height="11.9216" transform="rotate(-51.0288 167.056 233.461)" fill="white"/>
<rect x="191.772" y="253.457" width="126.521" height="11.9216" transform="rotate(-51.0288 191.772 253.457)" fill="white"/>
<rect x="216.489" y="273.449" width="126.521" height="11.9216" transform="rotate(-51.0288 216.489 273.449)" fill="white"/>
<rect x="241.204" y="293.445" width="126.521" height="11.9216" transform="rotate(-51.0288 241.204 293.445)" fill="white"/>
<rect x="271.327" y="317.812" width="31.8717" height="108.288" transform="rotate(-51.0288 271.327 317.812)" fill="white"/>
<rect x="301.091" y="281.02" width="31.8717" height="107.295" transform="rotate(-51.0288 301.091 281.02)" fill="white"/>
<rect x="330.854" y="244.227" width="31.8717" height="108.288" transform="rotate(-51.0288 330.854 244.227)" fill="white"/>
</svg>
