<svg width="802" height="223" viewBox="0 0 802 223" fill="none" xmlns="http://www.w3.org/2000/svg">
<rect x="801.752" width="222.451" height="20.9608" transform="rotate(90 801.752 0)" fill="white"/>
<rect x="735.376" width="222.451" height="20.9608" transform="rotate(90 735.376 0)" fill="white"/>
<rect x="669" width="222.451" height="19.2141" transform="rotate(90 669 0)" fill="white"/>
<rect x="604.37" width="222.451" height="20.9608" transform="rotate(90 604.37 0)" fill="white"/>
<rect x="537.995" width="222.451" height="20.9608" transform="rotate(90 537.995 0)" fill="white"/>
<rect x="482.1" width="222.451" height="20.9608" transform="rotate(90 482.1 0)" fill="white"/>
<rect x="426.204" width="222.451" height="20.9608" transform="rotate(90 426.204 0)" fill="white"/>
<rect x="370.309" width="222.451" height="20.9608" transform="rotate(90 370.309 0)" fill="white"/>
<rect x="314.412" width="222.451" height="20.9608" transform="rotate(90 314.412 0)" fill="white"/>
<rect x="258.518" width="222.451" height="20.9608" transform="rotate(90 258.518 0)" fill="white"/>
<rect x="190.395" width="56.0373" height="190.394" transform="rotate(90 190.395 0)" fill="white"/>
<rect x="190.395" y="83.207" width="56.0373" height="188.647" transform="rotate(90 190.395 83.207)" fill="white"/>
<rect x="190.395" y="166.412" width="56.0373" height="190.394" transform="rotate(90 190.395 166.412)" fill="white"/>
</svg>
