<svg width="532" height="416" viewBox="0 0 532 416" fill="none" xmlns="http://www.w3.org/2000/svg">
<rect x="80.4854" y="415.145" width="148.721" height="14.0135" transform="rotate(-122.764 80.4854 415.145)" fill="white"/>
<rect x="117.803" y="391.129" width="148.721" height="14.0135" transform="rotate(-122.764 117.803 391.129)" fill="white"/>
<rect x="155.119" y="367.113" width="148.721" height="12.8457" transform="rotate(-122.764 155.119 367.113)" fill="white"/>
<rect x="191.453" y="343.73" width="148.721" height="14.0135" transform="rotate(-122.764 191.453 343.73)" fill="white"/>
<rect x="228.769" y="319.715" width="148.721" height="14.0135" transform="rotate(-122.764 228.769 319.715)" fill="white"/>
<rect x="260.192" y="299.492" width="148.721" height="14.0135" transform="rotate(-122.764 260.192 299.492)" fill="white"/>
<rect x="291.617" y="279.266" width="148.721" height="14.0135" transform="rotate(-122.764 291.617 279.266)" fill="white"/>
<rect x="323.041" y="259.043" width="148.721" height="14.0135" transform="rotate(-122.764 323.041 259.043)" fill="white"/>
<rect x="354.465" y="238.82" width="148.721" height="14.0135" transform="rotate(-122.764 354.465 238.82)" fill="white"/>
<rect x="385.889" y="218.598" width="148.721" height="14.0135" transform="rotate(-122.764 385.889 218.598)" fill="white"/>
<rect x="424.188" y="193.949" width="37.4642" height="127.289" transform="rotate(-122.764 424.188 193.949)" fill="white"/>
<rect x="394.082" y="147.172" width="37.4642" height="126.122" transform="rotate(-122.764 394.082 147.172)" fill="white"/>
<rect x="363.977" y="100.393" width="37.4642" height="127.289" transform="rotate(-122.764 363.977 100.393)" fill="white"/>
</svg>
