<svg width="288" height="335" viewBox="0 0 288 335" fill="none" xmlns="http://www.w3.org/2000/svg">
<rect x="222.176" width="83.2602" height="13.3592" transform="rotate(38.161 222.176 0)" fill="white"/>
<rect x="196.035" y="33.2656" width="83.2602" height="13.3592" transform="rotate(38.161 196.035 33.2656)" fill="white"/>
<rect x="169.9" y="66.5273" width="83.2602" height="12.2459" transform="rotate(38.161 169.9 66.5273)" fill="white"/>
<rect x="144.449" y="98.9141" width="83.2602" height="13.3592" transform="rotate(38.161 144.449 98.9141)" fill="#FFEC51"/>
<rect x="118.309" y="132.176" width="83.2602" height="13.3592" transform="rotate(38.161 118.309 132.176)" fill="white"/>
<rect x="96.3008" y="160.186" width="83.2602" height="13.3592" transform="rotate(38.161 96.3008 160.186)" fill="white"/>
<rect x="74.2852" y="188.199" width="83.2602" height="13.3592" transform="rotate(38.161 74.2852 188.199)" fill="#F3A2BC"/>
<rect x="52.2754" y="216.209" width="83.2602" height="13.3592" transform="rotate(38.161 52.2754 216.209)" fill="white"/>
<rect x="30.2676" y="244.223" width="83.2602" height="13.3592" transform="rotate(38.161 30.2676 244.223)" fill="#21B8EB"/>
<rect x="8.25781" y="272.232" width="83.2602" height="13.3592" transform="rotate(38.161 8.25781 272.232)" fill="white"/>
</svg>
