<svg width="332" height="160" viewBox="0 0 332 160" fill="none" xmlns="http://www.w3.org/2000/svg">
<rect y="68.5098" width="71.3882" height="12.0576" transform="rotate(-73.6626 0 68.5098)" fill="white"/>
<rect x="36.6406" y="79.2461" width="71.3882" height="12.0576" transform="rotate(-73.6626 36.6406 79.2461)" fill="white"/>
<rect x="73.2812" y="89.9883" width="71.3882" height="11.0528" transform="rotate(-73.6626 73.2812 89.9883)" fill="white"/>
<rect x="108.959" y="100.445" width="71.3882" height="12.0576" transform="rotate(-73.6626 108.959 100.445)" fill="#FFEC51"/>
<rect x="145.6" y="111.188" width="71.3882" height="12.0576" transform="rotate(-73.6626 145.6 111.188)" fill="white"/>
<rect x="176.457" y="120.232" width="71.3882" height="12.0576" transform="rotate(-73.6626 176.457 120.232)" fill="white"/>
<rect x="207.312" y="129.277" width="71.3882" height="12.0576" transform="rotate(-73.6626 207.312 129.277)" fill="#F3A2BC"/>
<rect x="238.166" y="138.322" width="71.3882" height="12.0576" transform="rotate(-73.6626 238.166 138.322)" fill="white"/>
<rect x="269.021" y="147.365" width="71.3882" height="12.0576" transform="rotate(-73.6626 269.021 147.365)" fill="#21B8EB"/>
<rect x="299.875" y="156.408" width="71.3882" height="12.0576" transform="rotate(-73.6626 299.875 156.408)" fill="white"/>
</svg>
