<svg width="108" height="108" viewBox="0 0 108 108" fill="none" xmlns="http://www.w3.org/2000/svg">
<path d="M76.7892 29.1094L72.9236 32.1152C72.4121 32.5212 71.6986 32.5551 71.151 32.1996C69.8821 31.3543 68.5549 30.5993 67.1797 29.9407C66.5897 29.6532 66.2501 29.0201 66.3367 28.3695L66.9435 23.4935C67.2627 20.935 65.4484 18.6018 62.8902 18.2807L53.6068 17.1268C51.0483 16.8076 48.715 18.6218 48.3939 21.1801L47.7836 26.049C47.7075 26.7003 47.2234 27.23 46.5815 27.3643C45.0841 27.6611 43.6096 28.0635 42.1691 28.5685C41.5501 28.7814 40.8642 28.574 40.4671 28.0537L37.4613 24.1881C35.8777 22.1515 32.9432 21.7843 30.9066 23.3679L23.5317 29.1023C21.4952 30.6858 21.128 33.6204 22.7115 35.657L25.7173 39.5226C26.1234 40.034 26.1574 40.7474 25.8017 41.2952C24.9578 42.5662 24.2045 43.8955 23.5476 45.2726C23.2607 45.8634 22.6273 46.2032 21.9764 46.1157L17.1004 45.5088C14.5435 45.1951 12.2136 47.0067 11.8876 49.5621L10.7273 58.8348C10.4074 61.394 12.2224 63.7282 14.7815 64.0488L21.9515 64.9527C22.8062 65.0459 23.5749 64.4285 23.668 63.5736C23.7589 62.7397 23.1727 61.9835 22.3425 61.8638L15.171 60.9631C14.3179 60.8562 13.7129 60.0782 13.8196 59.2251L14.9799 49.9524C15.0868 49.0994 15.8648 48.4944 16.7179 48.601L21.5951 49.2069C23.5751 49.4606 25.4947 48.4162 26.3575 46.6162C26.9521 45.3716 27.6333 44.1703 28.3963 43.0212C29.4941 41.3582 29.4053 39.1793 28.1756 37.6111L25.1698 33.7455C24.642 33.0667 24.7644 32.0884 25.4432 31.5606L32.8181 25.8262C33.4969 25.2984 34.4752 25.4208 35.003 26.0996L38.0088 29.9652C39.2255 31.543 41.3149 32.1655 43.1967 31.5109C44.499 31.0545 45.8318 30.6902 47.1854 30.4212C49.14 30.0246 50.6226 28.4231 50.8675 26.4438L51.4831 21.5689C51.59 20.7158 52.368 20.1108 53.2211 20.2175L62.4947 21.379C63.3469 21.4863 63.9511 22.2635 63.8452 23.1158L63.2393 27.993C62.9871 29.9728 64.0311 31.8915 65.83 32.7554C67.0746 33.35 68.2758 34.0312 69.425 34.7941C71.0879 35.8925 73.267 35.8036 74.835 34.5735L78.7007 31.5677C79.3795 31.0399 80.3578 31.1623 80.8856 31.8411L86.62 39.216C87.1478 39.8948 87.0254 40.8731 86.3466 41.4009L82.4809 44.4067C80.9032 45.6234 80.2807 47.7128 80.9352 49.5946C81.3918 50.8968 81.756 52.2297 82.025 53.5833C82.4202 55.5387 84.0224 57.0218 86.0024 57.2654L90.8785 57.88C91.7316 57.9869 92.3366 58.765 92.2299 59.618L91.0671 68.8926C90.9598 69.7448 90.1827 70.349 89.3304 70.2431L82.1575 69.3532C81.306 69.2328 80.5183 69.8256 80.398 70.677C80.2776 71.5285 80.8704 72.3163 81.7218 72.4365C81.7395 72.439 81.7575 72.4413 81.7753 72.4432L88.9469 73.334C91.5054 73.6532 93.8386 71.8389 94.1597 69.2807L95.321 60.0093C95.6409 57.45 93.8259 55.1159 91.2668 54.7952L86.3972 54.1814C85.746 54.105 85.2166 53.621 85.0819 52.9794C84.7851 51.482 84.3827 50.0075 83.8776 48.5669C83.6648 47.948 83.8721 47.2621 84.3924 46.865L88.2581 43.8592C90.2946 42.2756 90.6619 39.341 89.0783 37.3045L83.3439 29.9296C81.7603 27.8931 78.8258 27.5259 76.7892 29.1094Z" fill="white"/>
<path d="M55.5283 39.3423C44.4398 37.9665 34.3307 45.827 32.9317 56.9126C32.8398 57.7675 33.4584 58.5352 34.3134 58.6271C35.1473 58.7167 35.9025 58.1295 36.0211 57.2992C37.1326 47.9057 45.6486 41.1921 55.0421 42.3036C64.4355 43.4151 71.1492 51.9311 70.0377 61.3245C70.0287 61.4005 70.0192 61.4765 70.0092 61.5523C69.8877 62.4037 70.4791 63.1922 71.3305 63.3137C72.1818 63.4353 72.9704 62.8438 73.0919 61.9924C73.0944 61.9747 73.0967 61.9567 73.0986 61.9389C74.4744 50.8504 66.6139 40.7413 55.5283 39.3423Z" fill="white"/>
</svg>
