<svg width="218" height="250" viewBox="0 0 218 250" fill="none" xmlns="http://www.w3.org/2000/svg">
<rect y="47.625" width="78.0624" height="6.66835" transform="rotate(-37.5931 0 47.625)" fill="white"/>
<rect x="12.8848" y="64.3594" width="78.0624" height="6.66835" transform="rotate(-37.5931 12.8848 64.3594)" fill="white"/>
<rect x="25.7695" y="81.0898" width="78.0624" height="6.11266" transform="rotate(-37.5931 25.7695 81.0898)" fill="white"/>
<rect x="38.3066" y="97.3809" width="78.0624" height="6.66835" transform="rotate(-37.5931 38.3066 97.3809)" fill="white"/>
<rect x="51.1934" y="114.111" width="78.0624" height="6.66835" transform="rotate(-37.5931 51.1934 114.111)" fill="white"/>
<rect x="62.041" y="128.201" width="78.0624" height="6.66835" transform="rotate(-37.5931 62.041 128.201)" fill="white"/>
<rect x="72.8867" y="142.291" width="78.0624" height="6.66835" transform="rotate(-37.5931 72.8867 142.291)" fill="white"/>
<rect x="83.7363" y="156.381" width="78.0624" height="6.66835" transform="rotate(-37.5931 83.7363 156.381)" fill="white"/>
<rect x="94.582" y="170.469" width="78.0624" height="6.66835" transform="rotate(-37.5931 94.582 170.469)" fill="white"/>
<rect x="105.432" y="184.564" width="78.0624" height="6.66835" transform="rotate(-37.5931 105.432 184.564)" fill="white"/>
<rect x="118.654" y="201.736" width="19.6646" height="60.5709" transform="rotate(-37.5931 118.654 201.736)" fill="white"/>
<rect x="141.789" y="183.92" width="19.6646" height="60.0152" transform="rotate(-37.5931 141.789 183.92)" fill="white"/>
<rect x="164.926" y="166.107" width="19.6646" height="60.5709" transform="rotate(-37.5931 164.926 166.107)" fill="white"/>
</svg>
